<?xml version="1.0" encoding="UTF-8" standalone="no"?>
<!DOCTYPE svg PUBLIC "-//W3C//DTD SVG 1.1//EN"
 "http://www.w3.org/Graphics/SVG/1.1/DTD/svg11.dtd">
<!-- Generated by graphviz version 2.38.0 (20140413.2041)
 -->
<!-- Title: G Pages: 1 -->
<svg width="128pt" height="191pt"
 viewBox="0.00 0.00 128.00 191.00" xmlns="http://www.w3.org/2000/svg" xmlns:xlink="http://www.w3.org/1999/xlink">
<g id="graph0" class="graph" transform="scale(1 1) rotate(0) translate(4 187)">
<title>G</title>
<polygon fill="white" stroke="none" points="-4,4 -4,-187 124,-187 124,4 -4,4"/>
<!-- 140521333004944 -->
<g id="node1" class="node"><title>140521333004944</title>
<polygon fill="none" stroke="black" points="15,-146.5 15,-182.5 105,-182.5 105,-146.5 15,-146.5"/>
<text text-anchor="middle" x="60" y="-160.8" font-family="Times,serif" font-size="14.00">z: InputLayer</text>
</g>
<!-- 140521332758680 -->
<g id="node2" class="node"><title>140521332758680</title>
<polygon fill="none" stroke="black" points="-7.10543e-15,-73.5 -7.10543e-15,-109.5 120,-109.5 120,-73.5 -7.10543e-15,-73.5"/>
<text text-anchor="middle" x="60" y="-87.8" font-family="Times,serif" font-size="14.00">hidden_dec: Dense</text>
</g>
<!-- 140521333004944&#45;&gt;140521332758680 -->
<g id="edge1" class="edge"><title>140521333004944&#45;&gt;140521332758680</title>
<path fill="none" stroke="black" d="M60,-146.313C60,-138.289 60,-128.547 60,-119.569"/>
<polygon fill="black" stroke="black" points="63.5001,-119.529 60,-109.529 56.5001,-119.529 63.5001,-119.529"/>
</g>
<!-- 140521332759744 -->
<g id="node3" class="node"><title>140521332759744</title>
<polygon fill="none" stroke="black" points="12.5,-0.5 12.5,-36.5 107.5,-36.5 107.5,-0.5 12.5,-0.5"/>
<text text-anchor="middle" x="60" y="-14.8" font-family="Times,serif" font-size="14.00">x_pred: Dense</text>
</g>
<!-- 140521332758680&#45;&gt;140521332759744 -->
<g id="edge2" class="edge"><title>140521332758680&#45;&gt;140521332759744</title>
<path fill="none" stroke="black" d="M60,-73.3129C60,-65.2895 60,-55.5475 60,-46.5691"/>
<polygon fill="black" stroke="black" points="63.5001,-46.5288 60,-36.5288 56.5001,-46.5289 63.5001,-46.5288"/>
</g>
</g>
</svg>
