<svg xmlns="http://www.w3.org/2000/svg" xmlns:xlink="http://www.w3.org/1999/xlink" viewBox="0.00 0.00 192.00 191.00" viewport="0 0 1280px 1273px">
<g id="graph0" class="graph" transform="scale(1 1) rotate(0) translate(4 187)">
<title>G</title>
<polygon fill="#ffffff" stroke="transparent" points="-4,4 -4,-187 188,-187 188,4 -4,4"/>
<!-- 140175839431480 -->
<g id="node1" class="node">
<title>140175839431480</title>
<polygon fill="none" stroke="#000000" points="35.5,-146.5 35.5,-182.5 148.5,-182.5 148.5,-146.5 35.5,-146.5"/>
<text text-anchor="middle" x="92" y="-160.8" font-family="Times,serif" font-size="14.00" fill="#000000">z: InputLayer</text>
</g>
<!-- 140175839430864 -->
<g id="node2" class="node">
<title>140175839430864</title>
<polygon fill="none" stroke="#000000" points="0,-73.5 0,-109.5 184,-109.5 184,-73.5 0,-73.5"/>
<text text-anchor="middle" x="92" y="-87.8" font-family="Times,serif" font-size="14.00" fill="#000000">decoder_hidden: Dense</text>
</g>
<!-- 140175839431480&#45;&gt;140175839430864 -->
<g id="edge1" class="edge">
<title>140175839431480-&gt;140175839430864</title>
<path fill="none" stroke="#000000" d="M92,-146.4551C92,-138.3828 92,-128.6764 92,-119.6817"/>
<polygon fill="#000000" stroke="#000000" points="95.5001,-119.5903 92,-109.5904 88.5001,-119.5904 95.5001,-119.5903"/>
</g>
<!-- 140175839430920 -->
<g id="node3" class="node">
<title>140175839430920</title>
<polygon fill="none" stroke="#000000" points="29.5,-.5 29.5,-36.5 154.5,-36.5 154.5,-.5 29.5,-.5"/>
<text text-anchor="middle" x="92" y="-14.8" font-family="Times,serif" font-size="14.00" fill="#000000">x_mean: Dense</text>
</g>
<!-- 140175839430864&#45;&gt;140175839430920 -->
<g id="edge2" class="edge">
<title>140175839430864-&gt;140175839430920</title>
<path fill="none" stroke="#000000" d="M92,-73.4551C92,-65.3828 92,-55.6764 92,-46.6817"/>
<polygon fill="#000000" stroke="#000000" points="95.5001,-46.5903 92,-36.5904 88.5001,-46.5904 95.5001,-46.5903"/>
</g>
</g>
</svg>