<?xml version="1.0" encoding="UTF-8" standalone="no"?>
<!DOCTYPE svg PUBLIC "-//W3C//DTD SVG 1.1//EN"
 "http://www.w3.org/Graphics/SVG/1.1/DTD/svg11.dtd">
<!-- Generated by graphviz version 2.40.1 (20161225.0304)
 -->
<!-- Title: G Pages: 1 -->
<svg width="295pt" height="215pt"
 viewBox="0.00 0.00 295.10 215.00" xmlns="http://www.w3.org/2000/svg" xmlns:xlink="http://www.w3.org/1999/xlink">
<g id="graph0" class="graph" transform="scale(1 1) rotate(0) translate(4 211)">
<title>G</title>
<polygon fill="#ffffff" stroke="transparent" points="-4,4 -4,-211 291.1006,-211 291.1006,4 -4,4"/>
<!-- 4752055992 -->
<g id="node1" class="node">
<title>4752055992</title>
<polygon fill="none" stroke="#000000" points="34.9932,-162.5 34.9932,-206.5 252.1074,-206.5 252.1074,-162.5 34.9932,-162.5"/>
<text text-anchor="middle" x="80.8916" y="-180.3" font-family="Times,serif" font-size="14.00" fill="#000000">z: InputLayer</text>
<polyline fill="none" stroke="#000000" points="126.79,-162.5 126.79,-206.5 "/>
<text text-anchor="middle" x="154.6245" y="-191.3" font-family="Times,serif" font-size="14.00" fill="#000000">input:</text>
<polyline fill="none" stroke="#000000" points="126.79,-184.5 182.459,-184.5 "/>
<text text-anchor="middle" x="154.6245" y="-169.3" font-family="Times,serif" font-size="14.00" fill="#000000">output:</text>
<polyline fill="none" stroke="#000000" points="182.459,-162.5 182.459,-206.5 "/>
<text text-anchor="middle" x="217.2832" y="-191.3" font-family="Times,serif" font-size="14.00" fill="#000000">(None, 2)</text>
<polyline fill="none" stroke="#000000" points="182.459,-184.5 252.1074,-184.5 "/>
<text text-anchor="middle" x="217.2832" y="-169.3" font-family="Times,serif" font-size="14.00" fill="#000000">(None, 2)</text>
</g>
<!-- 4752056160 -->
<g id="node2" class="node">
<title>4752056160</title>
<polygon fill="none" stroke="#000000" points="0,-81.5 0,-125.5 287.1006,-125.5 287.1006,-81.5 0,-81.5"/>
<text text-anchor="middle" x="73.8916" y="-99.3" font-family="Times,serif" font-size="14.00" fill="#000000">decoder_hidden: Dense</text>
<polyline fill="none" stroke="#000000" points="147.7832,-81.5 147.7832,-125.5 "/>
<text text-anchor="middle" x="175.6177" y="-110.3" font-family="Times,serif" font-size="14.00" fill="#000000">input:</text>
<polyline fill="none" stroke="#000000" points="147.7832,-103.5 203.4521,-103.5 "/>
<text text-anchor="middle" x="175.6177" y="-88.3" font-family="Times,serif" font-size="14.00" fill="#000000">output:</text>
<polyline fill="none" stroke="#000000" points="203.4521,-81.5 203.4521,-125.5 "/>
<text text-anchor="middle" x="245.2764" y="-110.3" font-family="Times,serif" font-size="14.00" fill="#000000">(None, 2)</text>
<polyline fill="none" stroke="#000000" points="203.4521,-103.5 287.1006,-103.5 "/>
<text text-anchor="middle" x="245.2764" y="-88.3" font-family="Times,serif" font-size="14.00" fill="#000000">(None, 256)</text>
</g>
<!-- 4752055992&#45;&gt;4752056160 -->
<g id="edge1" class="edge">
<title>4752055992&#45;&gt;4752056160</title>
<path fill="none" stroke="#000000" d="M143.5503,-162.3664C143.5503,-154.1516 143.5503,-144.6579 143.5503,-135.7252"/>
<polygon fill="#000000" stroke="#000000" points="147.0504,-135.6068 143.5503,-125.6068 140.0504,-135.6069 147.0504,-135.6068"/>
</g>
<!-- 4752052856 -->
<g id="node3" class="node">
<title>4752052856</title>
<polygon fill="none" stroke="#000000" points="22.5449,-.5 22.5449,-44.5 264.5557,-44.5 264.5557,-.5 22.5449,-.5"/>
<text text-anchor="middle" x="73.8916" y="-18.3" font-family="Times,serif" font-size="14.00" fill="#000000">x_mean: Dense</text>
<polyline fill="none" stroke="#000000" points="125.2383,-.5 125.2383,-44.5 "/>
<text text-anchor="middle" x="153.0728" y="-29.3" font-family="Times,serif" font-size="14.00" fill="#000000">input:</text>
<polyline fill="none" stroke="#000000" points="125.2383,-22.5 180.9072,-22.5 "/>
<text text-anchor="middle" x="153.0728" y="-7.3" font-family="Times,serif" font-size="14.00" fill="#000000">output:</text>
<polyline fill="none" stroke="#000000" points="180.9072,-.5 180.9072,-44.5 "/>
<text text-anchor="middle" x="222.7314" y="-29.3" font-family="Times,serif" font-size="14.00" fill="#000000">(None, 256)</text>
<polyline fill="none" stroke="#000000" points="180.9072,-22.5 264.5557,-22.5 "/>
<text text-anchor="middle" x="222.7314" y="-7.3" font-family="Times,serif" font-size="14.00" fill="#000000">(None, 784)</text>
</g>
<!-- 4752056160&#45;&gt;4752052856 -->
<g id="edge2" class="edge">
<title>4752056160&#45;&gt;4752052856</title>
<path fill="none" stroke="#000000" d="M143.5503,-81.3664C143.5503,-73.1516 143.5503,-63.6579 143.5503,-54.7252"/>
<polygon fill="#000000" stroke="#000000" points="147.0504,-54.6068 143.5503,-44.6068 140.0504,-54.6069 147.0504,-54.6068"/>
</g>
</g>
</svg>
