<svg xmlns="http://www.w3.org/2000/svg" xmlns:xlink="http://www.w3.org/1999/xlink" viewBox="0.00 0.00 361.00 221.00" viewport="0 0 400px 244px">
<g id="graph0" class="graph" transform="scale(1 1) rotate(0) translate(4 217)">
<title>G</title>
<polygon fill="#ffffff" stroke="transparent" points="-4,4 -4,-217 357,-217 357,4 -4,4"/>
<!-- 140175839431480 -->
<g id="node1" class="node">
<title>140175839431480</title>
<polygon fill="none" stroke="#000000" points="44.5,-166.5 44.5,-212.5 308.5,-212.5 308.5,-166.5 44.5,-166.5"/>
<text text-anchor="middle" x="101" y="-185.8" font-family="Times,serif" font-size="14.00" fill="#000000">z: InputLayer</text>
<polyline fill="none" stroke="#000000" points="157.5,-166.5 157.5,-212.5 "/>
<text text-anchor="middle" x="191.5" y="-197.3" font-family="Times,serif" font-size="14.00" fill="#000000">input:</text>
<polyline fill="none" stroke="#000000" points="157.5,-189.5 225.5,-189.5 "/>
<text text-anchor="middle" x="191.5" y="-174.3" font-family="Times,serif" font-size="14.00" fill="#000000">output:</text>
<polyline fill="none" stroke="#000000" points="225.5,-166.5 225.5,-212.5 "/>
<text text-anchor="middle" x="267" y="-197.3" font-family="Times,serif" font-size="14.00" fill="#000000">(None, 2)</text>
<polyline fill="none" stroke="#000000" points="225.5,-189.5 308.5,-189.5 "/>
<text text-anchor="middle" x="267" y="-174.3" font-family="Times,serif" font-size="14.00" fill="#000000">(None, 2)</text>
</g>
<!-- 140175839430864 -->
<g id="node2" class="node">
<title>140175839430864</title>
<polygon fill="none" stroke="#000000" points="0,-83.5 0,-129.5 353,-129.5 353,-83.5 0,-83.5"/>
<text text-anchor="middle" x="92" y="-102.8" font-family="Times,serif" font-size="14.00" fill="#000000">decoder_hidden: Dense</text>
<polyline fill="none" stroke="#000000" points="184,-83.5 184,-129.5 "/>
<text text-anchor="middle" x="218" y="-114.3" font-family="Times,serif" font-size="14.00" fill="#000000">input:</text>
<polyline fill="none" stroke="#000000" points="184,-106.5 252,-106.5 "/>
<text text-anchor="middle" x="218" y="-91.3" font-family="Times,serif" font-size="14.00" fill="#000000">output:</text>
<polyline fill="none" stroke="#000000" points="252,-83.5 252,-129.5 "/>
<text text-anchor="middle" x="302.5" y="-114.3" font-family="Times,serif" font-size="14.00" fill="#000000">(None, 2)</text>
<polyline fill="none" stroke="#000000" points="252,-106.5 353,-106.5 "/>
<text text-anchor="middle" x="302.5" y="-91.3" font-family="Times,serif" font-size="14.00" fill="#000000">(None, 256)</text>
</g>
<!-- 140175839431480&#45;&gt;140175839430864 -->
<g id="edge1" class="edge">
<title>140175839431480-&gt;140175839430864</title>
<path fill="none" stroke="#000000" d="M176.5,-166.3799C176.5,-158.1745 176.5,-148.7679 176.5,-139.8786"/>
<polygon fill="#000000" stroke="#000000" points="180.0001,-139.784 176.5,-129.784 173.0001,-139.784 180.0001,-139.784"/>
</g>
<!-- 140175839430920 -->
<g id="node3" class="node">
<title>140175839430920</title>
<polygon fill="none" stroke="#000000" points="29.5,-.5 29.5,-46.5 323.5,-46.5 323.5,-.5 29.5,-.5"/>
<text text-anchor="middle" x="92" y="-19.8" font-family="Times,serif" font-size="14.00" fill="#000000">x_mean: Dense</text>
<polyline fill="none" stroke="#000000" points="154.5,-.5 154.5,-46.5 "/>
<text text-anchor="middle" x="188.5" y="-31.3" font-family="Times,serif" font-size="14.00" fill="#000000">input:</text>
<polyline fill="none" stroke="#000000" points="154.5,-23.5 222.5,-23.5 "/>
<text text-anchor="middle" x="188.5" y="-8.3" font-family="Times,serif" font-size="14.00" fill="#000000">output:</text>
<polyline fill="none" stroke="#000000" points="222.5,-.5 222.5,-46.5 "/>
<text text-anchor="middle" x="273" y="-31.3" font-family="Times,serif" font-size="14.00" fill="#000000">(None, 256)</text>
<polyline fill="none" stroke="#000000" points="222.5,-23.5 323.5,-23.5 "/>
<text text-anchor="middle" x="273" y="-8.3" font-family="Times,serif" font-size="14.00" fill="#000000">(None, 784)</text>
</g>
<!-- 140175839430864&#45;&gt;140175839430920 -->
<g id="edge2" class="edge">
<title>140175839430864-&gt;140175839430920</title>
<path fill="none" stroke="#000000" d="M176.5,-83.3799C176.5,-75.1745 176.5,-65.7679 176.5,-56.8786"/>
<polygon fill="#000000" stroke="#000000" points="180.0001,-56.784 176.5,-46.784 173.0001,-56.784 180.0001,-56.784"/>
</g>
</g>
</svg>