<?xml version="1.0" encoding="UTF-8" standalone="no"?>
<!DOCTYPE svg PUBLIC "-//W3C//DTD SVG 1.1//EN"
 "http://www.w3.org/Graphics/SVG/1.1/DTD/svg11.dtd">
<!-- Generated by graphviz version 2.38.0 (20140413.2041)
 -->
<!-- Title: G Pages: 1 -->
<svg width="152pt" height="191pt"
 viewBox="0.00 0.00 152.00 191.00" xmlns="http://www.w3.org/2000/svg" xmlns:xlink="http://www.w3.org/1999/xlink">
<g id="graph0" class="graph" transform="scale(1 1) rotate(0) translate(4 187)">
<title>G</title>
<polygon fill="white" stroke="none" points="-4,4 -4,-187 148,-187 148,4 -4,4"/>
<!-- 140393153441576 -->
<g id="node1" class="node"><title>140393153441576</title>
<polygon fill="none" stroke="black" points="27,-146.5 27,-182.5 117,-182.5 117,-146.5 27,-146.5"/>
<text text-anchor="middle" x="72" y="-160.8" font-family="Times,serif" font-size="14.00">z: InputLayer</text>
</g>
<!-- 140393153440064 -->
<g id="node2" class="node"><title>140393153440064</title>
<polygon fill="none" stroke="black" points="0,-73.5 0,-109.5 144,-109.5 144,-73.5 0,-73.5"/>
<text text-anchor="middle" x="72" y="-87.8" font-family="Times,serif" font-size="14.00">decoder_hidden: Dense</text>
</g>
<!-- 140393153441576&#45;&gt;140393153440064 -->
<g id="edge1" class="edge"><title>140393153441576&#45;&gt;140393153440064</title>
<path fill="none" stroke="black" d="M72,-146.313C72,-138.289 72,-128.547 72,-119.569"/>
<polygon fill="black" stroke="black" points="75.5001,-119.529 72,-109.529 68.5001,-119.529 75.5001,-119.529"/>
</g>
<!-- 140393153440176 -->
<g id="node3" class="node"><title>140393153440176</title>
<polygon fill="none" stroke="black" points="21.5,-0.5 21.5,-36.5 122.5,-36.5 122.5,-0.5 21.5,-0.5"/>
<text text-anchor="middle" x="72" y="-14.8" font-family="Times,serif" font-size="14.00">x_mean: Dense</text>
</g>
<!-- 140393153440064&#45;&gt;140393153440176 -->
<g id="edge2" class="edge"><title>140393153440064&#45;&gt;140393153440176</title>
<path fill="none" stroke="black" d="M72,-73.3129C72,-65.2895 72,-55.5475 72,-46.5691"/>
<polygon fill="black" stroke="black" points="75.5001,-46.5288 72,-36.5288 68.5001,-46.5289 75.5001,-46.5288"/>
</g>
</g>
</svg>
