<svg xmlns="http://www.w3.org/2000/svg" xmlns:xlink="http://www.w3.org/1999/xlink" viewBox="0.00 0.00 155.78 191.00" viewport="0 0 1045px 1280px">
<g id="graph0" class="graph" transform="scale(1 1) rotate(0) translate(4 187)">
<title>G</title>
<polygon fill="#ffffff" stroke="transparent" points="-4,4 -4,-187 151.7832,-187 151.7832,4 -4,4"/>
<!-- 4675688040 -->
<g id="node1" class="node">
<title>4675688040</title>
<polygon fill="none" stroke="#000000" points="27.9932,-146.5 27.9932,-182.5 119.79,-182.5 119.79,-146.5 27.9932,-146.5"/>
<text text-anchor="middle" x="73.8916" y="-160.3" font-family="Times,serif" font-size="14.00" fill="#000000">z: InputLayer</text>
</g>
<!-- 4675687480 -->
<g id="node2" class="node">
<title>4675687480</title>
<polygon fill="none" stroke="#000000" points="0,-73.5 0,-109.5 147.7832,-109.5 147.7832,-73.5 0,-73.5"/>
<text text-anchor="middle" x="73.8916" y="-87.3" font-family="Times,serif" font-size="14.00" fill="#000000">decoder_hidden: Dense</text>
</g>
<!-- 4675688040&#45;&gt;4675687480 -->
<g id="edge1" class="edge">
<title>4675688040-&gt;4675687480</title>
<path fill="none" stroke="#000000" d="M73.8916,-146.4551C73.8916,-138.3828 73.8916,-128.6764 73.8916,-119.6817"/>
<polygon fill="#000000" stroke="#000000" points="77.3917,-119.5903 73.8916,-109.5904 70.3917,-119.5904 77.3917,-119.5903"/>
</g>
<!-- 4675687592 -->
<g id="node3" class="node">
<title>4675687592</title>
<polygon fill="none" stroke="#000000" points="22.5449,-.5 22.5449,-36.5 125.2383,-36.5 125.2383,-.5 22.5449,-.5"/>
<text text-anchor="middle" x="73.8916" y="-14.3" font-family="Times,serif" font-size="14.00" fill="#000000">x_mean: Dense</text>
</g>
<!-- 4675687480&#45;&gt;4675687592 -->
<g id="edge2" class="edge">
<title>4675687480-&gt;4675687592</title>
<path fill="none" stroke="#000000" d="M73.8916,-73.4551C73.8916,-65.3828 73.8916,-55.6764 73.8916,-46.6817"/>
<polygon fill="#000000" stroke="#000000" points="77.3917,-46.5903 73.8916,-36.5904 70.3917,-46.5904 77.3917,-46.5903"/>
</g>
</g>
</svg>