<svg xmlns="http://www.w3.org/2000/svg" xmlns:xlink="http://www.w3.org/1999/xlink" viewBox="0.00 0.00 299.00 636.00" viewport="0 0 188px 400px">
<g id="graph0" class="graph" transform="scale(1 1) rotate(0) translate(4 632)">
<title>G</title>
<polygon fill="white" stroke="none" points="-4,4 -4,-632 295,-632 295,4 -4,4"/>
<!-- 139681465302824 -->
<g id="node1" class="node"><title>139681465302824</title>
<polygon fill="none" stroke="black" points="45,-581.5 45,-627.5 246,-627.5 246,-581.5 45,-581.5"/>
<text text-anchor="middle" x="83.5" y="-600.8" font-family="Times,serif" font-size="14.00">InputLayer</text>
<polyline fill="none" stroke="black" points="122,-581.5 122,-627.5 "/>
<text text-anchor="middle" x="149.5" y="-612.3" font-family="Times,serif" font-size="14.00">input:</text>
<polyline fill="none" stroke="black" points="122,-604.5 177,-604.5 "/>
<text text-anchor="middle" x="149.5" y="-589.3" font-family="Times,serif" font-size="14.00">output:</text>
<polyline fill="none" stroke="black" points="177,-581.5 177,-627.5 "/>
<text text-anchor="middle" x="211.5" y="-612.3" font-family="Times,serif" font-size="14.00">(None, 2)</text>
<polyline fill="none" stroke="black" points="177,-604.5 246,-604.5 "/>
<text text-anchor="middle" x="211.5" y="-589.3" font-family="Times,serif" font-size="14.00">(None, 2)</text>
</g>
<!-- 139681946118296 -->
<g id="node2" class="node"><title>139681946118296</title>
<polygon fill="none" stroke="black" points="51.5,-498.5 51.5,-544.5 239.5,-544.5 239.5,-498.5 51.5,-498.5"/>
<text text-anchor="middle" x="76.5" y="-517.8" font-family="Times,serif" font-size="14.00">Dense</text>
<polyline fill="none" stroke="black" points="101.5,-498.5 101.5,-544.5 "/>
<text text-anchor="middle" x="129" y="-529.3" font-family="Times,serif" font-size="14.00">input:</text>
<polyline fill="none" stroke="black" points="101.5,-521.5 156.5,-521.5 "/>
<text text-anchor="middle" x="129" y="-506.3" font-family="Times,serif" font-size="14.00">output:</text>
<polyline fill="none" stroke="black" points="156.5,-498.5 156.5,-544.5 "/>
<text text-anchor="middle" x="198" y="-529.3" font-family="Times,serif" font-size="14.00">(None, 2)</text>
<polyline fill="none" stroke="black" points="156.5,-521.5 239.5,-521.5 "/>
<text text-anchor="middle" x="198" y="-506.3" font-family="Times,serif" font-size="14.00">(None, 128)</text>
</g>
<!-- 139681465302824&#45;&gt;139681946118296 -->
<g id="edge1" class="edge"><title>139681465302824-&gt;139681946118296</title>
<path fill="none" stroke="black" d="M145.5,-581.366C145.5,-573.152 145.5,-563.658 145.5,-554.725"/>
<polygon fill="black" stroke="black" points="149,-554.607 145.5,-544.607 142,-554.607 149,-554.607"/>
</g>
<!-- 139681946120144 -->
<g id="node3" class="node"><title>139681946120144</title>
<polygon fill="none" stroke="black" points="45,-415.5 45,-461.5 246,-461.5 246,-415.5 45,-415.5"/>
<text text-anchor="middle" x="70" y="-434.8" font-family="Times,serif" font-size="14.00">Dense</text>
<polyline fill="none" stroke="black" points="95,-415.5 95,-461.5 "/>
<text text-anchor="middle" x="122.5" y="-446.3" font-family="Times,serif" font-size="14.00">input:</text>
<polyline fill="none" stroke="black" points="95,-438.5 150,-438.5 "/>
<text text-anchor="middle" x="122.5" y="-423.3" font-family="Times,serif" font-size="14.00">output:</text>
<polyline fill="none" stroke="black" points="150,-415.5 150,-461.5 "/>
<text text-anchor="middle" x="198" y="-446.3" font-family="Times,serif" font-size="14.00">(None, 128)</text>
<polyline fill="none" stroke="black" points="150,-438.5 246,-438.5 "/>
<text text-anchor="middle" x="198" y="-423.3" font-family="Times,serif" font-size="14.00">(None, 12544)</text>
</g>
<!-- 139681946118296&#45;&gt;139681946120144 -->
<g id="edge2" class="edge"><title>139681946118296-&gt;139681946120144</title>
<path fill="none" stroke="black" d="M145.5,-498.366C145.5,-490.152 145.5,-480.658 145.5,-471.725"/>
<polygon fill="black" stroke="black" points="149,-471.607 145.5,-461.607 142,-471.607 149,-471.607"/>
</g>
<!-- 139681946117624 -->
<g id="node4" class="node"><title>139681946117624</title>
<polygon fill="none" stroke="black" points="28,-332.5 28,-378.5 263,-378.5 263,-332.5 28,-332.5"/>
<text text-anchor="middle" x="59" y="-351.8" font-family="Times,serif" font-size="14.00">Reshape</text>
<polyline fill="none" stroke="black" points="90,-332.5 90,-378.5 "/>
<text text-anchor="middle" x="117.5" y="-363.3" font-family="Times,serif" font-size="14.00">input:</text>
<polyline fill="none" stroke="black" points="90,-355.5 145,-355.5 "/>
<text text-anchor="middle" x="117.5" y="-340.3" font-family="Times,serif" font-size="14.00">output:</text>
<polyline fill="none" stroke="black" points="145,-332.5 145,-378.5 "/>
<text text-anchor="middle" x="204" y="-363.3" font-family="Times,serif" font-size="14.00">(None, 12544)</text>
<polyline fill="none" stroke="black" points="145,-355.5 263,-355.5 "/>
<text text-anchor="middle" x="204" y="-340.3" font-family="Times,serif" font-size="14.00">(None, 14, 14, 64)</text>
</g>
<!-- 139681946120144&#45;&gt;139681946117624 -->
<g id="edge3" class="edge"><title>139681946120144-&gt;139681946117624</title>
<path fill="none" stroke="black" d="M145.5,-415.366C145.5,-407.152 145.5,-397.658 145.5,-388.725"/>
<polygon fill="black" stroke="black" points="149,-388.607 145.5,-378.607 142,-388.607 149,-388.607"/>
</g>
<!-- 139681946118072 -->
<g id="node5" class="node"><title>139681946118072</title>
<polygon fill="none" stroke="black" points="-2.84217e-14,-249.5 -2.84217e-14,-295.5 291,-295.5 291,-249.5 -2.84217e-14,-249.5"/>
<text text-anchor="middle" x="59" y="-268.8" font-family="Times,serif" font-size="14.00">Conv2DTranspose</text>
<polyline fill="none" stroke="black" points="118,-249.5 118,-295.5 "/>
<text text-anchor="middle" x="145.5" y="-280.3" font-family="Times,serif" font-size="14.00">input:</text>
<polyline fill="none" stroke="black" points="118,-272.5 173,-272.5 "/>
<text text-anchor="middle" x="145.5" y="-257.3" font-family="Times,serif" font-size="14.00">output:</text>
<polyline fill="none" stroke="black" points="173,-249.5 173,-295.5 "/>
<text text-anchor="middle" x="232" y="-280.3" font-family="Times,serif" font-size="14.00">(None, 14, 14, 64)</text>
<polyline fill="none" stroke="black" points="173,-272.5 291,-272.5 "/>
<text text-anchor="middle" x="232" y="-257.3" font-family="Times,serif" font-size="14.00">(None, 14, 14, 64)</text>
</g>
<!-- 139681946117624&#45;&gt;139681946118072 -->
<g id="edge4" class="edge"><title>139681946117624-&gt;139681946118072</title>
<path fill="none" stroke="black" d="M145.5,-332.366C145.5,-324.152 145.5,-314.658 145.5,-305.725"/>
<polygon fill="black" stroke="black" points="149,-305.607 145.5,-295.607 142,-305.607 149,-305.607"/>
</g>
<!-- 139681946117456 -->
<g id="node6" class="node"><title>139681946117456</title>
<polygon fill="none" stroke="black" points="-2.84217e-14,-166.5 -2.84217e-14,-212.5 291,-212.5 291,-166.5 -2.84217e-14,-166.5"/>
<text text-anchor="middle" x="59" y="-185.8" font-family="Times,serif" font-size="14.00">Conv2DTranspose</text>
<polyline fill="none" stroke="black" points="118,-166.5 118,-212.5 "/>
<text text-anchor="middle" x="145.5" y="-197.3" font-family="Times,serif" font-size="14.00">input:</text>
<polyline fill="none" stroke="black" points="118,-189.5 173,-189.5 "/>
<text text-anchor="middle" x="145.5" y="-174.3" font-family="Times,serif" font-size="14.00">output:</text>
<polyline fill="none" stroke="black" points="173,-166.5 173,-212.5 "/>
<text text-anchor="middle" x="232" y="-197.3" font-family="Times,serif" font-size="14.00">(None, 14, 14, 64)</text>
<polyline fill="none" stroke="black" points="173,-189.5 291,-189.5 "/>
<text text-anchor="middle" x="232" y="-174.3" font-family="Times,serif" font-size="14.00">(None, 14, 14, 64)</text>
</g>
<!-- 139681946118072&#45;&gt;139681946117456 -->
<g id="edge5" class="edge"><title>139681946118072-&gt;139681946117456</title>
<path fill="none" stroke="black" d="M145.5,-249.366C145.5,-241.152 145.5,-231.658 145.5,-222.725"/>
<polygon fill="black" stroke="black" points="149,-222.607 145.5,-212.607 142,-222.607 149,-222.607"/>
</g>
<!-- 139681946117232 -->
<g id="node7" class="node"><title>139681946117232</title>
<polygon fill="none" stroke="black" points="-2.84217e-14,-83.5 -2.84217e-14,-129.5 291,-129.5 291,-83.5 -2.84217e-14,-83.5"/>
<text text-anchor="middle" x="59" y="-102.8" font-family="Times,serif" font-size="14.00">Conv2DTranspose</text>
<polyline fill="none" stroke="black" points="118,-83.5 118,-129.5 "/>
<text text-anchor="middle" x="145.5" y="-114.3" font-family="Times,serif" font-size="14.00">input:</text>
<polyline fill="none" stroke="black" points="118,-106.5 173,-106.5 "/>
<text text-anchor="middle" x="145.5" y="-91.3" font-family="Times,serif" font-size="14.00">output:</text>
<polyline fill="none" stroke="black" points="173,-83.5 173,-129.5 "/>
<text text-anchor="middle" x="232" y="-114.3" font-family="Times,serif" font-size="14.00">(None, 14, 14, 64)</text>
<polyline fill="none" stroke="black" points="173,-106.5 291,-106.5 "/>
<text text-anchor="middle" x="232" y="-91.3" font-family="Times,serif" font-size="14.00">(None, 29, 29, 64)</text>
</g>
<!-- 139681946117456&#45;&gt;139681946117232 -->
<g id="edge6" class="edge"><title>139681946117456-&gt;139681946117232</title>
<path fill="none" stroke="black" d="M145.5,-166.366C145.5,-158.152 145.5,-148.658 145.5,-139.725"/>
<polygon fill="black" stroke="black" points="149,-139.607 145.5,-129.607 142,-139.607 149,-139.607"/>
</g>
<!-- 139681751161488 -->
<g id="node8" class="node"><title>139681751161488</title>
<polygon fill="none" stroke="black" points="28,-0.5 28,-46.5 263,-46.5 263,-0.5 28,-0.5"/>
<text text-anchor="middle" x="59" y="-19.8" font-family="Times,serif" font-size="14.00">Conv2D</text>
<polyline fill="none" stroke="black" points="90,-0.5 90,-46.5 "/>
<text text-anchor="middle" x="117.5" y="-31.3" font-family="Times,serif" font-size="14.00">input:</text>
<polyline fill="none" stroke="black" points="90,-23.5 145,-23.5 "/>
<text text-anchor="middle" x="117.5" y="-8.3" font-family="Times,serif" font-size="14.00">output:</text>
<polyline fill="none" stroke="black" points="145,-0.5 145,-46.5 "/>
<text text-anchor="middle" x="204" y="-31.3" font-family="Times,serif" font-size="14.00">(None, 29, 29, 64)</text>
<polyline fill="none" stroke="black" points="145,-23.5 263,-23.5 "/>
<text text-anchor="middle" x="204" y="-8.3" font-family="Times,serif" font-size="14.00">(None, 28, 28, 1)</text>
</g>
<!-- 139681946117232&#45;&gt;139681751161488 -->
<g id="edge7" class="edge"><title>139681946117232-&gt;139681751161488</title>
<path fill="none" stroke="black" d="M145.5,-83.3664C145.5,-75.1516 145.5,-65.6579 145.5,-56.7252"/>
<polygon fill="black" stroke="black" points="149,-56.6068 145.5,-46.6068 142,-56.6069 149,-56.6068"/>
</g>
</g>
</svg>