<svg xmlns="http://www.w3.org/2000/svg" xmlns:xlink="http://www.w3.org/1999/xlink" viewBox="0.00 0.00 290.00 221.00" viewport="0 0 400px 304px">
<g id="graph0" class="graph" transform="scale(1 1) rotate(0) translate(4 217)">
<title>G</title>
<polygon fill="white" stroke="none" points="-4,4 -4,-217 286,-217 286,4 -4,4"/>
<!-- 140434990562160 -->
<g id="node1" class="node"><title>140434990562160</title>
<polygon fill="none" stroke="black" points="34,-166.5 34,-212.5 248,-212.5 248,-166.5 34,-166.5"/>
<text text-anchor="middle" x="79" y="-185.8" font-family="Times,serif" font-size="14.00">z: InputLayer</text>
<polyline fill="none" stroke="black" points="124,-166.5 124,-212.5 "/>
<text text-anchor="middle" x="151.5" y="-197.3" font-family="Times,serif" font-size="14.00">input:</text>
<polyline fill="none" stroke="black" points="124,-189.5 179,-189.5 "/>
<text text-anchor="middle" x="151.5" y="-174.3" font-family="Times,serif" font-size="14.00">output:</text>
<polyline fill="none" stroke="black" points="179,-166.5 179,-212.5 "/>
<text text-anchor="middle" x="213.5" y="-197.3" font-family="Times,serif" font-size="14.00">(None, 2)</text>
<polyline fill="none" stroke="black" points="179,-189.5 248,-189.5 "/>
<text text-anchor="middle" x="213.5" y="-174.3" font-family="Times,serif" font-size="14.00">(None, 2)</text>
</g>
<!-- 140434991557656 -->
<g id="node2" class="node"><title>140434991557656</title>
<polygon fill="none" stroke="black" points="0,-83.5 0,-129.5 282,-129.5 282,-83.5 0,-83.5"/>
<text text-anchor="middle" x="72" y="-102.8" font-family="Times,serif" font-size="14.00">decoder_hidden: Dense</text>
<polyline fill="none" stroke="black" points="144,-83.5 144,-129.5 "/>
<text text-anchor="middle" x="171.5" y="-114.3" font-family="Times,serif" font-size="14.00">input:</text>
<polyline fill="none" stroke="black" points="144,-106.5 199,-106.5 "/>
<text text-anchor="middle" x="171.5" y="-91.3" font-family="Times,serif" font-size="14.00">output:</text>
<polyline fill="none" stroke="black" points="199,-83.5 199,-129.5 "/>
<text text-anchor="middle" x="240.5" y="-114.3" font-family="Times,serif" font-size="14.00">(None, 2)</text>
<polyline fill="none" stroke="black" points="199,-106.5 282,-106.5 "/>
<text text-anchor="middle" x="240.5" y="-91.3" font-family="Times,serif" font-size="14.00">(None, 256)</text>
</g>
<!-- 140434990562160&#45;&gt;140434991557656 -->
<g id="edge1" class="edge"><title>140434990562160-&gt;140434991557656</title>
<path fill="none" stroke="black" d="M141,-166.366C141,-158.152 141,-148.658 141,-139.725"/>
<polygon fill="black" stroke="black" points="144.5,-139.607 141,-129.607 137.5,-139.607 144.5,-139.607"/>
</g>
<!-- 140434991649456 -->
<g id="node3" class="node"><title>140434991649456</title>
<polygon fill="none" stroke="black" points="21.5,-0.5 21.5,-46.5 260.5,-46.5 260.5,-0.5 21.5,-0.5"/>
<text text-anchor="middle" x="72" y="-19.8" font-family="Times,serif" font-size="14.00">x_mean: Dense</text>
<polyline fill="none" stroke="black" points="122.5,-0.5 122.5,-46.5 "/>
<text text-anchor="middle" x="150" y="-31.3" font-family="Times,serif" font-size="14.00">input:</text>
<polyline fill="none" stroke="black" points="122.5,-23.5 177.5,-23.5 "/>
<text text-anchor="middle" x="150" y="-8.3" font-family="Times,serif" font-size="14.00">output:</text>
<polyline fill="none" stroke="black" points="177.5,-0.5 177.5,-46.5 "/>
<text text-anchor="middle" x="219" y="-31.3" font-family="Times,serif" font-size="14.00">(None, 256)</text>
<polyline fill="none" stroke="black" points="177.5,-23.5 260.5,-23.5 "/>
<text text-anchor="middle" x="219" y="-8.3" font-family="Times,serif" font-size="14.00">(None, 784)</text>
</g>
<!-- 140434991557656&#45;&gt;140434991649456 -->
<g id="edge2" class="edge"><title>140434991557656-&gt;140434991649456</title>
<path fill="none" stroke="black" d="M141,-83.3664C141,-75.1516 141,-65.6579 141,-56.7252"/>
<polygon fill="black" stroke="black" points="144.5,-56.6068 141,-46.6068 137.5,-56.6069 144.5,-56.6068"/>
</g>
</g>
</svg>