<svg xmlns="http://www.w3.org/2000/svg" xmlns:xlink="http://www.w3.org/1999/xlink" viewBox="0.00 0.00 567.24 539.00" viewport="0 0 400px 380px">
<g id="graph0" class="graph" transform="scale(1 1) rotate(0) translate(4 535)">
<title>G</title>
<polygon fill="#ffffff" stroke="transparent" points="-4,4 -4,-535 563.2383,-535 563.2383,4 -4,4"/>
<!-- 4674957264 -->
<g id="node1" class="node">
<title>4674957264</title>
<polygon fill="none" stroke="#000000" points="200.0586,-486.5 200.0586,-530.5 431.959,-530.5 431.959,-486.5 200.0586,-486.5"/>
<text text-anchor="middle" x="246.3501" y="-504.3" font-family="Times,serif" font-size="14.00" fill="#000000">x: InputLayer</text>
<polyline fill="none" stroke="#000000" points="292.6416,-486.5 292.6416,-530.5 "/>
<text text-anchor="middle" x="320.4761" y="-515.3" font-family="Times,serif" font-size="14.00" fill="#000000">input:</text>
<polyline fill="none" stroke="#000000" points="292.6416,-508.5 348.3105,-508.5 "/>
<text text-anchor="middle" x="320.4761" y="-493.3" font-family="Times,serif" font-size="14.00" fill="#000000">output:</text>
<polyline fill="none" stroke="#000000" points="348.3105,-486.5 348.3105,-530.5 "/>
<text text-anchor="middle" x="390.1348" y="-515.3" font-family="Times,serif" font-size="14.00" fill="#000000">(None, 784)</text>
<polyline fill="none" stroke="#000000" points="348.3105,-508.5 431.959,-508.5 "/>
<text text-anchor="middle" x="390.1348" y="-493.3" font-family="Times,serif" font-size="14.00" fill="#000000">(None, 784)</text>
</g>
<!-- 4674024504 -->
<g id="node2" class="node">
<title>4674024504</title>
<polygon fill="none" stroke="#000000" points="172.4585,-405.5 172.4585,-449.5 459.5591,-449.5 459.5591,-405.5 172.4585,-405.5"/>
<text text-anchor="middle" x="246.3501" y="-423.3" font-family="Times,serif" font-size="14.00" fill="#000000">encoder_hidden: Dense</text>
<polyline fill="none" stroke="#000000" points="320.2417,-405.5 320.2417,-449.5 "/>
<text text-anchor="middle" x="348.0762" y="-434.3" font-family="Times,serif" font-size="14.00" fill="#000000">input:</text>
<polyline fill="none" stroke="#000000" points="320.2417,-427.5 375.9106,-427.5 "/>
<text text-anchor="middle" x="348.0762" y="-412.3" font-family="Times,serif" font-size="14.00" fill="#000000">output:</text>
<polyline fill="none" stroke="#000000" points="375.9106,-405.5 375.9106,-449.5 "/>
<text text-anchor="middle" x="417.7349" y="-434.3" font-family="Times,serif" font-size="14.00" fill="#000000">(None, 784)</text>
<polyline fill="none" stroke="#000000" points="375.9106,-427.5 459.5591,-427.5 "/>
<text text-anchor="middle" x="417.7349" y="-412.3" font-family="Times,serif" font-size="14.00" fill="#000000">(None, 256)</text>
</g>
<!-- 4674957264&#45;&gt;4674024504 -->
<g id="edge1" class="edge">
<title>4674957264-&gt;4674024504</title>
<path fill="none" stroke="#000000" d="M316.0088,-486.3664C316.0088,-478.1516 316.0088,-468.6579 316.0088,-459.7252"/>
<polygon fill="#000000" stroke="#000000" points="319.5089,-459.6068 316.0088,-449.6068 312.5089,-459.6069 319.5089,-459.6068"/>
</g>
<!-- 4674956480 -->
<g id="node3" class="node">
<title>4674956480</title>
<polygon fill="none" stroke="#000000" points="85.2173,-324.5 85.2173,-368.5 300.8003,-368.5 300.8003,-324.5 85.2173,-324.5"/>
<text text-anchor="middle" x="123.3501" y="-342.3" font-family="Times,serif" font-size="14.00" fill="#000000">mu: Dense</text>
<polyline fill="none" stroke="#000000" points="161.4829,-324.5 161.4829,-368.5 "/>
<text text-anchor="middle" x="189.3174" y="-353.3" font-family="Times,serif" font-size="14.00" fill="#000000">input:</text>
<polyline fill="none" stroke="#000000" points="161.4829,-346.5 217.1519,-346.5 "/>
<text text-anchor="middle" x="189.3174" y="-331.3" font-family="Times,serif" font-size="14.00" fill="#000000">output:</text>
<polyline fill="none" stroke="#000000" points="217.1519,-324.5 217.1519,-368.5 "/>
<text text-anchor="middle" x="258.9761" y="-353.3" font-family="Times,serif" font-size="14.00" fill="#000000">(None, 256)</text>
<polyline fill="none" stroke="#000000" points="217.1519,-346.5 300.8003,-346.5 "/>
<text text-anchor="middle" x="258.9761" y="-331.3" font-family="Times,serif" font-size="14.00" fill="#000000">(None, 2)</text>
</g>
<!-- 4674024504&#45;&gt;4674956480 -->
<g id="edge2" class="edge">
<title>4674024504-&gt;4674956480</title>
<path fill="none" stroke="#000000" d="M282.3985,-405.3664C267.7548,-395.723 250.4347,-384.3171 234.9581,-374.1252"/>
<polygon fill="#000000" stroke="#000000" points="236.8551,-371.1837 226.5784,-368.6068 233.0052,-377.0299 236.8551,-371.1837"/>
</g>
<!-- 4674956928 -->
<g id="node4" class="node">
<title>4674956928</title>
<polygon fill="none" stroke="#000000" points="318.7793,-324.5 318.7793,-368.5 559.2383,-368.5 559.2383,-324.5 318.7793,-324.5"/>
<text text-anchor="middle" x="369.3501" y="-342.3" font-family="Times,serif" font-size="14.00" fill="#000000">log_var: Dense</text>
<polyline fill="none" stroke="#000000" points="419.9209,-324.5 419.9209,-368.5 "/>
<text text-anchor="middle" x="447.7554" y="-353.3" font-family="Times,serif" font-size="14.00" fill="#000000">input:</text>
<polyline fill="none" stroke="#000000" points="419.9209,-346.5 475.5898,-346.5 "/>
<text text-anchor="middle" x="447.7554" y="-331.3" font-family="Times,serif" font-size="14.00" fill="#000000">output:</text>
<polyline fill="none" stroke="#000000" points="475.5898,-324.5 475.5898,-368.5 "/>
<text text-anchor="middle" x="517.4141" y="-353.3" font-family="Times,serif" font-size="14.00" fill="#000000">(None, 256)</text>
<polyline fill="none" stroke="#000000" points="475.5898,-346.5 559.2383,-346.5 "/>
<text text-anchor="middle" x="517.4141" y="-331.3" font-family="Times,serif" font-size="14.00" fill="#000000">(None, 2)</text>
</g>
<!-- 4674024504&#45;&gt;4674956928 -->
<g id="edge3" class="edge">
<title>4674024504-&gt;4674956928</title>
<path fill="none" stroke="#000000" d="M349.6191,-405.3664C364.2628,-395.723 381.5829,-384.3171 397.0594,-374.1252"/>
<polygon fill="#000000" stroke="#000000" points="399.0124,-377.0299 405.4391,-368.6068 395.1624,-371.1837 399.0124,-377.0299"/>
</g>
<!-- 4675737472 -->
<g id="node5" class="node">
<title>4675737472</title>
<polygon fill="none" stroke="#000000" points="143.4365,-243.5 143.4365,-287.5 488.5811,-287.5 488.5811,-243.5 143.4365,-243.5"/>
<text text-anchor="middle" x="218.3638" y="-261.3" font-family="Times,serif" font-size="14.00" fill="#000000">kl: KLDivergenceLayer</text>
<polyline fill="none" stroke="#000000" points="293.291,-243.5 293.291,-287.5 "/>
<text text-anchor="middle" x="321.1255" y="-272.3" font-family="Times,serif" font-size="14.00" fill="#000000">input:</text>
<polyline fill="none" stroke="#000000" points="293.291,-265.5 348.96,-265.5 "/>
<text text-anchor="middle" x="321.1255" y="-250.3" font-family="Times,serif" font-size="14.00" fill="#000000">output:</text>
<polyline fill="none" stroke="#000000" points="348.96,-243.5 348.96,-287.5 "/>
<text text-anchor="middle" x="418.7705" y="-272.3" font-family="Times,serif" font-size="14.00" fill="#000000">[(None, 2), (None, 2)]</text>
<polyline fill="none" stroke="#000000" points="348.96,-265.5 488.5811,-265.5 "/>
<text text-anchor="middle" x="418.7705" y="-250.3" font-family="Times,serif" font-size="14.00" fill="#000000">[(None, 2), (None, 2)]</text>
</g>
<!-- 4674956480&#45;&gt;4675737472 -->
<g id="edge4" class="edge">
<title>4674956480-&gt;4675737472</title>
<path fill="none" stroke="#000000" d="M226.6191,-324.3664C241.2628,-314.723 258.5829,-303.3171 274.0594,-293.1252"/>
<polygon fill="#000000" stroke="#000000" points="276.0124,-296.0299 282.4391,-287.6068 272.1624,-290.1837 276.0124,-296.0299"/>
</g>
<!-- 4674956928&#45;&gt;4675737472 -->
<g id="edge5" class="edge">
<title>4674956928-&gt;4675737472</title>
<path fill="none" stroke="#000000" d="M405.3985,-324.3664C390.7548,-314.723 373.4347,-303.3171 357.9581,-293.1252"/>
<polygon fill="#000000" stroke="#000000" points="359.8551,-290.1837 349.5784,-287.6068 356.0052,-296.0299 359.8551,-290.1837"/>
</g>
<!-- 4676384024 -->
<g id="node6" class="node">
<title>4676384024</title>
<polygon fill="none" stroke="#000000" points="0,-162.5 0,-206.5 228.0176,-206.5 228.0176,-162.5 0,-162.5"/>
<text text-anchor="middle" x="51.3501" y="-180.3" font-family="Times,serif" font-size="14.00" fill="#000000">sigma: Lambda</text>
<polyline fill="none" stroke="#000000" points="102.7002,-162.5 102.7002,-206.5 "/>
<text text-anchor="middle" x="130.5347" y="-191.3" font-family="Times,serif" font-size="14.00" fill="#000000">input:</text>
<polyline fill="none" stroke="#000000" points="102.7002,-184.5 158.3691,-184.5 "/>
<text text-anchor="middle" x="130.5347" y="-169.3" font-family="Times,serif" font-size="14.00" fill="#000000">output:</text>
<polyline fill="none" stroke="#000000" points="158.3691,-162.5 158.3691,-206.5 "/>
<text text-anchor="middle" x="193.1934" y="-191.3" font-family="Times,serif" font-size="14.00" fill="#000000">(None, 2)</text>
<polyline fill="none" stroke="#000000" points="158.3691,-184.5 228.0176,-184.5 "/>
<text text-anchor="middle" x="193.1934" y="-169.3" font-family="Times,serif" font-size="14.00" fill="#000000">(None, 2)</text>
</g>
<!-- 4675737472&#45;&gt;4676384024 -->
<g id="edge6" class="edge">
<title>4675737472-&gt;4676384024</title>
<path fill="none" stroke="#000000" d="M261.0782,-243.4734C235.5859,-233.2512 205.1102,-221.0308 178.5289,-210.3719"/>
<polygon fill="#000000" stroke="#000000" points="179.5127,-206.9956 168.9284,-206.5222 176.9074,-213.4927 179.5127,-206.9956"/>
</g>
<!-- 4675939408 -->
<g id="node9" class="node">
<title>4675939408</title>
<polygon fill="none" stroke="#000000" points="287.8896,-.5 287.8896,-44.5 550.1279,-44.5 550.1279,-.5 287.8896,-.5"/>
<text text-anchor="middle" x="314.3638" y="-18.3" font-family="Times,serif" font-size="14.00" fill="#000000">z: Add</text>
<polyline fill="none" stroke="#000000" points="340.8379,-.5 340.8379,-44.5 "/>
<text text-anchor="middle" x="368.6724" y="-29.3" font-family="Times,serif" font-size="14.00" fill="#000000">input:</text>
<polyline fill="none" stroke="#000000" points="340.8379,-22.5 396.5068,-22.5 "/>
<text text-anchor="middle" x="368.6724" y="-7.3" font-family="Times,serif" font-size="14.00" fill="#000000">output:</text>
<polyline fill="none" stroke="#000000" points="396.5068,-.5 396.5068,-44.5 "/>
<text text-anchor="middle" x="473.3174" y="-29.3" font-family="Times,serif" font-size="14.00" fill="#000000">[(None, 2), (None, 5, 2)]</text>
<polyline fill="none" stroke="#000000" points="396.5068,-22.5 550.1279,-22.5 "/>
<text text-anchor="middle" x="472.8311" y="-7.3" font-family="Times,serif" font-size="14.00" fill="#000000">(None, 5, 2)</text>
</g>
<!-- 4675737472&#45;&gt;4675939408 -->
<g id="edge9" class="edge">
<title>4675737472-&gt;4675939408</title>
<path fill="none" stroke="#000000" d="M420.1291,-243.4882C455.4173,-233.7606 488.584,-221.2771 499.0088,-207 532.0324,-161.7734 524.3555,-130.9354 499.0088,-81 492.927,-69.0183 483.1111,-58.9028 472.4053,-50.63"/>
<polygon fill="#000000" stroke="#000000" points="474.2569,-47.6507 464.0921,-44.6625 470.1748,-53.3373 474.2569,-47.6507"/>
</g>
<!-- 4674196984 -->
<g id="node8" class="node">
<title>4674196984</title>
<polygon fill="none" stroke="#000000" points="149.6138,-81.5 149.6138,-125.5 490.4038,-125.5 490.4038,-81.5 149.6138,-81.5"/>
<text text-anchor="middle" x="215.3638" y="-99.3" font-family="Times,serif" font-size="14.00" fill="#000000">sigma_eps: Multiply</text>
<polyline fill="none" stroke="#000000" points="281.1138,-81.5 281.1138,-125.5 "/>
<text text-anchor="middle" x="308.9482" y="-110.3" font-family="Times,serif" font-size="14.00" fill="#000000">input:</text>
<polyline fill="none" stroke="#000000" points="281.1138,-103.5 336.7827,-103.5 "/>
<text text-anchor="middle" x="308.9482" y="-88.3" font-family="Times,serif" font-size="14.00" fill="#000000">output:</text>
<polyline fill="none" stroke="#000000" points="336.7827,-81.5 336.7827,-125.5 "/>
<text text-anchor="middle" x="413.5933" y="-110.3" font-family="Times,serif" font-size="14.00" fill="#000000">[(None, 2), (None, 5, 2)]</text>
<polyline fill="none" stroke="#000000" points="336.7827,-103.5 490.4038,-103.5 "/>
<text text-anchor="middle" x="413.1069" y="-88.3" font-family="Times,serif" font-size="14.00" fill="#000000">(None, 5, 2)</text>
</g>
<!-- 4676384024&#45;&gt;4674196984 -->
<g id="edge7" class="edge">
<title>4676384024-&gt;4674196984</title>
<path fill="none" stroke="#000000" d="M170.0271,-162.4734C196.1383,-152.2064 227.3761,-139.9235 254.5675,-129.2318"/>
<polygon fill="#000000" stroke="#000000" points="255.976,-132.4389 264.0016,-125.5222 253.4144,-125.9244 255.976,-132.4389"/>
</g>
<!-- 4675737304 -->
<g id="node7" class="node">
<title>4675737304</title>
<polygon fill="none" stroke="#000000" points="246.2275,-162.5 246.2275,-206.5 489.79,-206.5 489.79,-162.5 246.2275,-162.5"/>
<text text-anchor="middle" x="298.3501" y="-180.3" font-family="Times,serif" font-size="14.00" fill="#000000">eps: InputLayer</text>
<polyline fill="none" stroke="#000000" points="350.4727,-162.5 350.4727,-206.5 "/>
<text text-anchor="middle" x="378.3071" y="-191.3" font-family="Times,serif" font-size="14.00" fill="#000000">input:</text>
<polyline fill="none" stroke="#000000" points="350.4727,-184.5 406.1416,-184.5 "/>
<text text-anchor="middle" x="378.3071" y="-169.3" font-family="Times,serif" font-size="14.00" fill="#000000">output:</text>
<polyline fill="none" stroke="#000000" points="406.1416,-162.5 406.1416,-206.5 "/>
<text text-anchor="middle" x="447.9658" y="-191.3" font-family="Times,serif" font-size="14.00" fill="#000000">(None, 5, 2)</text>
<polyline fill="none" stroke="#000000" points="406.1416,-184.5 489.79,-184.5 "/>
<text text-anchor="middle" x="447.9658" y="-169.3" font-family="Times,serif" font-size="14.00" fill="#000000">(None, 5, 2)</text>
</g>
<!-- 4675737304&#45;&gt;4674196984 -->
<g id="edge8" class="edge">
<title>4675737304-&gt;4674196984</title>
<path fill="none" stroke="#000000" d="M354.8926,-162.3664C349.76,-153.7052 343.7849,-143.6222 338.2452,-134.274"/>
<polygon fill="#000000" stroke="#000000" points="341.2182,-132.4254 333.1091,-125.6068 335.1962,-135.9941 341.2182,-132.4254"/>
</g>
<!-- 4674196984&#45;&gt;4675939408 -->
<g id="edge10" class="edge">
<title>4674196984-&gt;4675939408</title>
<path fill="none" stroke="#000000" d="M347.061,-81.3664C358.5199,-71.9909 372.0151,-60.9494 384.2033,-50.9773"/>
<polygon fill="#000000" stroke="#000000" points="386.4661,-53.6481 391.9893,-44.6068 382.0334,-48.2304 386.4661,-53.6481"/>
</g>
</g>
</svg>