<svg xmlns="http://www.w3.org/2000/svg" xmlns:xlink="http://www.w3.org/1999/xlink" viewBox="0.00 0.00 560.24 539.00" viewport="0 0 400px 385px">
<g id="graph0" class="graph" transform="scale(1 1) rotate(0) translate(4 535)">
<title>G</title>
<polygon fill="#ffffff" stroke="transparent" points="-4,4 -4,-535 556.2383,-535 556.2383,4 -4,4"/>
<!-- 4753000488 -->
<g id="node1" class="node">
<title>4753000488</title>
<polygon fill="none" stroke="#000000" points="193.0586,-486.5 193.0586,-530.5 424.959,-530.5 424.959,-486.5 193.0586,-486.5"/>
<text text-anchor="middle" x="239.3501" y="-504.3" font-family="Times,serif" font-size="14.00" fill="#000000">x: InputLayer</text>
<polyline fill="none" stroke="#000000" points="285.6416,-486.5 285.6416,-530.5 "/>
<text text-anchor="middle" x="313.4761" y="-515.3" font-family="Times,serif" font-size="14.00" fill="#000000">input:</text>
<polyline fill="none" stroke="#000000" points="285.6416,-508.5 341.3105,-508.5 "/>
<text text-anchor="middle" x="313.4761" y="-493.3" font-family="Times,serif" font-size="14.00" fill="#000000">output:</text>
<polyline fill="none" stroke="#000000" points="341.3105,-486.5 341.3105,-530.5 "/>
<text text-anchor="middle" x="383.1348" y="-515.3" font-family="Times,serif" font-size="14.00" fill="#000000">(None, 784)</text>
<polyline fill="none" stroke="#000000" points="341.3105,-508.5 424.959,-508.5 "/>
<text text-anchor="middle" x="383.1348" y="-493.3" font-family="Times,serif" font-size="14.00" fill="#000000">(None, 784)</text>
</g>
<!-- 4752772680 -->
<g id="node2" class="node">
<title>4752772680</title>
<polygon fill="none" stroke="#000000" points="165.4585,-405.5 165.4585,-449.5 452.5591,-449.5 452.5591,-405.5 165.4585,-405.5"/>
<text text-anchor="middle" x="239.3501" y="-423.3" font-family="Times,serif" font-size="14.00" fill="#000000">encoder_hidden: Dense</text>
<polyline fill="none" stroke="#000000" points="313.2417,-405.5 313.2417,-449.5 "/>
<text text-anchor="middle" x="341.0762" y="-434.3" font-family="Times,serif" font-size="14.00" fill="#000000">input:</text>
<polyline fill="none" stroke="#000000" points="313.2417,-427.5 368.9106,-427.5 "/>
<text text-anchor="middle" x="341.0762" y="-412.3" font-family="Times,serif" font-size="14.00" fill="#000000">output:</text>
<polyline fill="none" stroke="#000000" points="368.9106,-405.5 368.9106,-449.5 "/>
<text text-anchor="middle" x="410.7349" y="-434.3" font-family="Times,serif" font-size="14.00" fill="#000000">(None, 784)</text>
<polyline fill="none" stroke="#000000" points="368.9106,-427.5 452.5591,-427.5 "/>
<text text-anchor="middle" x="410.7349" y="-412.3" font-family="Times,serif" font-size="14.00" fill="#000000">(None, 256)</text>
</g>
<!-- 4753000488&#45;&gt;4752772680 -->
<g id="edge1" class="edge">
<title>4753000488-&gt;4752772680</title>
<path fill="none" stroke="#000000" d="M309.0088,-486.3664C309.0088,-478.1516 309.0088,-468.6579 309.0088,-459.7252"/>
<polygon fill="#000000" stroke="#000000" points="312.5089,-459.6068 309.0088,-449.6068 305.5089,-459.6069 312.5089,-459.6068"/>
</g>
<!-- 4752877888 -->
<g id="node3" class="node">
<title>4752877888</title>
<polygon fill="none" stroke="#000000" points="78.2173,-324.5 78.2173,-368.5 293.8003,-368.5 293.8003,-324.5 78.2173,-324.5"/>
<text text-anchor="middle" x="116.3501" y="-342.3" font-family="Times,serif" font-size="14.00" fill="#000000">mu: Dense</text>
<polyline fill="none" stroke="#000000" points="154.4829,-324.5 154.4829,-368.5 "/>
<text text-anchor="middle" x="182.3174" y="-353.3" font-family="Times,serif" font-size="14.00" fill="#000000">input:</text>
<polyline fill="none" stroke="#000000" points="154.4829,-346.5 210.1519,-346.5 "/>
<text text-anchor="middle" x="182.3174" y="-331.3" font-family="Times,serif" font-size="14.00" fill="#000000">output:</text>
<polyline fill="none" stroke="#000000" points="210.1519,-324.5 210.1519,-368.5 "/>
<text text-anchor="middle" x="251.9761" y="-353.3" font-family="Times,serif" font-size="14.00" fill="#000000">(None, 256)</text>
<polyline fill="none" stroke="#000000" points="210.1519,-346.5 293.8003,-346.5 "/>
<text text-anchor="middle" x="251.9761" y="-331.3" font-family="Times,serif" font-size="14.00" fill="#000000">(None, 2)</text>
</g>
<!-- 4752772680&#45;&gt;4752877888 -->
<g id="edge2" class="edge">
<title>4752772680-&gt;4752877888</title>
<path fill="none" stroke="#000000" d="M275.3985,-405.3664C260.7548,-395.723 243.4347,-384.3171 227.9581,-374.1252"/>
<polygon fill="#000000" stroke="#000000" points="229.8551,-371.1837 219.5784,-368.6068 226.0052,-377.0299 229.8551,-371.1837"/>
</g>
<!-- 4753006040 -->
<g id="node4" class="node">
<title>4753006040</title>
<polygon fill="none" stroke="#000000" points="311.7793,-324.5 311.7793,-368.5 552.2383,-368.5 552.2383,-324.5 311.7793,-324.5"/>
<text text-anchor="middle" x="362.3501" y="-342.3" font-family="Times,serif" font-size="14.00" fill="#000000">log_var: Dense</text>
<polyline fill="none" stroke="#000000" points="412.9209,-324.5 412.9209,-368.5 "/>
<text text-anchor="middle" x="440.7554" y="-353.3" font-family="Times,serif" font-size="14.00" fill="#000000">input:</text>
<polyline fill="none" stroke="#000000" points="412.9209,-346.5 468.5898,-346.5 "/>
<text text-anchor="middle" x="440.7554" y="-331.3" font-family="Times,serif" font-size="14.00" fill="#000000">output:</text>
<polyline fill="none" stroke="#000000" points="468.5898,-324.5 468.5898,-368.5 "/>
<text text-anchor="middle" x="510.4141" y="-353.3" font-family="Times,serif" font-size="14.00" fill="#000000">(None, 256)</text>
<polyline fill="none" stroke="#000000" points="468.5898,-346.5 552.2383,-346.5 "/>
<text text-anchor="middle" x="510.4141" y="-331.3" font-family="Times,serif" font-size="14.00" fill="#000000">(None, 2)</text>
</g>
<!-- 4752772680&#45;&gt;4753006040 -->
<g id="edge3" class="edge">
<title>4752772680-&gt;4753006040</title>
<path fill="none" stroke="#000000" d="M342.6191,-405.3664C357.2628,-395.723 374.5829,-384.3171 390.0594,-374.1252"/>
<polygon fill="#000000" stroke="#000000" points="392.0124,-377.0299 398.4391,-368.6068 388.1624,-371.1837 392.0124,-377.0299"/>
</g>
<!-- 4752605312 -->
<g id="node5" class="node">
<title>4752605312</title>
<polygon fill="none" stroke="#000000" points="136.4365,-243.5 136.4365,-287.5 481.5811,-287.5 481.5811,-243.5 136.4365,-243.5"/>
<text text-anchor="middle" x="211.3638" y="-261.3" font-family="Times,serif" font-size="14.00" fill="#000000">kl: KLDivergenceLayer</text>
<polyline fill="none" stroke="#000000" points="286.291,-243.5 286.291,-287.5 "/>
<text text-anchor="middle" x="314.1255" y="-272.3" font-family="Times,serif" font-size="14.00" fill="#000000">input:</text>
<polyline fill="none" stroke="#000000" points="286.291,-265.5 341.96,-265.5 "/>
<text text-anchor="middle" x="314.1255" y="-250.3" font-family="Times,serif" font-size="14.00" fill="#000000">output:</text>
<polyline fill="none" stroke="#000000" points="341.96,-243.5 341.96,-287.5 "/>
<text text-anchor="middle" x="411.7705" y="-272.3" font-family="Times,serif" font-size="14.00" fill="#000000">[(None, 2), (None, 2)]</text>
<polyline fill="none" stroke="#000000" points="341.96,-265.5 481.5811,-265.5 "/>
<text text-anchor="middle" x="411.7705" y="-250.3" font-family="Times,serif" font-size="14.00" fill="#000000">[(None, 2), (None, 2)]</text>
</g>
<!-- 4752877888&#45;&gt;4752605312 -->
<g id="edge4" class="edge">
<title>4752877888-&gt;4752605312</title>
<path fill="none" stroke="#000000" d="M219.6191,-324.3664C234.2628,-314.723 251.5829,-303.3171 267.0594,-293.1252"/>
<polygon fill="#000000" stroke="#000000" points="269.0124,-296.0299 275.4391,-287.6068 265.1624,-290.1837 269.0124,-296.0299"/>
</g>
<!-- 4753006040&#45;&gt;4752605312 -->
<g id="edge5" class="edge">
<title>4753006040-&gt;4752605312</title>
<path fill="none" stroke="#000000" d="M398.3985,-324.3664C383.7548,-314.723 366.4347,-303.3171 350.9581,-293.1252"/>
<polygon fill="#000000" stroke="#000000" points="352.8551,-290.1837 342.5784,-287.6068 349.0052,-296.0299 352.8551,-290.1837"/>
</g>
<!-- 4752981184 -->
<g id="node6" class="node">
<title>4752981184</title>
<polygon fill="none" stroke="#000000" points="0,-162.5 0,-206.5 228.0176,-206.5 228.0176,-162.5 0,-162.5"/>
<text text-anchor="middle" x="51.3501" y="-180.3" font-family="Times,serif" font-size="14.00" fill="#000000">sigma: Lambda</text>
<polyline fill="none" stroke="#000000" points="102.7002,-162.5 102.7002,-206.5 "/>
<text text-anchor="middle" x="130.5347" y="-191.3" font-family="Times,serif" font-size="14.00" fill="#000000">input:</text>
<polyline fill="none" stroke="#000000" points="102.7002,-184.5 158.3691,-184.5 "/>
<text text-anchor="middle" x="130.5347" y="-169.3" font-family="Times,serif" font-size="14.00" fill="#000000">output:</text>
<polyline fill="none" stroke="#000000" points="158.3691,-162.5 158.3691,-206.5 "/>
<text text-anchor="middle" x="193.1934" y="-191.3" font-family="Times,serif" font-size="14.00" fill="#000000">(None, 2)</text>
<polyline fill="none" stroke="#000000" points="158.3691,-184.5 228.0176,-184.5 "/>
<text text-anchor="middle" x="193.1934" y="-169.3" font-family="Times,serif" font-size="14.00" fill="#000000">(None, 2)</text>
</g>
<!-- 4752605312&#45;&gt;4752981184 -->
<g id="edge6" class="edge">
<title>4752605312-&gt;4752981184</title>
<path fill="none" stroke="#000000" d="M255.9818,-243.4734C231.3728,-233.2512 201.9532,-221.0308 176.293,-210.3719"/>
<polygon fill="#000000" stroke="#000000" points="177.6029,-207.1261 167.0253,-206.5222 174.9176,-213.5906 177.6029,-207.1261"/>
</g>
<!-- 4753587056 -->
<g id="node9" class="node">
<title>4753587056</title>
<polygon fill="none" stroke="#000000" points="283.8896,-.5 283.8896,-44.5 532.1279,-44.5 532.1279,-.5 283.8896,-.5"/>
<text text-anchor="middle" x="310.3638" y="-18.3" font-family="Times,serif" font-size="14.00" fill="#000000">z: Add</text>
<polyline fill="none" stroke="#000000" points="336.8379,-.5 336.8379,-44.5 "/>
<text text-anchor="middle" x="364.6724" y="-29.3" font-family="Times,serif" font-size="14.00" fill="#000000">input:</text>
<polyline fill="none" stroke="#000000" points="336.8379,-22.5 392.5068,-22.5 "/>
<text text-anchor="middle" x="364.6724" y="-7.3" font-family="Times,serif" font-size="14.00" fill="#000000">output:</text>
<polyline fill="none" stroke="#000000" points="392.5068,-.5 392.5068,-44.5 "/>
<text text-anchor="middle" x="462.3174" y="-29.3" font-family="Times,serif" font-size="14.00" fill="#000000">[(None, 2), (None, 2)]</text>
<polyline fill="none" stroke="#000000" points="392.5068,-22.5 532.1279,-22.5 "/>
<text text-anchor="middle" x="461.8311" y="-7.3" font-family="Times,serif" font-size="14.00" fill="#000000">(None, 2)</text>
</g>
<!-- 4752605312&#45;&gt;4753587056 -->
<g id="edge9" class="edge">
<title>4752605312-&gt;4753587056</title>
<path fill="none" stroke="#000000" d="M407.7471,-243.4521C442.2266,-233.5994 474.8832,-221.0359 485.0088,-207 517.7719,-161.5844 509.8972,-131.1654 485.0088,-81 479.1224,-69.1354 469.5516,-59.0278 459.1262,-50.721"/>
<polygon fill="#000000" stroke="#000000" points="461.1514,-47.8655 451.034,-44.7205 456.9819,-53.4883 461.1514,-47.8655"/>
</g>
<!-- 4752981688 -->
<g id="node8" class="node">
<title>4752981688</title>
<polygon fill="none" stroke="#000000" points="149.6138,-81.5 149.6138,-125.5 476.4038,-125.5 476.4038,-81.5 149.6138,-81.5"/>
<text text-anchor="middle" x="215.3638" y="-99.3" font-family="Times,serif" font-size="14.00" fill="#000000">sigma_eps: Multiply</text>
<polyline fill="none" stroke="#000000" points="281.1138,-81.5 281.1138,-125.5 "/>
<text text-anchor="middle" x="308.9482" y="-110.3" font-family="Times,serif" font-size="14.00" fill="#000000">input:</text>
<polyline fill="none" stroke="#000000" points="281.1138,-103.5 336.7827,-103.5 "/>
<text text-anchor="middle" x="308.9482" y="-88.3" font-family="Times,serif" font-size="14.00" fill="#000000">output:</text>
<polyline fill="none" stroke="#000000" points="336.7827,-81.5 336.7827,-125.5 "/>
<text text-anchor="middle" x="406.5933" y="-110.3" font-family="Times,serif" font-size="14.00" fill="#000000">[(None, 2), (None, 2)]</text>
<polyline fill="none" stroke="#000000" points="336.7827,-103.5 476.4038,-103.5 "/>
<text text-anchor="middle" x="406.1069" y="-88.3" font-family="Times,serif" font-size="14.00" fill="#000000">(None, 2)</text>
</g>
<!-- 4752981184&#45;&gt;4752981688 -->
<g id="edge7" class="edge">
<title>4752981184-&gt;4752981688</title>
<path fill="none" stroke="#000000" d="M168.1236,-162.4734C193.2373,-152.2512 223.2604,-140.0308 249.4469,-129.3719"/>
<polygon fill="#000000" stroke="#000000" points="250.9622,-132.534 258.9048,-125.5222 248.3231,-126.0506 250.9622,-132.534"/>
</g>
<!-- 4752981968 -->
<g id="node7" class="node">
<title>4752981968</title>
<polygon fill="none" stroke="#000000" points="246.2275,-162.5 246.2275,-206.5 475.79,-206.5 475.79,-162.5 246.2275,-162.5"/>
<text text-anchor="middle" x="298.3501" y="-180.3" font-family="Times,serif" font-size="14.00" fill="#000000">eps: InputLayer</text>
<polyline fill="none" stroke="#000000" points="350.4727,-162.5 350.4727,-206.5 "/>
<text text-anchor="middle" x="378.3071" y="-191.3" font-family="Times,serif" font-size="14.00" fill="#000000">input:</text>
<polyline fill="none" stroke="#000000" points="350.4727,-184.5 406.1416,-184.5 "/>
<text text-anchor="middle" x="378.3071" y="-169.3" font-family="Times,serif" font-size="14.00" fill="#000000">output:</text>
<polyline fill="none" stroke="#000000" points="406.1416,-162.5 406.1416,-206.5 "/>
<text text-anchor="middle" x="440.9658" y="-191.3" font-family="Times,serif" font-size="14.00" fill="#000000">(None, 2)</text>
<polyline fill="none" stroke="#000000" points="406.1416,-184.5 475.79,-184.5 "/>
<text text-anchor="middle" x="440.9658" y="-169.3" font-family="Times,serif" font-size="14.00" fill="#000000">(None, 2)</text>
</g>
<!-- 4752981968&#45;&gt;4752981688 -->
<g id="edge8" class="edge">
<title>4752981968-&gt;4752981688</title>
<path fill="none" stroke="#000000" d="M347.8926,-162.3664C342.76,-153.7052 336.7849,-143.6222 331.2452,-134.274"/>
<polygon fill="#000000" stroke="#000000" points="334.2182,-132.4254 326.1091,-125.6068 328.1962,-135.9941 334.2182,-132.4254"/>
</g>
<!-- 4752981688&#45;&gt;4753587056 -->
<g id="edge10" class="edge">
<title>4752981688-&gt;4753587056</title>
<path fill="none" stroke="#000000" d="M338.968,-81.3664C349.8592,-72.0802 362.6674,-61.1595 374.275,-51.2625"/>
<polygon fill="#000000" stroke="#000000" points="376.7423,-53.7583 382.081,-44.6068 372.2006,-48.4316 376.7423,-53.7583"/>
</g>
</g>
</svg>