<?xml version="1.0" encoding="UTF-8" standalone="no"?>
<!DOCTYPE svg PUBLIC "-//W3C//DTD SVG 1.1//EN"
 "http://www.w3.org/Graphics/SVG/1.1/DTD/svg11.dtd">
<!-- Generated by graphviz version 2.38.0 (20140413.2041)
 -->
<!-- Title: G Pages: 1 -->
<svg width="318pt" height="410pt"
 viewBox="0.00 0.00 318.00 410.00" xmlns="http://www.w3.org/2000/svg" xmlns:xlink="http://www.w3.org/1999/xlink">
<g id="graph0" class="graph" transform="scale(1 1) rotate(0) translate(4 406)">
<title>G</title>
<polygon fill="white" stroke="none" points="-4,4 -4,-406 314,-406 314,4 -4,4"/>
<!-- 139691752753696 -->
<g id="node1" class="node"><title>139691752753696</title>
<polygon fill="none" stroke="black" points="151.5,-365.5 151.5,-401.5 242.5,-401.5 242.5,-365.5 151.5,-365.5"/>
<text text-anchor="middle" x="197" y="-379.8" font-family="Times,serif" font-size="14.00">x: InputLayer</text>
</g>
<!-- 139691752809528 -->
<g id="node2" class="node"><title>139691752809528</title>
<polygon fill="none" stroke="black" points="125,-292.5 125,-328.5 269,-328.5 269,-292.5 125,-292.5"/>
<text text-anchor="middle" x="197" y="-306.8" font-family="Times,serif" font-size="14.00">encoder_hidden: Dense</text>
</g>
<!-- 139691752753696&#45;&gt;139691752809528 -->
<g id="edge1" class="edge"><title>139691752753696&#45;&gt;139691752809528</title>
<path fill="none" stroke="black" d="M197,-365.313C197,-357.289 197,-347.547 197,-338.569"/>
<polygon fill="black" stroke="black" points="200.5,-338.529 197,-328.529 193.5,-338.529 200.5,-338.529"/>
</g>
<!-- 139691752752744 -->
<g id="node3" class="node"><title>139691752752744</title>
<polygon fill="none" stroke="black" points="73.5,-219.5 73.5,-255.5 172.5,-255.5 172.5,-219.5 73.5,-219.5"/>
<text text-anchor="middle" x="123" y="-233.8" font-family="Times,serif" font-size="14.00">log_var: Dense</text>
</g>
<!-- 139691752809528&#45;&gt;139691752752744 -->
<g id="edge2" class="edge"><title>139691752809528&#45;&gt;139691752752744</title>
<path fill="none" stroke="black" d="M179.087,-292.313C169.815,-283.417 158.342,-272.409 148.193,-262.672"/>
<polygon fill="black" stroke="black" points="150.387,-259.927 140.748,-255.529 145.541,-264.978 150.387,-259.927"/>
</g>
<!-- 139691752796568 -->
<g id="node6" class="node"><title>139691752796568</title>
<polygon fill="none" stroke="black" points="234,-73.5 234,-109.5 310,-109.5 310,-73.5 234,-73.5"/>
<text text-anchor="middle" x="272" y="-87.8" font-family="Times,serif" font-size="14.00">mu: Dense</text>
</g>
<!-- 139691752809528&#45;&gt;139691752796568 -->
<g id="edge4" class="edge"><title>139691752809528&#45;&gt;139691752796568</title>
<path fill="none" stroke="black" d="M205.742,-292.314C217.632,-268.356 238.915,-223.318 252,-183 258.768,-162.146 263.997,-137.853 267.409,-119.689"/>
<polygon fill="black" stroke="black" points="270.866,-120.24 269.205,-109.776 263.978,-118.992 270.866,-120.24"/>
</g>
<!-- 139691752753920 -->
<g id="node4" class="node"><title>139691752753920</title>
<polygon fill="none" stroke="black" points="0,-146.5 0,-182.5 102,-182.5 102,-146.5 0,-146.5"/>
<text text-anchor="middle" x="51" y="-160.8" font-family="Times,serif" font-size="14.00">sigma: Lambda</text>
</g>
<!-- 139691752752744&#45;&gt;139691752753920 -->
<g id="edge3" class="edge"><title>139691752752744&#45;&gt;139691752753920</title>
<path fill="none" stroke="black" d="M105.571,-219.313C96.55,-210.417 85.387,-199.409 75.5121,-189.672"/>
<polygon fill="black" stroke="black" points="77.8466,-187.058 68.2687,-182.529 72.9315,-192.042 77.8466,-187.058"/>
</g>
<!-- 139691753248472 -->
<g id="node7" class="node"><title>139691753248472</title>
<polygon fill="none" stroke="black" points="112.5,-73.5 112.5,-109.5 215.5,-109.5 215.5,-73.5 112.5,-73.5"/>
<text text-anchor="middle" x="164" y="-87.8" font-family="Times,serif" font-size="14.00">z_eps: Multiply</text>
</g>
<!-- 139691752753920&#45;&gt;139691753248472 -->
<g id="edge5" class="edge"><title>139691752753920&#45;&gt;139691753248472</title>
<path fill="none" stroke="black" d="M78.0663,-146.494C93.0511,-137.079 111.868,-125.255 128.071,-115.075"/>
<polygon fill="black" stroke="black" points="130.158,-117.897 136.763,-109.614 126.433,-111.97 130.158,-117.897"/>
</g>
<!-- 139691753250432 -->
<g id="node5" class="node"><title>139691753250432</title>
<polygon fill="none" stroke="black" points="120.5,-146.5 120.5,-182.5 243.5,-182.5 243.5,-146.5 120.5,-146.5"/>
<text text-anchor="middle" x="182" y="-160.8" font-family="Times,serif" font-size="14.00">epsilon: InputLayer</text>
</g>
<!-- 139691753250432&#45;&gt;139691753248472 -->
<g id="edge6" class="edge"><title>139691753250432&#45;&gt;139691753248472</title>
<path fill="none" stroke="black" d="M177.643,-146.313C175.586,-138.202 173.085,-128.336 170.788,-119.277"/>
<polygon fill="black" stroke="black" points="174.167,-118.362 168.317,-109.529 167.382,-120.082 174.167,-118.362"/>
</g>
<!-- 139691753250264 -->
<g id="node8" class="node"><title>139691753250264</title>
<polygon fill="none" stroke="black" points="191,-0.5 191,-36.5 245,-36.5 245,-0.5 191,-0.5"/>
<text text-anchor="middle" x="218" y="-14.8" font-family="Times,serif" font-size="14.00">z: Add</text>
</g>
<!-- 139691752796568&#45;&gt;139691753250264 -->
<g id="edge7" class="edge"><title>139691752796568&#45;&gt;139691753250264</title>
<path fill="none" stroke="black" d="M258.928,-73.3129C252.362,-64.679 244.281,-54.0551 237.04,-44.5341"/>
<polygon fill="black" stroke="black" points="239.791,-42.3695 230.952,-36.5288 234.219,-46.6071 239.791,-42.3695"/>
</g>
<!-- 139691753248472&#45;&gt;139691753250264 -->
<g id="edge8" class="edge"><title>139691753248472&#45;&gt;139691753250264</title>
<path fill="none" stroke="black" d="M177.072,-73.3129C183.638,-64.679 191.719,-54.0551 198.96,-44.5341"/>
<polygon fill="black" stroke="black" points="201.781,-46.6071 205.048,-36.5288 196.209,-42.3695 201.781,-46.6071"/>
</g>
</g>
</svg>
