<svg xmlns="http://www.w3.org/2000/svg" xmlns:xlink="http://www.w3.org/1999/xlink" viewBox="0.00 0.00 635.00 470.00" viewport="0 0 400px 296px">
<g id="graph0" class="graph" transform="scale(1 1) rotate(0) translate(4 466)">
<title>G</title>
<polygon fill="white" stroke="none" points="-4,4 -4,-466 631,-466 631,4 -4,4"/>
<!-- 139691752753696 -->
<g id="node1" class="node"><title>139691752753696</title>
<polygon fill="none" stroke="black" points="266.5,-415.5 266.5,-461.5 495.5,-461.5 495.5,-415.5 266.5,-415.5"/>
<text text-anchor="middle" x="312" y="-434.8" font-family="Times,serif" font-size="14.00">x: InputLayer</text>
<polyline fill="none" stroke="black" points="357.5,-415.5 357.5,-461.5 "/>
<text text-anchor="middle" x="385" y="-446.3" font-family="Times,serif" font-size="14.00">input:</text>
<polyline fill="none" stroke="black" points="357.5,-438.5 412.5,-438.5 "/>
<text text-anchor="middle" x="385" y="-423.3" font-family="Times,serif" font-size="14.00">output:</text>
<polyline fill="none" stroke="black" points="412.5,-415.5 412.5,-461.5 "/>
<text text-anchor="middle" x="454" y="-446.3" font-family="Times,serif" font-size="14.00">(None, 784)</text>
<polyline fill="none" stroke="black" points="412.5,-438.5 495.5,-438.5 "/>
<text text-anchor="middle" x="454" y="-423.3" font-family="Times,serif" font-size="14.00">(None, 784)</text>
</g>
<!-- 139691752809528 -->
<g id="node2" class="node"><title>139691752809528</title>
<polygon fill="none" stroke="black" points="240,-332.5 240,-378.5 522,-378.5 522,-332.5 240,-332.5"/>
<text text-anchor="middle" x="312" y="-351.8" font-family="Times,serif" font-size="14.00">encoder_hidden: Dense</text>
<polyline fill="none" stroke="black" points="384,-332.5 384,-378.5 "/>
<text text-anchor="middle" x="411.5" y="-363.3" font-family="Times,serif" font-size="14.00">input:</text>
<polyline fill="none" stroke="black" points="384,-355.5 439,-355.5 "/>
<text text-anchor="middle" x="411.5" y="-340.3" font-family="Times,serif" font-size="14.00">output:</text>
<polyline fill="none" stroke="black" points="439,-332.5 439,-378.5 "/>
<text text-anchor="middle" x="480.5" y="-363.3" font-family="Times,serif" font-size="14.00">(None, 784)</text>
<polyline fill="none" stroke="black" points="439,-355.5 522,-355.5 "/>
<text text-anchor="middle" x="480.5" y="-340.3" font-family="Times,serif" font-size="14.00">(None, 256)</text>
</g>
<!-- 139691752753696&#45;&gt;139691752809528 -->
<g id="edge1" class="edge"><title>139691752753696-&gt;139691752809528</title>
<path fill="none" stroke="black" d="M381,-415.366C381,-407.152 381,-397.658 381,-388.725"/>
<polygon fill="black" stroke="black" points="384.5,-388.607 381,-378.607 377.5,-388.607 384.5,-388.607"/>
</g>
<!-- 139691752752744 -->
<g id="node3" class="node"><title>139691752752744</title>
<polygon fill="none" stroke="black" points="124.5,-249.5 124.5,-295.5 361.5,-295.5 361.5,-249.5 124.5,-249.5"/>
<text text-anchor="middle" x="174" y="-268.8" font-family="Times,serif" font-size="14.00">log_var: Dense</text>
<polyline fill="none" stroke="black" points="223.5,-249.5 223.5,-295.5 "/>
<text text-anchor="middle" x="251" y="-280.3" font-family="Times,serif" font-size="14.00">input:</text>
<polyline fill="none" stroke="black" points="223.5,-272.5 278.5,-272.5 "/>
<text text-anchor="middle" x="251" y="-257.3" font-family="Times,serif" font-size="14.00">output:</text>
<polyline fill="none" stroke="black" points="278.5,-249.5 278.5,-295.5 "/>
<text text-anchor="middle" x="320" y="-280.3" font-family="Times,serif" font-size="14.00">(None, 256)</text>
<polyline fill="none" stroke="black" points="278.5,-272.5 361.5,-272.5 "/>
<text text-anchor="middle" x="320" y="-257.3" font-family="Times,serif" font-size="14.00">(None, 2)</text>
</g>
<!-- 139691752809528&#45;&gt;139691752752744 -->
<g id="edge2" class="edge"><title>139691752809528-&gt;139691752752744</title>
<path fill="none" stroke="black" d="M343.291,-332.366C326.709,-322.634 307.069,-311.106 289.583,-300.842"/>
<polygon fill="black" stroke="black" points="291.059,-297.65 280.664,-295.607 287.516,-303.687 291.059,-297.65"/>
</g>
<!-- 139691752796568 -->
<g id="node6" class="node"><title>139691752796568</title>
<polygon fill="none" stroke="black" points="413,-83.5 413,-129.5 627,-129.5 627,-83.5 413,-83.5"/>
<text text-anchor="middle" x="451" y="-102.8" font-family="Times,serif" font-size="14.00">mu: Dense</text>
<polyline fill="none" stroke="black" points="489,-83.5 489,-129.5 "/>
<text text-anchor="middle" x="516.5" y="-114.3" font-family="Times,serif" font-size="14.00">input:</text>
<polyline fill="none" stroke="black" points="489,-106.5 544,-106.5 "/>
<text text-anchor="middle" x="516.5" y="-91.3" font-family="Times,serif" font-size="14.00">output:</text>
<polyline fill="none" stroke="black" points="544,-83.5 544,-129.5 "/>
<text text-anchor="middle" x="585.5" y="-114.3" font-family="Times,serif" font-size="14.00">(None, 256)</text>
<polyline fill="none" stroke="black" points="544,-106.5 627,-106.5 "/>
<text text-anchor="middle" x="585.5" y="-91.3" font-family="Times,serif" font-size="14.00">(None, 2)</text>
</g>
<!-- 139691752809528&#45;&gt;139691752796568 -->
<g id="edge4" class="edge"><title>139691752809528-&gt;139691752796568</title>
<path fill="none" stroke="black" d="M406.308,-332.178C433.895,-306.34 477.146,-261.133 500,-213 510.994,-189.845 515.948,-161.128 518.179,-139.504"/>
<polygon fill="black" stroke="black" points="521.667,-139.785 519.069,-129.514 514.695,-139.163 521.667,-139.785"/>
</g>
<!-- 139691752753920 -->
<g id="node4" class="node"><title>139691752753920</title>
<polygon fill="none" stroke="black" points="0,-166.5 0,-212.5 226,-212.5 226,-166.5 0,-166.5"/>
<text text-anchor="middle" x="51" y="-185.8" font-family="Times,serif" font-size="14.00">sigma: Lambda</text>
<polyline fill="none" stroke="black" points="102,-166.5 102,-212.5 "/>
<text text-anchor="middle" x="129.5" y="-197.3" font-family="Times,serif" font-size="14.00">input:</text>
<polyline fill="none" stroke="black" points="102,-189.5 157,-189.5 "/>
<text text-anchor="middle" x="129.5" y="-174.3" font-family="Times,serif" font-size="14.00">output:</text>
<polyline fill="none" stroke="black" points="157,-166.5 157,-212.5 "/>
<text text-anchor="middle" x="191.5" y="-197.3" font-family="Times,serif" font-size="14.00">(None, 2)</text>
<polyline fill="none" stroke="black" points="157,-189.5 226,-189.5 "/>
<text text-anchor="middle" x="191.5" y="-174.3" font-family="Times,serif" font-size="14.00">(None, 2)</text>
</g>
<!-- 139691752752744&#45;&gt;139691752753920 -->
<g id="edge3" class="edge"><title>139691752752744-&gt;139691752753920</title>
<path fill="none" stroke="black" d="M207.477,-249.366C192,-239.723 173.694,-228.317 157.337,-218.125"/>
<polygon fill="black" stroke="black" points="158.818,-214.925 148.48,-212.607 155.117,-220.866 158.818,-214.925"/>
</g>
<!-- 139691753248472 -->
<g id="node7" class="node"><title>139691753248472</title>
<polygon fill="none" stroke="black" points="99,-83.5 99,-129.5 395,-129.5 395,-83.5 99,-83.5"/>
<text text-anchor="middle" x="150.5" y="-102.8" font-family="Times,serif" font-size="14.00">z_eps: Multiply</text>
<polyline fill="none" stroke="black" points="202,-83.5 202,-129.5 "/>
<text text-anchor="middle" x="229.5" y="-114.3" font-family="Times,serif" font-size="14.00">input:</text>
<polyline fill="none" stroke="black" points="202,-106.5 257,-106.5 "/>
<text text-anchor="middle" x="229.5" y="-91.3" font-family="Times,serif" font-size="14.00">output:</text>
<polyline fill="none" stroke="black" points="257,-83.5 257,-129.5 "/>
<text text-anchor="middle" x="326" y="-114.3" font-family="Times,serif" font-size="14.00">[(None, 2), (None, 2)]</text>
<polyline fill="none" stroke="black" points="257,-106.5 395,-106.5 "/>
<text text-anchor="middle" x="326" y="-91.3" font-family="Times,serif" font-size="14.00">(None, 2)</text>
</g>
<!-- 139691752753920&#45;&gt;139691753248472 -->
<g id="edge5" class="edge"><title>139691752753920-&gt;139691753248472</title>
<path fill="none" stroke="black" d="M149.616,-166.366C165.717,-156.634 184.788,-145.106 201.767,-134.842"/>
<polygon fill="black" stroke="black" points="203.681,-137.775 210.428,-129.607 200.06,-131.785 203.681,-137.775"/>
</g>
<!-- 139691753250432 -->
<g id="node5" class="node"><title>139691753250432</title>
<polygon fill="none" stroke="black" points="244.5,-166.5 244.5,-212.5 491.5,-212.5 491.5,-166.5 244.5,-166.5"/>
<text text-anchor="middle" x="306" y="-185.8" font-family="Times,serif" font-size="14.00">epsilon: InputLayer</text>
<polyline fill="none" stroke="black" points="367.5,-166.5 367.5,-212.5 "/>
<text text-anchor="middle" x="395" y="-197.3" font-family="Times,serif" font-size="14.00">input:</text>
<polyline fill="none" stroke="black" points="367.5,-189.5 422.5,-189.5 "/>
<text text-anchor="middle" x="395" y="-174.3" font-family="Times,serif" font-size="14.00">output:</text>
<polyline fill="none" stroke="black" points="422.5,-166.5 422.5,-212.5 "/>
<text text-anchor="middle" x="457" y="-197.3" font-family="Times,serif" font-size="14.00">(None, 2)</text>
<polyline fill="none" stroke="black" points="422.5,-189.5 491.5,-189.5 "/>
<text text-anchor="middle" x="457" y="-174.3" font-family="Times,serif" font-size="14.00">(None, 2)</text>
</g>
<!-- 139691753250432&#45;&gt;139691753248472 -->
<g id="edge6" class="edge"><title>139691753250432-&gt;139691753248472</title>
<path fill="none" stroke="black" d="M334.936,-166.366C320.664,-156.812 303.807,-145.528 288.691,-135.409"/>
<polygon fill="black" stroke="black" points="290.281,-132.261 280.024,-129.607 286.387,-138.078 290.281,-132.261"/>
</g>
<!-- 139691753250264 -->
<g id="node8" class="node"><title>139691753250264</title>
<polygon fill="none" stroke="black" points="260,-0.5 260,-46.5 506,-46.5 506,-0.5 260,-0.5"/>
<text text-anchor="middle" x="286.5" y="-19.8" font-family="Times,serif" font-size="14.00">z: Add</text>
<polyline fill="none" stroke="black" points="313,-0.5 313,-46.5 "/>
<text text-anchor="middle" x="340.5" y="-31.3" font-family="Times,serif" font-size="14.00">input:</text>
<polyline fill="none" stroke="black" points="313,-23.5 368,-23.5 "/>
<text text-anchor="middle" x="340.5" y="-8.3" font-family="Times,serif" font-size="14.00">output:</text>
<polyline fill="none" stroke="black" points="368,-0.5 368,-46.5 "/>
<text text-anchor="middle" x="437" y="-31.3" font-family="Times,serif" font-size="14.00">[(None, 2), (None, 2)]</text>
<polyline fill="none" stroke="black" points="368,-23.5 506,-23.5 "/>
<text text-anchor="middle" x="437" y="-8.3" font-family="Times,serif" font-size="14.00">(None, 2)</text>
</g>
<!-- 139691752796568&#45;&gt;139691753250264 -->
<g id="edge7" class="edge"><title>139691752796568-&gt;139691753250264</title>
<path fill="none" stroke="black" d="M482.564,-83.3664C466.103,-73.6337 446.605,-62.1057 429.246,-51.8424"/>
<polygon fill="black" stroke="black" points="430.78,-48.6835 420.391,-46.6068 427.217,-54.7091 430.78,-48.6835"/>
</g>
<!-- 139691753248472&#45;&gt;139691753250264 -->
<g id="edge8" class="edge"><title>139691753248472-&gt;139691753250264</title>
<path fill="none" stroke="black" d="M284.163,-83.3664C300.504,-73.6337 319.86,-62.1057 337.092,-51.8424"/>
<polygon fill="black" stroke="black" points="339.082,-54.731 345.882,-46.6068 335.5,-48.7169 339.082,-54.731"/>
</g>
</g>
</svg>