<svg xmlns="http://www.w3.org/2000/svg" xmlns:xlink="http://www.w3.org/1999/xlink" viewBox="0.00 0.00 744.00 470.00" viewport="0 0 1280px 808px">
<g id="graph0" class="graph" transform="scale(1 1) rotate(0) translate(4 466)">
<title>G</title>
<polygon fill="#ffffff" stroke="transparent" points="-4,4 -4,-466 740,-466 740,4 -4,4"/>
<!-- 140175855034552 -->
<g id="node1" class="node">
<title>140175855034552</title>
<polygon fill="none" stroke="#000000" points="230,-415.5 230,-461.5 513,-461.5 513,-415.5 230,-415.5"/>
<text text-anchor="middle" x="287" y="-434.8" font-family="Times,serif" font-size="14.00" fill="#000000">x: InputLayer</text>
<polyline fill="none" stroke="#000000" points="344,-415.5 344,-461.5 "/>
<text text-anchor="middle" x="378" y="-446.3" font-family="Times,serif" font-size="14.00" fill="#000000">input:</text>
<polyline fill="none" stroke="#000000" points="344,-438.5 412,-438.5 "/>
<text text-anchor="middle" x="378" y="-423.3" font-family="Times,serif" font-size="14.00" fill="#000000">output:</text>
<polyline fill="none" stroke="#000000" points="412,-415.5 412,-461.5 "/>
<text text-anchor="middle" x="462.5" y="-446.3" font-family="Times,serif" font-size="14.00" fill="#000000">(None, 784)</text>
<polyline fill="none" stroke="#000000" points="412,-438.5 513,-438.5 "/>
<text text-anchor="middle" x="462.5" y="-423.3" font-family="Times,serif" font-size="14.00" fill="#000000">(None, 784)</text>
</g>
<!-- 140175854580456 -->
<g id="node2" class="node">
<title>140175854580456</title>
<polygon fill="none" stroke="#000000" points="195,-332.5 195,-378.5 548,-378.5 548,-332.5 195,-332.5"/>
<text text-anchor="middle" x="287" y="-351.8" font-family="Times,serif" font-size="14.00" fill="#000000">encoder_hidden: Dense</text>
<polyline fill="none" stroke="#000000" points="379,-332.5 379,-378.5 "/>
<text text-anchor="middle" x="413" y="-363.3" font-family="Times,serif" font-size="14.00" fill="#000000">input:</text>
<polyline fill="none" stroke="#000000" points="379,-355.5 447,-355.5 "/>
<text text-anchor="middle" x="413" y="-340.3" font-family="Times,serif" font-size="14.00" fill="#000000">output:</text>
<polyline fill="none" stroke="#000000" points="447,-332.5 447,-378.5 "/>
<text text-anchor="middle" x="497.5" y="-363.3" font-family="Times,serif" font-size="14.00" fill="#000000">(None, 784)</text>
<polyline fill="none" stroke="#000000" points="447,-355.5 548,-355.5 "/>
<text text-anchor="middle" x="497.5" y="-340.3" font-family="Times,serif" font-size="14.00" fill="#000000">(None, 256)</text>
</g>
<!-- 140175855034552&#45;&gt;140175854580456 -->
<g id="edge1" class="edge">
<title>140175855034552-&gt;140175854580456</title>
<path fill="none" stroke="#000000" d="M371.5,-415.3799C371.5,-407.1745 371.5,-397.7679 371.5,-388.8786"/>
<polygon fill="#000000" stroke="#000000" points="375.0001,-388.784 371.5,-378.784 368.0001,-388.784 375.0001,-388.784"/>
</g>
<!-- 140175854581184 -->
<g id="node3" class="node">
<title>140175854581184</title>
<polygon fill="none" stroke="#000000" points="140,-249.5 140,-295.5 431,-295.5 431,-249.5 140,-249.5"/>
<text text-anchor="middle" x="201" y="-268.8" font-family="Times,serif" font-size="14.00" fill="#000000">log_var: Dense</text>
<polyline fill="none" stroke="#000000" points="262,-249.5 262,-295.5 "/>
<text text-anchor="middle" x="296" y="-280.3" font-family="Times,serif" font-size="14.00" fill="#000000">input:</text>
<polyline fill="none" stroke="#000000" points="262,-272.5 330,-272.5 "/>
<text text-anchor="middle" x="296" y="-257.3" font-family="Times,serif" font-size="14.00" fill="#000000">output:</text>
<polyline fill="none" stroke="#000000" points="330,-249.5 330,-295.5 "/>
<text text-anchor="middle" x="380.5" y="-280.3" font-family="Times,serif" font-size="14.00" fill="#000000">(None, 256)</text>
<polyline fill="none" stroke="#000000" points="330,-272.5 431,-272.5 "/>
<text text-anchor="middle" x="380.5" y="-257.3" font-family="Times,serif" font-size="14.00" fill="#000000">(None, 2)</text>
</g>
<!-- 140175854580456&#45;&gt;140175854581184 -->
<g id="edge2" class="edge">
<title>140175854580456-&gt;140175854581184</title>
<path fill="none" stroke="#000000" d="M347.5442,-332.3799C338.1182,-323.2827 327.1621,-312.7088 317.1029,-303.0005"/>
<polygon fill="#000000" stroke="#000000" points="319.2516,-300.2101 309.6256,-295.784 314.3905,-305.2469 319.2516,-300.2101"/>
</g>
<!-- 140175854580512 -->
<g id="node6" class="node">
<title>140175854580512</title>
<polygon fill="none" stroke="#000000" points="475,-83.5 475,-129.5 736,-129.5 736,-83.5 475,-83.5"/>
<text text-anchor="middle" x="521" y="-102.8" font-family="Times,serif" font-size="14.00" fill="#000000">mu: Dense</text>
<polyline fill="none" stroke="#000000" points="567,-83.5 567,-129.5 "/>
<text text-anchor="middle" x="601" y="-114.3" font-family="Times,serif" font-size="14.00" fill="#000000">input:</text>
<polyline fill="none" stroke="#000000" points="567,-106.5 635,-106.5 "/>
<text text-anchor="middle" x="601" y="-91.3" font-family="Times,serif" font-size="14.00" fill="#000000">output:</text>
<polyline fill="none" stroke="#000000" points="635,-83.5 635,-129.5 "/>
<text text-anchor="middle" x="685.5" y="-114.3" font-family="Times,serif" font-size="14.00" fill="#000000">(None, 256)</text>
<polyline fill="none" stroke="#000000" points="635,-106.5 736,-106.5 "/>
<text text-anchor="middle" x="685.5" y="-91.3" font-family="Times,serif" font-size="14.00" fill="#000000">(None, 2)</text>
</g>
<!-- 140175854580456&#45;&gt;140175854580512 -->
<g id="edge4" class="edge">
<title>140175854580456-&gt;140175854580512</title>
<path fill="none" stroke="#000000" d="M430.1323,-332.4491C479.8963,-309.726 549.0173,-270.0845 586.5,-213 600.7388,-191.3149 605.1437,-162.0265 606.1813,-139.6524"/>
<polygon fill="#000000" stroke="#000000" points="609.6815,-139.6889 606.4466,-129.6 602.6839,-139.5042 609.6815,-139.6889"/>
</g>
<!-- 140175854597680 -->
<g id="node4" class="node">
<title>140175854597680</title>
<polygon fill="none" stroke="#000000" points="0,-166.5 0,-212.5 277,-212.5 277,-166.5 0,-166.5"/>
<text text-anchor="middle" x="63" y="-185.8" font-family="Times,serif" font-size="14.00" fill="#000000">sigma: Lambda</text>
<polyline fill="none" stroke="#000000" points="126,-166.5 126,-212.5 "/>
<text text-anchor="middle" x="160" y="-197.3" font-family="Times,serif" font-size="14.00" fill="#000000">input:</text>
<polyline fill="none" stroke="#000000" points="126,-189.5 194,-189.5 "/>
<text text-anchor="middle" x="160" y="-174.3" font-family="Times,serif" font-size="14.00" fill="#000000">output:</text>
<polyline fill="none" stroke="#000000" points="194,-166.5 194,-212.5 "/>
<text text-anchor="middle" x="235.5" y="-197.3" font-family="Times,serif" font-size="14.00" fill="#000000">(None, 2)</text>
<polyline fill="none" stroke="#000000" points="194,-189.5 277,-189.5 "/>
<text text-anchor="middle" x="235.5" y="-174.3" font-family="Times,serif" font-size="14.00" fill="#000000">(None, 2)</text>
</g>
<!-- 140175854581184&#45;&gt;140175854597680 -->
<g id="edge3" class="edge">
<title>140175854581184-&gt;140175854597680</title>
<path fill="none" stroke="#000000" d="M244.5523,-249.3799C227.1037,-239.5279 206.5878,-227.9442 188.2735,-217.6034"/>
<polygon fill="#000000" stroke="#000000" points="189.9115,-214.5089 179.4828,-212.6399 186.4698,-220.6044 189.9115,-214.5089"/>
</g>
<!-- 140175854672976 -->
<g id="node7" class="node">
<title>140175854672976</title>
<polygon fill="none" stroke="#000000" points="94,-83.5 94,-129.5 457,-129.5 457,-83.5 94,-83.5"/>
<text text-anchor="middle" x="156.5" y="-102.8" font-family="Times,serif" font-size="14.00" fill="#000000">z_eps: Multiply</text>
<polyline fill="none" stroke="#000000" points="219,-83.5 219,-129.5 "/>
<text text-anchor="middle" x="253" y="-114.3" font-family="Times,serif" font-size="14.00" fill="#000000">input:</text>
<polyline fill="none" stroke="#000000" points="219,-106.5 287,-106.5 "/>
<text text-anchor="middle" x="253" y="-91.3" font-family="Times,serif" font-size="14.00" fill="#000000">output:</text>
<polyline fill="none" stroke="#000000" points="287,-83.5 287,-129.5 "/>
<text text-anchor="middle" x="372" y="-114.3" font-family="Times,serif" font-size="14.00" fill="#000000">[(None, 2), (None, 2)]</text>
<polyline fill="none" stroke="#000000" points="287,-106.5 457,-106.5 "/>
<text text-anchor="middle" x="372" y="-91.3" font-family="Times,serif" font-size="14.00" fill="#000000">(None, 2)</text>
</g>
<!-- 140175854597680&#45;&gt;140175854672976 -->
<g id="edge5" class="edge">
<title>140175854597680-&gt;140175854672976</title>
<path fill="none" stroke="#000000" d="M176.6621,-166.3799C192.7085,-156.6583 211.5383,-145.2505 228.4336,-135.0147"/>
<polygon fill="#000000" stroke="#000000" points="230.3281,-137.9592 237.0674,-129.784 226.7009,-131.9722 230.3281,-137.9592"/>
</g>
<!-- 140175855075168 -->
<g id="node5" class="node">
<title>140175855075168</title>
<polygon fill="none" stroke="#000000" points="295.5,-166.5 295.5,-212.5 577.5,-212.5 577.5,-166.5 295.5,-166.5"/>
<text text-anchor="middle" x="361" y="-185.8" font-family="Times,serif" font-size="14.00" fill="#000000">eps: InputLayer</text>
<polyline fill="none" stroke="#000000" points="426.5,-166.5 426.5,-212.5 "/>
<text text-anchor="middle" x="460.5" y="-197.3" font-family="Times,serif" font-size="14.00" fill="#000000">input:</text>
<polyline fill="none" stroke="#000000" points="426.5,-189.5 494.5,-189.5 "/>
<text text-anchor="middle" x="460.5" y="-174.3" font-family="Times,serif" font-size="14.00" fill="#000000">output:</text>
<polyline fill="none" stroke="#000000" points="494.5,-166.5 494.5,-212.5 "/>
<text text-anchor="middle" x="536" y="-197.3" font-family="Times,serif" font-size="14.00" fill="#000000">(None, 2)</text>
<polyline fill="none" stroke="#000000" points="494.5,-189.5 577.5,-189.5 "/>
<text text-anchor="middle" x="536" y="-174.3" font-family="Times,serif" font-size="14.00" fill="#000000">(None, 2)</text>
</g>
<!-- 140175855075168&#45;&gt;140175854672976 -->
<g id="edge6" class="edge">
<title>140175855075168-&gt;140175854672976</title>
<path fill="none" stroke="#000000" d="M391.6525,-166.3799C372.3684,-156.4384 349.6636,-144.7334 329.4674,-134.3217"/>
<polygon fill="#000000" stroke="#000000" points="330.8781,-131.1113 320.3859,-129.6399 327.6705,-137.3331 330.8781,-131.1113"/>
</g>
<!-- 140175854673536 -->
<g id="node8" class="node">
<title>140175854673536</title>
<polygon fill="none" stroke="#000000" points="290.5,-.5 290.5,-46.5 590.5,-46.5 590.5,-.5 290.5,-.5"/>
<text text-anchor="middle" x="321.5" y="-19.8" font-family="Times,serif" font-size="14.00" fill="#000000">z: Add</text>
<polyline fill="none" stroke="#000000" points="352.5,-.5 352.5,-46.5 "/>
<text text-anchor="middle" x="386.5" y="-31.3" font-family="Times,serif" font-size="14.00" fill="#000000">input:</text>
<polyline fill="none" stroke="#000000" points="352.5,-23.5 420.5,-23.5 "/>
<text text-anchor="middle" x="386.5" y="-8.3" font-family="Times,serif" font-size="14.00" fill="#000000">output:</text>
<polyline fill="none" stroke="#000000" points="420.5,-.5 420.5,-46.5 "/>
<text text-anchor="middle" x="505.5" y="-31.3" font-family="Times,serif" font-size="14.00" fill="#000000">[(None, 2), (None, 2)]</text>
<polyline fill="none" stroke="#000000" points="420.5,-23.5 590.5,-23.5 "/>
<text text-anchor="middle" x="505.5" y="-8.3" font-family="Times,serif" font-size="14.00" fill="#000000">(None, 2)</text>
</g>
<!-- 140175854580512&#45;&gt;140175854673536 -->
<g id="edge7" class="edge">
<title>140175854580512-&gt;140175854673536</title>
<path fill="none" stroke="#000000" d="M559.5383,-83.3799C539.686,-73.3936 516.2964,-61.6279 495.5287,-51.1811"/>
<polygon fill="#000000" stroke="#000000" points="497.0074,-48.0071 486.5011,-46.6399 493.8617,-54.2605 497.0074,-48.0071"/>
</g>
<!-- 140175854672976&#45;&gt;140175854673536 -->
<g id="edge8" class="edge">
<title>140175854672976-&gt;140175854673536</title>
<path fill="none" stroke="#000000" d="M321.4617,-83.3799C341.314,-73.3936 364.7036,-61.6279 385.4713,-51.1811"/>
<polygon fill="#000000" stroke="#000000" points="387.1383,-54.2605 394.4989,-46.6399 383.9926,-48.0071 387.1383,-54.2605"/>
</g>
</g>
</svg>