<svg xmlns="http://www.w3.org/2000/svg" xmlns:xlink="http://www.w3.org/1999/xlink" viewBox="0.00 0.00 633.80 458.00" viewport="0 0 400px 288px">
<g id="graph0" class="graph" transform="scale(1 1) rotate(0) translate(4 454)">
<title>G</title>
<polygon fill="#ffffff" stroke="transparent" points="-4,4 -4,-454 629.8003,-454 629.8003,4 -4,4"/>
<!-- 4674957264 -->
<g id="node1" class="node">
<title>4674957264</title>
<polygon fill="none" stroke="#000000" points="200.0586,-405.5 200.0586,-449.5 431.959,-449.5 431.959,-405.5 200.0586,-405.5"/>
<text text-anchor="middle" x="246.3501" y="-423.3" font-family="Times,serif" font-size="14.00" fill="#000000">x: InputLayer</text>
<polyline fill="none" stroke="#000000" points="292.6416,-405.5 292.6416,-449.5 "/>
<text text-anchor="middle" x="320.4761" y="-434.3" font-family="Times,serif" font-size="14.00" fill="#000000">input:</text>
<polyline fill="none" stroke="#000000" points="292.6416,-427.5 348.3105,-427.5 "/>
<text text-anchor="middle" x="320.4761" y="-412.3" font-family="Times,serif" font-size="14.00" fill="#000000">output:</text>
<polyline fill="none" stroke="#000000" points="348.3105,-405.5 348.3105,-449.5 "/>
<text text-anchor="middle" x="390.1348" y="-434.3" font-family="Times,serif" font-size="14.00" fill="#000000">(None, 784)</text>
<polyline fill="none" stroke="#000000" points="348.3105,-427.5 431.959,-427.5 "/>
<text text-anchor="middle" x="390.1348" y="-412.3" font-family="Times,serif" font-size="14.00" fill="#000000">(None, 784)</text>
</g>
<!-- 4674024504 -->
<g id="node2" class="node">
<title>4674024504</title>
<polygon fill="none" stroke="#000000" points="172.4585,-324.5 172.4585,-368.5 459.5591,-368.5 459.5591,-324.5 172.4585,-324.5"/>
<text text-anchor="middle" x="246.3501" y="-342.3" font-family="Times,serif" font-size="14.00" fill="#000000">encoder_hidden: Dense</text>
<polyline fill="none" stroke="#000000" points="320.2417,-324.5 320.2417,-368.5 "/>
<text text-anchor="middle" x="348.0762" y="-353.3" font-family="Times,serif" font-size="14.00" fill="#000000">input:</text>
<polyline fill="none" stroke="#000000" points="320.2417,-346.5 375.9106,-346.5 "/>
<text text-anchor="middle" x="348.0762" y="-331.3" font-family="Times,serif" font-size="14.00" fill="#000000">output:</text>
<polyline fill="none" stroke="#000000" points="375.9106,-324.5 375.9106,-368.5 "/>
<text text-anchor="middle" x="417.7349" y="-353.3" font-family="Times,serif" font-size="14.00" fill="#000000">(None, 784)</text>
<polyline fill="none" stroke="#000000" points="375.9106,-346.5 459.5591,-346.5 "/>
<text text-anchor="middle" x="417.7349" y="-331.3" font-family="Times,serif" font-size="14.00" fill="#000000">(None, 256)</text>
</g>
<!-- 4674957264&#45;&gt;4674024504 -->
<g id="edge1" class="edge">
<title>4674957264-&gt;4674024504</title>
<path fill="none" stroke="#000000" d="M316.0088,-405.3664C316.0088,-397.1516 316.0088,-387.6579 316.0088,-378.7252"/>
<polygon fill="#000000" stroke="#000000" points="319.5089,-378.6068 316.0088,-368.6068 312.5089,-378.6069 319.5089,-378.6068"/>
</g>
<!-- 4674956928 -->
<g id="node3" class="node">
<title>4674956928</title>
<polygon fill="none" stroke="#000000" points="121.7793,-243.5 121.7793,-287.5 362.2383,-287.5 362.2383,-243.5 121.7793,-243.5"/>
<text text-anchor="middle" x="172.3501" y="-261.3" font-family="Times,serif" font-size="14.00" fill="#000000">log_var: Dense</text>
<polyline fill="none" stroke="#000000" points="222.9209,-243.5 222.9209,-287.5 "/>
<text text-anchor="middle" x="250.7554" y="-272.3" font-family="Times,serif" font-size="14.00" fill="#000000">input:</text>
<polyline fill="none" stroke="#000000" points="222.9209,-265.5 278.5898,-265.5 "/>
<text text-anchor="middle" x="250.7554" y="-250.3" font-family="Times,serif" font-size="14.00" fill="#000000">output:</text>
<polyline fill="none" stroke="#000000" points="278.5898,-243.5 278.5898,-287.5 "/>
<text text-anchor="middle" x="320.4141" y="-272.3" font-family="Times,serif" font-size="14.00" fill="#000000">(None, 256)</text>
<polyline fill="none" stroke="#000000" points="278.5898,-265.5 362.2383,-265.5 "/>
<text text-anchor="middle" x="320.4141" y="-250.3" font-family="Times,serif" font-size="14.00" fill="#000000">(None, 2)</text>
</g>
<!-- 4674024504&#45;&gt;4674956928 -->
<g id="edge2" class="edge">
<title>4674024504-&gt;4674956928</title>
<path fill="none" stroke="#000000" d="M295.788,-324.3664C287.549,-315.348 277.9017,-304.7882 269.0703,-295.1214"/>
<polygon fill="#000000" stroke="#000000" points="271.5341,-292.629 262.2052,-287.6068 266.366,-297.3505 271.5341,-292.629"/>
</g>
<!-- 4674956480 -->
<g id="node6" class="node">
<title>4674956480</title>
<polygon fill="none" stroke="#000000" points="410.2173,-81.5 410.2173,-125.5 625.8003,-125.5 625.8003,-81.5 410.2173,-81.5"/>
<text text-anchor="middle" x="448.3501" y="-99.3" font-family="Times,serif" font-size="14.00" fill="#000000">mu: Dense</text>
<polyline fill="none" stroke="#000000" points="486.4829,-81.5 486.4829,-125.5 "/>
<text text-anchor="middle" x="514.3174" y="-110.3" font-family="Times,serif" font-size="14.00" fill="#000000">input:</text>
<polyline fill="none" stroke="#000000" points="486.4829,-103.5 542.1519,-103.5 "/>
<text text-anchor="middle" x="514.3174" y="-88.3" font-family="Times,serif" font-size="14.00" fill="#000000">output:</text>
<polyline fill="none" stroke="#000000" points="542.1519,-81.5 542.1519,-125.5 "/>
<text text-anchor="middle" x="583.9761" y="-110.3" font-family="Times,serif" font-size="14.00" fill="#000000">(None, 256)</text>
<polyline fill="none" stroke="#000000" points="542.1519,-103.5 625.8003,-103.5 "/>
<text text-anchor="middle" x="583.9761" y="-88.3" font-family="Times,serif" font-size="14.00" fill="#000000">(None, 2)</text>
</g>
<!-- 4674024504&#45;&gt;4674956480 -->
<g id="edge4" class="edge">
<title>4674024504-&gt;4674956480</title>
<path fill="none" stroke="#000000" d="M361.4133,-324.4723C404.0198,-301.3245 465.9894,-260.7941 499.0088,-207 512.1496,-185.5914 516.6556,-157.322 518.0114,-135.7378"/>
<polygon fill="#000000" stroke="#000000" points="521.5084,-135.8816 518.448,-125.7384 514.5151,-135.5762 521.5084,-135.8816"/>
</g>
<!-- 4674947616 -->
<g id="node4" class="node">
<title>4674947616</title>
<polygon fill="none" stroke="#000000" points="0,-162.5 0,-206.5 228.0176,-206.5 228.0176,-162.5 0,-162.5"/>
<text text-anchor="middle" x="51.3501" y="-180.3" font-family="Times,serif" font-size="14.00" fill="#000000">sigma: Lambda</text>
<polyline fill="none" stroke="#000000" points="102.7002,-162.5 102.7002,-206.5 "/>
<text text-anchor="middle" x="130.5347" y="-191.3" font-family="Times,serif" font-size="14.00" fill="#000000">input:</text>
<polyline fill="none" stroke="#000000" points="102.7002,-184.5 158.3691,-184.5 "/>
<text text-anchor="middle" x="130.5347" y="-169.3" font-family="Times,serif" font-size="14.00" fill="#000000">output:</text>
<polyline fill="none" stroke="#000000" points="158.3691,-162.5 158.3691,-206.5 "/>
<text text-anchor="middle" x="193.1934" y="-191.3" font-family="Times,serif" font-size="14.00" fill="#000000">(None, 2)</text>
<polyline fill="none" stroke="#000000" points="158.3691,-184.5 228.0176,-184.5 "/>
<text text-anchor="middle" x="193.1934" y="-169.3" font-family="Times,serif" font-size="14.00" fill="#000000">(None, 2)</text>
</g>
<!-- 4674956928&#45;&gt;4674947616 -->
<g id="edge3" class="edge">
<title>4674956928-&gt;4674947616</title>
<path fill="none" stroke="#000000" d="M207.0322,-243.3664C191.7933,-233.723 173.7691,-222.3171 157.6634,-212.1252"/>
<polygon fill="#000000" stroke="#000000" points="159.2649,-208.9967 148.9431,-206.6068 155.5217,-214.9118 159.2649,-208.9967"/>
</g>
<!-- 4674880512 -->
<g id="node7" class="node">
<title>4674880512</title>
<polygon fill="none" stroke="#000000" points="78.2275,-81.5 78.2275,-125.5 391.79,-125.5 391.79,-81.5 78.2275,-81.5"/>
<text text-anchor="middle" x="130.3638" y="-99.3" font-family="Times,serif" font-size="14.00" fill="#000000">z_eps: Multiply</text>
<polyline fill="none" stroke="#000000" points="182.5,-81.5 182.5,-125.5 "/>
<text text-anchor="middle" x="210.3345" y="-110.3" font-family="Times,serif" font-size="14.00" fill="#000000">input:</text>
<polyline fill="none" stroke="#000000" points="182.5,-103.5 238.1689,-103.5 "/>
<text text-anchor="middle" x="210.3345" y="-88.3" font-family="Times,serif" font-size="14.00" fill="#000000">output:</text>
<polyline fill="none" stroke="#000000" points="238.1689,-81.5 238.1689,-125.5 "/>
<text text-anchor="middle" x="314.9795" y="-110.3" font-family="Times,serif" font-size="14.00" fill="#000000">[(None, 2), (None, 5, 2)]</text>
<polyline fill="none" stroke="#000000" points="238.1689,-103.5 391.79,-103.5 "/>
<text text-anchor="middle" x="314.4932" y="-88.3" font-family="Times,serif" font-size="14.00" fill="#000000">(None, 5, 2)</text>
</g>
<!-- 4674947616&#45;&gt;4674880512 -->
<g id="edge5" class="edge">
<title>4674947616-&gt;4674880512</title>
<path fill="none" stroke="#000000" d="M147.0726,-162.3664C161.3448,-152.8123 178.2013,-141.5281 193.3182,-131.4086"/>
<polygon fill="#000000" stroke="#000000" points="195.6221,-134.0782 201.985,-125.6068 191.728,-128.2612 195.6221,-134.0782"/>
</g>
<!-- 4674966808 -->
<g id="node5" class="node">
<title>4674966808</title>
<polygon fill="none" stroke="#000000" points="246.2275,-162.5 246.2275,-206.5 489.79,-206.5 489.79,-162.5 246.2275,-162.5"/>
<text text-anchor="middle" x="298.3501" y="-180.3" font-family="Times,serif" font-size="14.00" fill="#000000">eps: InputLayer</text>
<polyline fill="none" stroke="#000000" points="350.4727,-162.5 350.4727,-206.5 "/>
<text text-anchor="middle" x="378.3071" y="-191.3" font-family="Times,serif" font-size="14.00" fill="#000000">input:</text>
<polyline fill="none" stroke="#000000" points="350.4727,-184.5 406.1416,-184.5 "/>
<text text-anchor="middle" x="378.3071" y="-169.3" font-family="Times,serif" font-size="14.00" fill="#000000">output:</text>
<polyline fill="none" stroke="#000000" points="406.1416,-162.5 406.1416,-206.5 "/>
<text text-anchor="middle" x="447.9658" y="-191.3" font-family="Times,serif" font-size="14.00" fill="#000000">(None, 5, 2)</text>
<polyline fill="none" stroke="#000000" points="406.1416,-184.5 489.79,-184.5 "/>
<text text-anchor="middle" x="447.9658" y="-169.3" font-family="Times,serif" font-size="14.00" fill="#000000">(None, 5, 2)</text>
</g>
<!-- 4674966808&#45;&gt;4674880512 -->
<g id="edge6" class="edge">
<title>4674966808-&gt;4674880512</title>
<path fill="none" stroke="#000000" d="M331.666,-162.3664C315.6851,-152.6337 296.7564,-141.1057 279.9043,-130.8424"/>
<polygon fill="#000000" stroke="#000000" points="281.669,-127.8191 271.3077,-125.6068 278.0279,-133.7977 281.669,-127.8191"/>
</g>
<!-- 4674882920 -->
<g id="node8" class="node">
<title>4674882920</title>
<polygon fill="none" stroke="#000000" points="244.8896,-.5 244.8896,-44.5 507.1279,-44.5 507.1279,-.5 244.8896,-.5"/>
<text text-anchor="middle" x="271.3638" y="-18.3" font-family="Times,serif" font-size="14.00" fill="#000000">z: Add</text>
<polyline fill="none" stroke="#000000" points="297.8379,-.5 297.8379,-44.5 "/>
<text text-anchor="middle" x="325.6724" y="-29.3" font-family="Times,serif" font-size="14.00" fill="#000000">input:</text>
<polyline fill="none" stroke="#000000" points="297.8379,-22.5 353.5068,-22.5 "/>
<text text-anchor="middle" x="325.6724" y="-7.3" font-family="Times,serif" font-size="14.00" fill="#000000">output:</text>
<polyline fill="none" stroke="#000000" points="353.5068,-.5 353.5068,-44.5 "/>
<text text-anchor="middle" x="430.3174" y="-29.3" font-family="Times,serif" font-size="14.00" fill="#000000">[(None, 2), (None, 5, 2)]</text>
<polyline fill="none" stroke="#000000" points="353.5068,-22.5 507.1279,-22.5 "/>
<text text-anchor="middle" x="429.8311" y="-7.3" font-family="Times,serif" font-size="14.00" fill="#000000">(None, 5, 2)</text>
</g>
<!-- 4674956480&#45;&gt;4674882920 -->
<g id="edge7" class="edge">
<title>4674956480-&gt;4674882920</title>
<path fill="none" stroke="#000000" d="M479.2067,-81.3664C462.1444,-71.6337 441.9348,-60.1057 423.9424,-49.8424"/>
<polygon fill="#000000" stroke="#000000" points="425.1844,-46.5215 414.764,-44.6068 421.716,-52.6019 425.1844,-46.5215"/>
</g>
<!-- 4674880512&#45;&gt;4674882920 -->
<g id="edge8" class="edge">
<title>4674880512-&gt;4674882920</title>
<path fill="none" stroke="#000000" d="M273.5377,-81.3664C290.4797,-71.6337 310.547,-60.1057 328.4128,-49.8424"/>
<polygon fill="#000000" stroke="#000000" points="330.5989,-52.623 337.5265,-44.6068 327.112,-46.5533 330.5989,-52.623"/>
</g>
</g>
</svg>