<svg xmlns="http://www.w3.org/2000/svg" xmlns:xlink="http://www.w3.org/1999/xlink" viewBox="0.00 0.00 251.00 553.00" viewport="0 0 580px 1280px">
<g id="graph0" class="graph" transform="scale(1 1) rotate(0) translate(4 549)">
<title>G</title>
<polygon fill="white" stroke="none" points="-4,4 -4,-549 247,-549 247,4 -4,4"/>
<!-- 140633619472056 -->
<g id="node1" class="node"><title>140633619472056</title>
<polygon fill="none" stroke="black" points="0,-498.5 0,-544.5 243,-544.5 243,-498.5 0,-498.5"/>
<text text-anchor="middle" x="38.5" y="-517.8" font-family="Times,serif" font-size="14.00">InputLayer</text>
<polyline fill="none" stroke="black" points="77,-498.5 77,-544.5 "/>
<text text-anchor="middle" x="104.5" y="-529.3" font-family="Times,serif" font-size="14.00">input:</text>
<polyline fill="none" stroke="black" points="77,-521.5 132,-521.5 "/>
<text text-anchor="middle" x="104.5" y="-506.3" font-family="Times,serif" font-size="14.00">output:</text>
<polyline fill="none" stroke="black" points="132,-498.5 132,-544.5 "/>
<text text-anchor="middle" x="187.5" y="-529.3" font-family="Times,serif" font-size="14.00">(None, 28, 28, 1)</text>
<polyline fill="none" stroke="black" points="132,-521.5 243,-521.5 "/>
<text text-anchor="middle" x="187.5" y="-506.3" font-family="Times,serif" font-size="14.00">(None, 28, 28, 1)</text>
</g>
<!-- 140633619469704 -->
<g id="node2" class="node"><title>140633619469704</title>
<polygon fill="none" stroke="black" points="7.5,-415.5 7.5,-461.5 235.5,-461.5 235.5,-415.5 7.5,-415.5"/>
<text text-anchor="middle" x="38.5" y="-434.8" font-family="Times,serif" font-size="14.00">Conv2D</text>
<polyline fill="none" stroke="black" points="69.5,-415.5 69.5,-461.5 "/>
<text text-anchor="middle" x="97" y="-446.3" font-family="Times,serif" font-size="14.00">input:</text>
<polyline fill="none" stroke="black" points="69.5,-438.5 124.5,-438.5 "/>
<text text-anchor="middle" x="97" y="-423.3" font-family="Times,serif" font-size="14.00">output:</text>
<polyline fill="none" stroke="black" points="124.5,-415.5 124.5,-461.5 "/>
<text text-anchor="middle" x="180" y="-446.3" font-family="Times,serif" font-size="14.00">(None, 28, 28, 1)</text>
<polyline fill="none" stroke="black" points="124.5,-438.5 235.5,-438.5 "/>
<text text-anchor="middle" x="180" y="-423.3" font-family="Times,serif" font-size="14.00">(None, 28, 28, 1)</text>
</g>
<!-- 140633619472056&#45;&gt;140633619469704 -->
<g id="edge1" class="edge"><title>140633619472056-&gt;140633619469704</title>
<path fill="none" stroke="black" d="M121.5,-498.366C121.5,-490.152 121.5,-480.658 121.5,-471.725"/>
<polygon fill="black" stroke="black" points="125,-471.607 121.5,-461.607 118,-471.607 125,-471.607"/>
</g>
<!-- 140633619470208 -->
<g id="node3" class="node"><title>140633619470208</title>
<polygon fill="none" stroke="black" points="4,-332.5 4,-378.5 239,-378.5 239,-332.5 4,-332.5"/>
<text text-anchor="middle" x="35" y="-351.8" font-family="Times,serif" font-size="14.00">Conv2D</text>
<polyline fill="none" stroke="black" points="66,-332.5 66,-378.5 "/>
<text text-anchor="middle" x="93.5" y="-363.3" font-family="Times,serif" font-size="14.00">input:</text>
<polyline fill="none" stroke="black" points="66,-355.5 121,-355.5 "/>
<text text-anchor="middle" x="93.5" y="-340.3" font-family="Times,serif" font-size="14.00">output:</text>
<polyline fill="none" stroke="black" points="121,-332.5 121,-378.5 "/>
<text text-anchor="middle" x="180" y="-363.3" font-family="Times,serif" font-size="14.00">(None, 28, 28, 1)</text>
<polyline fill="none" stroke="black" points="121,-355.5 239,-355.5 "/>
<text text-anchor="middle" x="180" y="-340.3" font-family="Times,serif" font-size="14.00">(None, 14, 14, 64)</text>
</g>
<!-- 140633619469704&#45;&gt;140633619470208 -->
<g id="edge2" class="edge"><title>140633619469704-&gt;140633619470208</title>
<path fill="none" stroke="black" d="M121.5,-415.366C121.5,-407.152 121.5,-397.658 121.5,-388.725"/>
<polygon fill="black" stroke="black" points="125,-388.607 121.5,-378.607 118,-388.607 125,-388.607"/>
</g>
<!-- 140633619470600 -->
<g id="node4" class="node"><title>140633619470600</title>
<polygon fill="none" stroke="black" points="4,-249.5 4,-295.5 239,-295.5 239,-249.5 4,-249.5"/>
<text text-anchor="middle" x="35" y="-268.8" font-family="Times,serif" font-size="14.00">Conv2D</text>
<polyline fill="none" stroke="black" points="66,-249.5 66,-295.5 "/>
<text text-anchor="middle" x="93.5" y="-280.3" font-family="Times,serif" font-size="14.00">input:</text>
<polyline fill="none" stroke="black" points="66,-272.5 121,-272.5 "/>
<text text-anchor="middle" x="93.5" y="-257.3" font-family="Times,serif" font-size="14.00">output:</text>
<polyline fill="none" stroke="black" points="121,-249.5 121,-295.5 "/>
<text text-anchor="middle" x="180" y="-280.3" font-family="Times,serif" font-size="14.00">(None, 14, 14, 64)</text>
<polyline fill="none" stroke="black" points="121,-272.5 239,-272.5 "/>
<text text-anchor="middle" x="180" y="-257.3" font-family="Times,serif" font-size="14.00">(None, 14, 14, 64)</text>
</g>
<!-- 140633619470208&#45;&gt;140633619470600 -->
<g id="edge3" class="edge"><title>140633619470208-&gt;140633619470600</title>
<path fill="none" stroke="black" d="M121.5,-332.366C121.5,-324.152 121.5,-314.658 121.5,-305.725"/>
<polygon fill="black" stroke="black" points="125,-305.607 121.5,-295.607 118,-305.607 125,-305.607"/>
</g>
<!-- 140633619470992 -->
<g id="node5" class="node"><title>140633619470992</title>
<polygon fill="none" stroke="black" points="4,-166.5 4,-212.5 239,-212.5 239,-166.5 4,-166.5"/>
<text text-anchor="middle" x="35" y="-185.8" font-family="Times,serif" font-size="14.00">Conv2D</text>
<polyline fill="none" stroke="black" points="66,-166.5 66,-212.5 "/>
<text text-anchor="middle" x="93.5" y="-197.3" font-family="Times,serif" font-size="14.00">input:</text>
<polyline fill="none" stroke="black" points="66,-189.5 121,-189.5 "/>
<text text-anchor="middle" x="93.5" y="-174.3" font-family="Times,serif" font-size="14.00">output:</text>
<polyline fill="none" stroke="black" points="121,-166.5 121,-212.5 "/>
<text text-anchor="middle" x="180" y="-197.3" font-family="Times,serif" font-size="14.00">(None, 14, 14, 64)</text>
<polyline fill="none" stroke="black" points="121,-189.5 239,-189.5 "/>
<text text-anchor="middle" x="180" y="-174.3" font-family="Times,serif" font-size="14.00">(None, 14, 14, 64)</text>
</g>
<!-- 140633619470600&#45;&gt;140633619470992 -->
<g id="edge4" class="edge"><title>140633619470600-&gt;140633619470992</title>
<path fill="none" stroke="black" d="M121.5,-249.366C121.5,-241.152 121.5,-231.658 121.5,-222.725"/>
<polygon fill="black" stroke="black" points="125,-222.607 121.5,-212.607 118,-222.607 125,-222.607"/>
</g>
<!-- 140633619471384 -->
<g id="node6" class="node"><title>140633619471384</title>
<polygon fill="none" stroke="black" points="8,-83.5 8,-129.5 235,-129.5 235,-83.5 8,-83.5"/>
<text text-anchor="middle" x="35" y="-102.8" font-family="Times,serif" font-size="14.00">Flatten</text>
<polyline fill="none" stroke="black" points="62,-83.5 62,-129.5 "/>
<text text-anchor="middle" x="89.5" y="-114.3" font-family="Times,serif" font-size="14.00">input:</text>
<polyline fill="none" stroke="black" points="62,-106.5 117,-106.5 "/>
<text text-anchor="middle" x="89.5" y="-91.3" font-family="Times,serif" font-size="14.00">output:</text>
<polyline fill="none" stroke="black" points="117,-83.5 117,-129.5 "/>
<text text-anchor="middle" x="176" y="-114.3" font-family="Times,serif" font-size="14.00">(None, 14, 14, 64)</text>
<polyline fill="none" stroke="black" points="117,-106.5 235,-106.5 "/>
<text text-anchor="middle" x="176" y="-91.3" font-family="Times,serif" font-size="14.00">(None, 12544)</text>
</g>
<!-- 140633619470992&#45;&gt;140633619471384 -->
<g id="edge5" class="edge"><title>140633619470992-&gt;140633619471384</title>
<path fill="none" stroke="black" d="M121.5,-166.366C121.5,-158.152 121.5,-148.658 121.5,-139.725"/>
<polygon fill="black" stroke="black" points="125,-139.607 121.5,-129.607 118,-139.607 125,-139.607"/>
</g>
<!-- 140633619471552 -->
<g id="node7" class="node"><title>140633619471552</title>
<polygon fill="none" stroke="black" points="21,-0.5 21,-46.5 222,-46.5 222,-0.5 21,-0.5"/>
<text text-anchor="middle" x="46" y="-19.8" font-family="Times,serif" font-size="14.00">Dense</text>
<polyline fill="none" stroke="black" points="71,-0.5 71,-46.5 "/>
<text text-anchor="middle" x="98.5" y="-31.3" font-family="Times,serif" font-size="14.00">input:</text>
<polyline fill="none" stroke="black" points="71,-23.5 126,-23.5 "/>
<text text-anchor="middle" x="98.5" y="-8.3" font-family="Times,serif" font-size="14.00">output:</text>
<polyline fill="none" stroke="black" points="126,-0.5 126,-46.5 "/>
<text text-anchor="middle" x="174" y="-31.3" font-family="Times,serif" font-size="14.00">(None, 12544)</text>
<polyline fill="none" stroke="black" points="126,-23.5 222,-23.5 "/>
<text text-anchor="middle" x="174" y="-8.3" font-family="Times,serif" font-size="14.00">(None, 128)</text>
</g>
<!-- 140633619471384&#45;&gt;140633619471552 -->
<g id="edge6" class="edge"><title>140633619471384-&gt;140633619471552</title>
<path fill="none" stroke="black" d="M121.5,-83.3664C121.5,-75.1516 121.5,-65.6579 121.5,-56.7252"/>
<polygon fill="black" stroke="black" points="125,-56.6068 121.5,-46.6068 118,-56.6069 125,-56.6068"/>
</g>
</g>
</svg>