<svg xmlns="http://www.w3.org/2000/svg" xmlns:xlink="http://www.w3.org/1999/xlink" viewBox="0.00 0.00 298.48 410.00" viewport="0 0 930px 1280px">
<g id="graph0" class="graph" transform="scale(1 1) rotate(0) translate(4 406)">
<title>G</title>
<polygon fill="#ffffff" stroke="transparent" points="-4,4 -4,-406 294.4829,-406 294.4829,4 -4,4"/>
<!-- 4753000488 -->
<g id="node1" class="node">
<title>4753000488</title>
<polygon fill="none" stroke="#000000" points="105.0586,-365.5 105.0586,-401.5 197.6416,-401.5 197.6416,-365.5 105.0586,-365.5"/>
<text text-anchor="middle" x="151.3501" y="-379.3" font-family="Times,serif" font-size="14.00" fill="#000000">x: InputLayer</text>
</g>
<!-- 4752772680 -->
<g id="node2" class="node">
<title>4752772680</title>
<polygon fill="none" stroke="#000000" points="77.4585,-292.5 77.4585,-328.5 225.2417,-328.5 225.2417,-292.5 77.4585,-292.5"/>
<text text-anchor="middle" x="151.3501" y="-306.3" font-family="Times,serif" font-size="14.00" fill="#000000">encoder_hidden: Dense</text>
</g>
<!-- 4753000488&#45;&gt;4752772680 -->
<g id="edge1" class="edge">
<title>4753000488-&gt;4752772680</title>
<path fill="none" stroke="#000000" d="M151.3501,-365.4551C151.3501,-357.3828 151.3501,-347.6764 151.3501,-338.6817"/>
<polygon fill="#000000" stroke="#000000" points="154.8502,-338.5903 151.3501,-328.5904 147.8502,-338.5904 154.8502,-338.5903"/>
</g>
<!-- 4753006040 -->
<g id="node3" class="node">
<title>4753006040</title>
<polygon fill="none" stroke="#000000" points="61.7793,-219.5 61.7793,-255.5 162.9209,-255.5 162.9209,-219.5 61.7793,-219.5"/>
<text text-anchor="middle" x="112.3501" y="-233.3" font-family="Times,serif" font-size="14.00" fill="#000000">log_var: Dense</text>
</g>
<!-- 4752772680&#45;&gt;4753006040 -->
<g id="edge2" class="edge">
<title>4752772680-&gt;4753006040</title>
<path fill="none" stroke="#000000" d="M141.7096,-292.4551C137.2096,-284.0319 131.7589,-273.8292 126.7816,-264.5128"/>
<polygon fill="#000000" stroke="#000000" points="129.8141,-262.7613 122.0148,-255.5904 123.6399,-266.0598 129.8141,-262.7613"/>
</g>
<!-- 4752877888 -->
<g id="node6" class="node">
<title>4752877888</title>
<polygon fill="none" stroke="#000000" points="214.2173,-73.5 214.2173,-109.5 290.4829,-109.5 290.4829,-73.5 214.2173,-73.5"/>
<text text-anchor="middle" x="252.3501" y="-87.3" font-family="Times,serif" font-size="14.00" fill="#000000">mu: Dense</text>
</g>
<!-- 4752772680&#45;&gt;4752877888 -->
<g id="edge4" class="edge">
<title>4752772680-&gt;4752877888</title>
<path fill="none" stroke="#000000" d="M166.1857,-292.2733C184.7286,-268.5542 216.1184,-225.1436 233.3501,-183 241.6655,-162.6631 246.5001,-138.2377 249.2097,-119.7402"/>
<polygon fill="#000000" stroke="#000000" points="252.7079,-119.9867 250.5697,-109.6099 245.7702,-119.0552 252.7079,-119.9867"/>
</g>
<!-- 4753000824 -->
<g id="node4" class="node">
<title>4753000824</title>
<polygon fill="none" stroke="#000000" points="0,-146.5 0,-182.5 102.7002,-182.5 102.7002,-146.5 0,-146.5"/>
<text text-anchor="middle" x="51.3501" y="-160.3" font-family="Times,serif" font-size="14.00" fill="#000000">sigma: Lambda</text>
</g>
<!-- 4753006040&#45;&gt;4753000824 -->
<g id="edge3" class="edge">
<title>4753006040-&gt;4753000824</title>
<path fill="none" stroke="#000000" d="M97.2714,-219.4551C89.9396,-210.6809 80.9944,-199.9759 72.9533,-190.353"/>
<polygon fill="#000000" stroke="#000000" points="75.5647,-188.0197 66.4667,-182.5904 70.1931,-192.5082 75.5647,-188.0197"/>
</g>
<!-- 4753178016 -->
<g id="node7" class="node">
<title>4753178016</title>
<polygon fill="none" stroke="#000000" points="92.2139,-73.5 92.2139,-109.5 196.4863,-109.5 196.4863,-73.5 92.2139,-73.5"/>
<text text-anchor="middle" x="144.3501" y="-87.3" font-family="Times,serif" font-size="14.00" fill="#000000">z_eps: Multiply</text>
</g>
<!-- 4753000824&#45;&gt;4753178016 -->
<g id="edge5" class="edge">
<title>4753000824-&gt;4753178016</title>
<path fill="none" stroke="#000000" d="M74.3389,-146.4551C86.0758,-137.2422 100.5247,-125.9006 113.2422,-115.918"/>
<polygon fill="#000000" stroke="#000000" points="115.5984,-118.518 121.3035,-109.5904 111.2763,-113.0117 115.5984,-118.518"/>
</g>
<!-- 4753000152 -->
<g id="node5" class="node">
<title>4753000152</title>
<polygon fill="none" stroke="#000000" points="120.2275,-146.5 120.2275,-182.5 224.4727,-182.5 224.4727,-146.5 120.2275,-146.5"/>
<text text-anchor="middle" x="172.3501" y="-160.3" font-family="Times,serif" font-size="14.00" fill="#000000">eps: InputLayer</text>
</g>
<!-- 4753000152&#45;&gt;4753178016 -->
<g id="edge6" class="edge">
<title>4753000152-&gt;4753178016</title>
<path fill="none" stroke="#000000" d="M165.4287,-146.4551C162.2652,-138.2074 158.4474,-128.2536 154.9349,-119.0962"/>
<polygon fill="#000000" stroke="#000000" points="158.138,-117.6737 151.2889,-109.5904 151.6023,-120.1806 158.138,-117.6737"/>
</g>
<!-- 4753177960 -->
<g id="node8" class="node">
<title>4753177960</title>
<polygon fill="none" stroke="#000000" points="171.3501,-.5 171.3501,-36.5 225.3501,-36.5 225.3501,-.5 171.3501,-.5"/>
<text text-anchor="middle" x="198.3242" y="-14.3" font-family="Times,serif" font-size="14.00" fill="#000000">z: Add</text>
</g>
<!-- 4752877888&#45;&gt;4753177960 -->
<g id="edge7" class="edge">
<title>4752877888-&gt;4753177960</title>
<path fill="none" stroke="#000000" d="M239.0018,-73.4551C232.5762,-64.7686 224.7508,-54.1898 217.688,-44.642"/>
<polygon fill="#000000" stroke="#000000" points="220.4929,-42.5484 211.732,-36.5904 214.8652,-46.7113 220.4929,-42.5484"/>
</g>
<!-- 4753178016&#45;&gt;4753177960 -->
<g id="edge8" class="edge">
<title>4753178016-&gt;4753177960</title>
<path fill="none" stroke="#000000" d="M157.6984,-73.4551C164.124,-64.7686 171.9494,-54.1898 179.0122,-44.642"/>
<polygon fill="#000000" stroke="#000000" points="181.835,-46.7113 184.9682,-36.5904 176.2073,-42.5484 181.835,-46.7113"/>
</g>
</g>
</svg>