<svg xmlns="http://www.w3.org/2000/svg" xmlns:xlink="http://www.w3.org/1999/xlink" viewBox="0.00 0.00 315.00 483.00" viewport="0 0 260px 400px">
<g id="graph0" class="graph" transform="scale(1 1) rotate(0) translate(4 479)">
<title>G</title>
<polygon fill="#ffffff" stroke="transparent" points="-4,4 -4,-479 311,-479 311,4 -4,4"/>
<!-- 140175855034552 -->
<g id="node1" class="node">
<title>140175855034552</title>
<polygon fill="none" stroke="#000000" points="126,-438.5 126,-474.5 240,-474.5 240,-438.5 126,-438.5"/>
<text text-anchor="middle" x="183" y="-452.8" font-family="Times,serif" font-size="14.00" fill="#000000">x: InputLayer</text>
</g>
<!-- 140175854580456 -->
<g id="node2" class="node">
<title>140175854580456</title>
<polygon fill="none" stroke="#000000" points="91,-365.5 91,-401.5 275,-401.5 275,-365.5 91,-365.5"/>
<text text-anchor="middle" x="183" y="-379.8" font-family="Times,serif" font-size="14.00" fill="#000000">encoder_hidden: Dense</text>
</g>
<!-- 140175855034552&#45;&gt;140175854580456 -->
<g id="edge1" class="edge">
<title>140175855034552-&gt;140175854580456</title>
<path fill="none" stroke="#000000" d="M183,-438.4551C183,-430.3828 183,-420.6764 183,-411.6817"/>
<polygon fill="#000000" stroke="#000000" points="186.5001,-411.5903 183,-401.5904 179.5001,-411.5904 186.5001,-411.5903"/>
</g>
<!-- 140175854580512 -->
<g id="node3" class="node">
<title>140175854580512</title>
<polygon fill="none" stroke="#000000" points="75,-292.5 75,-328.5 167,-328.5 167,-292.5 75,-292.5"/>
<text text-anchor="middle" x="121" y="-306.8" font-family="Times,serif" font-size="14.00" fill="#000000">mu: Dense</text>
</g>
<!-- 140175854580456&#45;&gt;140175854580512 -->
<g id="edge2" class="edge">
<title>140175854580456-&gt;140175854580512</title>
<path fill="none" stroke="#000000" d="M167.6742,-365.4551C160.2221,-356.6809 151.1302,-345.9759 142.9573,-336.353"/>
<polygon fill="#000000" stroke="#000000" points="145.5056,-333.9466 136.3644,-328.5904 140.1702,-338.4781 145.5056,-333.9466"/>
</g>
<!-- 140175854581184 -->
<g id="node4" class="node">
<title>140175854581184</title>
<polygon fill="none" stroke="#000000" points="185,-292.5 185,-328.5 307,-328.5 307,-292.5 185,-292.5"/>
<text text-anchor="middle" x="246" y="-306.8" font-family="Times,serif" font-size="14.00" fill="#000000">log_var: Dense</text>
</g>
<!-- 140175854580456&#45;&gt;140175854581184 -->
<g id="edge3" class="edge">
<title>140175854580456-&gt;140175854581184</title>
<path fill="none" stroke="#000000" d="M198.573,-365.4551C206.1452,-356.6809 215.3838,-345.9759 223.6885,-336.353"/>
<polygon fill="#000000" stroke="#000000" points="226.5039,-338.4477 230.3878,-328.5904 221.2045,-333.8742 226.5039,-338.4477"/>
</g>
<!-- 140175854990168 -->
<g id="node5" class="node">
<title>140175854990168</title>
<polygon fill="none" stroke="#000000" points="92,-219.5 92,-255.5 274,-255.5 274,-219.5 92,-219.5"/>
<text text-anchor="middle" x="183" y="-233.8" font-family="Times,serif" font-size="14.00" fill="#000000">kl: KLDivergenceLayer</text>
</g>
<!-- 140175854580512&#45;&gt;140175854990168 -->
<g id="edge4" class="edge">
<title>140175854580512-&gt;140175854990168</title>
<path fill="none" stroke="#000000" d="M136.3258,-292.4551C143.7779,-283.6809 152.8698,-272.9759 161.0427,-263.353"/>
<polygon fill="#000000" stroke="#000000" points="163.8298,-265.4781 167.6356,-255.5904 158.4944,-260.9466 163.8298,-265.4781"/>
</g>
<!-- 140175854581184&#45;&gt;140175854990168 -->
<g id="edge5" class="edge">
<title>140175854581184-&gt;140175854990168</title>
<path fill="none" stroke="#000000" d="M230.427,-292.4551C222.8548,-283.6809 213.6162,-272.9759 205.3115,-263.353"/>
<polygon fill="#000000" stroke="#000000" points="207.7955,-260.8742 198.6122,-255.5904 202.4961,-265.4477 207.7955,-260.8742"/>
</g>
<!-- 140176957339800 -->
<g id="node6" class="node">
<title>140176957339800</title>
<polygon fill="none" stroke="#000000" points="0,-146.5 0,-182.5 126,-182.5 126,-146.5 0,-146.5"/>
<text text-anchor="middle" x="63" y="-160.8" font-family="Times,serif" font-size="14.00" fill="#000000">sigma: Lambda</text>
</g>
<!-- 140175854990168&#45;&gt;140176957339800 -->
<g id="edge6" class="edge">
<title>140175854990168-&gt;140176957339800</title>
<path fill="none" stroke="#000000" d="M153.3371,-219.4551C137.76,-209.979 118.4807,-198.2508 101.7383,-188.0658"/>
<polygon fill="#000000" stroke="#000000" points="103.1,-184.7974 92.7376,-182.5904 99.4619,-190.7778 103.1,-184.7974"/>
</g>
<!-- 140175854993136 -->
<g id="node9" class="node">
<title>140175854993136</title>
<polygon fill="none" stroke="#000000" points="218,-.5 218,-36.5 280,-36.5 280,-.5 218,-.5"/>
<text text-anchor="middle" x="249" y="-14.8" font-family="Times,serif" font-size="14.00" fill="#000000">z: Add</text>
</g>
<!-- 140175854990168&#45;&gt;140175854993136 -->
<g id="edge9" class="edge">
<title>140175854990168-&gt;140175854993136</title>
<path fill="none" stroke="#000000" d="M240.5572,-219.4931C257.5454,-211.1963 274.1989,-199.4258 284,-183 309.051,-141.017 297.766,-119.9108 284,-73 281.133,-63.23 275.9155,-53.5532 270.3689,-45.1259"/>
<polygon fill="#000000" stroke="#000000" points="273.1652,-43.0175 264.5544,-36.8446 267.4363,-47.0399 273.1652,-43.0175"/>
</g>
<!-- 140175854990000 -->
<g id="node8" class="node">
<title>140175854990000</title>
<polygon fill="none" stroke="#000000" points="114.5,-73.5 114.5,-109.5 275.5,-109.5 275.5,-73.5 114.5,-73.5"/>
<text text-anchor="middle" x="195" y="-87.8" font-family="Times,serif" font-size="14.00" fill="#000000">sigma_eps: Multiply</text>
</g>
<!-- 140176957339800&#45;&gt;140175854990000 -->
<g id="edge7" class="edge">
<title>140176957339800-&gt;140175854990000</title>
<path fill="none" stroke="#000000" d="M95.6292,-146.4551C113.0814,-136.8035 134.758,-124.8156 153.4081,-114.5016"/>
<polygon fill="#000000" stroke="#000000" points="155.2316,-117.4928 162.2887,-109.5904 151.8439,-111.3671 155.2316,-117.4928"/>
</g>
<!-- 140175854990224 -->
<g id="node7" class="node">
<title>140175854990224</title>
<polygon fill="none" stroke="#000000" points="144.5,-146.5 144.5,-182.5 275.5,-182.5 275.5,-146.5 144.5,-146.5"/>
<text text-anchor="middle" x="210" y="-160.8" font-family="Times,serif" font-size="14.00" fill="#000000">eps: InputLayer</text>
</g>
<!-- 140175854990224&#45;&gt;140175854990000 -->
<g id="edge8" class="edge">
<title>140175854990224-&gt;140175854990000</title>
<path fill="none" stroke="#000000" d="M206.2921,-146.4551C204.6154,-138.2951 202.5956,-128.4652 200.7306,-119.3887"/>
<polygon fill="#000000" stroke="#000000" points="204.1584,-118.6812 198.7172,-109.5904 197.3016,-120.0902 204.1584,-118.6812"/>
</g>
<!-- 140175854990000&#45;&gt;140175854993136 -->
<g id="edge10" class="edge">
<title>140175854990000-&gt;140175854993136</title>
<path fill="none" stroke="#000000" d="M208.3483,-73.4551C214.7739,-64.7686 222.5993,-54.1898 229.6621,-44.642"/>
<polygon fill="#000000" stroke="#000000" points="232.4849,-46.7113 235.6181,-36.5904 226.8572,-42.5484 232.4849,-46.7113"/>
</g>
</g>
</svg>