<svg xmlns="http://www.w3.org/2000/svg" xmlns:xlink="http://www.w3.org/1999/xlink" viewBox="0.00 0.00 296.00 410.00" viewport="0 0 924px 1280px">
<g id="graph0" class="graph" transform="scale(1 1) rotate(0) translate(4 406)">
<title>G</title>
<polygon fill="white" stroke="none" points="-4,4 -4,-406 292,-406 292,4 -4,4"/>
<!-- 140393154758472 -->
<g id="node1" class="node"><title>140393154758472</title>
<polygon fill="none" stroke="black" points="135.5,-365.5 135.5,-401.5 226.5,-401.5 226.5,-365.5 135.5,-365.5"/>
<text text-anchor="middle" x="181" y="-379.8" font-family="Times,serif" font-size="14.00">x: InputLayer</text>
</g>
<!-- 140393154684184 -->
<g id="node2" class="node"><title>140393154684184</title>
<polygon fill="none" stroke="black" points="109,-292.5 109,-328.5 253,-328.5 253,-292.5 109,-292.5"/>
<text text-anchor="middle" x="181" y="-306.8" font-family="Times,serif" font-size="14.00">encoder_hidden: Dense</text>
</g>
<!-- 140393154758472&#45;&gt;140393154684184 -->
<g id="edge1" class="edge"><title>140393154758472-&gt;140393154684184</title>
<path fill="none" stroke="black" d="M181,-365.313C181,-357.289 181,-347.547 181,-338.569"/>
<polygon fill="black" stroke="black" points="184.5,-338.529 181,-328.529 177.5,-338.529 184.5,-338.529"/>
</g>
<!-- 140393154756960 -->
<g id="node3" class="node"><title>140393154756960</title>
<polygon fill="none" stroke="black" points="62.5,-219.5 62.5,-255.5 161.5,-255.5 161.5,-219.5 62.5,-219.5"/>
<text text-anchor="middle" x="112" y="-233.8" font-family="Times,serif" font-size="14.00">log_var: Dense</text>
</g>
<!-- 140393154684184&#45;&gt;140393154756960 -->
<g id="edge2" class="edge"><title>140393154684184-&gt;140393154756960</title>
<path fill="none" stroke="black" d="M164.297,-292.313C155.737,-283.505 145.164,-272.625 135.769,-262.958"/>
<polygon fill="black" stroke="black" points="138.029,-260.261 128.549,-255.529 133.009,-265.14 138.029,-260.261"/>
</g>
<!-- 140393154757632 -->
<g id="node6" class="node"><title>140393154757632</title>
<polygon fill="none" stroke="black" points="212,-73.5 212,-109.5 288,-109.5 288,-73.5 212,-73.5"/>
<text text-anchor="middle" x="250" y="-87.8" font-family="Times,serif" font-size="14.00">mu: Dense</text>
</g>
<!-- 140393154684184&#45;&gt;140393154757632 -->
<g id="edge4" class="edge"><title>140393154684184-&gt;140393154757632</title>
<path fill="none" stroke="black" d="M188.912,-292.232C199.68,-268.18 218.98,-223.033 231,-183 237.29,-162.049 242.267,-137.762 245.547,-119.626"/>
<polygon fill="black" stroke="black" points="249.002,-120.184 247.279,-109.73 242.107,-118.977 249.002,-120.184"/>
</g>
<!-- 140393154739168 -->
<g id="node4" class="node"><title>140393154739168</title>
<polygon fill="none" stroke="black" points="0,-146.5 0,-182.5 102,-182.5 102,-146.5 0,-146.5"/>
<text text-anchor="middle" x="51" y="-160.8" font-family="Times,serif" font-size="14.00">sigma: Lambda</text>
</g>
<!-- 140393154756960&#45;&gt;140393154739168 -->
<g id="edge3" class="edge"><title>140393154756960-&gt;140393154739168</title>
<path fill="none" stroke="black" d="M97.2336,-219.313C89.7409,-210.592 80.5036,-199.84 72.2606,-190.246"/>
<polygon fill="black" stroke="black" points="74.8019,-187.833 65.6304,-182.529 69.4924,-192.395 74.8019,-187.833"/>
</g>
<!-- 140393154656464 -->
<g id="node7" class="node"><title>140393154656464</title>
<polygon fill="none" stroke="black" points="90.5,-73.5 90.5,-109.5 193.5,-109.5 193.5,-73.5 90.5,-73.5"/>
<text text-anchor="middle" x="142" y="-87.8" font-family="Times,serif" font-size="14.00">z_eps: Multiply</text>
</g>
<!-- 140393154739168&#45;&gt;140393154656464 -->
<g id="edge5" class="edge"><title>140393154739168-&gt;140393154656464</title>
<path fill="none" stroke="black" d="M73.0286,-146.313C84.7652,-137.156 99.371,-125.76 112.116,-115.816"/>
<polygon fill="black" stroke="black" points="114.443,-118.44 120.174,-109.529 110.137,-112.921 114.443,-118.44"/>
</g>
<!-- 140393154758136 -->
<g id="node5" class="node"><title>140393154758136</title>
<polygon fill="none" stroke="black" points="120,-146.5 120,-182.5 222,-182.5 222,-146.5 120,-146.5"/>
<text text-anchor="middle" x="171" y="-160.8" font-family="Times,serif" font-size="14.00">eps: InputLayer</text>
</g>
<!-- 140393154758136&#45;&gt;140393154656464 -->
<g id="edge6" class="edge"><title>140393154758136-&gt;140393154656464</title>
<path fill="none" stroke="black" d="M163.98,-146.313C160.632,-138.115 156.55,-128.123 152.818,-118.985"/>
<polygon fill="black" stroke="black" points="155.977,-117.463 148.955,-109.529 149.497,-120.11 155.977,-117.463"/>
</g>
<!-- 140393155534296 -->
<g id="node8" class="node"><title>140393155534296</title>
<polygon fill="none" stroke="black" points="169,-0.5 169,-36.5 223,-36.5 223,-0.5 169,-0.5"/>
<text text-anchor="middle" x="196" y="-14.8" font-family="Times,serif" font-size="14.00">z: Add</text>
</g>
<!-- 140393154757632&#45;&gt;140393155534296 -->
<g id="edge7" class="edge"><title>140393154757632-&gt;140393155534296</title>
<path fill="none" stroke="black" d="M236.928,-73.3129C230.362,-64.679 222.281,-54.0551 215.04,-44.5341"/>
<polygon fill="black" stroke="black" points="217.791,-42.3695 208.952,-36.5288 212.219,-46.6071 217.791,-42.3695"/>
</g>
<!-- 140393154656464&#45;&gt;140393155534296 -->
<g id="edge8" class="edge"><title>140393154656464-&gt;140393155534296</title>
<path fill="none" stroke="black" d="M155.072,-73.3129C161.638,-64.679 169.719,-54.0551 176.96,-44.5341"/>
<polygon fill="black" stroke="black" points="179.781,-46.6071 183.048,-36.5288 174.209,-42.3695 179.781,-46.6071"/>
</g>
</g>
</svg>