<svg xmlns="http://www.w3.org/2000/svg" xmlns:xlink="http://www.w3.org/1999/xlink" viewBox="0.00 0.00 564.50 553.00" viewport="0 0 1280px 1252px">
<g id="graph0" class="graph" transform="scale(1 1) rotate(0) translate(4 549)">
<title>G</title>
<polygon fill="white" stroke="none" points="-4,4 -4,-549 560.5,-549 560.5,4 -4,4"/>
<!-- 139691752753696 -->
<g id="node1" class="node"><title>139691752753696</title>
<polygon fill="none" stroke="black" points="201.5,-498.5 201.5,-544.5 430.5,-544.5 430.5,-498.5 201.5,-498.5"/>
<text text-anchor="middle" x="247" y="-517.8" font-family="Times,serif" font-size="14.00">x: InputLayer</text>
<polyline fill="none" stroke="black" points="292.5,-498.5 292.5,-544.5 "/>
<text text-anchor="middle" x="320" y="-529.3" font-family="Times,serif" font-size="14.00">input:</text>
<polyline fill="none" stroke="black" points="292.5,-521.5 347.5,-521.5 "/>
<text text-anchor="middle" x="320" y="-506.3" font-family="Times,serif" font-size="14.00">output:</text>
<polyline fill="none" stroke="black" points="347.5,-498.5 347.5,-544.5 "/>
<text text-anchor="middle" x="389" y="-529.3" font-family="Times,serif" font-size="14.00">(None, 784)</text>
<polyline fill="none" stroke="black" points="347.5,-521.5 430.5,-521.5 "/>
<text text-anchor="middle" x="389" y="-506.3" font-family="Times,serif" font-size="14.00">(None, 784)</text>
</g>
<!-- 139691752809528 -->
<g id="node2" class="node"><title>139691752809528</title>
<polygon fill="none" stroke="black" points="175,-415.5 175,-461.5 457,-461.5 457,-415.5 175,-415.5"/>
<text text-anchor="middle" x="247" y="-434.8" font-family="Times,serif" font-size="14.00">encoder_hidden: Dense</text>
<polyline fill="none" stroke="black" points="319,-415.5 319,-461.5 "/>
<text text-anchor="middle" x="346.5" y="-446.3" font-family="Times,serif" font-size="14.00">input:</text>
<polyline fill="none" stroke="black" points="319,-438.5 374,-438.5 "/>
<text text-anchor="middle" x="346.5" y="-423.3" font-family="Times,serif" font-size="14.00">output:</text>
<polyline fill="none" stroke="black" points="374,-415.5 374,-461.5 "/>
<text text-anchor="middle" x="415.5" y="-446.3" font-family="Times,serif" font-size="14.00">(None, 784)</text>
<polyline fill="none" stroke="black" points="374,-438.5 457,-438.5 "/>
<text text-anchor="middle" x="415.5" y="-423.3" font-family="Times,serif" font-size="14.00">(None, 256)</text>
</g>
<!-- 139691752753696&#45;&gt;139691752809528 -->
<g id="edge1" class="edge"><title>139691752753696-&gt;139691752809528</title>
<path fill="none" stroke="black" d="M316,-498.366C316,-490.152 316,-480.658 316,-471.725"/>
<polygon fill="black" stroke="black" points="319.5,-471.607 316,-461.607 312.5,-471.607 319.5,-471.607"/>
</g>
<!-- 139691752796568 -->
<g id="node3" class="node"><title>139691752796568</title>
<polygon fill="none" stroke="black" points="87,-332.5 87,-378.5 301,-378.5 301,-332.5 87,-332.5"/>
<text text-anchor="middle" x="125" y="-351.8" font-family="Times,serif" font-size="14.00">mu: Dense</text>
<polyline fill="none" stroke="black" points="163,-332.5 163,-378.5 "/>
<text text-anchor="middle" x="190.5" y="-363.3" font-family="Times,serif" font-size="14.00">input:</text>
<polyline fill="none" stroke="black" points="163,-355.5 218,-355.5 "/>
<text text-anchor="middle" x="190.5" y="-340.3" font-family="Times,serif" font-size="14.00">output:</text>
<polyline fill="none" stroke="black" points="218,-332.5 218,-378.5 "/>
<text text-anchor="middle" x="259.5" y="-363.3" font-family="Times,serif" font-size="14.00">(None, 256)</text>
<polyline fill="none" stroke="black" points="218,-355.5 301,-355.5 "/>
<text text-anchor="middle" x="259.5" y="-340.3" font-family="Times,serif" font-size="14.00">(None, 2)</text>
</g>
<!-- 139691752809528&#45;&gt;139691752796568 -->
<g id="edge2" class="edge"><title>139691752809528-&gt;139691752796568</title>
<path fill="none" stroke="black" d="M282.663,-415.366C268.273,-405.812 251.277,-394.528 236.035,-384.409"/>
<polygon fill="black" stroke="black" points="237.564,-381.222 227.297,-378.607 233.692,-387.054 237.564,-381.222"/>
</g>
<!-- 139691752752744 -->
<g id="node4" class="node"><title>139691752752744</title>
<polygon fill="none" stroke="black" points="319.5,-332.5 319.5,-378.5 556.5,-378.5 556.5,-332.5 319.5,-332.5"/>
<text text-anchor="middle" x="369" y="-351.8" font-family="Times,serif" font-size="14.00">log_var: Dense</text>
<polyline fill="none" stroke="black" points="418.5,-332.5 418.5,-378.5 "/>
<text text-anchor="middle" x="446" y="-363.3" font-family="Times,serif" font-size="14.00">input:</text>
<polyline fill="none" stroke="black" points="418.5,-355.5 473.5,-355.5 "/>
<text text-anchor="middle" x="446" y="-340.3" font-family="Times,serif" font-size="14.00">output:</text>
<polyline fill="none" stroke="black" points="473.5,-332.5 473.5,-378.5 "/>
<text text-anchor="middle" x="515" y="-363.3" font-family="Times,serif" font-size="14.00">(None, 256)</text>
<polyline fill="none" stroke="black" points="473.5,-355.5 556.5,-355.5 "/>
<text text-anchor="middle" x="515" y="-340.3" font-family="Times,serif" font-size="14.00">(None, 2)</text>
</g>
<!-- 139691752809528&#45;&gt;139691752752744 -->
<g id="edge3" class="edge"><title>139691752809528-&gt;139691752752744</title>
<path fill="none" stroke="black" d="M349.337,-415.366C363.727,-405.812 380.723,-394.528 395.965,-384.409"/>
<polygon fill="black" stroke="black" points="398.308,-387.054 404.703,-378.607 394.436,-381.222 398.308,-387.054"/>
</g>
<!-- 139691753249256 -->
<g id="node5" class="node"><title>139691753249256</title>
<polygon fill="none" stroke="black" points="146.5,-249.5 146.5,-295.5 485.5,-295.5 485.5,-249.5 146.5,-249.5"/>
<text text-anchor="middle" x="219.5" y="-268.8" font-family="Times,serif" font-size="14.00">kl: KLDivergenceLayer</text>
<polyline fill="none" stroke="black" points="292.5,-249.5 292.5,-295.5 "/>
<text text-anchor="middle" x="320" y="-280.3" font-family="Times,serif" font-size="14.00">input:</text>
<polyline fill="none" stroke="black" points="292.5,-272.5 347.5,-272.5 "/>
<text text-anchor="middle" x="320" y="-257.3" font-family="Times,serif" font-size="14.00">output:</text>
<polyline fill="none" stroke="black" points="347.5,-249.5 347.5,-295.5 "/>
<text text-anchor="middle" x="416.5" y="-280.3" font-family="Times,serif" font-size="14.00">[(None, 2), (None, 2)]</text>
<polyline fill="none" stroke="black" points="347.5,-272.5 485.5,-272.5 "/>
<text text-anchor="middle" x="416.5" y="-257.3" font-family="Times,serif" font-size="14.00">[(None, 2), (None, 2)]</text>
</g>
<!-- 139691752796568&#45;&gt;139691753249256 -->
<g id="edge4" class="edge"><title>139691752796568-&gt;139691753249256</title>
<path fill="none" stroke="black" d="M227.337,-332.366C241.727,-322.812 258.723,-311.528 273.965,-301.409"/>
<polygon fill="black" stroke="black" points="276.308,-304.054 282.703,-295.607 272.436,-298.222 276.308,-304.054"/>
</g>
<!-- 139691752752744&#45;&gt;139691753249256 -->
<g id="edge5" class="edge"><title>139691752752744-&gt;139691753249256</title>
<path fill="none" stroke="black" d="M404.663,-332.366C390.273,-322.812 373.277,-311.528 358.035,-301.409"/>
<polygon fill="black" stroke="black" points="359.564,-298.222 349.297,-295.607 355.692,-304.054 359.564,-298.222"/>
</g>
<!-- 139691753937216 -->
<g id="node6" class="node"><title>139691753937216</title>
<polygon fill="none" stroke="black" points="0,-166.5 0,-212.5 226,-212.5 226,-166.5 0,-166.5"/>
<text text-anchor="middle" x="51" y="-185.8" font-family="Times,serif" font-size="14.00">sigma: Lambda</text>
<polyline fill="none" stroke="black" points="102,-166.5 102,-212.5 "/>
<text text-anchor="middle" x="129.5" y="-197.3" font-family="Times,serif" font-size="14.00">input:</text>
<polyline fill="none" stroke="black" points="102,-189.5 157,-189.5 "/>
<text text-anchor="middle" x="129.5" y="-174.3" font-family="Times,serif" font-size="14.00">output:</text>
<polyline fill="none" stroke="black" points="157,-166.5 157,-212.5 "/>
<text text-anchor="middle" x="191.5" y="-197.3" font-family="Times,serif" font-size="14.00">(None, 2)</text>
<polyline fill="none" stroke="black" points="157,-189.5 226,-189.5 "/>
<text text-anchor="middle" x="191.5" y="-174.3" font-family="Times,serif" font-size="14.00">(None, 2)</text>
</g>
<!-- 139691753249256&#45;&gt;139691753937216 -->
<g id="edge6" class="edge"><title>139691753249256-&gt;139691753937216</title>
<path fill="none" stroke="black" d="M260.797,-249.473C235.067,-239.206 204.284,-226.924 177.488,-216.232"/>
<polygon fill="black" stroke="black" points="178.777,-212.978 168.192,-212.522 176.182,-219.479 178.777,-212.978"/>
</g>
<!-- 139691753249032 -->
<g id="node9" class="node"><title>139691753249032</title>
<polygon fill="none" stroke="black" points="302,-0.5 302,-46.5 548,-46.5 548,-0.5 302,-0.5"/>
<text text-anchor="middle" x="328.5" y="-19.8" font-family="Times,serif" font-size="14.00">z: Add</text>
<polyline fill="none" stroke="black" points="355,-0.5 355,-46.5 "/>
<text text-anchor="middle" x="382.5" y="-31.3" font-family="Times,serif" font-size="14.00">input:</text>
<polyline fill="none" stroke="black" points="355,-23.5 410,-23.5 "/>
<text text-anchor="middle" x="382.5" y="-8.3" font-family="Times,serif" font-size="14.00">output:</text>
<polyline fill="none" stroke="black" points="410,-0.5 410,-46.5 "/>
<text text-anchor="middle" x="479" y="-31.3" font-family="Times,serif" font-size="14.00">[(None, 2), (None, 2)]</text>
<polyline fill="none" stroke="black" points="410,-23.5 548,-23.5 "/>
<text text-anchor="middle" x="479" y="-8.3" font-family="Times,serif" font-size="14.00">(None, 2)</text>
</g>
<!-- 139691753249256&#45;&gt;139691753249032 -->
<g id="edge9" class="edge"><title>139691753249256-&gt;139691753249032</title>
<path fill="none" stroke="black" d="M453.99,-249.466C471.985,-240.873 488.226,-229.098 500,-213 534.109,-166.365 525.349,-134.92 500,-83 494.283,-71.2909 484.965,-61.2422 474.809,-52.9428"/>
<polygon fill="black" stroke="black" points="476.619,-49.9221 466.537,-46.6635 472.386,-55.4976 476.619,-49.9221"/>
</g>
<!-- 139691753249648 -->
<g id="node8" class="node"><title>139691753249648</title>
<polygon fill="none" stroke="black" points="168.5,-83.5 168.5,-129.5 491.5,-129.5 491.5,-83.5 168.5,-83.5"/>
<text text-anchor="middle" x="233.5" y="-102.8" font-family="Times,serif" font-size="14.00">sigma_eps: Multiply</text>
<polyline fill="none" stroke="black" points="298.5,-83.5 298.5,-129.5 "/>
<text text-anchor="middle" x="326" y="-114.3" font-family="Times,serif" font-size="14.00">input:</text>
<polyline fill="none" stroke="black" points="298.5,-106.5 353.5,-106.5 "/>
<text text-anchor="middle" x="326" y="-91.3" font-family="Times,serif" font-size="14.00">output:</text>
<polyline fill="none" stroke="black" points="353.5,-83.5 353.5,-129.5 "/>
<text text-anchor="middle" x="422.5" y="-114.3" font-family="Times,serif" font-size="14.00">[(None, 2), (None, 2)]</text>
<polyline fill="none" stroke="black" points="353.5,-106.5 491.5,-106.5 "/>
<text text-anchor="middle" x="422.5" y="-91.3" font-family="Times,serif" font-size="14.00">(None, 2)</text>
</g>
<!-- 139691753937216&#45;&gt;139691753249648 -->
<g id="edge7" class="edge"><title>139691753937216-&gt;139691753249648</title>
<path fill="none" stroke="black" d="M172.01,-166.473C199.635,-156.162 232.708,-143.816 261.439,-133.092"/>
<polygon fill="black" stroke="black" points="262.858,-136.298 271.002,-129.522 260.41,-129.74 262.858,-136.298"/>
</g>
<!-- 139691753249592 -->
<g id="node7" class="node"><title>139691753249592</title>
<polygon fill="none" stroke="black" points="244.5,-166.5 244.5,-212.5 491.5,-212.5 491.5,-166.5 244.5,-166.5"/>
<text text-anchor="middle" x="306" y="-185.8" font-family="Times,serif" font-size="14.00">epsilon: InputLayer</text>
<polyline fill="none" stroke="black" points="367.5,-166.5 367.5,-212.5 "/>
<text text-anchor="middle" x="395" y="-197.3" font-family="Times,serif" font-size="14.00">input:</text>
<polyline fill="none" stroke="black" points="367.5,-189.5 422.5,-189.5 "/>
<text text-anchor="middle" x="395" y="-174.3" font-family="Times,serif" font-size="14.00">output:</text>
<polyline fill="none" stroke="black" points="422.5,-166.5 422.5,-212.5 "/>
<text text-anchor="middle" x="457" y="-197.3" font-family="Times,serif" font-size="14.00">(None, 2)</text>
<polyline fill="none" stroke="black" points="422.5,-189.5 491.5,-189.5 "/>
<text text-anchor="middle" x="457" y="-174.3" font-family="Times,serif" font-size="14.00">(None, 2)</text>
</g>
<!-- 139691753249592&#45;&gt;139691753249648 -->
<g id="edge8" class="edge"><title>139691753249592-&gt;139691753249648</title>
<path fill="none" stroke="black" d="M357.616,-166.366C353.637,-157.884 349.018,-148.037 344.709,-138.853"/>
<polygon fill="black" stroke="black" points="347.787,-137.174 340.371,-129.607 341.45,-140.147 347.787,-137.174"/>
</g>
<!-- 139691753249648&#45;&gt;139691753249032 -->
<g id="edge10" class="edge"><title>139691753249648-&gt;139691753249032</title>
<path fill="none" stroke="black" d="M355.959,-83.3664C366.85,-74.0802 379.659,-63.1595 391.266,-53.2625"/>
<polygon fill="black" stroke="black" points="393.734,-55.7583 399.072,-46.6068 389.192,-50.4316 393.734,-55.7583"/>
</g>
</g>
</svg>