<svg xmlns="http://www.w3.org/2000/svg" xmlns:xlink="http://www.w3.org/1999/xlink" viewBox="0.00 0.00 553.50 553.00" viewport="0 0 400px 399px">
<g id="graph0" class="graph" transform="scale(1 1) rotate(0) translate(4 549)">
<title>G</title>
<polygon fill="white" stroke="none" points="-4,4 -4,-549 549.5,-549 549.5,4 -4,4"/>
<!-- 139739430199872 -->
<g id="node1" class="node"><title>139739430199872</title>
<polygon fill="none" stroke="black" points="190.5,-498.5 190.5,-544.5 419.5,-544.5 419.5,-498.5 190.5,-498.5"/>
<text text-anchor="middle" x="236" y="-517.8" font-family="Times,serif" font-size="14.00">x: InputLayer</text>
<polyline fill="none" stroke="black" points="281.5,-498.5 281.5,-544.5 "/>
<text text-anchor="middle" x="309" y="-529.3" font-family="Times,serif" font-size="14.00">input:</text>
<polyline fill="none" stroke="black" points="281.5,-521.5 336.5,-521.5 "/>
<text text-anchor="middle" x="309" y="-506.3" font-family="Times,serif" font-size="14.00">output:</text>
<polyline fill="none" stroke="black" points="336.5,-498.5 336.5,-544.5 "/>
<text text-anchor="middle" x="378" y="-529.3" font-family="Times,serif" font-size="14.00">(None, 784)</text>
<polyline fill="none" stroke="black" points="336.5,-521.5 419.5,-521.5 "/>
<text text-anchor="middle" x="378" y="-506.3" font-family="Times,serif" font-size="14.00">(None, 784)</text>
</g>
<!-- 139739430199816 -->
<g id="node2" class="node"><title>139739430199816</title>
<polygon fill="none" stroke="black" points="164,-415.5 164,-461.5 446,-461.5 446,-415.5 164,-415.5"/>
<text text-anchor="middle" x="236" y="-434.8" font-family="Times,serif" font-size="14.00">encoder_hidden: Dense</text>
<polyline fill="none" stroke="black" points="308,-415.5 308,-461.5 "/>
<text text-anchor="middle" x="335.5" y="-446.3" font-family="Times,serif" font-size="14.00">input:</text>
<polyline fill="none" stroke="black" points="308,-438.5 363,-438.5 "/>
<text text-anchor="middle" x="335.5" y="-423.3" font-family="Times,serif" font-size="14.00">output:</text>
<polyline fill="none" stroke="black" points="363,-415.5 363,-461.5 "/>
<text text-anchor="middle" x="404.5" y="-446.3" font-family="Times,serif" font-size="14.00">(None, 784)</text>
<polyline fill="none" stroke="black" points="363,-438.5 446,-438.5 "/>
<text text-anchor="middle" x="404.5" y="-423.3" font-family="Times,serif" font-size="14.00">(None, 256)</text>
</g>
<!-- 139739430199872&#45;&gt;139739430199816 -->
<g id="edge1" class="edge"><title>139739430199872-&gt;139739430199816</title>
<path fill="none" stroke="black" d="M305,-498.366C305,-490.152 305,-480.658 305,-471.725"/>
<polygon fill="black" stroke="black" points="308.5,-471.607 305,-461.607 301.5,-471.607 308.5,-471.607"/>
</g>
<!-- 139739431418568 -->
<g id="node3" class="node"><title>139739431418568</title>
<polygon fill="none" stroke="black" points="76,-332.5 76,-378.5 290,-378.5 290,-332.5 76,-332.5"/>
<text text-anchor="middle" x="114" y="-351.8" font-family="Times,serif" font-size="14.00">mu: Dense</text>
<polyline fill="none" stroke="black" points="152,-332.5 152,-378.5 "/>
<text text-anchor="middle" x="179.5" y="-363.3" font-family="Times,serif" font-size="14.00">input:</text>
<polyline fill="none" stroke="black" points="152,-355.5 207,-355.5 "/>
<text text-anchor="middle" x="179.5" y="-340.3" font-family="Times,serif" font-size="14.00">output:</text>
<polyline fill="none" stroke="black" points="207,-332.5 207,-378.5 "/>
<text text-anchor="middle" x="248.5" y="-363.3" font-family="Times,serif" font-size="14.00">(None, 256)</text>
<polyline fill="none" stroke="black" points="207,-355.5 290,-355.5 "/>
<text text-anchor="middle" x="248.5" y="-340.3" font-family="Times,serif" font-size="14.00">(None, 2)</text>
</g>
<!-- 139739430199816&#45;&gt;139739431418568 -->
<g id="edge2" class="edge"><title>139739430199816-&gt;139739431418568</title>
<path fill="none" stroke="black" d="M271.663,-415.366C257.273,-405.812 240.277,-394.528 225.035,-384.409"/>
<polygon fill="black" stroke="black" points="226.564,-381.222 216.297,-378.607 222.692,-387.054 226.564,-381.222"/>
</g>
<!-- 139739430199648 -->
<g id="node4" class="node"><title>139739430199648</title>
<polygon fill="none" stroke="black" points="308.5,-332.5 308.5,-378.5 545.5,-378.5 545.5,-332.5 308.5,-332.5"/>
<text text-anchor="middle" x="358" y="-351.8" font-family="Times,serif" font-size="14.00">log_var: Dense</text>
<polyline fill="none" stroke="black" points="407.5,-332.5 407.5,-378.5 "/>
<text text-anchor="middle" x="435" y="-363.3" font-family="Times,serif" font-size="14.00">input:</text>
<polyline fill="none" stroke="black" points="407.5,-355.5 462.5,-355.5 "/>
<text text-anchor="middle" x="435" y="-340.3" font-family="Times,serif" font-size="14.00">output:</text>
<polyline fill="none" stroke="black" points="462.5,-332.5 462.5,-378.5 "/>
<text text-anchor="middle" x="504" y="-363.3" font-family="Times,serif" font-size="14.00">(None, 256)</text>
<polyline fill="none" stroke="black" points="462.5,-355.5 545.5,-355.5 "/>
<text text-anchor="middle" x="504" y="-340.3" font-family="Times,serif" font-size="14.00">(None, 2)</text>
</g>
<!-- 139739430199816&#45;&gt;139739430199648 -->
<g id="edge3" class="edge"><title>139739430199816-&gt;139739430199648</title>
<path fill="none" stroke="black" d="M338.337,-415.366C352.727,-405.812 369.723,-394.528 384.965,-384.409"/>
<polygon fill="black" stroke="black" points="387.308,-387.054 393.703,-378.607 383.436,-381.222 387.308,-387.054"/>
</g>
<!-- 139739429354576 -->
<g id="node5" class="node"><title>139739429354576</title>
<polygon fill="none" stroke="black" points="135.5,-249.5 135.5,-295.5 474.5,-295.5 474.5,-249.5 135.5,-249.5"/>
<text text-anchor="middle" x="208.5" y="-268.8" font-family="Times,serif" font-size="14.00">kl: KLDivergenceLayer</text>
<polyline fill="none" stroke="black" points="281.5,-249.5 281.5,-295.5 "/>
<text text-anchor="middle" x="309" y="-280.3" font-family="Times,serif" font-size="14.00">input:</text>
<polyline fill="none" stroke="black" points="281.5,-272.5 336.5,-272.5 "/>
<text text-anchor="middle" x="309" y="-257.3" font-family="Times,serif" font-size="14.00">output:</text>
<polyline fill="none" stroke="black" points="336.5,-249.5 336.5,-295.5 "/>
<text text-anchor="middle" x="405.5" y="-280.3" font-family="Times,serif" font-size="14.00">[(None, 2), (None, 2)]</text>
<polyline fill="none" stroke="black" points="336.5,-272.5 474.5,-272.5 "/>
<text text-anchor="middle" x="405.5" y="-257.3" font-family="Times,serif" font-size="14.00">[(None, 2), (None, 2)]</text>
</g>
<!-- 139739431418568&#45;&gt;139739429354576 -->
<g id="edge4" class="edge"><title>139739431418568-&gt;139739429354576</title>
<path fill="none" stroke="black" d="M216.337,-332.366C230.727,-322.812 247.723,-311.528 262.965,-301.409"/>
<polygon fill="black" stroke="black" points="265.308,-304.054 271.703,-295.607 261.436,-298.222 265.308,-304.054"/>
</g>
<!-- 139739430199648&#45;&gt;139739429354576 -->
<g id="edge5" class="edge"><title>139739430199648-&gt;139739429354576</title>
<path fill="none" stroke="black" d="M393.663,-332.366C379.273,-322.812 362.277,-311.528 347.035,-301.409"/>
<polygon fill="black" stroke="black" points="348.564,-298.222 338.297,-295.607 344.692,-304.054 348.564,-298.222"/>
</g>
<!-- 139739429353064 -->
<g id="node6" class="node"><title>139739429353064</title>
<polygon fill="none" stroke="black" points="0,-166.5 0,-212.5 226,-212.5 226,-166.5 0,-166.5"/>
<text text-anchor="middle" x="51" y="-185.8" font-family="Times,serif" font-size="14.00">sigma: Lambda</text>
<polyline fill="none" stroke="black" points="102,-166.5 102,-212.5 "/>
<text text-anchor="middle" x="129.5" y="-197.3" font-family="Times,serif" font-size="14.00">input:</text>
<polyline fill="none" stroke="black" points="102,-189.5 157,-189.5 "/>
<text text-anchor="middle" x="129.5" y="-174.3" font-family="Times,serif" font-size="14.00">output:</text>
<polyline fill="none" stroke="black" points="157,-166.5 157,-212.5 "/>
<text text-anchor="middle" x="191.5" y="-197.3" font-family="Times,serif" font-size="14.00">(None, 2)</text>
<polyline fill="none" stroke="black" points="157,-189.5 226,-189.5 "/>
<text text-anchor="middle" x="191.5" y="-174.3" font-family="Times,serif" font-size="14.00">(None, 2)</text>
</g>
<!-- 139739429354576&#45;&gt;139739429353064 -->
<g id="edge6" class="edge"><title>139739429354576-&gt;139739429353064</title>
<path fill="none" stroke="black" d="M252.789,-249.473C228.665,-239.296 199.845,-227.138 174.659,-216.512"/>
<polygon fill="black" stroke="black" points="175.775,-213.185 165.201,-212.522 173.054,-219.634 175.775,-213.185"/>
</g>
<!-- 139739429354800 -->
<g id="node9" class="node"><title>139739429354800</title>
<polygon fill="none" stroke="black" points="280,-0.5 280,-46.5 526,-46.5 526,-0.5 280,-0.5"/>
<text text-anchor="middle" x="306.5" y="-19.8" font-family="Times,serif" font-size="14.00">z: Add</text>
<polyline fill="none" stroke="black" points="333,-0.5 333,-46.5 "/>
<text text-anchor="middle" x="360.5" y="-31.3" font-family="Times,serif" font-size="14.00">input:</text>
<polyline fill="none" stroke="black" points="333,-23.5 388,-23.5 "/>
<text text-anchor="middle" x="360.5" y="-8.3" font-family="Times,serif" font-size="14.00">output:</text>
<polyline fill="none" stroke="black" points="388,-0.5 388,-46.5 "/>
<text text-anchor="middle" x="457" y="-31.3" font-family="Times,serif" font-size="14.00">[(None, 2), (None, 2)]</text>
<polyline fill="none" stroke="black" points="388,-23.5 526,-23.5 "/>
<text text-anchor="middle" x="457" y="-8.3" font-family="Times,serif" font-size="14.00">(None, 2)</text>
</g>
<!-- 139739429354576&#45;&gt;139739429354800 -->
<g id="edge9" class="edge"><title>139739429354576-&gt;139739429354800</title>
<path fill="none" stroke="black" d="M433.024,-249.48C451.054,-240.937 467.374,-229.174 479,-213 486.886,-202.029 490.342,-107.898 478,-83 472.213,-71.3256 462.868,-61.2902 452.708,-52.9925"/>
<polygon fill="black" stroke="black" points="454.519,-49.9726 444.438,-46.7124 450.285,-55.5475 454.519,-49.9726"/>
</g>
<!-- 139739429354408 -->
<g id="node8" class="node"><title>139739429354408</title>
<polygon fill="none" stroke="black" points="146.5,-83.5 146.5,-129.5 469.5,-129.5 469.5,-83.5 146.5,-83.5"/>
<text text-anchor="middle" x="211.5" y="-102.8" font-family="Times,serif" font-size="14.00">sigma_eps: Multiply</text>
<polyline fill="none" stroke="black" points="276.5,-83.5 276.5,-129.5 "/>
<text text-anchor="middle" x="304" y="-114.3" font-family="Times,serif" font-size="14.00">input:</text>
<polyline fill="none" stroke="black" points="276.5,-106.5 331.5,-106.5 "/>
<text text-anchor="middle" x="304" y="-91.3" font-family="Times,serif" font-size="14.00">output:</text>
<polyline fill="none" stroke="black" points="331.5,-83.5 331.5,-129.5 "/>
<text text-anchor="middle" x="400.5" y="-114.3" font-family="Times,serif" font-size="14.00">[(None, 2), (None, 2)]</text>
<polyline fill="none" stroke="black" points="331.5,-106.5 469.5,-106.5 "/>
<text text-anchor="middle" x="400.5" y="-91.3" font-family="Times,serif" font-size="14.00">(None, 2)</text>
</g>
<!-- 139739429353064&#45;&gt;139739429354408 -->
<g id="edge7" class="edge"><title>139739429353064-&gt;139739429354408</title>
<path fill="none" stroke="black" d="M166.027,-166.473C190.636,-156.251 220.056,-144.031 245.716,-133.372"/>
<polygon fill="black" stroke="black" points="247.091,-136.591 254.984,-129.522 244.406,-130.126 247.091,-136.591"/>
</g>
<!-- 139739429351496 -->
<g id="node7" class="node"><title>139739429351496</title>
<polygon fill="none" stroke="black" points="244,-166.5 244,-212.5 470,-212.5 470,-166.5 244,-166.5"/>
<text text-anchor="middle" x="295" y="-185.8" font-family="Times,serif" font-size="14.00">eps: InputLayer</text>
<polyline fill="none" stroke="black" points="346,-166.5 346,-212.5 "/>
<text text-anchor="middle" x="373.5" y="-197.3" font-family="Times,serif" font-size="14.00">input:</text>
<polyline fill="none" stroke="black" points="346,-189.5 401,-189.5 "/>
<text text-anchor="middle" x="373.5" y="-174.3" font-family="Times,serif" font-size="14.00">output:</text>
<polyline fill="none" stroke="black" points="401,-166.5 401,-212.5 "/>
<text text-anchor="middle" x="435.5" y="-197.3" font-family="Times,serif" font-size="14.00">(None, 2)</text>
<polyline fill="none" stroke="black" points="401,-189.5 470,-189.5 "/>
<text text-anchor="middle" x="435.5" y="-174.3" font-family="Times,serif" font-size="14.00">(None, 2)</text>
</g>
<!-- 139739429351496&#45;&gt;139739429354408 -->
<g id="edge8" class="edge"><title>139739429351496-&gt;139739429354408</title>
<path fill="none" stroke="black" d="M343.611,-166.366C338.371,-157.705 332.271,-147.622 326.616,-138.274"/>
<polygon fill="black" stroke="black" points="329.544,-136.351 321.373,-129.607 323.555,-139.975 329.544,-136.351"/>
</g>
<!-- 139739429354408&#45;&gt;139739429354800 -->
<g id="edge10" class="edge"><title>139739429354408-&gt;139739429354800</title>
<path fill="none" stroke="black" d="M333.959,-83.3664C344.85,-74.0802 357.659,-63.1595 369.266,-53.2625"/>
<polygon fill="black" stroke="black" points="371.734,-55.7583 377.072,-46.6068 367.192,-50.4316 371.734,-55.7583"/>
</g>
</g>
</svg>