<svg xmlns="http://www.w3.org/2000/svg" xmlns:xlink="http://www.w3.org/1999/xlink" viewBox="0.00 0.00 564.50 553.00" viewport="0 0 1280px 1252px">
<g id="graph0" class="graph" transform="scale(1 1) rotate(0) translate(4 549)">
<title>G</title>
<polygon fill="white" stroke="none" points="-4,4 -4,-549 560.5,-549 560.5,4 -4,4"/>
<!-- 140393154758472 -->
<g id="node1" class="node"><title>140393154758472</title>
<polygon fill="none" stroke="black" points="201.5,-498.5 201.5,-544.5 430.5,-544.5 430.5,-498.5 201.5,-498.5"/>
<text text-anchor="middle" x="247" y="-517.8" font-family="Times,serif" font-size="14.00">x: InputLayer</text>
<polyline fill="none" stroke="black" points="292.5,-498.5 292.5,-544.5 "/>
<text text-anchor="middle" x="320" y="-529.3" font-family="Times,serif" font-size="14.00">input:</text>
<polyline fill="none" stroke="black" points="292.5,-521.5 347.5,-521.5 "/>
<text text-anchor="middle" x="320" y="-506.3" font-family="Times,serif" font-size="14.00">output:</text>
<polyline fill="none" stroke="black" points="347.5,-498.5 347.5,-544.5 "/>
<text text-anchor="middle" x="389" y="-529.3" font-family="Times,serif" font-size="14.00">(None, 784)</text>
<polyline fill="none" stroke="black" points="347.5,-521.5 430.5,-521.5 "/>
<text text-anchor="middle" x="389" y="-506.3" font-family="Times,serif" font-size="14.00">(None, 784)</text>
</g>
<!-- 140393154684184 -->
<g id="node2" class="node"><title>140393154684184</title>
<polygon fill="none" stroke="black" points="175,-415.5 175,-461.5 457,-461.5 457,-415.5 175,-415.5"/>
<text text-anchor="middle" x="247" y="-434.8" font-family="Times,serif" font-size="14.00">encoder_hidden: Dense</text>
<polyline fill="none" stroke="black" points="319,-415.5 319,-461.5 "/>
<text text-anchor="middle" x="346.5" y="-446.3" font-family="Times,serif" font-size="14.00">input:</text>
<polyline fill="none" stroke="black" points="319,-438.5 374,-438.5 "/>
<text text-anchor="middle" x="346.5" y="-423.3" font-family="Times,serif" font-size="14.00">output:</text>
<polyline fill="none" stroke="black" points="374,-415.5 374,-461.5 "/>
<text text-anchor="middle" x="415.5" y="-446.3" font-family="Times,serif" font-size="14.00">(None, 784)</text>
<polyline fill="none" stroke="black" points="374,-438.5 457,-438.5 "/>
<text text-anchor="middle" x="415.5" y="-423.3" font-family="Times,serif" font-size="14.00">(None, 256)</text>
</g>
<!-- 140393154758472&#45;&gt;140393154684184 -->
<g id="edge1" class="edge"><title>140393154758472-&gt;140393154684184</title>
<path fill="none" stroke="black" d="M316,-498.366C316,-490.152 316,-480.658 316,-471.725"/>
<polygon fill="black" stroke="black" points="319.5,-471.607 316,-461.607 312.5,-471.607 319.5,-471.607"/>
</g>
<!-- 140393154757632 -->
<g id="node3" class="node"><title>140393154757632</title>
<polygon fill="none" stroke="black" points="87,-332.5 87,-378.5 301,-378.5 301,-332.5 87,-332.5"/>
<text text-anchor="middle" x="125" y="-351.8" font-family="Times,serif" font-size="14.00">mu: Dense</text>
<polyline fill="none" stroke="black" points="163,-332.5 163,-378.5 "/>
<text text-anchor="middle" x="190.5" y="-363.3" font-family="Times,serif" font-size="14.00">input:</text>
<polyline fill="none" stroke="black" points="163,-355.5 218,-355.5 "/>
<text text-anchor="middle" x="190.5" y="-340.3" font-family="Times,serif" font-size="14.00">output:</text>
<polyline fill="none" stroke="black" points="218,-332.5 218,-378.5 "/>
<text text-anchor="middle" x="259.5" y="-363.3" font-family="Times,serif" font-size="14.00">(None, 256)</text>
<polyline fill="none" stroke="black" points="218,-355.5 301,-355.5 "/>
<text text-anchor="middle" x="259.5" y="-340.3" font-family="Times,serif" font-size="14.00">(None, 2)</text>
</g>
<!-- 140393154684184&#45;&gt;140393154757632 -->
<g id="edge2" class="edge"><title>140393154684184-&gt;140393154757632</title>
<path fill="none" stroke="black" d="M282.663,-415.366C268.273,-405.812 251.277,-394.528 236.035,-384.409"/>
<polygon fill="black" stroke="black" points="237.564,-381.222 227.297,-378.607 233.692,-387.054 237.564,-381.222"/>
</g>
<!-- 140393154756960 -->
<g id="node4" class="node"><title>140393154756960</title>
<polygon fill="none" stroke="black" points="319.5,-332.5 319.5,-378.5 556.5,-378.5 556.5,-332.5 319.5,-332.5"/>
<text text-anchor="middle" x="369" y="-351.8" font-family="Times,serif" font-size="14.00">log_var: Dense</text>
<polyline fill="none" stroke="black" points="418.5,-332.5 418.5,-378.5 "/>
<text text-anchor="middle" x="446" y="-363.3" font-family="Times,serif" font-size="14.00">input:</text>
<polyline fill="none" stroke="black" points="418.5,-355.5 473.5,-355.5 "/>
<text text-anchor="middle" x="446" y="-340.3" font-family="Times,serif" font-size="14.00">output:</text>
<polyline fill="none" stroke="black" points="473.5,-332.5 473.5,-378.5 "/>
<text text-anchor="middle" x="515" y="-363.3" font-family="Times,serif" font-size="14.00">(None, 256)</text>
<polyline fill="none" stroke="black" points="473.5,-355.5 556.5,-355.5 "/>
<text text-anchor="middle" x="515" y="-340.3" font-family="Times,serif" font-size="14.00">(None, 2)</text>
</g>
<!-- 140393154684184&#45;&gt;140393154756960 -->
<g id="edge3" class="edge"><title>140393154684184-&gt;140393154756960</title>
<path fill="none" stroke="black" d="M349.337,-415.366C363.727,-405.812 380.723,-394.528 395.965,-384.409"/>
<polygon fill="black" stroke="black" points="398.308,-387.054 404.703,-378.607 394.436,-381.222 398.308,-387.054"/>
</g>
<!-- 140393154114728 -->
<g id="node5" class="node"><title>140393154114728</title>
<polygon fill="none" stroke="black" points="146.5,-249.5 146.5,-295.5 485.5,-295.5 485.5,-249.5 146.5,-249.5"/>
<text text-anchor="middle" x="219.5" y="-268.8" font-family="Times,serif" font-size="14.00">kl: KLDivergenceLayer</text>
<polyline fill="none" stroke="black" points="292.5,-249.5 292.5,-295.5 "/>
<text text-anchor="middle" x="320" y="-280.3" font-family="Times,serif" font-size="14.00">input:</text>
<polyline fill="none" stroke="black" points="292.5,-272.5 347.5,-272.5 "/>
<text text-anchor="middle" x="320" y="-257.3" font-family="Times,serif" font-size="14.00">output:</text>
<polyline fill="none" stroke="black" points="347.5,-249.5 347.5,-295.5 "/>
<text text-anchor="middle" x="416.5" y="-280.3" font-family="Times,serif" font-size="14.00">[(None, 2), (None, 2)]</text>
<polyline fill="none" stroke="black" points="347.5,-272.5 485.5,-272.5 "/>
<text text-anchor="middle" x="416.5" y="-257.3" font-family="Times,serif" font-size="14.00">[(None, 2), (None, 2)]</text>
</g>
<!-- 140393154757632&#45;&gt;140393154114728 -->
<g id="edge4" class="edge"><title>140393154757632-&gt;140393154114728</title>
<path fill="none" stroke="black" d="M227.337,-332.366C241.727,-322.812 258.723,-311.528 273.965,-301.409"/>
<polygon fill="black" stroke="black" points="276.308,-304.054 282.703,-295.607 272.436,-298.222 276.308,-304.054"/>
</g>
<!-- 140393154756960&#45;&gt;140393154114728 -->
<g id="edge5" class="edge"><title>140393154756960-&gt;140393154114728</title>
<path fill="none" stroke="black" d="M404.663,-332.366C390.273,-322.812 373.277,-311.528 358.035,-301.409"/>
<polygon fill="black" stroke="black" points="359.564,-298.222 349.297,-295.607 355.692,-304.054 359.564,-298.222"/>
</g>
<!-- 140393154739336 -->
<g id="node6" class="node"><title>140393154739336</title>
<polygon fill="none" stroke="black" points="0,-166.5 0,-212.5 226,-212.5 226,-166.5 0,-166.5"/>
<text text-anchor="middle" x="51" y="-185.8" font-family="Times,serif" font-size="14.00">sigma: Lambda</text>
<polyline fill="none" stroke="black" points="102,-166.5 102,-212.5 "/>
<text text-anchor="middle" x="129.5" y="-197.3" font-family="Times,serif" font-size="14.00">input:</text>
<polyline fill="none" stroke="black" points="102,-189.5 157,-189.5 "/>
<text text-anchor="middle" x="129.5" y="-174.3" font-family="Times,serif" font-size="14.00">output:</text>
<polyline fill="none" stroke="black" points="157,-166.5 157,-212.5 "/>
<text text-anchor="middle" x="191.5" y="-197.3" font-family="Times,serif" font-size="14.00">(None, 2)</text>
<polyline fill="none" stroke="black" points="157,-189.5 226,-189.5 "/>
<text text-anchor="middle" x="191.5" y="-174.3" font-family="Times,serif" font-size="14.00">(None, 2)</text>
</g>
<!-- 140393154114728&#45;&gt;140393154739336 -->
<g id="edge6" class="edge"><title>140393154114728-&gt;140393154739336</title>
<path fill="none" stroke="black" d="M260.797,-249.473C235.067,-239.206 204.284,-226.924 177.488,-216.232"/>
<polygon fill="black" stroke="black" points="178.777,-212.978 168.192,-212.522 176.182,-219.479 178.777,-212.978"/>
</g>
<!-- 140393154125496 -->
<g id="node9" class="node"><title>140393154125496</title>
<polygon fill="none" stroke="black" points="286.5,-0.5 286.5,-46.5 553.5,-46.5 553.5,-0.5 286.5,-0.5"/>
<text text-anchor="middle" x="313" y="-19.8" font-family="Times,serif" font-size="14.00">z: Add</text>
<polyline fill="none" stroke="black" points="339.5,-0.5 339.5,-46.5 "/>
<text text-anchor="middle" x="367" y="-31.3" font-family="Times,serif" font-size="14.00">input:</text>
<polyline fill="none" stroke="black" points="339.5,-23.5 394.5,-23.5 "/>
<text text-anchor="middle" x="367" y="-8.3" font-family="Times,serif" font-size="14.00">output:</text>
<polyline fill="none" stroke="black" points="394.5,-0.5 394.5,-46.5 "/>
<text text-anchor="middle" x="474" y="-31.3" font-family="Times,serif" font-size="14.00">[(None, 2), (None, 25, 2)]</text>
<polyline fill="none" stroke="black" points="394.5,-23.5 553.5,-23.5 "/>
<text text-anchor="middle" x="474" y="-8.3" font-family="Times,serif" font-size="14.00">(None, 25, 2)</text>
</g>
<!-- 140393154114728&#45;&gt;140393154125496 -->
<g id="edge9" class="edge"><title>140393154114728-&gt;140393154125496</title>
<path fill="none" stroke="black" d="M453.819,-249.34C471.837,-240.764 488.129,-229.027 500,-213 534.39,-166.569 527.304,-134.445 501,-83 494.833,-70.9386 484.891,-60.7921 474.051,-52.5146"/>
<polygon fill="black" stroke="black" points="475.816,-49.4759 465.634,-46.5483 471.768,-55.1867 475.816,-49.4759"/>
</g>
<!-- 140393154060640 -->
<g id="node8" class="node"><title>140393154060640</title>
<polygon fill="none" stroke="black" points="148,-83.5 148,-129.5 492,-129.5 492,-83.5 148,-83.5"/>
<text text-anchor="middle" x="213" y="-102.8" font-family="Times,serif" font-size="14.00">sigma_eps: Multiply</text>
<polyline fill="none" stroke="black" points="278,-83.5 278,-129.5 "/>
<text text-anchor="middle" x="305.5" y="-114.3" font-family="Times,serif" font-size="14.00">input:</text>
<polyline fill="none" stroke="black" points="278,-106.5 333,-106.5 "/>
<text text-anchor="middle" x="305.5" y="-91.3" font-family="Times,serif" font-size="14.00">output:</text>
<polyline fill="none" stroke="black" points="333,-83.5 333,-129.5 "/>
<text text-anchor="middle" x="412.5" y="-114.3" font-family="Times,serif" font-size="14.00">[(None, 2), (None, 25, 2)]</text>
<polyline fill="none" stroke="black" points="333,-106.5 492,-106.5 "/>
<text text-anchor="middle" x="412.5" y="-91.3" font-family="Times,serif" font-size="14.00">(None, 25, 2)</text>
</g>
<!-- 140393154739336&#45;&gt;140393154060640 -->
<g id="edge7" class="edge"><title>140393154739336-&gt;140393154060640</title>
<path fill="none" stroke="black" d="M169.29,-166.473C195.528,-156.206 226.918,-143.924 254.241,-133.232"/>
<polygon fill="black" stroke="black" points="255.684,-136.426 263.721,-129.522 253.133,-129.907 255.684,-136.426"/>
</g>
<!-- 140393154060808 -->
<g id="node7" class="node"><title>140393154060808</title>
<polygon fill="none" stroke="black" points="244.5,-166.5 244.5,-212.5 491.5,-212.5 491.5,-166.5 244.5,-166.5"/>
<text text-anchor="middle" x="295.5" y="-185.8" font-family="Times,serif" font-size="14.00">eps: InputLayer</text>
<polyline fill="none" stroke="black" points="346.5,-166.5 346.5,-212.5 "/>
<text text-anchor="middle" x="374" y="-197.3" font-family="Times,serif" font-size="14.00">input:</text>
<polyline fill="none" stroke="black" points="346.5,-189.5 401.5,-189.5 "/>
<text text-anchor="middle" x="374" y="-174.3" font-family="Times,serif" font-size="14.00">output:</text>
<polyline fill="none" stroke="black" points="401.5,-166.5 401.5,-212.5 "/>
<text text-anchor="middle" x="446.5" y="-197.3" font-family="Times,serif" font-size="14.00">(None, 25, 2)</text>
<polyline fill="none" stroke="black" points="401.5,-189.5 491.5,-189.5 "/>
<text text-anchor="middle" x="446.5" y="-174.3" font-family="Times,serif" font-size="14.00">(None, 25, 2)</text>
</g>
<!-- 140393154060808&#45;&gt;140393154060640 -->
<g id="edge8" class="edge"><title>140393154060808-&gt;140393154060640</title>
<path fill="none" stroke="black" d="M354.884,-166.366C349.751,-157.705 343.776,-147.622 338.236,-138.274"/>
<polygon fill="black" stroke="black" points="341.209,-136.425 333.1,-129.607 335.187,-139.994 341.209,-136.425"/>
</g>
<!-- 140393154060640&#45;&gt;140393154125496 -->
<g id="edge10" class="edge"><title>140393154060640-&gt;140393154125496</title>
<path fill="none" stroke="black" d="M347.325,-83.3664C358.9,-73.9909 372.532,-62.9494 384.843,-52.9773"/>
<polygon fill="black" stroke="black" points="387.14,-55.6208 392.708,-46.6068 382.734,-50.1814 387.14,-55.6208"/>
</g>
</g>
</svg>