<svg xmlns="http://www.w3.org/2000/svg" xmlns:xlink="http://www.w3.org/1999/xlink" viewBox="0.00 0.00 260.50 483.00" viewport="0 0 216px 400px">
<g id="graph0" class="graph" transform="scale(1 1) rotate(0) translate(4 479)">
<title>G</title>
<polygon fill="white" stroke="none" points="-4,4 -4,-479 256.5,-479 256.5,4 -4,4"/>
<!-- 140518341098464 -->
<g id="node1" class="node"><title>140518341098464</title>
<polygon fill="none" stroke="black" points="104.5,-438.5 104.5,-474.5 195.5,-474.5 195.5,-438.5 104.5,-438.5"/>
<text text-anchor="middle" x="150" y="-452.8" font-family="Times,serif" font-size="14.00">x: InputLayer</text>
</g>
<!-- 140518341096560 -->
<g id="node2" class="node"><title>140518341096560</title>
<polygon fill="none" stroke="black" points="78,-365.5 78,-401.5 222,-401.5 222,-365.5 78,-365.5"/>
<text text-anchor="middle" x="150" y="-379.8" font-family="Times,serif" font-size="14.00">encoder_hidden: Dense</text>
</g>
<!-- 140518341098464&#45;&gt;140518341096560 -->
<g id="edge1" class="edge"><title>140518341098464-&gt;140518341096560</title>
<path fill="none" stroke="black" d="M150,-438.313C150,-430.289 150,-420.547 150,-411.569"/>
<polygon fill="black" stroke="black" points="153.5,-411.529 150,-401.529 146.5,-411.529 153.5,-411.529"/>
</g>
<!-- 140518341097736 -->
<g id="node3" class="node"><title>140518341097736</title>
<polygon fill="none" stroke="black" points="59,-292.5 59,-328.5 135,-328.5 135,-292.5 59,-292.5"/>
<text text-anchor="middle" x="97" y="-306.8" font-family="Times,serif" font-size="14.00">mu: Dense</text>
</g>
<!-- 140518341096560&#45;&gt;140518341097736 -->
<g id="edge2" class="edge"><title>140518341096560-&gt;140518341097736</title>
<path fill="none" stroke="black" d="M137.17,-365.313C130.79,-356.766 122.955,-346.269 115.903,-336.823"/>
<polygon fill="black" stroke="black" points="118.498,-334.449 109.712,-328.529 112.889,-338.636 118.498,-334.449"/>
</g>
<!-- 140518341097960 -->
<g id="node4" class="node"><title>140518341097960</title>
<polygon fill="none" stroke="black" points="153.5,-292.5 153.5,-328.5 252.5,-328.5 252.5,-292.5 153.5,-292.5"/>
<text text-anchor="middle" x="203" y="-306.8" font-family="Times,serif" font-size="14.00">log_var: Dense</text>
</g>
<!-- 140518341096560&#45;&gt;140518341097960 -->
<g id="edge3" class="edge"><title>140518341096560-&gt;140518341097960</title>
<path fill="none" stroke="black" d="M162.83,-365.313C169.21,-356.766 177.045,-346.269 184.097,-336.823"/>
<polygon fill="black" stroke="black" points="187.111,-338.636 190.288,-328.529 181.502,-334.449 187.111,-338.636"/>
</g>
<!-- 140518340379872 -->
<g id="node5" class="node"><title>140518340379872</title>
<polygon fill="none" stroke="black" points="77,-219.5 77,-255.5 223,-255.5 223,-219.5 77,-219.5"/>
<text text-anchor="middle" x="150" y="-233.8" font-family="Times,serif" font-size="14.00">kl: KLDivergenceLayer</text>
</g>
<!-- 140518341097736&#45;&gt;140518340379872 -->
<g id="edge4" class="edge"><title>140518341097736-&gt;140518340379872</title>
<path fill="none" stroke="black" d="M109.83,-292.313C116.21,-283.766 124.045,-273.269 131.097,-263.823"/>
<polygon fill="black" stroke="black" points="134.111,-265.636 137.288,-255.529 128.502,-261.449 134.111,-265.636"/>
</g>
<!-- 140518341097960&#45;&gt;140518340379872 -->
<g id="edge5" class="edge"><title>140518341097960-&gt;140518340379872</title>
<path fill="none" stroke="black" d="M190.17,-292.313C183.79,-283.766 175.955,-273.269 168.903,-263.823"/>
<polygon fill="black" stroke="black" points="171.498,-261.449 162.712,-255.529 165.889,-265.636 171.498,-261.449"/>
</g>
<!-- 140518340380488 -->
<g id="node6" class="node"><title>140518340380488</title>
<polygon fill="none" stroke="black" points="0,-146.5 0,-182.5 102,-182.5 102,-146.5 0,-146.5"/>
<text text-anchor="middle" x="51" y="-160.8" font-family="Times,serif" font-size="14.00">sigma: Lambda</text>
</g>
<!-- 140518340379872&#45;&gt;140518340380488 -->
<g id="edge6" class="edge"><title>140518340379872-&gt;140518340380488</title>
<path fill="none" stroke="black" d="M126.287,-219.494C113.402,-210.253 97.2825,-198.692 83.2685,-188.642"/>
<polygon fill="black" stroke="black" points="85.0286,-185.597 74.8626,-182.614 80.9491,-191.286 85.0286,-185.597"/>
</g>
<!-- 140518340258280 -->
<g id="node9" class="node"><title>140518340258280</title>
<polygon fill="none" stroke="black" points="176,-0.5 176,-36.5 230,-36.5 230,-0.5 176,-0.5"/>
<text text-anchor="middle" x="203" y="-14.8" font-family="Times,serif" font-size="14.00">z: Add</text>
</g>
<!-- 140518340379872&#45;&gt;140518340258280 -->
<g id="edge9" class="edge"><title>140518340379872-&gt;140518340258280</title>
<path fill="none" stroke="black" d="M191.695,-219.365C206.905,-210.833 222.457,-198.881 231,-183 254.161,-139.945 242.672,-120.475 231,-73 228.709,-63.6804 224.475,-54.1846 219.982,-45.8304"/>
<polygon fill="black" stroke="black" points="222.901,-43.885 214.888,-36.9536 216.83,-47.3691 222.901,-43.885"/>
</g>
<!-- 140518340259008 -->
<g id="node8" class="node"><title>140518340259008</title>
<polygon fill="none" stroke="black" points="92,-73.5 92,-109.5 222,-109.5 222,-73.5 92,-73.5"/>
<text text-anchor="middle" x="157" y="-87.8" font-family="Times,serif" font-size="14.00">sigma_eps: Multiply</text>
</g>
<!-- 140518340380488&#45;&gt;140518340259008 -->
<g id="edge7" class="edge"><title>140518340380488-&gt;140518340259008</title>
<path fill="none" stroke="black" d="M76.3896,-146.494C90.316,-137.166 107.771,-125.474 122.874,-115.358"/>
<polygon fill="black" stroke="black" points="125.09,-118.087 131.45,-109.614 121.194,-112.271 125.09,-118.087"/>
</g>
<!-- 140518340378864 -->
<g id="node7" class="node"><title>140518340378864</title>
<polygon fill="none" stroke="black" points="120,-146.5 120,-182.5 222,-182.5 222,-146.5 120,-146.5"/>
<text text-anchor="middle" x="171" y="-160.8" font-family="Times,serif" font-size="14.00">eps: InputLayer</text>
</g>
<!-- 140518340378864&#45;&gt;140518340259008 -->
<g id="edge8" class="edge"><title>140518340378864-&gt;140518340259008</title>
<path fill="none" stroke="black" d="M167.611,-146.313C166.029,-138.289 164.108,-128.547 162.338,-119.569"/>
<polygon fill="black" stroke="black" points="165.726,-118.663 160.358,-109.529 158.859,-120.017 165.726,-118.663"/>
</g>
<!-- 140518340259008&#45;&gt;140518340258280 -->
<g id="edge10" class="edge"><title>140518340259008-&gt;140518340258280</title>
<path fill="none" stroke="black" d="M168.135,-73.3129C173.616,-64.8534 180.335,-54.4835 186.406,-45.1124"/>
<polygon fill="black" stroke="black" points="189.467,-46.8245 191.967,-36.5288 183.592,-43.0183 189.467,-46.8245"/>
</g>
</g>
</svg>