<svg xmlns="http://www.w3.org/2000/svg" xmlns:xlink="http://www.w3.org/1999/xlink" viewBox="0.00 0.00 260.50 483.00" viewport="0 0 691px 1280px">
<g id="graph0" class="graph" transform="scale(1 1) rotate(0) translate(4 479)">
<title>G</title>
<polygon fill="white" stroke="none" points="-4,4 -4,-479 256.5,-479 256.5,4 -4,4"/>
<!-- 140521334638744 -->
<g id="node1" class="node"><title>140521334638744</title>
<polygon fill="none" stroke="black" points="104.5,-438.5 104.5,-474.5 195.5,-474.5 195.5,-438.5 104.5,-438.5"/>
<text text-anchor="middle" x="150" y="-452.8" font-family="Times,serif" font-size="14.00">x: InputLayer</text>
</g>
<!-- 140521334639248 -->
<g id="node2" class="node"><title>140521334639248</title>
<polygon fill="none" stroke="black" points="90,-365.5 90,-401.5 210,-401.5 210,-365.5 90,-365.5"/>
<text text-anchor="middle" x="150" y="-379.8" font-family="Times,serif" font-size="14.00">hidden_enc: Dense</text>
</g>
<!-- 140521334638744&#45;&gt;140521334639248 -->
<g id="edge1" class="edge"><title>140521334638744-&gt;140521334639248</title>
<path fill="none" stroke="black" d="M150,-438.313C150,-430.289 150,-420.547 150,-411.569"/>
<polygon fill="black" stroke="black" points="153.5,-411.529 150,-401.529 146.5,-411.529 153.5,-411.529"/>
</g>
<!-- 140521334640480 -->
<g id="node3" class="node"><title>140521334640480</title>
<polygon fill="none" stroke="black" points="59,-292.5 59,-328.5 135,-328.5 135,-292.5 59,-292.5"/>
<text text-anchor="middle" x="97" y="-306.8" font-family="Times,serif" font-size="14.00">mu: Dense</text>
</g>
<!-- 140521334639248&#45;&gt;140521334640480 -->
<g id="edge2" class="edge"><title>140521334639248-&gt;140521334640480</title>
<path fill="none" stroke="black" d="M137.17,-365.313C130.79,-356.766 122.955,-346.269 115.903,-336.823"/>
<polygon fill="black" stroke="black" points="118.498,-334.449 109.712,-328.529 112.889,-338.636 118.498,-334.449"/>
</g>
<!-- 140521334475352 -->
<g id="node4" class="node"><title>140521334475352</title>
<polygon fill="none" stroke="black" points="153.5,-292.5 153.5,-328.5 252.5,-328.5 252.5,-292.5 153.5,-292.5"/>
<text text-anchor="middle" x="203" y="-306.8" font-family="Times,serif" font-size="14.00">log_var: Dense</text>
</g>
<!-- 140521334639248&#45;&gt;140521334475352 -->
<g id="edge3" class="edge"><title>140521334639248-&gt;140521334475352</title>
<path fill="none" stroke="black" d="M162.83,-365.313C169.21,-356.766 177.045,-346.269 184.097,-336.823"/>
<polygon fill="black" stroke="black" points="187.111,-338.636 190.288,-328.529 181.502,-334.449 187.111,-338.636"/>
</g>
<!-- 140521333687072 -->
<g id="node5" class="node"><title>140521333687072</title>
<polygon fill="none" stroke="black" points="77,-219.5 77,-255.5 223,-255.5 223,-219.5 77,-219.5"/>
<text text-anchor="middle" x="150" y="-233.8" font-family="Times,serif" font-size="14.00">kl: KLDivergenceLayer</text>
</g>
<!-- 140521334640480&#45;&gt;140521333687072 -->
<g id="edge4" class="edge"><title>140521334640480-&gt;140521333687072</title>
<path fill="none" stroke="black" d="M109.83,-292.313C116.21,-283.766 124.045,-273.269 131.097,-263.823"/>
<polygon fill="black" stroke="black" points="134.111,-265.636 137.288,-255.529 128.502,-261.449 134.111,-265.636"/>
</g>
<!-- 140521334475352&#45;&gt;140521333687072 -->
<g id="edge5" class="edge"><title>140521334475352-&gt;140521333687072</title>
<path fill="none" stroke="black" d="M190.17,-292.313C183.79,-283.766 175.955,-273.269 168.903,-263.823"/>
<polygon fill="black" stroke="black" points="171.498,-261.449 162.712,-255.529 165.889,-265.636 171.498,-261.449"/>
</g>
<!-- 140521335410640 -->
<g id="node6" class="node"><title>140521335410640</title>
<polygon fill="none" stroke="black" points="0,-146.5 0,-182.5 102,-182.5 102,-146.5 0,-146.5"/>
<text text-anchor="middle" x="51" y="-160.8" font-family="Times,serif" font-size="14.00">sigma: Lambda</text>
</g>
<!-- 140521333687072&#45;&gt;140521335410640 -->
<g id="edge6" class="edge"><title>140521333687072-&gt;140521335410640</title>
<path fill="none" stroke="black" d="M126.287,-219.494C113.402,-210.253 97.2825,-198.692 83.2685,-188.642"/>
<polygon fill="black" stroke="black" points="85.0286,-185.597 74.8626,-182.614 80.9491,-191.286 85.0286,-185.597"/>
</g>
<!-- 140521333465272 -->
<g id="node9" class="node"><title>140521333465272</title>
<polygon fill="none" stroke="black" points="183,-0.5 183,-36.5 237,-36.5 237,-0.5 183,-0.5"/>
<text text-anchor="middle" x="210" y="-14.8" font-family="Times,serif" font-size="14.00">z: Add</text>
</g>
<!-- 140521333687072&#45;&gt;140521333465272 -->
<g id="edge9" class="edge"><title>140521333687072-&gt;140521333465272</title>
<path fill="none" stroke="black" d="M191.695,-219.365C206.905,-210.833 222.457,-198.881 231,-183 254.446,-139.416 236.633,-80.108 222.605,-46.2071"/>
<polygon fill="black" stroke="black" points="225.784,-44.7411 218.604,-36.9501 219.359,-47.5181 225.784,-44.7411"/>
</g>
<!-- 140521335409576 -->
<g id="node8" class="node"><title>140521335409576</title>
<polygon fill="none" stroke="black" points="118.5,-73.5 118.5,-109.5 221.5,-109.5 221.5,-73.5 118.5,-73.5"/>
<text text-anchor="middle" x="170" y="-87.8" font-family="Times,serif" font-size="14.00">z_eps: Multiply</text>
</g>
<!-- 140521335410640&#45;&gt;140521335409576 -->
<g id="edge7" class="edge"><title>140521335410640-&gt;140521335409576</title>
<path fill="none" stroke="black" d="M79.5035,-146.494C95.43,-136.991 115.467,-125.036 132.637,-114.792"/>
<polygon fill="black" stroke="black" points="134.522,-117.743 141.317,-109.614 130.936,-111.732 134.522,-117.743"/>
</g>
<!-- 140521333689312 -->
<g id="node7" class="node"><title>140521333689312</title>
<polygon fill="none" stroke="black" points="120,-146.5 120,-182.5 222,-182.5 222,-146.5 120,-146.5"/>
<text text-anchor="middle" x="171" y="-160.8" font-family="Times,serif" font-size="14.00">eps: InputLayer</text>
</g>
<!-- 140521333689312&#45;&gt;140521335409576 -->
<g id="edge8" class="edge"><title>140521333689312-&gt;140521335409576</title>
<path fill="none" stroke="black" d="M170.758,-146.313C170.645,-138.289 170.508,-128.547 170.381,-119.569"/>
<polygon fill="black" stroke="black" points="173.88,-119.479 170.24,-109.529 166.881,-119.577 173.88,-119.479"/>
</g>
<!-- 140521335409576&#45;&gt;140521333465272 -->
<g id="edge10" class="edge"><title>140521335409576-&gt;140521333465272</title>
<path fill="none" stroke="black" d="M179.683,-73.3129C184.4,-64.9407 190.171,-54.6971 195.407,-45.4026"/>
<polygon fill="black" stroke="black" points="198.547,-46.9593 200.406,-36.5288 192.448,-43.5234 198.547,-46.9593"/>
</g>
</g>
</svg>