<svg xmlns="http://www.w3.org/2000/svg" xmlns:xlink="http://www.w3.org/1999/xlink" viewBox="0.00 0.00 613.00 470.00" viewport="0 0 1280px 981px">
<g id="graph0" class="graph" transform="scale(1 1) rotate(0) translate(4 466)">
<title>G</title>
<polygon fill="white" stroke="none" points="-4,4 -4,-466 609,-466 609,4 -4,4"/>
<!-- 140521333986584 -->
<g id="node1" class="node"><title>140521333986584</title>
<polygon fill="none" stroke="black" points="250.5,-415.5 250.5,-461.5 479.5,-461.5 479.5,-415.5 250.5,-415.5"/>
<text text-anchor="middle" x="296" y="-434.8" font-family="Times,serif" font-size="14.00">x: InputLayer</text>
<polyline fill="none" stroke="black" points="341.5,-415.5 341.5,-461.5 "/>
<text text-anchor="middle" x="369" y="-446.3" font-family="Times,serif" font-size="14.00">input:</text>
<polyline fill="none" stroke="black" points="341.5,-438.5 396.5,-438.5 "/>
<text text-anchor="middle" x="369" y="-423.3" font-family="Times,serif" font-size="14.00">output:</text>
<polyline fill="none" stroke="black" points="396.5,-415.5 396.5,-461.5 "/>
<text text-anchor="middle" x="438" y="-446.3" font-family="Times,serif" font-size="14.00">(None, 784)</text>
<polyline fill="none" stroke="black" points="396.5,-438.5 479.5,-438.5 "/>
<text text-anchor="middle" x="438" y="-423.3" font-family="Times,serif" font-size="14.00">(None, 784)</text>
</g>
<!-- 140521333988712 -->
<g id="node2" class="node"><title>140521333988712</title>
<polygon fill="none" stroke="black" points="236,-332.5 236,-378.5 494,-378.5 494,-332.5 236,-332.5"/>
<text text-anchor="middle" x="296" y="-351.8" font-family="Times,serif" font-size="14.00">hidden_enc: Dense</text>
<polyline fill="none" stroke="black" points="356,-332.5 356,-378.5 "/>
<text text-anchor="middle" x="383.5" y="-363.3" font-family="Times,serif" font-size="14.00">input:</text>
<polyline fill="none" stroke="black" points="356,-355.5 411,-355.5 "/>
<text text-anchor="middle" x="383.5" y="-340.3" font-family="Times,serif" font-size="14.00">output:</text>
<polyline fill="none" stroke="black" points="411,-332.5 411,-378.5 "/>
<text text-anchor="middle" x="452.5" y="-363.3" font-family="Times,serif" font-size="14.00">(None, 784)</text>
<polyline fill="none" stroke="black" points="411,-355.5 494,-355.5 "/>
<text text-anchor="middle" x="452.5" y="-340.3" font-family="Times,serif" font-size="14.00">(None, 256)</text>
</g>
<!-- 140521333986584&#45;&gt;140521333988712 -->
<g id="edge1" class="edge"><title>140521333986584-&gt;140521333988712</title>
<path fill="none" stroke="black" d="M365,-415.366C365,-407.152 365,-397.658 365,-388.725"/>
<polygon fill="black" stroke="black" points="368.5,-388.607 365,-378.607 361.5,-388.607 368.5,-388.607"/>
</g>
<!-- 140521333985464 -->
<g id="node3" class="node"><title>140521333985464</title>
<polygon fill="none" stroke="black" points="113.5,-249.5 113.5,-295.5 350.5,-295.5 350.5,-249.5 113.5,-249.5"/>
<text text-anchor="middle" x="163" y="-268.8" font-family="Times,serif" font-size="14.00">log_var: Dense</text>
<polyline fill="none" stroke="black" points="212.5,-249.5 212.5,-295.5 "/>
<text text-anchor="middle" x="240" y="-280.3" font-family="Times,serif" font-size="14.00">input:</text>
<polyline fill="none" stroke="black" points="212.5,-272.5 267.5,-272.5 "/>
<text text-anchor="middle" x="240" y="-257.3" font-family="Times,serif" font-size="14.00">output:</text>
<polyline fill="none" stroke="black" points="267.5,-249.5 267.5,-295.5 "/>
<text text-anchor="middle" x="309" y="-280.3" font-family="Times,serif" font-size="14.00">(None, 256)</text>
<polyline fill="none" stroke="black" points="267.5,-272.5 350.5,-272.5 "/>
<text text-anchor="middle" x="309" y="-257.3" font-family="Times,serif" font-size="14.00">(None, 2)</text>
</g>
<!-- 140521333988712&#45;&gt;140521333985464 -->
<g id="edge2" class="edge"><title>140521333988712-&gt;140521333985464</title>
<path fill="none" stroke="black" d="M328.657,-332.366C312.676,-322.634 293.748,-311.106 276.896,-300.842"/>
<polygon fill="black" stroke="black" points="278.66,-297.819 268.299,-295.607 275.019,-303.798 278.66,-297.819"/>
</g>
<!-- 140521333987536 -->
<g id="node6" class="node"><title>140521333987536</title>
<polygon fill="none" stroke="black" points="391,-83.5 391,-129.5 605,-129.5 605,-83.5 391,-83.5"/>
<text text-anchor="middle" x="429" y="-102.8" font-family="Times,serif" font-size="14.00">mu: Dense</text>
<polyline fill="none" stroke="black" points="467,-83.5 467,-129.5 "/>
<text text-anchor="middle" x="494.5" y="-114.3" font-family="Times,serif" font-size="14.00">input:</text>
<polyline fill="none" stroke="black" points="467,-106.5 522,-106.5 "/>
<text text-anchor="middle" x="494.5" y="-91.3" font-family="Times,serif" font-size="14.00">output:</text>
<polyline fill="none" stroke="black" points="522,-83.5 522,-129.5 "/>
<text text-anchor="middle" x="563.5" y="-114.3" font-family="Times,serif" font-size="14.00">(None, 256)</text>
<polyline fill="none" stroke="black" points="522,-106.5 605,-106.5 "/>
<text text-anchor="middle" x="563.5" y="-91.3" font-family="Times,serif" font-size="14.00">(None, 2)</text>
</g>
<!-- 140521333988712&#45;&gt;140521333987536 -->
<g id="edge4" class="edge"><title>140521333988712-&gt;140521333987536</title>
<path fill="none" stroke="black" d="M388.824,-332.462C415.277,-306.54 457.125,-260.927 479,-213 489.511,-189.971 494.216,-161.631 496.318,-140.124"/>
<polygon fill="black" stroke="black" points="499.83,-140.124 497.176,-129.867 492.854,-139.541 499.83,-140.124"/>
</g>
<!-- 140521334002128 -->
<g id="node4" class="node"><title>140521334002128</title>
<polygon fill="none" stroke="black" points="0,-166.5 0,-212.5 226,-212.5 226,-166.5 0,-166.5"/>
<text text-anchor="middle" x="51" y="-185.8" font-family="Times,serif" font-size="14.00">sigma: Lambda</text>
<polyline fill="none" stroke="black" points="102,-166.5 102,-212.5 "/>
<text text-anchor="middle" x="129.5" y="-197.3" font-family="Times,serif" font-size="14.00">input:</text>
<polyline fill="none" stroke="black" points="102,-189.5 157,-189.5 "/>
<text text-anchor="middle" x="129.5" y="-174.3" font-family="Times,serif" font-size="14.00">output:</text>
<polyline fill="none" stroke="black" points="157,-166.5 157,-212.5 "/>
<text text-anchor="middle" x="191.5" y="-197.3" font-family="Times,serif" font-size="14.00">(None, 2)</text>
<polyline fill="none" stroke="black" points="157,-189.5 226,-189.5 "/>
<text text-anchor="middle" x="191.5" y="-174.3" font-family="Times,serif" font-size="14.00">(None, 2)</text>
</g>
<!-- 140521333985464&#45;&gt;140521334002128 -->
<g id="edge3" class="edge"><title>140521333985464-&gt;140521334002128</title>
<path fill="none" stroke="black" d="M199.483,-249.366C185.446,-239.812 168.868,-228.528 154.002,-218.409"/>
<polygon fill="black" stroke="black" points="155.714,-215.34 145.478,-212.607 151.775,-221.127 155.714,-215.34"/>
</g>
<!-- 140521333996008 -->
<g id="node7" class="node"><title>140521333996008</title>
<polygon fill="none" stroke="black" points="77,-83.5 77,-129.5 373,-129.5 373,-83.5 77,-83.5"/>
<text text-anchor="middle" x="128.5" y="-102.8" font-family="Times,serif" font-size="14.00">z_eps: Multiply</text>
<polyline fill="none" stroke="black" points="180,-83.5 180,-129.5 "/>
<text text-anchor="middle" x="207.5" y="-114.3" font-family="Times,serif" font-size="14.00">input:</text>
<polyline fill="none" stroke="black" points="180,-106.5 235,-106.5 "/>
<text text-anchor="middle" x="207.5" y="-91.3" font-family="Times,serif" font-size="14.00">output:</text>
<polyline fill="none" stroke="black" points="235,-83.5 235,-129.5 "/>
<text text-anchor="middle" x="304" y="-114.3" font-family="Times,serif" font-size="14.00">[(None, 2), (None, 2)]</text>
<polyline fill="none" stroke="black" points="235,-106.5 373,-106.5 "/>
<text text-anchor="middle" x="304" y="-91.3" font-family="Times,serif" font-size="14.00">(None, 2)</text>
</g>
<!-- 140521334002128&#45;&gt;140521333996008 -->
<g id="edge5" class="edge"><title>140521334002128-&gt;140521333996008</title>
<path fill="none" stroke="black" d="M143.604,-166.366C156.692,-156.902 172.126,-145.739 186.018,-135.693"/>
<polygon fill="black" stroke="black" points="188.381,-138.303 194.433,-129.607 184.278,-132.631 188.381,-138.303"/>
</g>
<!-- 140521333995280 -->
<g id="node5" class="node"><title>140521333995280</title>
<polygon fill="none" stroke="black" points="244,-166.5 244,-212.5 470,-212.5 470,-166.5 244,-166.5"/>
<text text-anchor="middle" x="295" y="-185.8" font-family="Times,serif" font-size="14.00">eps: InputLayer</text>
<polyline fill="none" stroke="black" points="346,-166.5 346,-212.5 "/>
<text text-anchor="middle" x="373.5" y="-197.3" font-family="Times,serif" font-size="14.00">input:</text>
<polyline fill="none" stroke="black" points="346,-189.5 401,-189.5 "/>
<text text-anchor="middle" x="373.5" y="-174.3" font-family="Times,serif" font-size="14.00">output:</text>
<polyline fill="none" stroke="black" points="401,-166.5 401,-212.5 "/>
<text text-anchor="middle" x="435.5" y="-197.3" font-family="Times,serif" font-size="14.00">(None, 2)</text>
<polyline fill="none" stroke="black" points="401,-189.5 470,-189.5 "/>
<text text-anchor="middle" x="435.5" y="-174.3" font-family="Times,serif" font-size="14.00">(None, 2)</text>
</g>
<!-- 140521333995280&#45;&gt;140521333996008 -->
<g id="edge6" class="edge"><title>140521333995280-&gt;140521333996008</title>
<path fill="none" stroke="black" d="M320.93,-166.366C305.07,-156.634 286.283,-145.106 269.558,-134.842"/>
<polygon fill="black" stroke="black" points="271.38,-131.854 261.026,-129.607 267.719,-137.82 271.38,-131.854"/>
</g>
<!-- 140521334492408 -->
<g id="node8" class="node"><title>140521334492408</title>
<polygon fill="none" stroke="black" points="238,-0.5 238,-46.5 484,-46.5 484,-0.5 238,-0.5"/>
<text text-anchor="middle" x="264.5" y="-19.8" font-family="Times,serif" font-size="14.00">z: Add</text>
<polyline fill="none" stroke="black" points="291,-0.5 291,-46.5 "/>
<text text-anchor="middle" x="318.5" y="-31.3" font-family="Times,serif" font-size="14.00">input:</text>
<polyline fill="none" stroke="black" points="291,-23.5 346,-23.5 "/>
<text text-anchor="middle" x="318.5" y="-8.3" font-family="Times,serif" font-size="14.00">output:</text>
<polyline fill="none" stroke="black" points="346,-0.5 346,-46.5 "/>
<text text-anchor="middle" x="415" y="-31.3" font-family="Times,serif" font-size="14.00">[(None, 2), (None, 2)]</text>
<polyline fill="none" stroke="black" points="346,-23.5 484,-23.5 "/>
<text text-anchor="middle" x="415" y="-8.3" font-family="Times,serif" font-size="14.00">(None, 2)</text>
</g>
<!-- 140521333987536&#45;&gt;140521334492408 -->
<g id="edge7" class="edge"><title>140521333987536-&gt;140521334492408</title>
<path fill="none" stroke="black" d="M460.564,-83.3664C444.103,-73.6337 424.605,-62.1057 407.246,-51.8424"/>
<polygon fill="black" stroke="black" points="408.78,-48.6835 398.391,-46.6068 405.217,-54.7091 408.78,-48.6835"/>
</g>
<!-- 140521333996008&#45;&gt;140521334492408 -->
<g id="edge8" class="edge"><title>140521333996008-&gt;140521334492408</title>
<path fill="none" stroke="black" d="M262.163,-83.3664C278.504,-73.6337 297.86,-62.1057 315.092,-51.8424"/>
<polygon fill="black" stroke="black" points="317.082,-54.731 323.882,-46.6068 313.5,-48.7169 317.082,-54.731"/>
</g>
</g>
</svg>