<svg xmlns="http://www.w3.org/2000/svg" xmlns:xlink="http://www.w3.org/1999/xlink" viewBox="0.00 0.00 619.80 458.00" viewport="0 0 1280px 945px">
<g id="graph0" class="graph" transform="scale(1 1) rotate(0) translate(4 454)">
<title>G</title>
<polygon fill="#ffffff" stroke="transparent" points="-4,4 -4,-454 615.8003,-454 615.8003,4 -4,4"/>
<!-- 4753000488 -->
<g id="node1" class="node">
<title>4753000488</title>
<polygon fill="none" stroke="#000000" points="193.0586,-405.5 193.0586,-449.5 424.959,-449.5 424.959,-405.5 193.0586,-405.5"/>
<text text-anchor="middle" x="239.3501" y="-423.3" font-family="Times,serif" font-size="14.00" fill="#000000">x: InputLayer</text>
<polyline fill="none" stroke="#000000" points="285.6416,-405.5 285.6416,-449.5 "/>
<text text-anchor="middle" x="313.4761" y="-434.3" font-family="Times,serif" font-size="14.00" fill="#000000">input:</text>
<polyline fill="none" stroke="#000000" points="285.6416,-427.5 341.3105,-427.5 "/>
<text text-anchor="middle" x="313.4761" y="-412.3" font-family="Times,serif" font-size="14.00" fill="#000000">output:</text>
<polyline fill="none" stroke="#000000" points="341.3105,-405.5 341.3105,-449.5 "/>
<text text-anchor="middle" x="383.1348" y="-434.3" font-family="Times,serif" font-size="14.00" fill="#000000">(None, 784)</text>
<polyline fill="none" stroke="#000000" points="341.3105,-427.5 424.959,-427.5 "/>
<text text-anchor="middle" x="383.1348" y="-412.3" font-family="Times,serif" font-size="14.00" fill="#000000">(None, 784)</text>
</g>
<!-- 4752772680 -->
<g id="node2" class="node">
<title>4752772680</title>
<polygon fill="none" stroke="#000000" points="165.4585,-324.5 165.4585,-368.5 452.5591,-368.5 452.5591,-324.5 165.4585,-324.5"/>
<text text-anchor="middle" x="239.3501" y="-342.3" font-family="Times,serif" font-size="14.00" fill="#000000">encoder_hidden: Dense</text>
<polyline fill="none" stroke="#000000" points="313.2417,-324.5 313.2417,-368.5 "/>
<text text-anchor="middle" x="341.0762" y="-353.3" font-family="Times,serif" font-size="14.00" fill="#000000">input:</text>
<polyline fill="none" stroke="#000000" points="313.2417,-346.5 368.9106,-346.5 "/>
<text text-anchor="middle" x="341.0762" y="-331.3" font-family="Times,serif" font-size="14.00" fill="#000000">output:</text>
<polyline fill="none" stroke="#000000" points="368.9106,-324.5 368.9106,-368.5 "/>
<text text-anchor="middle" x="410.7349" y="-353.3" font-family="Times,serif" font-size="14.00" fill="#000000">(None, 784)</text>
<polyline fill="none" stroke="#000000" points="368.9106,-346.5 452.5591,-346.5 "/>
<text text-anchor="middle" x="410.7349" y="-331.3" font-family="Times,serif" font-size="14.00" fill="#000000">(None, 256)</text>
</g>
<!-- 4753000488&#45;&gt;4752772680 -->
<g id="edge1" class="edge">
<title>4753000488-&gt;4752772680</title>
<path fill="none" stroke="#000000" d="M309.0088,-405.3664C309.0088,-397.1516 309.0088,-387.6579 309.0088,-378.7252"/>
<polygon fill="#000000" stroke="#000000" points="312.5089,-378.6068 309.0088,-368.6068 305.5089,-378.6069 312.5089,-378.6068"/>
</g>
<!-- 4753006040 -->
<g id="node3" class="node">
<title>4753006040</title>
<polygon fill="none" stroke="#000000" points="114.7793,-243.5 114.7793,-287.5 355.2383,-287.5 355.2383,-243.5 114.7793,-243.5"/>
<text text-anchor="middle" x="165.3501" y="-261.3" font-family="Times,serif" font-size="14.00" fill="#000000">log_var: Dense</text>
<polyline fill="none" stroke="#000000" points="215.9209,-243.5 215.9209,-287.5 "/>
<text text-anchor="middle" x="243.7554" y="-272.3" font-family="Times,serif" font-size="14.00" fill="#000000">input:</text>
<polyline fill="none" stroke="#000000" points="215.9209,-265.5 271.5898,-265.5 "/>
<text text-anchor="middle" x="243.7554" y="-250.3" font-family="Times,serif" font-size="14.00" fill="#000000">output:</text>
<polyline fill="none" stroke="#000000" points="271.5898,-243.5 271.5898,-287.5 "/>
<text text-anchor="middle" x="313.4141" y="-272.3" font-family="Times,serif" font-size="14.00" fill="#000000">(None, 256)</text>
<polyline fill="none" stroke="#000000" points="271.5898,-265.5 355.2383,-265.5 "/>
<text text-anchor="middle" x="313.4141" y="-250.3" font-family="Times,serif" font-size="14.00" fill="#000000">(None, 2)</text>
</g>
<!-- 4752772680&#45;&gt;4753006040 -->
<g id="edge2" class="edge">
<title>4752772680-&gt;4753006040</title>
<path fill="none" stroke="#000000" d="M288.788,-324.3664C280.549,-315.348 270.9017,-304.7882 262.0703,-295.1214"/>
<polygon fill="#000000" stroke="#000000" points="264.5341,-292.629 255.2052,-287.6068 259.366,-297.3505 264.5341,-292.629"/>
</g>
<!-- 4752877888 -->
<g id="node6" class="node">
<title>4752877888</title>
<polygon fill="none" stroke="#000000" points="396.2173,-81.5 396.2173,-125.5 611.8003,-125.5 611.8003,-81.5 396.2173,-81.5"/>
<text text-anchor="middle" x="434.3501" y="-99.3" font-family="Times,serif" font-size="14.00" fill="#000000">mu: Dense</text>
<polyline fill="none" stroke="#000000" points="472.4829,-81.5 472.4829,-125.5 "/>
<text text-anchor="middle" x="500.3174" y="-110.3" font-family="Times,serif" font-size="14.00" fill="#000000">input:</text>
<polyline fill="none" stroke="#000000" points="472.4829,-103.5 528.1519,-103.5 "/>
<text text-anchor="middle" x="500.3174" y="-88.3" font-family="Times,serif" font-size="14.00" fill="#000000">output:</text>
<polyline fill="none" stroke="#000000" points="528.1519,-81.5 528.1519,-125.5 "/>
<text text-anchor="middle" x="569.9761" y="-110.3" font-family="Times,serif" font-size="14.00" fill="#000000">(None, 256)</text>
<polyline fill="none" stroke="#000000" points="528.1519,-103.5 611.8003,-103.5 "/>
<text text-anchor="middle" x="569.9761" y="-88.3" font-family="Times,serif" font-size="14.00" fill="#000000">(None, 2)</text>
</g>
<!-- 4752772680&#45;&gt;4752877888 -->
<g id="edge4" class="edge">
<title>4752772680-&gt;4752877888</title>
<path fill="none" stroke="#000000" d="M351.9127,-324.4807C392.9188,-301.0821 453.0791,-260.1384 485.0088,-207 497.8879,-185.5661 502.4265,-157.4647 503.8616,-135.9529"/>
<polygon fill="#000000" stroke="#000000" points="507.3711,-135.8324 504.3484,-125.6779 500.379,-135.501 507.3711,-135.8324"/>
</g>
<!-- 4753000824 -->
<g id="node4" class="node">
<title>4753000824</title>
<polygon fill="none" stroke="#000000" points="0,-162.5 0,-206.5 228.0176,-206.5 228.0176,-162.5 0,-162.5"/>
<text text-anchor="middle" x="51.3501" y="-180.3" font-family="Times,serif" font-size="14.00" fill="#000000">sigma: Lambda</text>
<polyline fill="none" stroke="#000000" points="102.7002,-162.5 102.7002,-206.5 "/>
<text text-anchor="middle" x="130.5347" y="-191.3" font-family="Times,serif" font-size="14.00" fill="#000000">input:</text>
<polyline fill="none" stroke="#000000" points="102.7002,-184.5 158.3691,-184.5 "/>
<text text-anchor="middle" x="130.5347" y="-169.3" font-family="Times,serif" font-size="14.00" fill="#000000">output:</text>
<polyline fill="none" stroke="#000000" points="158.3691,-162.5 158.3691,-206.5 "/>
<text text-anchor="middle" x="193.1934" y="-191.3" font-family="Times,serif" font-size="14.00" fill="#000000">(None, 2)</text>
<polyline fill="none" stroke="#000000" points="158.3691,-184.5 228.0176,-184.5 "/>
<text text-anchor="middle" x="193.1934" y="-169.3" font-family="Times,serif" font-size="14.00" fill="#000000">(None, 2)</text>
</g>
<!-- 4753006040&#45;&gt;4753000824 -->
<g id="edge3" class="edge">
<title>4753006040-&gt;4753000824</title>
<path fill="none" stroke="#000000" d="M201.945,-243.3664C187.6728,-233.8123 170.8162,-222.5281 155.6994,-212.4086"/>
<polygon fill="#000000" stroke="#000000" points="157.2895,-209.2612 147.0326,-206.6068 153.3955,-215.0782 157.2895,-209.2612"/>
</g>
<!-- 4753178016 -->
<g id="node7" class="node">
<title>4753178016</title>
<polygon fill="none" stroke="#000000" points="78.2275,-81.5 78.2275,-125.5 377.79,-125.5 377.79,-81.5 78.2275,-81.5"/>
<text text-anchor="middle" x="130.3638" y="-99.3" font-family="Times,serif" font-size="14.00" fill="#000000">z_eps: Multiply</text>
<polyline fill="none" stroke="#000000" points="182.5,-81.5 182.5,-125.5 "/>
<text text-anchor="middle" x="210.3345" y="-110.3" font-family="Times,serif" font-size="14.00" fill="#000000">input:</text>
<polyline fill="none" stroke="#000000" points="182.5,-103.5 238.1689,-103.5 "/>
<text text-anchor="middle" x="210.3345" y="-88.3" font-family="Times,serif" font-size="14.00" fill="#000000">output:</text>
<polyline fill="none" stroke="#000000" points="238.1689,-81.5 238.1689,-125.5 "/>
<text text-anchor="middle" x="307.9795" y="-110.3" font-family="Times,serif" font-size="14.00" fill="#000000">[(None, 2), (None, 2)]</text>
<polyline fill="none" stroke="#000000" points="238.1689,-103.5 377.79,-103.5 "/>
<text text-anchor="middle" x="307.4932" y="-88.3" font-family="Times,serif" font-size="14.00" fill="#000000">(None, 2)</text>
</g>
<!-- 4753000824&#45;&gt;4753178016 -->
<g id="edge5" class="edge">
<title>4753000824-&gt;4753178016</title>
<path fill="none" stroke="#000000" d="M145.1598,-162.3664C158.6063,-152.8123 174.4877,-141.5281 188.73,-131.4086"/>
<polygon fill="#000000" stroke="#000000" points="190.7709,-134.2521 196.8955,-125.6068 186.7164,-128.5458 190.7709,-134.2521"/>
</g>
<!-- 4753000152 -->
<g id="node5" class="node">
<title>4753000152</title>
<polygon fill="none" stroke="#000000" points="246.2275,-162.5 246.2275,-206.5 475.79,-206.5 475.79,-162.5 246.2275,-162.5"/>
<text text-anchor="middle" x="298.3501" y="-180.3" font-family="Times,serif" font-size="14.00" fill="#000000">eps: InputLayer</text>
<polyline fill="none" stroke="#000000" points="350.4727,-162.5 350.4727,-206.5 "/>
<text text-anchor="middle" x="378.3071" y="-191.3" font-family="Times,serif" font-size="14.00" fill="#000000">input:</text>
<polyline fill="none" stroke="#000000" points="350.4727,-184.5 406.1416,-184.5 "/>
<text text-anchor="middle" x="378.3071" y="-169.3" font-family="Times,serif" font-size="14.00" fill="#000000">output:</text>
<polyline fill="none" stroke="#000000" points="406.1416,-162.5 406.1416,-206.5 "/>
<text text-anchor="middle" x="440.9658" y="-191.3" font-family="Times,serif" font-size="14.00" fill="#000000">(None, 2)</text>
<polyline fill="none" stroke="#000000" points="406.1416,-184.5 475.79,-184.5 "/>
<text text-anchor="middle" x="440.9658" y="-169.3" font-family="Times,serif" font-size="14.00" fill="#000000">(None, 2)</text>
</g>
<!-- 4753000152&#45;&gt;4753178016 -->
<g id="edge6" class="edge">
<title>4753000152-&gt;4753178016</title>
<path fill="none" stroke="#000000" d="M324.666,-162.3664C308.6851,-152.6337 289.7564,-141.1057 272.9043,-130.8424"/>
<polygon fill="#000000" stroke="#000000" points="274.669,-127.8191 264.3077,-125.6068 271.0279,-133.7977 274.669,-127.8191"/>
</g>
<!-- 4753177960 -->
<g id="node8" class="node">
<title>4753177960</title>
<polygon fill="none" stroke="#000000" points="241.8896,-.5 241.8896,-44.5 490.1279,-44.5 490.1279,-.5 241.8896,-.5"/>
<text text-anchor="middle" x="268.3638" y="-18.3" font-family="Times,serif" font-size="14.00" fill="#000000">z: Add</text>
<polyline fill="none" stroke="#000000" points="294.8379,-.5 294.8379,-44.5 "/>
<text text-anchor="middle" x="322.6724" y="-29.3" font-family="Times,serif" font-size="14.00" fill="#000000">input:</text>
<polyline fill="none" stroke="#000000" points="294.8379,-22.5 350.5068,-22.5 "/>
<text text-anchor="middle" x="322.6724" y="-7.3" font-family="Times,serif" font-size="14.00" fill="#000000">output:</text>
<polyline fill="none" stroke="#000000" points="350.5068,-.5 350.5068,-44.5 "/>
<text text-anchor="middle" x="420.3174" y="-29.3" font-family="Times,serif" font-size="14.00" fill="#000000">[(None, 2), (None, 2)]</text>
<polyline fill="none" stroke="#000000" points="350.5068,-22.5 490.1279,-22.5 "/>
<text text-anchor="middle" x="419.8311" y="-7.3" font-family="Times,serif" font-size="14.00" fill="#000000">(None, 2)</text>
</g>
<!-- 4752877888&#45;&gt;4753177960 -->
<g id="edge7" class="edge">
<title>4752877888-&gt;4753177960</title>
<path fill="none" stroke="#000000" d="M466.2997,-81.3664C449.7181,-71.6337 430.0777,-60.1057 412.5921,-49.8424"/>
<polygon fill="#000000" stroke="#000000" points="414.0682,-46.6504 403.6723,-44.6068 410.5248,-52.6874 414.0682,-46.6504"/>
</g>
<!-- 4753178016&#45;&gt;4753177960 -->
<g id="edge8" class="edge">
<title>4753178016-&gt;4753177960</title>
<path fill="none" stroke="#000000" d="M265.7179,-81.3664C282.2995,-71.6337 301.9399,-60.1057 319.4255,-49.8424"/>
<polygon fill="#000000" stroke="#000000" points="321.4928,-52.6874 328.3453,-44.6068 317.9494,-46.6504 321.4928,-52.6874"/>
</g>
</g>
</svg>