<?xml version="1.0" encoding="UTF-8" standalone="no"?>
<!DOCTYPE svg PUBLIC "-//W3C//DTD SVG 1.1//EN"
 "http://www.w3.org/Graphics/SVG/1.1/DTD/svg11.dtd">
<!-- Generated by graphviz version 2.38.0 (20140413.2041)
 -->
<!-- Title: G Pages: 1 -->
<svg width="565pt" height="553pt"
 viewBox="0.00 0.00 564.50 553.00" xmlns="http://www.w3.org/2000/svg" xmlns:xlink="http://www.w3.org/1999/xlink">
<g id="graph0" class="graph" transform="scale(1 1) rotate(0) translate(4 549)">
<title>G</title>
<polygon fill="white" stroke="none" points="-4,4 -4,-549 560.5,-549 560.5,4 -4,4"/>
<!-- 140633617042960 -->
<g id="node1" class="node"><title>140633617042960</title>
<polygon fill="none" stroke="black" points="187.5,-498.5 187.5,-544.5 444.5,-544.5 444.5,-498.5 187.5,-498.5"/>
<text text-anchor="middle" x="233" y="-517.8" font-family="Times,serif" font-size="14.00">x: InputLayer</text>
<polyline fill="none" stroke="black" points="278.5,-498.5 278.5,-544.5 "/>
<text text-anchor="middle" x="306" y="-529.3" font-family="Times,serif" font-size="14.00">input:</text>
<polyline fill="none" stroke="black" points="278.5,-521.5 333.5,-521.5 "/>
<text text-anchor="middle" x="306" y="-506.3" font-family="Times,serif" font-size="14.00">output:</text>
<polyline fill="none" stroke="black" points="333.5,-498.5 333.5,-544.5 "/>
<text text-anchor="middle" x="389" y="-529.3" font-family="Times,serif" font-size="14.00">(None, 28, 28, 1)</text>
<polyline fill="none" stroke="black" points="333.5,-521.5 444.5,-521.5 "/>
<text text-anchor="middle" x="389" y="-506.3" font-family="Times,serif" font-size="14.00">(None, 28, 28, 1)</text>
</g>
<!-- 140633619471944 -->
<g id="node2" class="node"><title>140633619471944</title>
<polygon fill="none" stroke="black" points="138,-415.5 138,-461.5 494,-461.5 494,-415.5 138,-415.5"/>
<text text-anchor="middle" x="233" y="-434.8" font-family="Times,serif" font-size="14.00">conv_hidden_layers: Sequential</text>
<polyline fill="none" stroke="black" points="328,-415.5 328,-461.5 "/>
<text text-anchor="middle" x="355.5" y="-446.3" font-family="Times,serif" font-size="14.00">input:</text>
<polyline fill="none" stroke="black" points="328,-438.5 383,-438.5 "/>
<text text-anchor="middle" x="355.5" y="-423.3" font-family="Times,serif" font-size="14.00">output:</text>
<polyline fill="none" stroke="black" points="383,-415.5 383,-461.5 "/>
<text text-anchor="middle" x="438.5" y="-446.3" font-family="Times,serif" font-size="14.00">(None, 28, 28, 1)</text>
<polyline fill="none" stroke="black" points="383,-438.5 494,-438.5 "/>
<text text-anchor="middle" x="438.5" y="-423.3" font-family="Times,serif" font-size="14.00">(None, 128)</text>
</g>
<!-- 140633617042960&#45;&gt;140633619471944 -->
<g id="edge1" class="edge"><title>140633617042960&#45;&gt;140633619471944</title>
<path fill="none" stroke="black" d="M316,-498.366C316,-490.152 316,-480.658 316,-471.725"/>
<polygon fill="black" stroke="black" points="319.5,-471.607 316,-461.607 312.5,-471.607 319.5,-471.607"/>
</g>
<!-- 140633617080504 -->
<g id="node3" class="node"><title>140633617080504</title>
<polygon fill="none" stroke="black" points="87,-332.5 87,-378.5 301,-378.5 301,-332.5 87,-332.5"/>
<text text-anchor="middle" x="125" y="-351.8" font-family="Times,serif" font-size="14.00">mu: Dense</text>
<polyline fill="none" stroke="black" points="163,-332.5 163,-378.5 "/>
<text text-anchor="middle" x="190.5" y="-363.3" font-family="Times,serif" font-size="14.00">input:</text>
<polyline fill="none" stroke="black" points="163,-355.5 218,-355.5 "/>
<text text-anchor="middle" x="190.5" y="-340.3" font-family="Times,serif" font-size="14.00">output:</text>
<polyline fill="none" stroke="black" points="218,-332.5 218,-378.5 "/>
<text text-anchor="middle" x="259.5" y="-363.3" font-family="Times,serif" font-size="14.00">(None, 128)</text>
<polyline fill="none" stroke="black" points="218,-355.5 301,-355.5 "/>
<text text-anchor="middle" x="259.5" y="-340.3" font-family="Times,serif" font-size="14.00">(None, 2)</text>
</g>
<!-- 140633619471944&#45;&gt;140633617080504 -->
<g id="edge2" class="edge"><title>140633619471944&#45;&gt;140633617080504</title>
<path fill="none" stroke="black" d="M282.663,-415.366C268.273,-405.812 251.277,-394.528 236.035,-384.409"/>
<polygon fill="black" stroke="black" points="237.564,-381.222 227.297,-378.607 233.692,-387.054 237.564,-381.222"/>
</g>
<!-- 140633616926704 -->
<g id="node4" class="node"><title>140633616926704</title>
<polygon fill="none" stroke="black" points="319.5,-332.5 319.5,-378.5 556.5,-378.5 556.5,-332.5 319.5,-332.5"/>
<text text-anchor="middle" x="369" y="-351.8" font-family="Times,serif" font-size="14.00">log_var: Dense</text>
<polyline fill="none" stroke="black" points="418.5,-332.5 418.5,-378.5 "/>
<text text-anchor="middle" x="446" y="-363.3" font-family="Times,serif" font-size="14.00">input:</text>
<polyline fill="none" stroke="black" points="418.5,-355.5 473.5,-355.5 "/>
<text text-anchor="middle" x="446" y="-340.3" font-family="Times,serif" font-size="14.00">output:</text>
<polyline fill="none" stroke="black" points="473.5,-332.5 473.5,-378.5 "/>
<text text-anchor="middle" x="515" y="-363.3" font-family="Times,serif" font-size="14.00">(None, 128)</text>
<polyline fill="none" stroke="black" points="473.5,-355.5 556.5,-355.5 "/>
<text text-anchor="middle" x="515" y="-340.3" font-family="Times,serif" font-size="14.00">(None, 2)</text>
</g>
<!-- 140633619471944&#45;&gt;140633616926704 -->
<g id="edge3" class="edge"><title>140633619471944&#45;&gt;140633616926704</title>
<path fill="none" stroke="black" d="M349.337,-415.366C363.727,-405.812 380.723,-394.528 395.965,-384.409"/>
<polygon fill="black" stroke="black" points="398.308,-387.054 404.703,-378.607 394.436,-381.222 398.308,-387.054"/>
</g>
<!-- 140633616988704 -->
<g id="node5" class="node"><title>140633616988704</title>
<polygon fill="none" stroke="black" points="146.5,-249.5 146.5,-295.5 485.5,-295.5 485.5,-249.5 146.5,-249.5"/>
<text text-anchor="middle" x="219.5" y="-268.8" font-family="Times,serif" font-size="14.00">kl: KLDivergenceLayer</text>
<polyline fill="none" stroke="black" points="292.5,-249.5 292.5,-295.5 "/>
<text text-anchor="middle" x="320" y="-280.3" font-family="Times,serif" font-size="14.00">input:</text>
<polyline fill="none" stroke="black" points="292.5,-272.5 347.5,-272.5 "/>
<text text-anchor="middle" x="320" y="-257.3" font-family="Times,serif" font-size="14.00">output:</text>
<polyline fill="none" stroke="black" points="347.5,-249.5 347.5,-295.5 "/>
<text text-anchor="middle" x="416.5" y="-280.3" font-family="Times,serif" font-size="14.00">[(None, 2), (None, 2)]</text>
<polyline fill="none" stroke="black" points="347.5,-272.5 485.5,-272.5 "/>
<text text-anchor="middle" x="416.5" y="-257.3" font-family="Times,serif" font-size="14.00">[(None, 2), (None, 2)]</text>
</g>
<!-- 140633617080504&#45;&gt;140633616988704 -->
<g id="edge4" class="edge"><title>140633617080504&#45;&gt;140633616988704</title>
<path fill="none" stroke="black" d="M227.337,-332.366C241.727,-322.812 258.723,-311.528 273.965,-301.409"/>
<polygon fill="black" stroke="black" points="276.308,-304.054 282.703,-295.607 272.436,-298.222 276.308,-304.054"/>
</g>
<!-- 140633616926704&#45;&gt;140633616988704 -->
<g id="edge5" class="edge"><title>140633616926704&#45;&gt;140633616988704</title>
<path fill="none" stroke="black" d="M404.663,-332.366C390.273,-322.812 373.277,-311.528 358.035,-301.409"/>
<polygon fill="black" stroke="black" points="359.564,-298.222 349.297,-295.607 355.692,-304.054 359.564,-298.222"/>
</g>
<!-- 140633617100584 -->
<g id="node6" class="node"><title>140633617100584</title>
<polygon fill="none" stroke="black" points="0,-166.5 0,-212.5 226,-212.5 226,-166.5 0,-166.5"/>
<text text-anchor="middle" x="51" y="-185.8" font-family="Times,serif" font-size="14.00">sigma: Lambda</text>
<polyline fill="none" stroke="black" points="102,-166.5 102,-212.5 "/>
<text text-anchor="middle" x="129.5" y="-197.3" font-family="Times,serif" font-size="14.00">input:</text>
<polyline fill="none" stroke="black" points="102,-189.5 157,-189.5 "/>
<text text-anchor="middle" x="129.5" y="-174.3" font-family="Times,serif" font-size="14.00">output:</text>
<polyline fill="none" stroke="black" points="157,-166.5 157,-212.5 "/>
<text text-anchor="middle" x="191.5" y="-197.3" font-family="Times,serif" font-size="14.00">(None, 2)</text>
<polyline fill="none" stroke="black" points="157,-189.5 226,-189.5 "/>
<text text-anchor="middle" x="191.5" y="-174.3" font-family="Times,serif" font-size="14.00">(None, 2)</text>
</g>
<!-- 140633616988704&#45;&gt;140633617100584 -->
<g id="edge6" class="edge"><title>140633616988704&#45;&gt;140633617100584</title>
<path fill="none" stroke="black" d="M260.797,-249.473C235.067,-239.206 204.284,-226.924 177.488,-216.232"/>
<polygon fill="black" stroke="black" points="178.777,-212.978 168.192,-212.522 176.182,-219.479 178.777,-212.978"/>
</g>
<!-- 140633617168256 -->
<g id="node9" class="node"><title>140633617168256</title>
<polygon fill="none" stroke="black" points="309,-0.5 309,-46.5 555,-46.5 555,-0.5 309,-0.5"/>
<text text-anchor="middle" x="335.5" y="-19.8" font-family="Times,serif" font-size="14.00">z: Add</text>
<polyline fill="none" stroke="black" points="362,-0.5 362,-46.5 "/>
<text text-anchor="middle" x="389.5" y="-31.3" font-family="Times,serif" font-size="14.00">input:</text>
<polyline fill="none" stroke="black" points="362,-23.5 417,-23.5 "/>
<text text-anchor="middle" x="389.5" y="-8.3" font-family="Times,serif" font-size="14.00">output:</text>
<polyline fill="none" stroke="black" points="417,-0.5 417,-46.5 "/>
<text text-anchor="middle" x="486" y="-31.3" font-family="Times,serif" font-size="14.00">[(None, 2), (None, 2)]</text>
<polyline fill="none" stroke="black" points="417,-23.5 555,-23.5 "/>
<text text-anchor="middle" x="486" y="-8.3" font-family="Times,serif" font-size="14.00">(None, 2)</text>
</g>
<!-- 140633616988704&#45;&gt;140633617168256 -->
<g id="edge9" class="edge"><title>140633616988704&#45;&gt;140633617168256</title>
<path fill="none" stroke="black" d="M455.184,-249.372C473.097,-240.782 489.255,-229.033 501,-213 535.145,-166.391 525.284,-135.427 501,-83 495.687,-71.5306 486.895,-61.4906 477.336,-53.1151"/>
<polygon fill="black" stroke="black" points="479.516,-50.3763 469.558,-46.7593 475.087,-55.797 479.516,-50.3763"/>
</g>
<!-- 140633616842312 -->
<g id="node8" class="node"><title>140633616842312</title>
<polygon fill="none" stroke="black" points="196,-83.5 196,-129.5 492,-129.5 492,-83.5 196,-83.5"/>
<text text-anchor="middle" x="247.5" y="-102.8" font-family="Times,serif" font-size="14.00">z_eps: Multiply</text>
<polyline fill="none" stroke="black" points="299,-83.5 299,-129.5 "/>
<text text-anchor="middle" x="326.5" y="-114.3" font-family="Times,serif" font-size="14.00">input:</text>
<polyline fill="none" stroke="black" points="299,-106.5 354,-106.5 "/>
<text text-anchor="middle" x="326.5" y="-91.3" font-family="Times,serif" font-size="14.00">output:</text>
<polyline fill="none" stroke="black" points="354,-83.5 354,-129.5 "/>
<text text-anchor="middle" x="423" y="-114.3" font-family="Times,serif" font-size="14.00">[(None, 2), (None, 2)]</text>
<polyline fill="none" stroke="black" points="354,-106.5 492,-106.5 "/>
<text text-anchor="middle" x="423" y="-91.3" font-family="Times,serif" font-size="14.00">(None, 2)</text>
</g>
<!-- 140633617100584&#45;&gt;140633616842312 -->
<g id="edge7" class="edge"><title>140633617100584&#45;&gt;140633616842312</title>
<path fill="none" stroke="black" d="M175.817,-166.473C205.352,-156.117 240.738,-143.709 271.415,-132.952"/>
<polygon fill="black" stroke="black" points="272.917,-136.134 281.196,-129.522 270.601,-129.528 272.917,-136.134"/>
</g>
<!-- 140633616798384 -->
<g id="node7" class="node"><title>140633616798384</title>
<polygon fill="none" stroke="black" points="244.5,-166.5 244.5,-212.5 491.5,-212.5 491.5,-166.5 244.5,-166.5"/>
<text text-anchor="middle" x="306" y="-185.8" font-family="Times,serif" font-size="14.00">epsilon: InputLayer</text>
<polyline fill="none" stroke="black" points="367.5,-166.5 367.5,-212.5 "/>
<text text-anchor="middle" x="395" y="-197.3" font-family="Times,serif" font-size="14.00">input:</text>
<polyline fill="none" stroke="black" points="367.5,-189.5 422.5,-189.5 "/>
<text text-anchor="middle" x="395" y="-174.3" font-family="Times,serif" font-size="14.00">output:</text>
<polyline fill="none" stroke="black" points="422.5,-166.5 422.5,-212.5 "/>
<text text-anchor="middle" x="457" y="-197.3" font-family="Times,serif" font-size="14.00">(None, 2)</text>
<polyline fill="none" stroke="black" points="422.5,-189.5 491.5,-189.5 "/>
<text text-anchor="middle" x="457" y="-174.3" font-family="Times,serif" font-size="14.00">(None, 2)</text>
</g>
<!-- 140633616798384&#45;&gt;140633616842312 -->
<g id="edge8" class="edge"><title>140633616798384&#45;&gt;140633616842312</title>
<path fill="none" stroke="black" d="M361.442,-166.366C358.981,-158.062 356.134,-148.451 353.462,-139.434"/>
<polygon fill="black" stroke="black" points="356.747,-138.2 350.55,-129.607 350.035,-140.189 356.747,-138.2"/>
</g>
<!-- 140633616842312&#45;&gt;140633617168256 -->
<g id="edge10" class="edge"><title>140633616842312&#45;&gt;140633617168256</title>
<path fill="none" stroke="black" d="M368.046,-83.3664C378.038,-74.1695 389.772,-63.3694 400.441,-53.5482"/>
<polygon fill="black" stroke="black" points="402.995,-55.9544 407.983,-46.6068 398.255,-50.8041 402.995,-55.9544"/>
</g>
</g>
</svg>
