<svg xmlns="http://www.w3.org/2000/svg" xmlns:xlink="http://www.w3.org/1999/xlink" viewBox="0.00 0.00 358.00 410.00" viewport="0 0 1117px 1280px">
<g id="graph0" class="graph" transform="scale(1 1) rotate(0) translate(4 406)">
<title>G</title>
<polygon fill="#ffffff" stroke="transparent" points="-4,4 -4,-406 354,-406 354,4 -4,4"/>
<!-- 140175855034552 -->
<g id="node1" class="node">
<title>140175855034552</title>
<polygon fill="none" stroke="#000000" points="126,-365.5 126,-401.5 240,-401.5 240,-365.5 126,-365.5"/>
<text text-anchor="middle" x="183" y="-379.8" font-family="Times,serif" font-size="14.00" fill="#000000">x: InputLayer</text>
</g>
<!-- 140175854580456 -->
<g id="node2" class="node">
<title>140175854580456</title>
<polygon fill="none" stroke="#000000" points="91,-292.5 91,-328.5 275,-328.5 275,-292.5 91,-292.5"/>
<text text-anchor="middle" x="183" y="-306.8" font-family="Times,serif" font-size="14.00" fill="#000000">encoder_hidden: Dense</text>
</g>
<!-- 140175855034552&#45;&gt;140175854580456 -->
<g id="edge1" class="edge">
<title>140175855034552-&gt;140175854580456</title>
<path fill="none" stroke="#000000" d="M183,-365.4551C183,-357.3828 183,-347.6764 183,-338.6817"/>
<polygon fill="#000000" stroke="#000000" points="186.5001,-338.5903 183,-328.5904 179.5001,-338.5904 186.5001,-338.5903"/>
</g>
<!-- 140175854581184 -->
<g id="node3" class="node">
<title>140175854581184</title>
<polygon fill="none" stroke="#000000" points="78,-219.5 78,-255.5 200,-255.5 200,-219.5 78,-219.5"/>
<text text-anchor="middle" x="139" y="-233.8" font-family="Times,serif" font-size="14.00" fill="#000000">log_var: Dense</text>
</g>
<!-- 140175854580456&#45;&gt;140175854581184 -->
<g id="edge2" class="edge">
<title>140175854580456-&gt;140175854581184</title>
<path fill="none" stroke="#000000" d="M172.1236,-292.4551C166.9937,-283.9441 160.7688,-273.6165 155.1064,-264.2219"/>
<polygon fill="#000000" stroke="#000000" points="158.0636,-262.3481 149.9038,-255.5904 152.0684,-265.9617 158.0636,-262.3481"/>
</g>
<!-- 140175854580512 -->
<g id="node6" class="node">
<title>140175854580512</title>
<polygon fill="none" stroke="#000000" points="258,-73.5 258,-109.5 350,-109.5 350,-73.5 258,-73.5"/>
<text text-anchor="middle" x="304" y="-87.8" font-family="Times,serif" font-size="14.00" fill="#000000">mu: Dense</text>
</g>
<!-- 140175854580456&#45;&gt;140175854580512 -->
<g id="edge4" class="edge">
<title>140175854580456-&gt;140175854580512</title>
<path fill="none" stroke="#000000" d="M202.4427,-292.1722C225.7862,-269.0153 264.3645,-226.862 285,-183 294.397,-163.0262 299.1723,-138.4386 301.5842,-119.783"/>
<polygon fill="#000000" stroke="#000000" points="305.0634,-120.1634 302.7218,-109.8305 298.1087,-119.3683 305.0634,-120.1634"/>
</g>
<!-- 140175854597680 -->
<g id="node4" class="node">
<title>140175854597680</title>
<polygon fill="none" stroke="#000000" points="0,-146.5 0,-182.5 126,-182.5 126,-146.5 0,-146.5"/>
<text text-anchor="middle" x="63" y="-160.8" font-family="Times,serif" font-size="14.00" fill="#000000">sigma: Lambda</text>
</g>
<!-- 140175854581184&#45;&gt;140175854597680 -->
<g id="edge3" class="edge">
<title>140175854581184-&gt;140175854597680</title>
<path fill="none" stroke="#000000" d="M120.2135,-219.4551C110.8961,-210.5054 99.4873,-199.547 89.3157,-189.7769"/>
<polygon fill="#000000" stroke="#000000" points="91.4704,-186.9935 81.8338,-182.5904 86.6212,-192.0419 91.4704,-186.9935"/>
</g>
<!-- 140175854672976 -->
<g id="node7" class="node">
<title>140175854672976</title>
<polygon fill="none" stroke="#000000" points="114.5,-73.5 114.5,-109.5 239.5,-109.5 239.5,-73.5 114.5,-73.5"/>
<text text-anchor="middle" x="177" y="-87.8" font-family="Times,serif" font-size="14.00" fill="#000000">z_eps: Multiply</text>
</g>
<!-- 140175854597680&#45;&gt;140175854672976 -->
<g id="edge5" class="edge">
<title>140175854597680-&gt;140175854672976</title>
<path fill="none" stroke="#000000" d="M91.1798,-146.4551C105.978,-136.979 124.2933,-125.2508 140.1986,-115.0658"/>
<polygon fill="#000000" stroke="#000000" points="142.2154,-117.9305 148.7493,-109.5904 138.4405,-112.0356 142.2154,-117.9305"/>
</g>
<!-- 140175855075168 -->
<g id="node5" class="node">
<title>140175855075168</title>
<polygon fill="none" stroke="#000000" points="144.5,-146.5 144.5,-182.5 275.5,-182.5 275.5,-146.5 144.5,-146.5"/>
<text text-anchor="middle" x="210" y="-160.8" font-family="Times,serif" font-size="14.00" fill="#000000">eps: InputLayer</text>
</g>
<!-- 140175855075168&#45;&gt;140175854672976 -->
<g id="edge6" class="edge">
<title>140175855075168-&gt;140175854672976</title>
<path fill="none" stroke="#000000" d="M201.8427,-146.4551C198.0746,-138.1196 193.5188,-128.0416 189.343,-118.8042"/>
<polygon fill="#000000" stroke="#000000" points="192.4864,-117.2608 185.1778,-109.5904 186.1078,-120.1443 192.4864,-117.2608"/>
</g>
<!-- 140175854673536 -->
<g id="node8" class="node">
<title>140175854673536</title>
<polygon fill="none" stroke="#000000" points="209,-.5 209,-36.5 271,-36.5 271,-.5 209,-.5"/>
<text text-anchor="middle" x="240" y="-14.8" font-family="Times,serif" font-size="14.00" fill="#000000">z: Add</text>
</g>
<!-- 140175854580512&#45;&gt;140175854673536 -->
<g id="edge7" class="edge">
<title>140175854580512-&gt;140175854673536</title>
<path fill="none" stroke="#000000" d="M288.1798,-73.4551C280.4874,-64.6809 271.1022,-53.9759 262.6656,-44.353"/>
<polygon fill="#000000" stroke="#000000" points="265.0842,-41.8024 255.86,-36.5904 259.8206,-46.4171 265.0842,-41.8024"/>
</g>
<!-- 140175854672976&#45;&gt;140175854673536 -->
<g id="edge8" class="edge">
<title>140175854672976-&gt;140175854673536</title>
<path fill="none" stroke="#000000" d="M192.573,-73.4551C200.1452,-64.6809 209.3838,-53.9759 217.6885,-44.353"/>
<polygon fill="#000000" stroke="#000000" points="220.5039,-46.4477 224.3878,-36.5904 215.2045,-41.8742 220.5039,-46.4477"/>
</g>
</g>
</svg>