<svg xmlns="http://www.w3.org/2000/svg" xmlns:xlink="http://www.w3.org/1999/xlink" viewBox="0.00 0.00 635.00 470.00" viewport="0 0 400px 296px">
<g id="graph0" class="graph" transform="scale(1 1) rotate(0) translate(4 466)">
<title>G</title>
<polygon fill="white" stroke="none" points="-4,4 -4,-466 631,-466 631,4 -4,4"/>
<!-- 140393154758472 -->
<g id="node1" class="node"><title>140393154758472</title>
<polygon fill="none" stroke="black" points="266.5,-415.5 266.5,-461.5 495.5,-461.5 495.5,-415.5 266.5,-415.5"/>
<text text-anchor="middle" x="312" y="-434.8" font-family="Times,serif" font-size="14.00">x: InputLayer</text>
<polyline fill="none" stroke="black" points="357.5,-415.5 357.5,-461.5 "/>
<text text-anchor="middle" x="385" y="-446.3" font-family="Times,serif" font-size="14.00">input:</text>
<polyline fill="none" stroke="black" points="357.5,-438.5 412.5,-438.5 "/>
<text text-anchor="middle" x="385" y="-423.3" font-family="Times,serif" font-size="14.00">output:</text>
<polyline fill="none" stroke="black" points="412.5,-415.5 412.5,-461.5 "/>
<text text-anchor="middle" x="454" y="-446.3" font-family="Times,serif" font-size="14.00">(None, 784)</text>
<polyline fill="none" stroke="black" points="412.5,-438.5 495.5,-438.5 "/>
<text text-anchor="middle" x="454" y="-423.3" font-family="Times,serif" font-size="14.00">(None, 784)</text>
</g>
<!-- 140393154684184 -->
<g id="node2" class="node"><title>140393154684184</title>
<polygon fill="none" stroke="black" points="240,-332.5 240,-378.5 522,-378.5 522,-332.5 240,-332.5"/>
<text text-anchor="middle" x="312" y="-351.8" font-family="Times,serif" font-size="14.00">encoder_hidden: Dense</text>
<polyline fill="none" stroke="black" points="384,-332.5 384,-378.5 "/>
<text text-anchor="middle" x="411.5" y="-363.3" font-family="Times,serif" font-size="14.00">input:</text>
<polyline fill="none" stroke="black" points="384,-355.5 439,-355.5 "/>
<text text-anchor="middle" x="411.5" y="-340.3" font-family="Times,serif" font-size="14.00">output:</text>
<polyline fill="none" stroke="black" points="439,-332.5 439,-378.5 "/>
<text text-anchor="middle" x="480.5" y="-363.3" font-family="Times,serif" font-size="14.00">(None, 784)</text>
<polyline fill="none" stroke="black" points="439,-355.5 522,-355.5 "/>
<text text-anchor="middle" x="480.5" y="-340.3" font-family="Times,serif" font-size="14.00">(None, 256)</text>
</g>
<!-- 140393154758472&#45;&gt;140393154684184 -->
<g id="edge1" class="edge"><title>140393154758472-&gt;140393154684184</title>
<path fill="none" stroke="black" d="M381,-415.366C381,-407.152 381,-397.658 381,-388.725"/>
<polygon fill="black" stroke="black" points="384.5,-388.607 381,-378.607 377.5,-388.607 384.5,-388.607"/>
</g>
<!-- 140393154756960 -->
<g id="node3" class="node"><title>140393154756960</title>
<polygon fill="none" stroke="black" points="124.5,-249.5 124.5,-295.5 361.5,-295.5 361.5,-249.5 124.5,-249.5"/>
<text text-anchor="middle" x="174" y="-268.8" font-family="Times,serif" font-size="14.00">log_var: Dense</text>
<polyline fill="none" stroke="black" points="223.5,-249.5 223.5,-295.5 "/>
<text text-anchor="middle" x="251" y="-280.3" font-family="Times,serif" font-size="14.00">input:</text>
<polyline fill="none" stroke="black" points="223.5,-272.5 278.5,-272.5 "/>
<text text-anchor="middle" x="251" y="-257.3" font-family="Times,serif" font-size="14.00">output:</text>
<polyline fill="none" stroke="black" points="278.5,-249.5 278.5,-295.5 "/>
<text text-anchor="middle" x="320" y="-280.3" font-family="Times,serif" font-size="14.00">(None, 256)</text>
<polyline fill="none" stroke="black" points="278.5,-272.5 361.5,-272.5 "/>
<text text-anchor="middle" x="320" y="-257.3" font-family="Times,serif" font-size="14.00">(None, 2)</text>
</g>
<!-- 140393154684184&#45;&gt;140393154756960 -->
<g id="edge2" class="edge"><title>140393154684184-&gt;140393154756960</title>
<path fill="none" stroke="black" d="M343.291,-332.366C326.709,-322.634 307.069,-311.106 289.583,-300.842"/>
<polygon fill="black" stroke="black" points="291.059,-297.65 280.664,-295.607 287.516,-303.687 291.059,-297.65"/>
</g>
<!-- 140393154757632 -->
<g id="node6" class="node"><title>140393154757632</title>
<polygon fill="none" stroke="black" points="413,-83.5 413,-129.5 627,-129.5 627,-83.5 413,-83.5"/>
<text text-anchor="middle" x="451" y="-102.8" font-family="Times,serif" font-size="14.00">mu: Dense</text>
<polyline fill="none" stroke="black" points="489,-83.5 489,-129.5 "/>
<text text-anchor="middle" x="516.5" y="-114.3" font-family="Times,serif" font-size="14.00">input:</text>
<polyline fill="none" stroke="black" points="489,-106.5 544,-106.5 "/>
<text text-anchor="middle" x="516.5" y="-91.3" font-family="Times,serif" font-size="14.00">output:</text>
<polyline fill="none" stroke="black" points="544,-83.5 544,-129.5 "/>
<text text-anchor="middle" x="585.5" y="-114.3" font-family="Times,serif" font-size="14.00">(None, 256)</text>
<polyline fill="none" stroke="black" points="544,-106.5 627,-106.5 "/>
<text text-anchor="middle" x="585.5" y="-91.3" font-family="Times,serif" font-size="14.00">(None, 2)</text>
</g>
<!-- 140393154684184&#45;&gt;140393154757632 -->
<g id="edge4" class="edge"><title>140393154684184-&gt;140393154757632</title>
<path fill="none" stroke="black" d="M406.308,-332.178C433.895,-306.34 477.146,-261.133 500,-213 510.994,-189.845 515.948,-161.128 518.179,-139.504"/>
<polygon fill="black" stroke="black" points="521.667,-139.785 519.069,-129.514 514.695,-139.163 521.667,-139.785"/>
</g>
<!-- 140393154739168 -->
<g id="node4" class="node"><title>140393154739168</title>
<polygon fill="none" stroke="black" points="0,-166.5 0,-212.5 226,-212.5 226,-166.5 0,-166.5"/>
<text text-anchor="middle" x="51" y="-185.8" font-family="Times,serif" font-size="14.00">sigma: Lambda</text>
<polyline fill="none" stroke="black" points="102,-166.5 102,-212.5 "/>
<text text-anchor="middle" x="129.5" y="-197.3" font-family="Times,serif" font-size="14.00">input:</text>
<polyline fill="none" stroke="black" points="102,-189.5 157,-189.5 "/>
<text text-anchor="middle" x="129.5" y="-174.3" font-family="Times,serif" font-size="14.00">output:</text>
<polyline fill="none" stroke="black" points="157,-166.5 157,-212.5 "/>
<text text-anchor="middle" x="191.5" y="-197.3" font-family="Times,serif" font-size="14.00">(None, 2)</text>
<polyline fill="none" stroke="black" points="157,-189.5 226,-189.5 "/>
<text text-anchor="middle" x="191.5" y="-174.3" font-family="Times,serif" font-size="14.00">(None, 2)</text>
</g>
<!-- 140393154756960&#45;&gt;140393154739168 -->
<g id="edge3" class="edge"><title>140393154756960-&gt;140393154739168</title>
<path fill="none" stroke="black" d="M207.477,-249.366C192,-239.723 173.694,-228.317 157.337,-218.125"/>
<polygon fill="black" stroke="black" points="158.818,-214.925 148.48,-212.607 155.117,-220.866 158.818,-214.925"/>
</g>
<!-- 140393154656464 -->
<g id="node7" class="node"><title>140393154656464</title>
<polygon fill="none" stroke="black" points="77.5,-83.5 77.5,-129.5 394.5,-129.5 394.5,-83.5 77.5,-83.5"/>
<text text-anchor="middle" x="129" y="-102.8" font-family="Times,serif" font-size="14.00">z_eps: Multiply</text>
<polyline fill="none" stroke="black" points="180.5,-83.5 180.5,-129.5 "/>
<text text-anchor="middle" x="208" y="-114.3" font-family="Times,serif" font-size="14.00">input:</text>
<polyline fill="none" stroke="black" points="180.5,-106.5 235.5,-106.5 "/>
<text text-anchor="middle" x="208" y="-91.3" font-family="Times,serif" font-size="14.00">output:</text>
<polyline fill="none" stroke="black" points="235.5,-83.5 235.5,-129.5 "/>
<text text-anchor="middle" x="315" y="-114.3" font-family="Times,serif" font-size="14.00">[(None, 2), (None, 25, 2)]</text>
<polyline fill="none" stroke="black" points="235.5,-106.5 394.5,-106.5 "/>
<text text-anchor="middle" x="315" y="-91.3" font-family="Times,serif" font-size="14.00">(None, 25, 2)</text>
</g>
<!-- 140393154739168&#45;&gt;140393154656464 -->
<g id="edge5" class="edge"><title>140393154739168-&gt;140393154656464</title>
<path fill="none" stroke="black" d="M146.61,-166.366C161.254,-156.723 178.574,-145.317 194.051,-135.125"/>
<polygon fill="black" stroke="black" points="196.004,-138.03 202.43,-129.607 192.154,-132.184 196.004,-138.03"/>
</g>
<!-- 140393154758136 -->
<g id="node5" class="node"><title>140393154758136</title>
<polygon fill="none" stroke="black" points="244.5,-166.5 244.5,-212.5 491.5,-212.5 491.5,-166.5 244.5,-166.5"/>
<text text-anchor="middle" x="295.5" y="-185.8" font-family="Times,serif" font-size="14.00">eps: InputLayer</text>
<polyline fill="none" stroke="black" points="346.5,-166.5 346.5,-212.5 "/>
<text text-anchor="middle" x="374" y="-197.3" font-family="Times,serif" font-size="14.00">input:</text>
<polyline fill="none" stroke="black" points="346.5,-189.5 401.5,-189.5 "/>
<text text-anchor="middle" x="374" y="-174.3" font-family="Times,serif" font-size="14.00">output:</text>
<polyline fill="none" stroke="black" points="401.5,-166.5 401.5,-212.5 "/>
<text text-anchor="middle" x="446.5" y="-197.3" font-family="Times,serif" font-size="14.00">(None, 25, 2)</text>
<polyline fill="none" stroke="black" points="401.5,-189.5 491.5,-189.5 "/>
<text text-anchor="middle" x="446.5" y="-174.3" font-family="Times,serif" font-size="14.00">(None, 25, 2)</text>
</g>
<!-- 140393154758136&#45;&gt;140393154656464 -->
<g id="edge6" class="edge"><title>140393154758136-&gt;140393154656464</title>
<path fill="none" stroke="black" d="M331.93,-166.366C316.07,-156.634 297.283,-145.106 280.558,-134.842"/>
<polygon fill="black" stroke="black" points="282.38,-131.854 272.026,-129.607 278.719,-137.82 282.38,-131.854"/>
</g>
<!-- 140393155534296 -->
<g id="node8" class="node"><title>140393155534296</title>
<polygon fill="none" stroke="black" points="244.5,-0.5 244.5,-46.5 511.5,-46.5 511.5,-0.5 244.5,-0.5"/>
<text text-anchor="middle" x="271" y="-19.8" font-family="Times,serif" font-size="14.00">z: Add</text>
<polyline fill="none" stroke="black" points="297.5,-0.5 297.5,-46.5 "/>
<text text-anchor="middle" x="325" y="-31.3" font-family="Times,serif" font-size="14.00">input:</text>
<polyline fill="none" stroke="black" points="297.5,-23.5 352.5,-23.5 "/>
<text text-anchor="middle" x="325" y="-8.3" font-family="Times,serif" font-size="14.00">output:</text>
<polyline fill="none" stroke="black" points="352.5,-0.5 352.5,-46.5 "/>
<text text-anchor="middle" x="432" y="-31.3" font-family="Times,serif" font-size="14.00">[(None, 2), (None, 25, 2)]</text>
<polyline fill="none" stroke="black" points="352.5,-23.5 511.5,-23.5 "/>
<text text-anchor="middle" x="432" y="-8.3" font-family="Times,serif" font-size="14.00">(None, 25, 2)</text>
</g>
<!-- 140393154757632&#45;&gt;140393155534296 -->
<g id="edge7" class="edge"><title>140393154757632-&gt;140393155534296</title>
<path fill="none" stroke="black" d="M481.198,-83.3664C464.136,-73.6337 443.926,-62.1057 425.934,-51.8424"/>
<polygon fill="black" stroke="black" points="427.176,-48.5215 416.755,-46.6068 423.707,-54.6019 427.176,-48.5215"/>
</g>
<!-- 140393154656464&#45;&gt;140393155534296 -->
<g id="edge8" class="edge"><title>140393154656464-&gt;140393155534296</title>
<path fill="none" stroke="black" d="M274.802,-83.3664C291.864,-73.6337 312.074,-62.1057 330.066,-51.8424"/>
<polygon fill="black" stroke="black" points="332.293,-54.6019 339.245,-46.6068 328.824,-48.5215 332.293,-54.6019"/>
</g>
</g>
</svg>