<svg xmlns="http://www.w3.org/2000/svg" xmlns:xlink="http://www.w3.org/1999/xlink" viewBox="0.00 0.00 553.50 553.00" viewport="0 0 1280px 1277px">
<g id="graph0" class="graph" transform="scale(1 1) rotate(0) translate(4 549)">
<title>G</title>
<polygon fill="white" stroke="none" points="-4,4 -4,-549 549.5,-549 549.5,4 -4,4"/>
<!-- 140521334638744 -->
<g id="node1" class="node"><title>140521334638744</title>
<polygon fill="none" stroke="black" points="190.5,-498.5 190.5,-544.5 419.5,-544.5 419.5,-498.5 190.5,-498.5"/>
<text text-anchor="middle" x="236" y="-517.8" font-family="Times,serif" font-size="14.00">x: InputLayer</text>
<polyline fill="none" stroke="black" points="281.5,-498.5 281.5,-544.5 "/>
<text text-anchor="middle" x="309" y="-529.3" font-family="Times,serif" font-size="14.00">input:</text>
<polyline fill="none" stroke="black" points="281.5,-521.5 336.5,-521.5 "/>
<text text-anchor="middle" x="309" y="-506.3" font-family="Times,serif" font-size="14.00">output:</text>
<polyline fill="none" stroke="black" points="336.5,-498.5 336.5,-544.5 "/>
<text text-anchor="middle" x="378" y="-529.3" font-family="Times,serif" font-size="14.00">(None, 784)</text>
<polyline fill="none" stroke="black" points="336.5,-521.5 419.5,-521.5 "/>
<text text-anchor="middle" x="378" y="-506.3" font-family="Times,serif" font-size="14.00">(None, 784)</text>
</g>
<!-- 140521334639248 -->
<g id="node2" class="node"><title>140521334639248</title>
<polygon fill="none" stroke="black" points="176,-415.5 176,-461.5 434,-461.5 434,-415.5 176,-415.5"/>
<text text-anchor="middle" x="236" y="-434.8" font-family="Times,serif" font-size="14.00">hidden_enc: Dense</text>
<polyline fill="none" stroke="black" points="296,-415.5 296,-461.5 "/>
<text text-anchor="middle" x="323.5" y="-446.3" font-family="Times,serif" font-size="14.00">input:</text>
<polyline fill="none" stroke="black" points="296,-438.5 351,-438.5 "/>
<text text-anchor="middle" x="323.5" y="-423.3" font-family="Times,serif" font-size="14.00">output:</text>
<polyline fill="none" stroke="black" points="351,-415.5 351,-461.5 "/>
<text text-anchor="middle" x="392.5" y="-446.3" font-family="Times,serif" font-size="14.00">(None, 784)</text>
<polyline fill="none" stroke="black" points="351,-438.5 434,-438.5 "/>
<text text-anchor="middle" x="392.5" y="-423.3" font-family="Times,serif" font-size="14.00">(None, 256)</text>
</g>
<!-- 140521334638744&#45;&gt;140521334639248 -->
<g id="edge1" class="edge"><title>140521334638744-&gt;140521334639248</title>
<path fill="none" stroke="black" d="M305,-498.366C305,-490.152 305,-480.658 305,-471.725"/>
<polygon fill="black" stroke="black" points="308.5,-471.607 305,-461.607 301.5,-471.607 308.5,-471.607"/>
</g>
<!-- 140521334640480 -->
<g id="node3" class="node"><title>140521334640480</title>
<polygon fill="none" stroke="black" points="76,-332.5 76,-378.5 290,-378.5 290,-332.5 76,-332.5"/>
<text text-anchor="middle" x="114" y="-351.8" font-family="Times,serif" font-size="14.00">mu: Dense</text>
<polyline fill="none" stroke="black" points="152,-332.5 152,-378.5 "/>
<text text-anchor="middle" x="179.5" y="-363.3" font-family="Times,serif" font-size="14.00">input:</text>
<polyline fill="none" stroke="black" points="152,-355.5 207,-355.5 "/>
<text text-anchor="middle" x="179.5" y="-340.3" font-family="Times,serif" font-size="14.00">output:</text>
<polyline fill="none" stroke="black" points="207,-332.5 207,-378.5 "/>
<text text-anchor="middle" x="248.5" y="-363.3" font-family="Times,serif" font-size="14.00">(None, 256)</text>
<polyline fill="none" stroke="black" points="207,-355.5 290,-355.5 "/>
<text text-anchor="middle" x="248.5" y="-340.3" font-family="Times,serif" font-size="14.00">(None, 2)</text>
</g>
<!-- 140521334639248&#45;&gt;140521334640480 -->
<g id="edge2" class="edge"><title>140521334639248-&gt;140521334640480</title>
<path fill="none" stroke="black" d="M271.663,-415.366C257.273,-405.812 240.277,-394.528 225.035,-384.409"/>
<polygon fill="black" stroke="black" points="226.564,-381.222 216.297,-378.607 222.692,-387.054 226.564,-381.222"/>
</g>
<!-- 140521334475352 -->
<g id="node4" class="node"><title>140521334475352</title>
<polygon fill="none" stroke="black" points="308.5,-332.5 308.5,-378.5 545.5,-378.5 545.5,-332.5 308.5,-332.5"/>
<text text-anchor="middle" x="358" y="-351.8" font-family="Times,serif" font-size="14.00">log_var: Dense</text>
<polyline fill="none" stroke="black" points="407.5,-332.5 407.5,-378.5 "/>
<text text-anchor="middle" x="435" y="-363.3" font-family="Times,serif" font-size="14.00">input:</text>
<polyline fill="none" stroke="black" points="407.5,-355.5 462.5,-355.5 "/>
<text text-anchor="middle" x="435" y="-340.3" font-family="Times,serif" font-size="14.00">output:</text>
<polyline fill="none" stroke="black" points="462.5,-332.5 462.5,-378.5 "/>
<text text-anchor="middle" x="504" y="-363.3" font-family="Times,serif" font-size="14.00">(None, 256)</text>
<polyline fill="none" stroke="black" points="462.5,-355.5 545.5,-355.5 "/>
<text text-anchor="middle" x="504" y="-340.3" font-family="Times,serif" font-size="14.00">(None, 2)</text>
</g>
<!-- 140521334639248&#45;&gt;140521334475352 -->
<g id="edge3" class="edge"><title>140521334639248-&gt;140521334475352</title>
<path fill="none" stroke="black" d="M338.337,-415.366C352.727,-405.812 369.723,-394.528 384.965,-384.409"/>
<polygon fill="black" stroke="black" points="387.308,-387.054 393.703,-378.607 383.436,-381.222 387.308,-387.054"/>
</g>
<!-- 140521333687072 -->
<g id="node5" class="node"><title>140521333687072</title>
<polygon fill="none" stroke="black" points="135.5,-249.5 135.5,-295.5 474.5,-295.5 474.5,-249.5 135.5,-249.5"/>
<text text-anchor="middle" x="208.5" y="-268.8" font-family="Times,serif" font-size="14.00">kl: KLDivergenceLayer</text>
<polyline fill="none" stroke="black" points="281.5,-249.5 281.5,-295.5 "/>
<text text-anchor="middle" x="309" y="-280.3" font-family="Times,serif" font-size="14.00">input:</text>
<polyline fill="none" stroke="black" points="281.5,-272.5 336.5,-272.5 "/>
<text text-anchor="middle" x="309" y="-257.3" font-family="Times,serif" font-size="14.00">output:</text>
<polyline fill="none" stroke="black" points="336.5,-249.5 336.5,-295.5 "/>
<text text-anchor="middle" x="405.5" y="-280.3" font-family="Times,serif" font-size="14.00">[(None, 2), (None, 2)]</text>
<polyline fill="none" stroke="black" points="336.5,-272.5 474.5,-272.5 "/>
<text text-anchor="middle" x="405.5" y="-257.3" font-family="Times,serif" font-size="14.00">[(None, 2), (None, 2)]</text>
</g>
<!-- 140521334640480&#45;&gt;140521333687072 -->
<g id="edge4" class="edge"><title>140521334640480-&gt;140521333687072</title>
<path fill="none" stroke="black" d="M216.337,-332.366C230.727,-322.812 247.723,-311.528 262.965,-301.409"/>
<polygon fill="black" stroke="black" points="265.308,-304.054 271.703,-295.607 261.436,-298.222 265.308,-304.054"/>
</g>
<!-- 140521334475352&#45;&gt;140521333687072 -->
<g id="edge5" class="edge"><title>140521334475352-&gt;140521333687072</title>
<path fill="none" stroke="black" d="M393.663,-332.366C379.273,-322.812 362.277,-311.528 347.035,-301.409"/>
<polygon fill="black" stroke="black" points="348.564,-298.222 338.297,-295.607 344.692,-304.054 348.564,-298.222"/>
</g>
<!-- 140521335410640 -->
<g id="node6" class="node"><title>140521335410640</title>
<polygon fill="none" stroke="black" points="0,-166.5 0,-212.5 226,-212.5 226,-166.5 0,-166.5"/>
<text text-anchor="middle" x="51" y="-185.8" font-family="Times,serif" font-size="14.00">sigma: Lambda</text>
<polyline fill="none" stroke="black" points="102,-166.5 102,-212.5 "/>
<text text-anchor="middle" x="129.5" y="-197.3" font-family="Times,serif" font-size="14.00">input:</text>
<polyline fill="none" stroke="black" points="102,-189.5 157,-189.5 "/>
<text text-anchor="middle" x="129.5" y="-174.3" font-family="Times,serif" font-size="14.00">output:</text>
<polyline fill="none" stroke="black" points="157,-166.5 157,-212.5 "/>
<text text-anchor="middle" x="191.5" y="-197.3" font-family="Times,serif" font-size="14.00">(None, 2)</text>
<polyline fill="none" stroke="black" points="157,-189.5 226,-189.5 "/>
<text text-anchor="middle" x="191.5" y="-174.3" font-family="Times,serif" font-size="14.00">(None, 2)</text>
</g>
<!-- 140521333687072&#45;&gt;140521335410640 -->
<g id="edge6" class="edge"><title>140521333687072-&gt;140521335410640</title>
<path fill="none" stroke="black" d="M252.789,-249.473C228.665,-239.296 199.845,-227.138 174.659,-216.512"/>
<polygon fill="black" stroke="black" points="175.775,-213.185 165.201,-212.522 173.054,-219.634 175.775,-213.185"/>
</g>
<!-- 140521333465272 -->
<g id="node9" class="node"><title>140521333465272</title>
<polygon fill="none" stroke="black" points="287,-0.5 287,-46.5 533,-46.5 533,-0.5 287,-0.5"/>
<text text-anchor="middle" x="313.5" y="-19.8" font-family="Times,serif" font-size="14.00">z: Add</text>
<polyline fill="none" stroke="black" points="340,-0.5 340,-46.5 "/>
<text text-anchor="middle" x="367.5" y="-31.3" font-family="Times,serif" font-size="14.00">input:</text>
<polyline fill="none" stroke="black" points="340,-23.5 395,-23.5 "/>
<text text-anchor="middle" x="367.5" y="-8.3" font-family="Times,serif" font-size="14.00">output:</text>
<polyline fill="none" stroke="black" points="395,-0.5 395,-46.5 "/>
<text text-anchor="middle" x="464" y="-31.3" font-family="Times,serif" font-size="14.00">[(None, 2), (None, 2)]</text>
<polyline fill="none" stroke="black" points="395,-23.5 533,-23.5 "/>
<text text-anchor="middle" x="464" y="-8.3" font-family="Times,serif" font-size="14.00">(None, 2)</text>
</g>
<!-- 140521333687072&#45;&gt;140521333465272 -->
<g id="edge9" class="edge"><title>140521333687072-&gt;140521333465272</title>
<path fill="none" stroke="black" d="M433.024,-249.48C451.054,-240.937 467.374,-229.174 479,-213 512.723,-166.085 503.284,-135.427 479,-83 473.687,-71.5306 464.895,-61.4906 455.336,-53.1151"/>
<polygon fill="black" stroke="black" points="457.516,-50.3763 447.558,-46.7593 453.087,-55.797 457.516,-50.3763"/>
</g>
<!-- 140521335409576 -->
<g id="node8" class="node"><title>140521335409576</title>
<polygon fill="none" stroke="black" points="174,-83.5 174,-129.5 470,-129.5 470,-83.5 174,-83.5"/>
<text text-anchor="middle" x="225.5" y="-102.8" font-family="Times,serif" font-size="14.00">z_eps: Multiply</text>
<polyline fill="none" stroke="black" points="277,-83.5 277,-129.5 "/>
<text text-anchor="middle" x="304.5" y="-114.3" font-family="Times,serif" font-size="14.00">input:</text>
<polyline fill="none" stroke="black" points="277,-106.5 332,-106.5 "/>
<text text-anchor="middle" x="304.5" y="-91.3" font-family="Times,serif" font-size="14.00">output:</text>
<polyline fill="none" stroke="black" points="332,-83.5 332,-129.5 "/>
<text text-anchor="middle" x="401" y="-114.3" font-family="Times,serif" font-size="14.00">[(None, 2), (None, 2)]</text>
<polyline fill="none" stroke="black" points="332,-106.5 470,-106.5 "/>
<text text-anchor="middle" x="401" y="-91.3" font-family="Times,serif" font-size="14.00">(None, 2)</text>
</g>
<!-- 140521335410640&#45;&gt;140521335409576 -->
<g id="edge7" class="edge"><title>140521335410640-&gt;140521335409576</title>
<path fill="none" stroke="black" d="M169.834,-166.473C196.326,-156.206 228.018,-143.924 255.606,-133.232"/>
<polygon fill="black" stroke="black" points="257.118,-136.399 265.177,-129.522 254.588,-129.873 257.118,-136.399"/>
</g>
<!-- 140521333689312 -->
<g id="node7" class="node"><title>140521333689312</title>
<polygon fill="none" stroke="black" points="244,-166.5 244,-212.5 470,-212.5 470,-166.5 244,-166.5"/>
<text text-anchor="middle" x="295" y="-185.8" font-family="Times,serif" font-size="14.00">eps: InputLayer</text>
<polyline fill="none" stroke="black" points="346,-166.5 346,-212.5 "/>
<text text-anchor="middle" x="373.5" y="-197.3" font-family="Times,serif" font-size="14.00">input:</text>
<polyline fill="none" stroke="black" points="346,-189.5 401,-189.5 "/>
<text text-anchor="middle" x="373.5" y="-174.3" font-family="Times,serif" font-size="14.00">output:</text>
<polyline fill="none" stroke="black" points="401,-166.5 401,-212.5 "/>
<text text-anchor="middle" x="435.5" y="-197.3" font-family="Times,serif" font-size="14.00">(None, 2)</text>
<polyline fill="none" stroke="black" points="401,-189.5 470,-189.5 "/>
<text text-anchor="middle" x="435.5" y="-174.3" font-family="Times,serif" font-size="14.00">(None, 2)</text>
</g>
<!-- 140521333689312&#45;&gt;140521335409576 -->
<g id="edge8" class="edge"><title>140521333689312-&gt;140521335409576</title>
<path fill="none" stroke="black" d="M347.436,-166.366C343.771,-157.884 339.516,-148.037 335.548,-138.853"/>
<polygon fill="black" stroke="black" points="338.732,-137.398 331.552,-129.607 332.306,-140.175 338.732,-137.398"/>
</g>
<!-- 140521335409576&#45;&gt;140521333465272 -->
<g id="edge10" class="edge"><title>140521335409576-&gt;140521333465272</title>
<path fill="none" stroke="black" d="M346.046,-83.3664C356.038,-74.1695 367.772,-63.3694 378.441,-53.5482"/>
<polygon fill="black" stroke="black" points="380.995,-55.9544 385.983,-46.6068 376.255,-50.8041 380.995,-55.9544"/>
</g>
</g>
</svg>