<svg xmlns="http://www.w3.org/2000/svg" xmlns:xlink="http://www.w3.org/1999/xlink" viewBox="0.00 0.00 274.77 483.00" viewport="0 0 227px 400px">
<g id="graph0" class="graph" transform="scale(1 1) rotate(0) translate(4 479)">
<title>G</title>
<polygon fill="white" stroke="none" points="-4,4 -4,-479 270.771,-479 270.771,4 -4,4"/>
<!-- 140434991284912 -->
<g id="node1" class="node"><title>140434991284912</title>
<polygon fill="none" stroke="black" points="115.5,-438.5 115.5,-474.5 206.5,-474.5 206.5,-438.5 115.5,-438.5"/>
<text text-anchor="middle" x="161" y="-452.8" font-family="Times,serif" font-size="14.00">x: InputLayer</text>
</g>
<!-- 140434991287264 -->
<g id="node2" class="node"><title>140434991287264</title>
<polygon fill="none" stroke="black" points="89,-365.5 89,-401.5 233,-401.5 233,-365.5 89,-365.5"/>
<text text-anchor="middle" x="161" y="-379.8" font-family="Times,serif" font-size="14.00">encoder_hidden: Dense</text>
</g>
<!-- 140434991284912&#45;&gt;140434991287264 -->
<g id="edge1" class="edge"><title>140434991284912-&gt;140434991287264</title>
<path fill="none" stroke="black" d="M161,-438.313C161,-430.289 161,-420.547 161,-411.569"/>
<polygon fill="black" stroke="black" points="164.5,-411.529 161,-401.529 157.5,-411.529 164.5,-411.529"/>
</g>
<!-- 140434991288272 -->
<g id="node3" class="node"><title>140434991288272</title>
<polygon fill="none" stroke="black" points="70,-292.5 70,-328.5 146,-328.5 146,-292.5 70,-292.5"/>
<text text-anchor="middle" x="108" y="-306.8" font-family="Times,serif" font-size="14.00">mu: Dense</text>
</g>
<!-- 140434991287264&#45;&gt;140434991288272 -->
<g id="edge2" class="edge"><title>140434991287264-&gt;140434991288272</title>
<path fill="none" stroke="black" d="M148.17,-365.313C141.79,-356.766 133.955,-346.269 126.903,-336.823"/>
<polygon fill="black" stroke="black" points="129.498,-334.449 120.712,-328.529 123.889,-338.636 129.498,-334.449"/>
</g>
<!-- 140434991287600 -->
<g id="node4" class="node"><title>140434991287600</title>
<polygon fill="none" stroke="black" points="164.5,-292.5 164.5,-328.5 263.5,-328.5 263.5,-292.5 164.5,-292.5"/>
<text text-anchor="middle" x="214" y="-306.8" font-family="Times,serif" font-size="14.00">log_var: Dense</text>
</g>
<!-- 140434991287264&#45;&gt;140434991287600 -->
<g id="edge3" class="edge"><title>140434991287264-&gt;140434991287600</title>
<path fill="none" stroke="black" d="M173.83,-365.313C180.21,-356.766 188.045,-346.269 195.097,-336.823"/>
<polygon fill="black" stroke="black" points="198.111,-338.636 201.288,-328.529 192.502,-334.449 198.111,-338.636"/>
</g>
<!-- 140434992459672 -->
<g id="node5" class="node"><title>140434992459672</title>
<polygon fill="none" stroke="black" points="88,-219.5 88,-255.5 234,-255.5 234,-219.5 88,-219.5"/>
<text text-anchor="middle" x="161" y="-233.8" font-family="Times,serif" font-size="14.00">kl: KLDivergenceLayer</text>
</g>
<!-- 140434991288272&#45;&gt;140434992459672 -->
<g id="edge4" class="edge"><title>140434991288272-&gt;140434992459672</title>
<path fill="none" stroke="black" d="M120.83,-292.313C127.21,-283.766 135.045,-273.269 142.097,-263.823"/>
<polygon fill="black" stroke="black" points="145.111,-265.636 148.288,-255.529 139.502,-261.449 145.111,-265.636"/>
</g>
<!-- 140434991287600&#45;&gt;140434992459672 -->
<g id="edge5" class="edge"><title>140434991287600-&gt;140434992459672</title>
<path fill="none" stroke="black" d="M201.17,-292.313C194.79,-283.766 186.955,-273.269 179.903,-263.823"/>
<polygon fill="black" stroke="black" points="182.498,-261.449 173.712,-255.529 176.889,-265.636 182.498,-261.449"/>
</g>
<!-- 140434992808568 -->
<g id="node6" class="node"><title>140434992808568</title>
<polygon fill="none" stroke="black" points="0,-146.5 0,-182.5 102,-182.5 102,-146.5 0,-146.5"/>
<text text-anchor="middle" x="51" y="-160.8" font-family="Times,serif" font-size="14.00">sigma: Lambda</text>
</g>
<!-- 140434992459672&#45;&gt;140434992808568 -->
<g id="edge6" class="edge"><title>140434992459672-&gt;140434992808568</title>
<path fill="none" stroke="black" d="M134.652,-219.494C120.065,-210.079 101.748,-198.255 85.975,-188.075"/>
<polygon fill="black" stroke="black" points="87.8139,-185.096 77.514,-182.614 84.0178,-190.977 87.8139,-185.096"/>
</g>
<!-- 140434992456368 -->
<g id="node9" class="node"><title>140434992456368</title>
<polygon fill="none" stroke="black" points="198,-0.5 198,-36.5 252,-36.5 252,-0.5 198,-0.5"/>
<text text-anchor="middle" x="225" y="-14.8" font-family="Times,serif" font-size="14.00">z: Add</text>
</g>
<!-- 140434992459672&#45;&gt;140434992456368 -->
<g id="edge9" class="edge"><title>140434992459672-&gt;140434992456368</title>
<path fill="none" stroke="black" d="M209.975,-219.257C226.252,-210.938 242.606,-199.162 252,-183 276.568,-140.73 264.673,-120.477 253,-73 250.709,-63.6804 246.475,-54.1846 241.982,-45.8304"/>
<polygon fill="black" stroke="black" points="244.901,-43.885 236.888,-36.9536 238.83,-47.3691 244.901,-43.885"/>
</g>
<!-- 140434992457992 -->
<g id="node8" class="node"><title>140434992457992</title>
<polygon fill="none" stroke="black" points="114,-73.5 114,-109.5 244,-109.5 244,-73.5 114,-73.5"/>
<text text-anchor="middle" x="179" y="-87.8" font-family="Times,serif" font-size="14.00">sigma_eps: Multiply</text>
</g>
<!-- 140434992808568&#45;&gt;140434992457992 -->
<g id="edge7" class="edge"><title>140434992808568-&gt;140434992457992</title>
<path fill="none" stroke="black" d="M81.6592,-146.494C98.9474,-136.904 120.739,-124.817 139.318,-114.511"/>
<polygon fill="black" stroke="black" points="141.1,-117.525 148.147,-109.614 137.705,-111.404 141.1,-117.525"/>
</g>
<!-- 140434992456424 -->
<g id="node7" class="node"><title>140434992456424</title>
<polygon fill="none" stroke="black" points="120.5,-146.5 120.5,-182.5 243.5,-182.5 243.5,-146.5 120.5,-146.5"/>
<text text-anchor="middle" x="182" y="-160.8" font-family="Times,serif" font-size="14.00">epsilon: InputLayer</text>
</g>
<!-- 140434992456424&#45;&gt;140434992457992 -->
<g id="edge8" class="edge"><title>140434992456424-&gt;140434992457992</title>
<path fill="none" stroke="black" d="M181.274,-146.313C180.935,-138.289 180.523,-128.547 180.144,-119.569"/>
<polygon fill="black" stroke="black" points="183.639,-119.372 179.72,-109.529 176.645,-119.668 183.639,-119.372"/>
</g>
<!-- 140434992457992&#45;&gt;140434992456368 -->
<g id="edge10" class="edge"><title>140434992457992-&gt;140434992456368</title>
<path fill="none" stroke="black" d="M190.135,-73.3129C195.616,-64.8534 202.335,-54.4835 208.406,-45.1124"/>
<polygon fill="black" stroke="black" points="211.467,-46.8245 213.967,-36.5288 205.592,-43.0183 211.467,-46.8245"/>
</g>
</g>
</svg>