<svg xmlns="http://www.w3.org/2000/svg" xmlns:xlink="http://www.w3.org/1999/xlink" viewBox="0.00 0.00 672.00 553.00" viewport="0 0 400px 329px">
<g id="graph0" class="graph" transform="scale(1 1) rotate(0) translate(4 549)">
<title>G</title>
<polygon fill="#ffffff" stroke="transparent" points="-4,4 -4,-549 668,-549 668,4 -4,4"/>
<!-- 140175855034552 -->
<g id="node1" class="node">
<title>140175855034552</title>
<polygon fill="none" stroke="#000000" points="230,-498.5 230,-544.5 513,-544.5 513,-498.5 230,-498.5"/>
<text text-anchor="middle" x="287" y="-517.8" font-family="Times,serif" font-size="14.00" fill="#000000">x: InputLayer</text>
<polyline fill="none" stroke="#000000" points="344,-498.5 344,-544.5 "/>
<text text-anchor="middle" x="378" y="-529.3" font-family="Times,serif" font-size="14.00" fill="#000000">input:</text>
<polyline fill="none" stroke="#000000" points="344,-521.5 412,-521.5 "/>
<text text-anchor="middle" x="378" y="-506.3" font-family="Times,serif" font-size="14.00" fill="#000000">output:</text>
<polyline fill="none" stroke="#000000" points="412,-498.5 412,-544.5 "/>
<text text-anchor="middle" x="462.5" y="-529.3" font-family="Times,serif" font-size="14.00" fill="#000000">(None, 784)</text>
<polyline fill="none" stroke="#000000" points="412,-521.5 513,-521.5 "/>
<text text-anchor="middle" x="462.5" y="-506.3" font-family="Times,serif" font-size="14.00" fill="#000000">(None, 784)</text>
</g>
<!-- 140175854580456 -->
<g id="node2" class="node">
<title>140175854580456</title>
<polygon fill="none" stroke="#000000" points="195,-415.5 195,-461.5 548,-461.5 548,-415.5 195,-415.5"/>
<text text-anchor="middle" x="287" y="-434.8" font-family="Times,serif" font-size="14.00" fill="#000000">encoder_hidden: Dense</text>
<polyline fill="none" stroke="#000000" points="379,-415.5 379,-461.5 "/>
<text text-anchor="middle" x="413" y="-446.3" font-family="Times,serif" font-size="14.00" fill="#000000">input:</text>
<polyline fill="none" stroke="#000000" points="379,-438.5 447,-438.5 "/>
<text text-anchor="middle" x="413" y="-423.3" font-family="Times,serif" font-size="14.00" fill="#000000">output:</text>
<polyline fill="none" stroke="#000000" points="447,-415.5 447,-461.5 "/>
<text text-anchor="middle" x="497.5" y="-446.3" font-family="Times,serif" font-size="14.00" fill="#000000">(None, 784)</text>
<polyline fill="none" stroke="#000000" points="447,-438.5 548,-438.5 "/>
<text text-anchor="middle" x="497.5" y="-423.3" font-family="Times,serif" font-size="14.00" fill="#000000">(None, 256)</text>
</g>
<!-- 140175855034552&#45;&gt;140175854580456 -->
<g id="edge1" class="edge">
<title>140175855034552-&gt;140175854580456</title>
<path fill="none" stroke="#000000" d="M371.5,-498.3799C371.5,-490.1745 371.5,-480.7679 371.5,-471.8786"/>
<polygon fill="#000000" stroke="#000000" points="375.0001,-471.784 371.5,-461.784 368.0001,-471.784 375.0001,-471.784"/>
</g>
<!-- 140175854580512 -->
<g id="node3" class="node">
<title>140175854580512</title>
<polygon fill="none" stroke="#000000" points="94,-332.5 94,-378.5 355,-378.5 355,-332.5 94,-332.5"/>
<text text-anchor="middle" x="140" y="-351.8" font-family="Times,serif" font-size="14.00" fill="#000000">mu: Dense</text>
<polyline fill="none" stroke="#000000" points="186,-332.5 186,-378.5 "/>
<text text-anchor="middle" x="220" y="-363.3" font-family="Times,serif" font-size="14.00" fill="#000000">input:</text>
<polyline fill="none" stroke="#000000" points="186,-355.5 254,-355.5 "/>
<text text-anchor="middle" x="220" y="-340.3" font-family="Times,serif" font-size="14.00" fill="#000000">output:</text>
<polyline fill="none" stroke="#000000" points="254,-332.5 254,-378.5 "/>
<text text-anchor="middle" x="304.5" y="-363.3" font-family="Times,serif" font-size="14.00" fill="#000000">(None, 256)</text>
<polyline fill="none" stroke="#000000" points="254,-355.5 355,-355.5 "/>
<text text-anchor="middle" x="304.5" y="-340.3" font-family="Times,serif" font-size="14.00" fill="#000000">(None, 2)</text>
</g>
<!-- 140175854580456&#45;&gt;140175854580512 -->
<g id="edge2" class="edge">
<title>140175854580456-&gt;140175854580512</title>
<path fill="none" stroke="#000000" d="M330.5523,-415.3799C313.1037,-405.5279 292.5878,-393.9442 274.2735,-383.6034"/>
<polygon fill="#000000" stroke="#000000" points="275.9115,-380.5089 265.4828,-378.6399 272.4698,-386.6044 275.9115,-380.5089"/>
</g>
<!-- 140175854581184 -->
<g id="node4" class="node">
<title>140175854581184</title>
<polygon fill="none" stroke="#000000" points="373,-332.5 373,-378.5 664,-378.5 664,-332.5 373,-332.5"/>
<text text-anchor="middle" x="434" y="-351.8" font-family="Times,serif" font-size="14.00" fill="#000000">log_var: Dense</text>
<polyline fill="none" stroke="#000000" points="495,-332.5 495,-378.5 "/>
<text text-anchor="middle" x="529" y="-363.3" font-family="Times,serif" font-size="14.00" fill="#000000">input:</text>
<polyline fill="none" stroke="#000000" points="495,-355.5 563,-355.5 "/>
<text text-anchor="middle" x="529" y="-340.3" font-family="Times,serif" font-size="14.00" fill="#000000">output:</text>
<polyline fill="none" stroke="#000000" points="563,-332.5 563,-378.5 "/>
<text text-anchor="middle" x="613.5" y="-363.3" font-family="Times,serif" font-size="14.00" fill="#000000">(None, 256)</text>
<polyline fill="none" stroke="#000000" points="563,-355.5 664,-355.5 "/>
<text text-anchor="middle" x="613.5" y="-340.3" font-family="Times,serif" font-size="14.00" fill="#000000">(None, 2)</text>
</g>
<!-- 140175854580456&#45;&gt;140175854581184 -->
<g id="edge3" class="edge">
<title>140175854580456-&gt;140175854581184</title>
<path fill="none" stroke="#000000" d="M412.4477,-415.3799C429.8963,-405.5279 450.4122,-393.9442 468.7265,-383.6034"/>
<polygon fill="#000000" stroke="#000000" points="470.5302,-386.6044 477.5172,-378.6399 467.0885,-380.5089 470.5302,-386.6044"/>
</g>
<!-- 140175854990168 -->
<g id="node5" class="node">
<title>140175854990168</title>
<polygon fill="none" stroke="#000000" points="161.5,-249.5 161.5,-295.5 581.5,-295.5 581.5,-249.5 161.5,-249.5"/>
<text text-anchor="middle" x="252.5" y="-268.8" font-family="Times,serif" font-size="14.00" fill="#000000">kl: KLDivergenceLayer</text>
<polyline fill="none" stroke="#000000" points="343.5,-249.5 343.5,-295.5 "/>
<text text-anchor="middle" x="377.5" y="-280.3" font-family="Times,serif" font-size="14.00" fill="#000000">input:</text>
<polyline fill="none" stroke="#000000" points="343.5,-272.5 411.5,-272.5 "/>
<text text-anchor="middle" x="377.5" y="-257.3" font-family="Times,serif" font-size="14.00" fill="#000000">output:</text>
<polyline fill="none" stroke="#000000" points="411.5,-249.5 411.5,-295.5 "/>
<text text-anchor="middle" x="496.5" y="-280.3" font-family="Times,serif" font-size="14.00" fill="#000000">[(None, 2), (None, 2)]</text>
<polyline fill="none" stroke="#000000" points="411.5,-272.5 581.5,-272.5 "/>
<text text-anchor="middle" x="496.5" y="-257.3" font-family="Times,serif" font-size="14.00" fill="#000000">[(None, 2), (None, 2)]</text>
</g>
<!-- 140175854580512&#45;&gt;140175854990168 -->
<g id="edge4" class="edge">
<title>140175854580512-&gt;140175854990168</title>
<path fill="none" stroke="#000000" d="M265.4477,-332.3799C282.8963,-322.5279 303.4122,-310.9442 321.7265,-300.6034"/>
<polygon fill="#000000" stroke="#000000" points="323.5302,-303.6044 330.5172,-295.6399 320.0885,-297.5089 323.5302,-303.6044"/>
</g>
<!-- 140175854581184&#45;&gt;140175854990168 -->
<g id="edge5" class="edge">
<title>140175854581184-&gt;140175854990168</title>
<path fill="none" stroke="#000000" d="M477.5523,-332.3799C460.1037,-322.5279 439.5878,-310.9442 421.2735,-300.6034"/>
<polygon fill="#000000" stroke="#000000" points="422.9115,-297.5089 412.4828,-295.6399 419.4698,-303.6044 422.9115,-297.5089"/>
</g>
<!-- 140176957339800 -->
<g id="node6" class="node">
<title>140176957339800</title>
<polygon fill="none" stroke="#000000" points="0,-166.5 0,-212.5 277,-212.5 277,-166.5 0,-166.5"/>
<text text-anchor="middle" x="63" y="-185.8" font-family="Times,serif" font-size="14.00" fill="#000000">sigma: Lambda</text>
<polyline fill="none" stroke="#000000" points="126,-166.5 126,-212.5 "/>
<text text-anchor="middle" x="160" y="-197.3" font-family="Times,serif" font-size="14.00" fill="#000000">input:</text>
<polyline fill="none" stroke="#000000" points="126,-189.5 194,-189.5 "/>
<text text-anchor="middle" x="160" y="-174.3" font-family="Times,serif" font-size="14.00" fill="#000000">output:</text>
<polyline fill="none" stroke="#000000" points="194,-166.5 194,-212.5 "/>
<text text-anchor="middle" x="235.5" y="-197.3" font-family="Times,serif" font-size="14.00" fill="#000000">(None, 2)</text>
<polyline fill="none" stroke="#000000" points="194,-189.5 277,-189.5 "/>
<text text-anchor="middle" x="235.5" y="-174.3" font-family="Times,serif" font-size="14.00" fill="#000000">(None, 2)</text>
</g>
<!-- 140175854990168&#45;&gt;140176957339800 -->
<g id="edge6" class="edge">
<title>140175854990168-&gt;140176957339800</title>
<path fill="none" stroke="#000000" d="M306.9059,-249.4901C277.7397,-239.1004 243.1176,-226.7672 212.8731,-215.9934"/>
<polygon fill="#000000" stroke="#000000" points="213.8144,-212.6134 203.2197,-212.5547 211.4654,-219.2075 213.8144,-212.6134"/>
</g>
<!-- 140175854993136 -->
<g id="node9" class="node">
<title>140175854993136</title>
<polygon fill="none" stroke="#000000" points="341.5,-.5 341.5,-46.5 641.5,-46.5 641.5,-.5 341.5,-.5"/>
<text text-anchor="middle" x="372.5" y="-19.8" font-family="Times,serif" font-size="14.00" fill="#000000">z: Add</text>
<polyline fill="none" stroke="#000000" points="403.5,-.5 403.5,-46.5 "/>
<text text-anchor="middle" x="437.5" y="-31.3" font-family="Times,serif" font-size="14.00" fill="#000000">input:</text>
<polyline fill="none" stroke="#000000" points="403.5,-23.5 471.5,-23.5 "/>
<text text-anchor="middle" x="437.5" y="-8.3" font-family="Times,serif" font-size="14.00" fill="#000000">output:</text>
<polyline fill="none" stroke="#000000" points="471.5,-.5 471.5,-46.5 "/>
<text text-anchor="middle" x="556.5" y="-31.3" font-family="Times,serif" font-size="14.00" fill="#000000">[(None, 2), (None, 2)]</text>
<polyline fill="none" stroke="#000000" points="471.5,-23.5 641.5,-23.5 "/>
<text text-anchor="middle" x="556.5" y="-8.3" font-family="Times,serif" font-size="14.00" fill="#000000">(None, 2)</text>
</g>
<!-- 140175854990168&#45;&gt;140175854993136 -->
<g id="edge9" class="edge">
<title>140175854990168-&gt;140175854993136</title>
<path fill="none" stroke="#000000" d="M504.1267,-249.4536C541.5042,-240.1117 575.1263,-227.9488 586.5,-213 621.4849,-167.0182 614.485,-133.5481 586.5,-83 579.6735,-70.6696 569.1065,-60.5538 557.4616,-52.3865"/>
<polygon fill="#000000" stroke="#000000" points="559.1226,-49.2919 548.8299,-46.7799 555.3096,-55.1623 559.1226,-49.2919"/>
</g>
<!-- 140175854990000 -->
<g id="node8" class="node">
<title>140175854990000</title>
<polygon fill="none" stroke="#000000" points="179,-83.5 179,-129.5 578,-129.5 578,-83.5 179,-83.5"/>
<text text-anchor="middle" x="259.5" y="-102.8" font-family="Times,serif" font-size="14.00" fill="#000000">sigma_eps: Multiply</text>
<polyline fill="none" stroke="#000000" points="340,-83.5 340,-129.5 "/>
<text text-anchor="middle" x="374" y="-114.3" font-family="Times,serif" font-size="14.00" fill="#000000">input:</text>
<polyline fill="none" stroke="#000000" points="340,-106.5 408,-106.5 "/>
<text text-anchor="middle" x="374" y="-91.3" font-family="Times,serif" font-size="14.00" fill="#000000">output:</text>
<polyline fill="none" stroke="#000000" points="408,-83.5 408,-129.5 "/>
<text text-anchor="middle" x="493" y="-114.3" font-family="Times,serif" font-size="14.00" fill="#000000">[(None, 2), (None, 2)]</text>
<polyline fill="none" stroke="#000000" points="408,-106.5 578,-106.5 "/>
<text text-anchor="middle" x="493" y="-91.3" font-family="Times,serif" font-size="14.00" fill="#000000">(None, 2)</text>
</g>
<!-- 140176957339800&#45;&gt;140175854990000 -->
<g id="edge7" class="edge">
<title>140176957339800-&gt;140175854990000</title>
<path fill="none" stroke="#000000" d="M205.0347,-166.4901C235.2072,-156.0554 271.0482,-143.6604 302.2969,-132.8536"/>
<polygon fill="#000000" stroke="#000000" points="303.5291,-136.1309 311.8359,-129.5547 301.2411,-129.5154 303.5291,-136.1309"/>
</g>
<!-- 140175854990224 -->
<g id="node7" class="node">
<title>140175854990224</title>
<polygon fill="none" stroke="#000000" points="295.5,-166.5 295.5,-212.5 577.5,-212.5 577.5,-166.5 295.5,-166.5"/>
<text text-anchor="middle" x="361" y="-185.8" font-family="Times,serif" font-size="14.00" fill="#000000">eps: InputLayer</text>
<polyline fill="none" stroke="#000000" points="426.5,-166.5 426.5,-212.5 "/>
<text text-anchor="middle" x="460.5" y="-197.3" font-family="Times,serif" font-size="14.00" fill="#000000">input:</text>
<polyline fill="none" stroke="#000000" points="426.5,-189.5 494.5,-189.5 "/>
<text text-anchor="middle" x="460.5" y="-174.3" font-family="Times,serif" font-size="14.00" fill="#000000">output:</text>
<polyline fill="none" stroke="#000000" points="494.5,-166.5 494.5,-212.5 "/>
<text text-anchor="middle" x="536" y="-197.3" font-family="Times,serif" font-size="14.00" fill="#000000">(None, 2)</text>
<polyline fill="none" stroke="#000000" points="494.5,-189.5 577.5,-189.5 "/>
<text text-anchor="middle" x="536" y="-174.3" font-family="Times,serif" font-size="14.00" fill="#000000">(None, 2)</text>
</g>
<!-- 140175854990224&#45;&gt;140175854990000 -->
<g id="edge8" class="edge">
<title>140175854990224-&gt;140175854990000</title>
<path fill="none" stroke="#000000" d="M420.3438,-166.3799C414.236,-157.6394 407.1756,-147.5358 400.6144,-138.1465"/>
<polygon fill="#000000" stroke="#000000" points="403.3677,-135.9762 394.7708,-129.784 397.6298,-139.9858 403.3677,-135.9762"/>
</g>
<!-- 140175854990000&#45;&gt;140175854993136 -->
<g id="edge10" class="edge">
<title>140175854990000-&gt;140175854993136</title>
<path fill="none" stroke="#000000" d="M409.9768,-83.3799C422.8479,-73.9259 437.8901,-62.8772 451.5246,-52.8625"/>
<polygon fill="#000000" stroke="#000000" points="453.8125,-55.5247 459.8001,-46.784 449.6686,-49.883 453.8125,-55.5247"/>
</g>
</g>
</svg>