<svg xmlns="http://www.w3.org/2000/svg" xmlns:xlink="http://www.w3.org/1999/xlink" viewBox="0.00 0.00 263.92 483.00" viewport="0 0 218px 400px">
<g id="graph0" class="graph" transform="scale(1 1) rotate(0) translate(4 479)">
<title>G</title>
<polygon fill="#ffffff" stroke="transparent" points="-4,4 -4,-479 259.9209,-479 259.9209,4 -4,4"/>
<!-- 4753000488 -->
<g id="node1" class="node">
<title>4753000488</title>
<polygon fill="none" stroke="#000000" points="105.0586,-438.5 105.0586,-474.5 197.6416,-474.5 197.6416,-438.5 105.0586,-438.5"/>
<text text-anchor="middle" x="151.3501" y="-452.3" font-family="Times,serif" font-size="14.00" fill="#000000">x: InputLayer</text>
</g>
<!-- 4752772680 -->
<g id="node2" class="node">
<title>4752772680</title>
<polygon fill="none" stroke="#000000" points="77.4585,-365.5 77.4585,-401.5 225.2417,-401.5 225.2417,-365.5 77.4585,-365.5"/>
<text text-anchor="middle" x="151.3501" y="-379.3" font-family="Times,serif" font-size="14.00" fill="#000000">encoder_hidden: Dense</text>
</g>
<!-- 4753000488&#45;&gt;4752772680 -->
<g id="edge1" class="edge">
<title>4753000488-&gt;4752772680</title>
<path fill="none" stroke="#000000" d="M151.3501,-438.4551C151.3501,-430.3828 151.3501,-420.6764 151.3501,-411.6817"/>
<polygon fill="#000000" stroke="#000000" points="154.8502,-411.5903 151.3501,-401.5904 147.8502,-411.5904 154.8502,-411.5903"/>
</g>
<!-- 4752877888 -->
<g id="node3" class="node">
<title>4752877888</title>
<polygon fill="none" stroke="#000000" points="60.2173,-292.5 60.2173,-328.5 136.4829,-328.5 136.4829,-292.5 60.2173,-292.5"/>
<text text-anchor="middle" x="98.3501" y="-306.3" font-family="Times,serif" font-size="14.00" fill="#000000">mu: Dense</text>
</g>
<!-- 4752772680&#45;&gt;4752877888 -->
<g id="edge2" class="edge">
<title>4752772680-&gt;4752877888</title>
<path fill="none" stroke="#000000" d="M138.249,-365.4551C132.0061,-356.8564 124.4169,-346.4034 117.5402,-336.9316"/>
<polygon fill="#000000" stroke="#000000" points="120.1916,-334.6262 111.4842,-328.5904 114.5271,-338.7388 120.1916,-334.6262"/>
</g>
<!-- 4753006040 -->
<g id="node4" class="node">
<title>4753006040</title>
<polygon fill="none" stroke="#000000" points="154.7793,-292.5 154.7793,-328.5 255.9209,-328.5 255.9209,-292.5 154.7793,-292.5"/>
<text text-anchor="middle" x="205.3501" y="-306.3" font-family="Times,serif" font-size="14.00" fill="#000000">log_var: Dense</text>
</g>
<!-- 4752772680&#45;&gt;4753006040 -->
<g id="edge3" class="edge">
<title>4752772680-&gt;4753006040</title>
<path fill="none" stroke="#000000" d="M164.6984,-365.4551C171.124,-356.7686 178.9494,-346.1898 186.0122,-336.642"/>
<polygon fill="#000000" stroke="#000000" points="188.835,-338.7113 191.9682,-328.5904 183.2073,-334.5484 188.835,-338.7113"/>
</g>
<!-- 4752605312 -->
<g id="node5" class="node">
<title>4752605312</title>
<polygon fill="none" stroke="#000000" points="76.4229,-219.5 76.4229,-255.5 226.2773,-255.5 226.2773,-219.5 76.4229,-219.5"/>
<text text-anchor="middle" x="151.3501" y="-233.3" font-family="Times,serif" font-size="14.00" fill="#000000">kl: KLDivergenceLayer</text>
</g>
<!-- 4752877888&#45;&gt;4752605312 -->
<g id="edge4" class="edge">
<title>4752877888-&gt;4752605312</title>
<path fill="none" stroke="#000000" d="M111.4512,-292.4551C117.6941,-283.8564 125.2833,-273.4034 132.16,-263.9316"/>
<polygon fill="#000000" stroke="#000000" points="135.1731,-265.7388 138.216,-255.5904 129.5086,-261.6262 135.1731,-265.7388"/>
</g>
<!-- 4753006040&#45;&gt;4752605312 -->
<g id="edge5" class="edge">
<title>4753006040-&gt;4752605312</title>
<path fill="none" stroke="#000000" d="M192.0018,-292.4551C185.5762,-283.7686 177.7508,-273.1898 170.688,-263.642"/>
<polygon fill="#000000" stroke="#000000" points="173.4929,-261.5484 164.732,-255.5904 167.8652,-265.7113 173.4929,-261.5484"/>
</g>
<!-- 4752981184 -->
<g id="node6" class="node">
<title>4752981184</title>
<polygon fill="none" stroke="#000000" points="0,-146.5 0,-182.5 102.7002,-182.5 102.7002,-146.5 0,-146.5"/>
<text text-anchor="middle" x="51.3501" y="-160.3" font-family="Times,serif" font-size="14.00" fill="#000000">sigma: Lambda</text>
</g>
<!-- 4752605312&#45;&gt;4752981184 -->
<g id="edge6" class="edge">
<title>4752605312-&gt;4752981184</title>
<path fill="none" stroke="#000000" d="M126.631,-219.4551C113.8904,-210.1545 98.178,-198.6844 84.4093,-188.6332"/>
<polygon fill="#000000" stroke="#000000" points="86.272,-185.6596 76.1314,-182.5904 82.1446,-191.3134 86.272,-185.6596"/>
</g>
<!-- 4753587056 -->
<g id="node9" class="node">
<title>4753587056</title>
<polygon fill="none" stroke="#000000" points="178.3501,-.5 178.3501,-36.5 232.3501,-36.5 232.3501,-.5 178.3501,-.5"/>
<text text-anchor="middle" x="205.3242" y="-14.3" font-family="Times,serif" font-size="14.00" fill="#000000">z: Add</text>
</g>
<!-- 4752605312&#45;&gt;4753587056 -->
<g id="edge9" class="edge">
<title>4752605312-&gt;4753587056</title>
<path fill="none" stroke="#000000" d="M194.4308,-219.495C209.5514,-210.8295 224.8699,-198.8186 233.3501,-183 256.4491,-139.9122 244.8428,-120.5189 233.3501,-73 231.0972,-63.6849 226.9621,-54.1762 222.5486,-45.764"/>
<polygon fill="#000000" stroke="#000000" points="225.4706,-43.8183 217.5329,-36.8009 219.362,-47.2367 225.4706,-43.8183"/>
</g>
<!-- 4752981688 -->
<g id="node8" class="node">
<title>4752981688</title>
<polygon fill="none" stroke="#000000" points="92.6001,-73.5 92.6001,-109.5 224.1001,-109.5 224.1001,-73.5 92.6001,-73.5"/>
<text text-anchor="middle" x="158.3501" y="-87.3" font-family="Times,serif" font-size="14.00" fill="#000000">sigma_eps: Multiply</text>
</g>
<!-- 4752981184&#45;&gt;4752981688 -->
<g id="edge7" class="edge">
<title>4752981184-&gt;4752981688</title>
<path fill="none" stroke="#000000" d="M77.7995,-146.4551C91.5605,-137.0667 108.5617,-125.4678 123.3932,-115.3491"/>
<polygon fill="#000000" stroke="#000000" points="125.546,-118.1174 131.8341,-109.5904 121.6009,-112.3349 125.546,-118.1174"/>
</g>
<!-- 4752981968 -->
<g id="node7" class="node">
<title>4752981968</title>
<polygon fill="none" stroke="#000000" points="120.2275,-146.5 120.2275,-182.5 224.4727,-182.5 224.4727,-146.5 120.2275,-146.5"/>
<text text-anchor="middle" x="172.3501" y="-160.3" font-family="Times,serif" font-size="14.00" fill="#000000">eps: InputLayer</text>
</g>
<!-- 4752981968&#45;&gt;4752981688 -->
<g id="edge8" class="edge">
<title>4752981968-&gt;4752981688</title>
<path fill="none" stroke="#000000" d="M168.8894,-146.4551C167.3413,-138.3828 165.4798,-128.6764 163.7548,-119.6817"/>
<polygon fill="#000000" stroke="#000000" points="167.1404,-118.7521 161.8195,-109.5904 160.2657,-120.0706 167.1404,-118.7521"/>
</g>
<!-- 4752981688&#45;&gt;4753587056 -->
<g id="edge10" class="edge">
<title>4752981688-&gt;4753587056</title>
<path fill="none" stroke="#000000" d="M169.9681,-73.4551C175.4477,-64.9441 182.097,-54.6165 188.1456,-45.2219"/>
<polygon fill="#000000" stroke="#000000" points="191.2323,-46.8931 193.7029,-36.5904 185.3466,-43.1037 191.2323,-46.8931"/>
</g>
</g>
</svg>