<svg xmlns="http://www.w3.org/2000/svg" xmlns:xlink="http://www.w3.org/1999/xlink" viewBox="0.00 0.00 201.50 191.00" viewport="0 0 1280px 1210px">
<g id="graph0" class="graph" transform="scale(1 1) rotate(0) translate(4 187)">
<title>G</title>
<polygon fill="white" stroke="none" points="-4,4 -4,-187 197.5,-187 197.5,4 -4,4"/>
<!-- 140521335860920 -->
<g id="node1" class="node"><title>140521335860920</title>
<polygon fill="none" stroke="black" points="45.5,-146.5 45.5,-182.5 136.5,-182.5 136.5,-146.5 45.5,-146.5"/>
<text text-anchor="middle" x="91" y="-160.8" font-family="Times,serif" font-size="14.00">x: InputLayer</text>
</g>
<!-- 140521335860864 -->
<g id="node2" class="node"><title>140521335860864</title>
<polygon fill="none" stroke="black" points="31,-73.5 31,-109.5 151,-109.5 151,-73.5 31,-73.5"/>
<text text-anchor="middle" x="91" y="-87.8" font-family="Times,serif" font-size="14.00">hidden_enc: Dense</text>
</g>
<!-- 140521335860920&#45;&gt;140521335860864 -->
<g id="edge1" class="edge"><title>140521335860920-&gt;140521335860864</title>
<path fill="none" stroke="black" d="M91,-146.313C91,-138.289 91,-128.547 91,-119.569"/>
<polygon fill="black" stroke="black" points="94.5001,-119.529 91,-109.529 87.5001,-119.529 94.5001,-119.529"/>
</g>
<!-- 140521335861032 -->
<g id="node3" class="node"><title>140521335861032</title>
<polygon fill="none" stroke="black" points="0,-0.5 0,-36.5 76,-36.5 76,-0.5 0,-0.5"/>
<text text-anchor="middle" x="38" y="-14.8" font-family="Times,serif" font-size="14.00">mu: Dense</text>
</g>
<!-- 140521335860864&#45;&gt;140521335861032 -->
<g id="edge2" class="edge"><title>140521335860864-&gt;140521335861032</title>
<path fill="none" stroke="black" d="M78.1702,-73.3129C71.7903,-64.7662 63.9547,-54.2695 56.903,-44.8229"/>
<polygon fill="black" stroke="black" points="59.4984,-42.4487 50.7117,-36.5288 53.8889,-46.6361 59.4984,-42.4487"/>
</g>
<!-- 140521335943520 -->
<g id="node4" class="node"><title>140521335943520</title>
<polygon fill="none" stroke="black" points="94.5,-0.5 94.5,-36.5 193.5,-36.5 193.5,-0.5 94.5,-0.5"/>
<text text-anchor="middle" x="144" y="-14.8" font-family="Times,serif" font-size="14.00">log_var: Dense</text>
</g>
<!-- 140521335860864&#45;&gt;140521335943520 -->
<g id="edge3" class="edge"><title>140521335860864-&gt;140521335943520</title>
<path fill="none" stroke="black" d="M103.83,-73.3129C110.21,-64.7662 118.045,-54.2695 125.097,-44.8229"/>
<polygon fill="black" stroke="black" points="128.111,-46.6361 131.288,-36.5288 122.502,-42.4487 128.111,-46.6361"/>
</g>
</g>
</svg>