<svg xmlns="http://www.w3.org/2000/svg" xmlns:xlink="http://www.w3.org/1999/xlink" version="1.1" viewBox="0 0 432 266" viewport="0 0 1280px 788px">
 <defs>
  <style type="text/css">
*{stroke-linecap:butt;stroke-linejoin:round;}
  </style>
 </defs>
 <g id="figure_1">
  <g id="patch_1">
   <path d="M 0 266.990683  L 432 266.990683  L 432 0  L 0 0  z " style="fill:none;opacity:0;"/>
  </g>
  <g id="axes_1">
   <g id="patch_2">
    <path d="M 54 237.621708  L 388.8 237.621708  L 388.8 32.038882  L 54 32.038882  z " style="fill:#ffffff;"/>
   </g>
   <g id="matplotlib.axis_1">
    <g id="xtick_1">
     <g id="line2d_1">
      <defs>
       <path d="M 0 0  L 0 3.5  " id="m43b9adc967" style="stroke:#000000;stroke-width:0.8;"/>
      </defs>
      <g>
       <use style="stroke:#000000;stroke-width:0.8;" x="69.218182" xlink:href="#m43b9adc967" y="237.621708"/>
      </g>
     </g>
     <g id="text_1">
      <!-- 0 -->
      <defs>
       <path d="M 31.78125 66.40625  Q 24.171875 66.40625 20.328125 58.90625  Q 16.5 51.421875 16.5 36.375  Q 16.5 21.390625 20.328125 13.890625  Q 24.171875 6.390625 31.78125 6.390625  Q 39.453125 6.390625 43.28125 13.890625  Q 47.125 21.390625 47.125 36.375  Q 47.125 51.421875 43.28125 58.90625  Q 39.453125 66.40625 31.78125 66.40625  z M 31.78125 74.21875  Q 44.046875 74.21875 50.515625 64.515625  Q 56.984375 54.828125 56.984375 36.375  Q 56.984375 17.96875 50.515625 8.265625  Q 44.046875 -1.421875 31.78125 -1.421875  Q 19.53125 -1.421875 13.0625 8.265625  Q 6.59375 17.96875 6.59375 36.375  Q 6.59375 54.828125 13.0625 64.515625  Q 19.53125 74.21875 31.78125 74.21875  z " id="DejaVuSans-30"/>
      </defs>
      <g transform="translate(66.036932 252.220145)scale(0.1 -0.1)">
       <use xlink:href="#DejaVuSans-30"/>
      </g>
     </g>
    </g>
    <g id="xtick_2">
     <g id="line2d_2">
      <g>
       <use style="stroke:#000000;stroke-width:0.8;" x="131.33321" xlink:href="#m43b9adc967" y="237.621708"/>
      </g>
     </g>
     <g id="text_2">
      <!-- 10 -->
      <defs>
       <path d="M 12.40625 8.296875  L 28.515625 8.296875  L 28.515625 63.921875  L 10.984375 60.40625  L 10.984375 69.390625  L 28.421875 72.90625  L 38.28125 72.90625  L 38.28125 8.296875  L 54.390625 8.296875  L 54.390625 0  L 12.40625 0  z " id="DejaVuSans-31"/>
      </defs>
      <g transform="translate(124.97071 252.220145)scale(0.1 -0.1)">
       <use xlink:href="#DejaVuSans-31"/>
       <use x="63.623047" xlink:href="#DejaVuSans-30"/>
      </g>
     </g>
    </g>
    <g id="xtick_3">
     <g id="line2d_3">
      <g>
       <use style="stroke:#000000;stroke-width:0.8;" x="193.448237" xlink:href="#m43b9adc967" y="237.621708"/>
      </g>
     </g>
     <g id="text_3">
      <!-- 20 -->
      <defs>
       <path d="M 19.1875 8.296875  L 53.609375 8.296875  L 53.609375 0  L 7.328125 0  L 7.328125 8.296875  Q 12.9375 14.109375 22.625 23.890625  Q 32.328125 33.6875 34.8125 36.53125  Q 39.546875 41.84375 41.421875 45.53125  Q 43.3125 49.21875 43.3125 52.78125  Q 43.3125 58.59375 39.234375 62.25  Q 35.15625 65.921875 28.609375 65.921875  Q 23.96875 65.921875 18.8125 64.3125  Q 13.671875 62.703125 7.8125 59.421875  L 7.8125 69.390625  Q 13.765625 71.78125 18.9375 73  Q 24.125 74.21875 28.421875 74.21875  Q 39.75 74.21875 46.484375 68.546875  Q 53.21875 62.890625 53.21875 53.421875  Q 53.21875 48.921875 51.53125 44.890625  Q 49.859375 40.875 45.40625 35.40625  Q 44.1875 33.984375 37.640625 27.21875  Q 31.109375 20.453125 19.1875 8.296875  z " id="DejaVuSans-32"/>
      </defs>
      <g transform="translate(187.085737 252.220145)scale(0.1 -0.1)">
       <use xlink:href="#DejaVuSans-32"/>
       <use x="63.623047" xlink:href="#DejaVuSans-30"/>
      </g>
     </g>
    </g>
    <g id="xtick_4">
     <g id="line2d_4">
      <g>
       <use style="stroke:#000000;stroke-width:0.8;" x="255.563265" xlink:href="#m43b9adc967" y="237.621708"/>
      </g>
     </g>
     <g id="text_4">
      <!-- 30 -->
      <defs>
       <path d="M 40.578125 39.3125  Q 47.65625 37.796875 51.625 33  Q 55.609375 28.21875 55.609375 21.1875  Q 55.609375 10.40625 48.1875 4.484375  Q 40.765625 -1.421875 27.09375 -1.421875  Q 22.515625 -1.421875 17.65625 -0.515625  Q 12.796875 0.390625 7.625 2.203125  L 7.625 11.71875  Q 11.71875 9.328125 16.59375 8.109375  Q 21.484375 6.890625 26.8125 6.890625  Q 36.078125 6.890625 40.9375 10.546875  Q 45.796875 14.203125 45.796875 21.1875  Q 45.796875 27.640625 41.28125 31.265625  Q 36.765625 34.90625 28.71875 34.90625  L 20.21875 34.90625  L 20.21875 43.015625  L 29.109375 43.015625  Q 36.375 43.015625 40.234375 45.921875  Q 44.09375 48.828125 44.09375 54.296875  Q 44.09375 59.90625 40.109375 62.90625  Q 36.140625 65.921875 28.71875 65.921875  Q 24.65625 65.921875 20.015625 65.03125  Q 15.375 64.15625 9.8125 62.3125  L 9.8125 71.09375  Q 15.4375 72.65625 20.34375 73.4375  Q 25.25 74.21875 29.59375 74.21875  Q 40.828125 74.21875 47.359375 69.109375  Q 53.90625 64.015625 53.90625 55.328125  Q 53.90625 49.265625 50.4375 45.09375  Q 46.96875 40.921875 40.578125 39.3125  z " id="DejaVuSans-33"/>
      </defs>
      <g transform="translate(249.200765 252.220145)scale(0.1 -0.1)">
       <use xlink:href="#DejaVuSans-33"/>
       <use x="63.623047" xlink:href="#DejaVuSans-30"/>
      </g>
     </g>
    </g>
    <g id="xtick_5">
     <g id="line2d_5">
      <g>
       <use style="stroke:#000000;stroke-width:0.8;" x="317.678293" xlink:href="#m43b9adc967" y="237.621708"/>
      </g>
     </g>
     <g id="text_5">
      <!-- 40 -->
      <defs>
       <path d="M 37.796875 64.3125  L 12.890625 25.390625  L 37.796875 25.390625  z M 35.203125 72.90625  L 47.609375 72.90625  L 47.609375 25.390625  L 58.015625 25.390625  L 58.015625 17.1875  L 47.609375 17.1875  L 47.609375 0  L 37.796875 0  L 37.796875 17.1875  L 4.890625 17.1875  L 4.890625 26.703125  z " id="DejaVuSans-34"/>
      </defs>
      <g transform="translate(311.315793 252.220145)scale(0.1 -0.1)">
       <use xlink:href="#DejaVuSans-34"/>
       <use x="63.623047" xlink:href="#DejaVuSans-30"/>
      </g>
     </g>
    </g>
    <g id="xtick_6">
     <g id="line2d_6">
      <g>
       <use style="stroke:#000000;stroke-width:0.8;" x="379.793321" xlink:href="#m43b9adc967" y="237.621708"/>
      </g>
     </g>
     <g id="text_6">
      <!-- 50 -->
      <defs>
       <path d="M 10.796875 72.90625  L 49.515625 72.90625  L 49.515625 64.59375  L 19.828125 64.59375  L 19.828125 46.734375  Q 21.96875 47.46875 24.109375 47.828125  Q 26.265625 48.1875 28.421875 48.1875  Q 40.625 48.1875 47.75 41.5  Q 54.890625 34.8125 54.890625 23.390625  Q 54.890625 11.625 47.5625 5.09375  Q 40.234375 -1.421875 26.90625 -1.421875  Q 22.3125 -1.421875 17.546875 -0.640625  Q 12.796875 0.140625 7.71875 1.703125  L 7.71875 11.625  Q 12.109375 9.234375 16.796875 8.0625  Q 21.484375 6.890625 26.703125 6.890625  Q 35.15625 6.890625 40.078125 11.328125  Q 45.015625 15.765625 45.015625 23.390625  Q 45.015625 31 40.078125 35.4375  Q 35.15625 39.890625 26.703125 39.890625  Q 22.75 39.890625 18.8125 39.015625  Q 14.890625 38.140625 10.796875 36.28125  z " id="DejaVuSans-35"/>
      </defs>
      <g transform="translate(373.430821 252.220145)scale(0.1 -0.1)">
       <use xlink:href="#DejaVuSans-35"/>
       <use x="63.623047" xlink:href="#DejaVuSans-30"/>
      </g>
     </g>
    </g>
    <g id="text_7">
     <!-- # epochs -->
     <defs>
      <path d="M 51.125 44  L 36.921875 44  L 32.8125 27.6875  L 47.125 27.6875  z M 43.796875 71.78125  L 38.71875 51.515625  L 52.984375 51.515625  L 58.109375 71.78125  L 65.921875 71.78125  L 60.890625 51.515625  L 76.125 51.515625  L 76.125 44  L 58.984375 44  L 54.984375 27.6875  L 70.515625 27.6875  L 70.515625 20.21875  L 53.078125 20.21875  L 48 0  L 40.1875 0  L 45.21875 20.21875  L 30.90625 20.21875  L 25.875 0  L 18.015625 0  L 23.09375 20.21875  L 7.71875 20.21875  L 7.71875 27.6875  L 24.90625 27.6875  L 29 44  L 13.28125 44  L 13.28125 51.515625  L 30.90625 51.515625  L 35.890625 71.78125  z " id="DejaVuSans-23"/>
      <path id="DejaVuSans-20"/>
      <path d="M 56.203125 29.59375  L 56.203125 25.203125  L 14.890625 25.203125  Q 15.484375 15.921875 20.484375 11.0625  Q 25.484375 6.203125 34.421875 6.203125  Q 39.59375 6.203125 44.453125 7.46875  Q 49.3125 8.734375 54.109375 11.28125  L 54.109375 2.78125  Q 49.265625 0.734375 44.1875 -0.34375  Q 39.109375 -1.421875 33.890625 -1.421875  Q 20.796875 -1.421875 13.15625 6.1875  Q 5.515625 13.8125 5.515625 26.8125  Q 5.515625 40.234375 12.765625 48.109375  Q 20.015625 56 32.328125 56  Q 43.359375 56 49.78125 48.890625  Q 56.203125 41.796875 56.203125 29.59375  z M 47.21875 32.234375  Q 47.125 39.59375 43.09375 43.984375  Q 39.0625 48.390625 32.421875 48.390625  Q 24.90625 48.390625 20.390625 44.140625  Q 15.875 39.890625 15.1875 32.171875  z " id="DejaVuSans-65"/>
      <path d="M 18.109375 8.203125  L 18.109375 -20.796875  L 9.078125 -20.796875  L 9.078125 54.6875  L 18.109375 54.6875  L 18.109375 46.390625  Q 20.953125 51.265625 25.265625 53.625  Q 29.59375 56 35.59375 56  Q 45.5625 56 51.78125 48.09375  Q 58.015625 40.1875 58.015625 27.296875  Q 58.015625 14.40625 51.78125 6.484375  Q 45.5625 -1.421875 35.59375 -1.421875  Q 29.59375 -1.421875 25.265625 0.953125  Q 20.953125 3.328125 18.109375 8.203125  z M 48.6875 27.296875  Q 48.6875 37.203125 44.609375 42.84375  Q 40.53125 48.484375 33.40625 48.484375  Q 26.265625 48.484375 22.1875 42.84375  Q 18.109375 37.203125 18.109375 27.296875  Q 18.109375 17.390625 22.1875 11.75  Q 26.265625 6.109375 33.40625 6.109375  Q 40.53125 6.109375 44.609375 11.75  Q 48.6875 17.390625 48.6875 27.296875  z " id="DejaVuSans-70"/>
      <path d="M 30.609375 48.390625  Q 23.390625 48.390625 19.1875 42.75  Q 14.984375 37.109375 14.984375 27.296875  Q 14.984375 17.484375 19.15625 11.84375  Q 23.34375 6.203125 30.609375 6.203125  Q 37.796875 6.203125 41.984375 11.859375  Q 46.1875 17.53125 46.1875 27.296875  Q 46.1875 37.015625 41.984375 42.703125  Q 37.796875 48.390625 30.609375 48.390625  z M 30.609375 56  Q 42.328125 56 49.015625 48.375  Q 55.71875 40.765625 55.71875 27.296875  Q 55.71875 13.875 49.015625 6.21875  Q 42.328125 -1.421875 30.609375 -1.421875  Q 18.84375 -1.421875 12.171875 6.21875  Q 5.515625 13.875 5.515625 27.296875  Q 5.515625 40.765625 12.171875 48.375  Q 18.84375 56 30.609375 56  z " id="DejaVuSans-6f"/>
      <path d="M 48.78125 52.59375  L 48.78125 44.1875  Q 44.96875 46.296875 41.140625 47.34375  Q 37.3125 48.390625 33.40625 48.390625  Q 24.65625 48.390625 19.8125 42.84375  Q 14.984375 37.3125 14.984375 27.296875  Q 14.984375 17.28125 19.8125 11.734375  Q 24.65625 6.203125 33.40625 6.203125  Q 37.3125 6.203125 41.140625 7.25  Q 44.96875 8.296875 48.78125 10.40625  L 48.78125 2.09375  Q 45.015625 0.34375 40.984375 -0.53125  Q 36.96875 -1.421875 32.421875 -1.421875  Q 20.0625 -1.421875 12.78125 6.34375  Q 5.515625 14.109375 5.515625 27.296875  Q 5.515625 40.671875 12.859375 48.328125  Q 20.21875 56 33.015625 56  Q 37.15625 56 41.109375 55.140625  Q 45.0625 54.296875 48.78125 52.59375  z " id="DejaVuSans-63"/>
      <path d="M 54.890625 33.015625  L 54.890625 0  L 45.90625 0  L 45.90625 32.71875  Q 45.90625 40.484375 42.875 44.328125  Q 39.84375 48.1875 33.796875 48.1875  Q 26.515625 48.1875 22.3125 43.546875  Q 18.109375 38.921875 18.109375 30.90625  L 18.109375 0  L 9.078125 0  L 9.078125 75.984375  L 18.109375 75.984375  L 18.109375 46.1875  Q 21.34375 51.125 25.703125 53.5625  Q 30.078125 56 35.796875 56  Q 45.21875 56 50.046875 50.171875  Q 54.890625 44.34375 54.890625 33.015625  z " id="DejaVuSans-68"/>
      <path d="M 44.28125 53.078125  L 44.28125 44.578125  Q 40.484375 46.53125 36.375 47.5  Q 32.28125 48.484375 27.875 48.484375  Q 21.1875 48.484375 17.84375 46.4375  Q 14.5 44.390625 14.5 40.28125  Q 14.5 37.15625 16.890625 35.375  Q 19.28125 33.59375 26.515625 31.984375  L 29.59375 31.296875  Q 39.15625 29.25 43.1875 25.515625  Q 47.21875 21.78125 47.21875 15.09375  Q 47.21875 7.46875 41.1875 3.015625  Q 35.15625 -1.421875 24.609375 -1.421875  Q 20.21875 -1.421875 15.453125 -0.5625  Q 10.6875 0.296875 5.421875 2  L 5.421875 11.28125  Q 10.40625 8.6875 15.234375 7.390625  Q 20.0625 6.109375 24.8125 6.109375  Q 31.15625 6.109375 34.5625 8.28125  Q 37.984375 10.453125 37.984375 14.40625  Q 37.984375 18.0625 35.515625 20.015625  Q 33.0625 21.96875 24.703125 23.78125  L 21.578125 24.515625  Q 13.234375 26.265625 9.515625 29.90625  Q 5.8125 33.546875 5.8125 39.890625  Q 5.8125 47.609375 11.28125 51.796875  Q 16.75 56 26.8125 56  Q 31.78125 56 36.171875 55.265625  Q 40.578125 54.546875 44.28125 53.078125  z " id="DejaVuSans-73"/>
     </defs>
     <g transform="translate(197.788281 265.89827)scale(0.1 -0.1)">
      <use xlink:href="#DejaVuSans-23"/>
      <use x="83.789062" xlink:href="#DejaVuSans-20"/>
      <use x="115.576172" xlink:href="#DejaVuSans-65"/>
      <use x="177.099609" xlink:href="#DejaVuSans-70"/>
      <use x="240.576172" xlink:href="#DejaVuSans-6f"/>
      <use x="301.757812" xlink:href="#DejaVuSans-63"/>
      <use x="356.738281" xlink:href="#DejaVuSans-68"/>
      <use x="420.117188" xlink:href="#DejaVuSans-73"/>
     </g>
    </g>
   </g>
   <g id="matplotlib.axis_2">
    <g id="ytick_1">
     <g id="line2d_7">
      <defs>
       <path d="M 0 0  L -3.5 0  " id="m2357f2b5a0" style="stroke:#000000;stroke-width:0.8;"/>
      </defs>
      <g>
       <use style="stroke:#000000;stroke-width:0.8;" x="54" xlink:href="#m2357f2b5a0" y="237.621708"/>
      </g>
     </g>
     <g id="text_8">
      <!-- 145 -->
      <g transform="translate(27.9125 241.420927)scale(0.1 -0.1)">
       <use xlink:href="#DejaVuSans-31"/>
       <use x="63.623047" xlink:href="#DejaVuSans-34"/>
       <use x="127.246094" xlink:href="#DejaVuSans-35"/>
      </g>
     </g>
    </g>
    <g id="ytick_2">
     <g id="line2d_8">
      <g>
       <use style="stroke:#000000;stroke-width:0.8;" x="54" xlink:href="#m2357f2b5a0" y="208.252733"/>
      </g>
     </g>
     <g id="text_9">
      <!-- 150 -->
      <g transform="translate(27.9125 212.051952)scale(0.1 -0.1)">
       <use xlink:href="#DejaVuSans-31"/>
       <use x="63.623047" xlink:href="#DejaVuSans-35"/>
       <use x="127.246094" xlink:href="#DejaVuSans-30"/>
      </g>
     </g>
    </g>
    <g id="ytick_3">
     <g id="line2d_9">
      <g>
       <use style="stroke:#000000;stroke-width:0.8;" x="54" xlink:href="#m2357f2b5a0" y="178.883758"/>
      </g>
     </g>
     <g id="text_10">
      <!-- 155 -->
      <g transform="translate(27.9125 182.682976)scale(0.1 -0.1)">
       <use xlink:href="#DejaVuSans-31"/>
       <use x="63.623047" xlink:href="#DejaVuSans-35"/>
       <use x="127.246094" xlink:href="#DejaVuSans-35"/>
      </g>
     </g>
    </g>
    <g id="ytick_4">
     <g id="line2d_10">
      <g>
       <use style="stroke:#000000;stroke-width:0.8;" x="54" xlink:href="#m2357f2b5a0" y="149.514783"/>
      </g>
     </g>
     <g id="text_11">
      <!-- 160 -->
      <defs>
       <path d="M 33.015625 40.375  Q 26.375 40.375 22.484375 35.828125  Q 18.609375 31.296875 18.609375 23.390625  Q 18.609375 15.53125 22.484375 10.953125  Q 26.375 6.390625 33.015625 6.390625  Q 39.65625 6.390625 43.53125 10.953125  Q 47.40625 15.53125 47.40625 23.390625  Q 47.40625 31.296875 43.53125 35.828125  Q 39.65625 40.375 33.015625 40.375  z M 52.59375 71.296875  L 52.59375 62.3125  Q 48.875 64.0625 45.09375 64.984375  Q 41.3125 65.921875 37.59375 65.921875  Q 27.828125 65.921875 22.671875 59.328125  Q 17.53125 52.734375 16.796875 39.40625  Q 19.671875 43.65625 24.015625 45.921875  Q 28.375 48.1875 33.59375 48.1875  Q 44.578125 48.1875 50.953125 41.515625  Q 57.328125 34.859375 57.328125 23.390625  Q 57.328125 12.15625 50.6875 5.359375  Q 44.046875 -1.421875 33.015625 -1.421875  Q 20.359375 -1.421875 13.671875 8.265625  Q 6.984375 17.96875 6.984375 36.375  Q 6.984375 53.65625 15.1875 63.9375  Q 23.390625 74.21875 37.203125 74.21875  Q 40.921875 74.21875 44.703125 73.484375  Q 48.484375 72.75 52.59375 71.296875  z " id="DejaVuSans-36"/>
      </defs>
      <g transform="translate(27.9125 153.314001)scale(0.1 -0.1)">
       <use xlink:href="#DejaVuSans-31"/>
       <use x="63.623047" xlink:href="#DejaVuSans-36"/>
       <use x="127.246094" xlink:href="#DejaVuSans-30"/>
      </g>
     </g>
    </g>
    <g id="ytick_5">
     <g id="line2d_11">
      <g>
       <use style="stroke:#000000;stroke-width:0.8;" x="54" xlink:href="#m2357f2b5a0" y="120.145807"/>
      </g>
     </g>
     <g id="text_12">
      <!-- 165 -->
      <g transform="translate(27.9125 123.945026)scale(0.1 -0.1)">
       <use xlink:href="#DejaVuSans-31"/>
       <use x="63.623047" xlink:href="#DejaVuSans-36"/>
       <use x="127.246094" xlink:href="#DejaVuSans-35"/>
      </g>
     </g>
    </g>
    <g id="ytick_6">
     <g id="line2d_12">
      <g>
       <use style="stroke:#000000;stroke-width:0.8;" x="54" xlink:href="#m2357f2b5a0" y="90.776832"/>
      </g>
     </g>
     <g id="text_13">
      <!-- 170 -->
      <defs>
       <path d="M 8.203125 72.90625  L 55.078125 72.90625  L 55.078125 68.703125  L 28.609375 0  L 18.3125 0  L 43.21875 64.59375  L 8.203125 64.59375  z " id="DejaVuSans-37"/>
      </defs>
      <g transform="translate(27.9125 94.576051)scale(0.1 -0.1)">
       <use xlink:href="#DejaVuSans-31"/>
       <use x="63.623047" xlink:href="#DejaVuSans-37"/>
       <use x="127.246094" xlink:href="#DejaVuSans-30"/>
      </g>
     </g>
    </g>
    <g id="ytick_7">
     <g id="line2d_13">
      <g>
       <use style="stroke:#000000;stroke-width:0.8;" x="54" xlink:href="#m2357f2b5a0" y="61.407857"/>
      </g>
     </g>
     <g id="text_14">
      <!-- 175 -->
      <g transform="translate(27.9125 65.207076)scale(0.1 -0.1)">
       <use xlink:href="#DejaVuSans-31"/>
       <use x="63.623047" xlink:href="#DejaVuSans-37"/>
       <use x="127.246094" xlink:href="#DejaVuSans-35"/>
      </g>
     </g>
    </g>
    <g id="ytick_8">
     <g id="line2d_14">
      <g>
       <use style="stroke:#000000;stroke-width:0.8;" x="54" xlink:href="#m2357f2b5a0" y="32.038882"/>
      </g>
     </g>
     <g id="text_15">
      <!-- 180 -->
      <defs>
       <path d="M 31.78125 34.625  Q 24.75 34.625 20.71875 30.859375  Q 16.703125 27.09375 16.703125 20.515625  Q 16.703125 13.921875 20.71875 10.15625  Q 24.75 6.390625 31.78125 6.390625  Q 38.8125 6.390625 42.859375 10.171875  Q 46.921875 13.96875 46.921875 20.515625  Q 46.921875 27.09375 42.890625 30.859375  Q 38.875 34.625 31.78125 34.625  z M 21.921875 38.8125  Q 15.578125 40.375 12.03125 44.71875  Q 8.5 49.078125 8.5 55.328125  Q 8.5 64.0625 14.71875 69.140625  Q 20.953125 74.21875 31.78125 74.21875  Q 42.671875 74.21875 48.875 69.140625  Q 55.078125 64.0625 55.078125 55.328125  Q 55.078125 49.078125 51.53125 44.71875  Q 48 40.375 41.703125 38.8125  Q 48.828125 37.15625 52.796875 32.3125  Q 56.78125 27.484375 56.78125 20.515625  Q 56.78125 9.90625 50.3125 4.234375  Q 43.84375 -1.421875 31.78125 -1.421875  Q 19.734375 -1.421875 13.25 4.234375  Q 6.78125 9.90625 6.78125 20.515625  Q 6.78125 27.484375 10.78125 32.3125  Q 14.796875 37.15625 21.921875 38.8125  z M 18.3125 54.390625  Q 18.3125 48.734375 21.84375 45.5625  Q 25.390625 42.390625 31.78125 42.390625  Q 38.140625 42.390625 41.71875 45.5625  Q 45.3125 48.734375 45.3125 54.390625  Q 45.3125 60.0625 41.71875 63.234375  Q 38.140625 66.40625 31.78125 66.40625  Q 25.390625 66.40625 21.84375 63.234375  Q 18.3125 60.0625 18.3125 54.390625  z " id="DejaVuSans-38"/>
      </defs>
      <g transform="translate(27.9125 35.838101)scale(0.1 -0.1)">
       <use xlink:href="#DejaVuSans-31"/>
       <use x="63.623047" xlink:href="#DejaVuSans-38"/>
       <use x="127.246094" xlink:href="#DejaVuSans-30"/>
      </g>
     </g>
    </g>
    <g id="text_16">
     <!-- NELBO -->
     <defs>
      <path d="M 9.8125 72.90625  L 23.09375 72.90625  L 55.421875 11.921875  L 55.421875 72.90625  L 64.984375 72.90625  L 64.984375 0  L 51.703125 0  L 19.390625 60.984375  L 19.390625 0  L 9.8125 0  z " id="DejaVuSans-4e"/>
      <path d="M 9.8125 72.90625  L 55.90625 72.90625  L 55.90625 64.59375  L 19.671875 64.59375  L 19.671875 43.015625  L 54.390625 43.015625  L 54.390625 34.71875  L 19.671875 34.71875  L 19.671875 8.296875  L 56.78125 8.296875  L 56.78125 0  L 9.8125 0  z " id="DejaVuSans-45"/>
      <path d="M 9.8125 72.90625  L 19.671875 72.90625  L 19.671875 8.296875  L 55.171875 8.296875  L 55.171875 0  L 9.8125 0  z " id="DejaVuSans-4c"/>
      <path d="M 19.671875 34.8125  L 19.671875 8.109375  L 35.5 8.109375  Q 43.453125 8.109375 47.28125 11.40625  Q 51.125 14.703125 51.125 21.484375  Q 51.125 28.328125 47.28125 31.5625  Q 43.453125 34.8125 35.5 34.8125  z M 19.671875 64.796875  L 19.671875 42.828125  L 34.28125 42.828125  Q 41.5 42.828125 45.03125 45.53125  Q 48.578125 48.25 48.578125 53.8125  Q 48.578125 59.328125 45.03125 62.0625  Q 41.5 64.796875 34.28125 64.796875  z M 9.8125 72.90625  L 35.015625 72.90625  Q 46.296875 72.90625 52.390625 68.21875  Q 58.5 63.53125 58.5 54.890625  Q 58.5 48.1875 55.375 44.234375  Q 52.25 40.28125 46.1875 39.3125  Q 53.46875 37.75 57.5 32.78125  Q 61.53125 27.828125 61.53125 20.40625  Q 61.53125 10.640625 54.890625 5.3125  Q 48.25 0 35.984375 0  L 9.8125 0  z " id="DejaVuSans-42"/>
      <path d="M 39.40625 66.21875  Q 28.65625 66.21875 22.328125 58.203125  Q 16.015625 50.203125 16.015625 36.375  Q 16.015625 22.609375 22.328125 14.59375  Q 28.65625 6.59375 39.40625 6.59375  Q 50.140625 6.59375 56.421875 14.59375  Q 62.703125 22.609375 62.703125 36.375  Q 62.703125 50.203125 56.421875 58.203125  Q 50.140625 66.21875 39.40625 66.21875  z M 39.40625 74.21875  Q 54.734375 74.21875 63.90625 63.9375  Q 73.09375 53.65625 73.09375 36.375  Q 73.09375 19.140625 63.90625 8.859375  Q 54.734375 -1.421875 39.40625 -1.421875  Q 24.03125 -1.421875 14.8125 8.828125  Q 5.609375 19.09375 5.609375 36.375  Q 5.609375 53.65625 14.8125 63.9375  Q 24.03125 74.21875 39.40625 74.21875  z " id="DejaVuSans-4f"/>
     </defs>
     <g transform="translate(21.832812 151.881857)rotate(-90)scale(0.1 -0.1)">
      <use xlink:href="#DejaVuSans-4e"/>
      <use x="74.804688" xlink:href="#DejaVuSans-45"/>
      <use x="137.988281" xlink:href="#DejaVuSans-4c"/>
      <use x="193.701172" xlink:href="#DejaVuSans-42"/>
      <use x="262.289062" xlink:href="#DejaVuSans-4f"/>
     </g>
    </g>
   </g>
   <g id="line2d_15">
    <path clip-path="url(#pe76a597719)" d="M 69.218182 55.212856  L 75.429685 114.329408  L 81.641187 130.341313  L 87.85269 143.417325  L 94.064193 153.03975  L 100.275696 159.443563  L 106.487199 164.315539  L 112.698701 167.761623  L 118.910204 170.779838  L 125.121707 172.884995  L 131.33321 175.014509  L 137.544712 176.555847  L 143.756215 177.984784  L 149.967718 179.324966  L 156.179221 180.515915  L 162.390724 181.644811  L 168.602226 182.606986  L 174.813729 183.548703  L 181.025232 184.451119  L 187.236735 185.025903  L 193.448237 185.781843  L 199.65974 186.570011  L 205.871243 187.252803  L 212.082746 187.664922  L 218.294249 187.814766  L 224.505751 188.493475  L 230.717254 188.675457  L 236.928757 188.771774  L 243.14026 189.224216  L 249.351763 189.57649  L 255.563265 189.682059  L 261.774768 189.901993  L 267.986271 189.804649  L 274.197774 189.866901  L 280.409276 189.925104  L 286.620779 189.545421  L 292.832282 189.731487  L 299.043785 189.341312  L 305.255288 188.887362  L 311.46679 188.764179  L 317.678293 187.779686  L 323.889796 186.42209  L 330.101299 185.061751  L 336.312801 183.34319  L 342.524304 180.619932  L 348.735807 171.361645  L 354.94731 163.837159  L 361.158813 121.885597  L 367.370315 71.098865  L 367.371304 -1  " style="fill:none;stroke:#1f77b4;stroke-linecap:square;stroke-width:1.5;"/>
   </g>
   <g id="line2d_16">
    <path clip-path="url(#pe76a597719)" d="M 69.218182 53.243591  L 75.429685 119.364556  L 81.641187 138.945439  L 87.85269 150.740306  L 94.064193 158.194089  L 100.275696 163.746138  L 106.487199 168.218092  L 112.698701 171.569407  L 118.910204 174.573865  L 125.121707 177.294511  L 131.33321 179.589029  L 137.544712 181.623395  L 143.756215 183.573027  L 149.967718 185.299666  L 156.179221 186.739469  L 162.390724 188.08545  L 168.602226 189.158252  L 174.813729 190.181609  L 181.025232 191.247006  L 187.236735 192.183254  L 193.448237 192.975193  L 199.65974 193.822193  L 205.871243 194.422531  L 212.082746 195.292152  L 218.294249 196.108931  L 224.505751 196.521879  L 230.717254 197.160318  L 236.928757 197.819084  L 243.14026 198.44417  L 249.351763 198.89298  L 255.563265 199.44181  L 261.774768 199.936339  L 267.986271 200.426657  L 274.197774 200.964906  L 280.409276 201.389679  L 286.620779 201.95687  L 292.832282 202.325155  L 299.043785 202.752748  L 305.255288 203.147119  L 311.46679 203.623928  L 317.678293 203.9802  L 323.889796 204.203453  L 330.101299 204.555307  L 336.312801 204.769864  L 342.524304 205.224046  L 348.735807 205.484112  L 354.94731 205.690366  L 361.158813 206.003467  L 367.370315 206.272187  L 373.581818 206.410445  " style="fill:none;stroke:#ff7f0e;stroke-linecap:square;stroke-width:1.5;"/>
   </g>
   <g id="line2d_17">
    <path clip-path="url(#pe76a597719)" d="M 69.218182 51.628325  L 75.429685 115.729077  L 81.641187 134.021491  L 87.85269 148.619348  L 94.064193 157.621697  L 100.275696 164.049386  L 106.487199 169.183204  L 112.698701 173.290127  L 118.910204 176.892264  L 125.121707 179.801604  L 131.33321 182.409432  L 137.544712 184.553141  L 143.756215 186.369756  L 149.967718 188.272362  L 156.179221 189.520885  L 162.390724 190.980007  L 168.602226 192.1415  L 174.813729 193.349208  L 181.025232 194.153849  L 187.236735 195.194397  L 193.448237 196.004991  L 199.65974 196.705432  L 205.871243 197.606243  L 212.082746 198.144296  L 218.294249 198.74627  L 224.505751 199.266822  L 230.717254 199.880886  L 236.928757 200.443245  L 243.14026 201.056052  L 249.351763 201.369631  L 255.563265 201.905156  L 261.774768 202.325214  L 267.986271 202.853244  L 274.197774 203.164681  L 280.409276 203.60134  L 286.620779 204.029849  L 292.832282 204.279191  L 299.043785 204.606353  L 305.255288 205.015194  L 311.46679 205.413441  L 317.678293 205.577585  L 323.889796 205.979587  L 330.101299 206.314145  L 336.312801 206.570465  L 342.524304 206.829645  L 348.735807 207.112553  L 354.94731 207.365085  L 361.158813 207.619723  L 367.370315 207.929451  L 373.581818 208.022255  " style="fill:none;stroke:#2ca02c;stroke-linecap:square;stroke-width:1.5;"/>
   </g>
   <g id="line2d_18">
    <path clip-path="url(#pe76a597719)" d="M 69.218182 48.307195  L 75.429685 115.685958  L 81.641187 138.172811  L 87.85269 151.734416  L 94.064193 159.557602  L 100.275696 165.388074  L 106.487199 169.632958  L 112.698701 173.161759  L 118.910204 176.190758  L 125.121707 178.693566  L 131.33321 180.82542  L 137.544712 182.627781  L 143.756215 184.305244  L 149.967718 185.668943  L 156.179221 187.109013  L 162.390724 188.420592  L 168.602226 189.637201  L 174.813729 190.587237  L 181.025232 191.577149  L 187.236735 192.466531  L 193.448237 193.426557  L 199.65974 194.190761  L 205.871243 194.998781  L 212.082746 195.827535  L 218.294249 196.440025  L 224.505751 197.06226  L 230.717254 197.668351  L 236.928757 198.251332  L 243.14026 198.849315  L 249.351763 199.44296  L 255.563265 200.092622  L 261.774768 200.514678  L 267.986271 201.010122  L 274.197774 201.469116  L 280.409276 202.03494  L 286.620779 202.389162  L 292.832282 202.919633  L 299.043785 203.172064  L 305.255288 203.570044  L 311.46679 203.980362  L 317.678293 204.348586  L 323.889796 204.54808  L 330.101299 204.928989  L 336.312801 205.196602  L 342.524304 205.456663  L 348.735807 205.694497  L 354.94731 206.105224  L 361.158813 206.304709  L 367.370315 206.539814  L 373.581818 206.809576  " style="fill:none;stroke:#d62728;stroke-linecap:square;stroke-width:1.5;"/>
   </g>
   <g id="patch_3">
    <path d="M 54 237.621708  L 54 32.038882  " style="fill:none;stroke:#000000;stroke-linecap:square;stroke-linejoin:miter;stroke-width:0.8;"/>
   </g>
   <g id="patch_4">
    <path d="M 388.8 237.621708  L 388.8 32.038882  " style="fill:none;stroke:#000000;stroke-linecap:square;stroke-linejoin:miter;stroke-width:0.8;"/>
   </g>
   <g id="patch_5">
    <path d="M 54 237.621708  L 388.8 237.621708  " style="fill:none;stroke:#000000;stroke-linecap:square;stroke-linejoin:miter;stroke-width:0.8;"/>
   </g>
   <g id="patch_6">
    <path d="M 54 32.038882  L 388.8 32.038882  " style="fill:none;stroke:#000000;stroke-linecap:square;stroke-linejoin:miter;stroke-width:0.8;"/>
   </g>
   <g id="legend_1">
    <g id="patch_7">
     <path d="M 165.585938 98.751382  L 277.214063 98.751382  Q 279.214063 98.751382 279.214063 96.751382  L 279.214063 39.038882  Q 279.214063 37.038882 277.214063 37.038882  L 165.585938 37.038882  Q 163.585938 37.038882 163.585938 39.038882  L 163.585938 96.751382  Q 163.585938 98.751382 165.585938 98.751382  z " style="fill:#ffffff;opacity:0.8;stroke:#cccccc;stroke-linejoin:miter;"/>
    </g>
    <g id="line2d_19">
     <path d="M 167.585938 45.137319  L 187.585938 45.137319  " style="fill:none;stroke:#1f77b4;stroke-linecap:square;stroke-width:1.5;"/>
    </g>
    <g id="line2d_20"/>
    <g id="text_17">
     <!-- MC samples:  1 -->
     <defs>
      <path d="M 9.8125 72.90625  L 24.515625 72.90625  L 43.109375 23.296875  L 61.8125 72.90625  L 76.515625 72.90625  L 76.515625 0  L 66.890625 0  L 66.890625 64.015625  L 48.09375 14.015625  L 38.1875 14.015625  L 19.390625 64.015625  L 19.390625 0  L 9.8125 0  z " id="DejaVuSans-4d"/>
      <path d="M 64.40625 67.28125  L 64.40625 56.890625  Q 59.421875 61.53125 53.78125 63.8125  Q 48.140625 66.109375 41.796875 66.109375  Q 29.296875 66.109375 22.65625 58.46875  Q 16.015625 50.828125 16.015625 36.375  Q 16.015625 21.96875 22.65625 14.328125  Q 29.296875 6.6875 41.796875 6.6875  Q 48.140625 6.6875 53.78125 8.984375  Q 59.421875 11.28125 64.40625 15.921875  L 64.40625 5.609375  Q 59.234375 2.09375 53.4375 0.328125  Q 47.65625 -1.421875 41.21875 -1.421875  Q 24.65625 -1.421875 15.125 8.703125  Q 5.609375 18.84375 5.609375 36.375  Q 5.609375 53.953125 15.125 64.078125  Q 24.65625 74.21875 41.21875 74.21875  Q 47.75 74.21875 53.53125 72.484375  Q 59.328125 70.75 64.40625 67.28125  z " id="DejaVuSans-43"/>
      <path d="M 34.28125 27.484375  Q 23.390625 27.484375 19.1875 25  Q 14.984375 22.515625 14.984375 16.5  Q 14.984375 11.71875 18.140625 8.90625  Q 21.296875 6.109375 26.703125 6.109375  Q 34.1875 6.109375 38.703125 11.40625  Q 43.21875 16.703125 43.21875 25.484375  L 43.21875 27.484375  z M 52.203125 31.203125  L 52.203125 0  L 43.21875 0  L 43.21875 8.296875  Q 40.140625 3.328125 35.546875 0.953125  Q 30.953125 -1.421875 24.3125 -1.421875  Q 15.921875 -1.421875 10.953125 3.296875  Q 6 8.015625 6 15.921875  Q 6 25.140625 12.171875 29.828125  Q 18.359375 34.515625 30.609375 34.515625  L 43.21875 34.515625  L 43.21875 35.40625  Q 43.21875 41.609375 39.140625 45  Q 35.0625 48.390625 27.6875 48.390625  Q 23 48.390625 18.546875 47.265625  Q 14.109375 46.140625 10.015625 43.890625  L 10.015625 52.203125  Q 14.9375 54.109375 19.578125 55.046875  Q 24.21875 56 28.609375 56  Q 40.484375 56 46.34375 49.84375  Q 52.203125 43.703125 52.203125 31.203125  z " id="DejaVuSans-61"/>
      <path d="M 52 44.1875  Q 55.375 50.25 60.0625 53.125  Q 64.75 56 71.09375 56  Q 79.640625 56 84.28125 50.015625  Q 88.921875 44.046875 88.921875 33.015625  L 88.921875 0  L 79.890625 0  L 79.890625 32.71875  Q 79.890625 40.578125 77.09375 44.375  Q 74.3125 48.1875 68.609375 48.1875  Q 61.625 48.1875 57.5625 43.546875  Q 53.515625 38.921875 53.515625 30.90625  L 53.515625 0  L 44.484375 0  L 44.484375 32.71875  Q 44.484375 40.625 41.703125 44.40625  Q 38.921875 48.1875 33.109375 48.1875  Q 26.21875 48.1875 22.15625 43.53125  Q 18.109375 38.875 18.109375 30.90625  L 18.109375 0  L 9.078125 0  L 9.078125 54.6875  L 18.109375 54.6875  L 18.109375 46.1875  Q 21.1875 51.21875 25.484375 53.609375  Q 29.78125 56 35.6875 56  Q 41.65625 56 45.828125 52.96875  Q 50 49.953125 52 44.1875  z " id="DejaVuSans-6d"/>
      <path d="M 9.421875 75.984375  L 18.40625 75.984375  L 18.40625 0  L 9.421875 0  z " id="DejaVuSans-6c"/>
      <path d="M 11.71875 12.40625  L 22.015625 12.40625  L 22.015625 0  L 11.71875 0  z M 11.71875 51.703125  L 22.015625 51.703125  L 22.015625 39.3125  L 11.71875 39.3125  z " id="DejaVuSans-3a"/>
     </defs>
     <g transform="translate(195.585938 48.637319)scale(0.1 -0.1)">
      <use xlink:href="#DejaVuSans-4d"/>
      <use x="86.279297" xlink:href="#DejaVuSans-43"/>
      <use x="156.103516" xlink:href="#DejaVuSans-20"/>
      <use x="187.890625" xlink:href="#DejaVuSans-73"/>
      <use x="239.990234" xlink:href="#DejaVuSans-61"/>
      <use x="301.269531" xlink:href="#DejaVuSans-6d"/>
      <use x="398.681641" xlink:href="#DejaVuSans-70"/>
      <use x="462.158203" xlink:href="#DejaVuSans-6c"/>
      <use x="489.941406" xlink:href="#DejaVuSans-65"/>
      <use x="551.464844" xlink:href="#DejaVuSans-73"/>
      <use x="603.564453" xlink:href="#DejaVuSans-3a"/>
      <use x="637.255859" xlink:href="#DejaVuSans-20"/>
      <use x="669.042969" xlink:href="#DejaVuSans-20"/>
      <use x="700.830078" xlink:href="#DejaVuSans-31"/>
     </g>
    </g>
    <g id="line2d_21">
     <path d="M 167.585938 59.815444  L 187.585938 59.815444  " style="fill:none;stroke:#ff7f0e;stroke-linecap:square;stroke-width:1.5;"/>
    </g>
    <g id="line2d_22"/>
    <g id="text_18">
     <!-- MC samples:  5 -->
     <g transform="translate(195.585938 63.315444)scale(0.1 -0.1)">
      <use xlink:href="#DejaVuSans-4d"/>
      <use x="86.279297" xlink:href="#DejaVuSans-43"/>
      <use x="156.103516" xlink:href="#DejaVuSans-20"/>
      <use x="187.890625" xlink:href="#DejaVuSans-73"/>
      <use x="239.990234" xlink:href="#DejaVuSans-61"/>
      <use x="301.269531" xlink:href="#DejaVuSans-6d"/>
      <use x="398.681641" xlink:href="#DejaVuSans-70"/>
      <use x="462.158203" xlink:href="#DejaVuSans-6c"/>
      <use x="489.941406" xlink:href="#DejaVuSans-65"/>
      <use x="551.464844" xlink:href="#DejaVuSans-73"/>
      <use x="603.564453" xlink:href="#DejaVuSans-3a"/>
      <use x="637.255859" xlink:href="#DejaVuSans-20"/>
      <use x="669.042969" xlink:href="#DejaVuSans-20"/>
      <use x="700.830078" xlink:href="#DejaVuSans-35"/>
     </g>
    </g>
    <g id="line2d_23">
     <path d="M 167.585938 74.493569  L 187.585938 74.493569  " style="fill:none;stroke:#2ca02c;stroke-linecap:square;stroke-width:1.5;"/>
    </g>
    <g id="line2d_24"/>
    <g id="text_19">
     <!-- MC samples: 10 -->
     <g transform="translate(195.585938 77.993569)scale(0.1 -0.1)">
      <use xlink:href="#DejaVuSans-4d"/>
      <use x="86.279297" xlink:href="#DejaVuSans-43"/>
      <use x="156.103516" xlink:href="#DejaVuSans-20"/>
      <use x="187.890625" xlink:href="#DejaVuSans-73"/>
      <use x="239.990234" xlink:href="#DejaVuSans-61"/>
      <use x="301.269531" xlink:href="#DejaVuSans-6d"/>
      <use x="398.681641" xlink:href="#DejaVuSans-70"/>
      <use x="462.158203" xlink:href="#DejaVuSans-6c"/>
      <use x="489.941406" xlink:href="#DejaVuSans-65"/>
      <use x="551.464844" xlink:href="#DejaVuSans-73"/>
      <use x="603.564453" xlink:href="#DejaVuSans-3a"/>
      <use x="637.255859" xlink:href="#DejaVuSans-20"/>
      <use x="669.042969" xlink:href="#DejaVuSans-31"/>
      <use x="732.666016" xlink:href="#DejaVuSans-30"/>
     </g>
    </g>
    <g id="line2d_25">
     <path d="M 167.585938 89.171694  L 187.585938 89.171694  " style="fill:none;stroke:#d62728;stroke-linecap:square;stroke-width:1.5;"/>
    </g>
    <g id="line2d_26"/>
    <g id="text_20">
     <!-- MC samples: 15 -->
     <g transform="translate(195.585938 92.671694)scale(0.1 -0.1)">
      <use xlink:href="#DejaVuSans-4d"/>
      <use x="86.279297" xlink:href="#DejaVuSans-43"/>
      <use x="156.103516" xlink:href="#DejaVuSans-20"/>
      <use x="187.890625" xlink:href="#DejaVuSans-73"/>
      <use x="239.990234" xlink:href="#DejaVuSans-61"/>
      <use x="301.269531" xlink:href="#DejaVuSans-6d"/>
      <use x="398.681641" xlink:href="#DejaVuSans-70"/>
      <use x="462.158203" xlink:href="#DejaVuSans-6c"/>
      <use x="489.941406" xlink:href="#DejaVuSans-65"/>
      <use x="551.464844" xlink:href="#DejaVuSans-73"/>
      <use x="603.564453" xlink:href="#DejaVuSans-3a"/>
      <use x="637.255859" xlink:href="#DejaVuSans-20"/>
      <use x="669.042969" xlink:href="#DejaVuSans-31"/>
      <use x="732.666016" xlink:href="#DejaVuSans-35"/>
     </g>
    </g>
   </g>
  </g>
 </g>
 <defs>
  <clipPath id="pe76a597719">
   <rect height="205.582826" width="334.8" x="54" y="32.038882"/>
  </clipPath>
 </defs>
</svg>