<svg xmlns="http://www.w3.org/2000/svg" xmlns:xlink="http://www.w3.org/1999/xlink" version="1.1" viewBox="0 0 864 216" viewport="0 0 1600px 400px">
 <defs>
  <style type="text/css">
*{stroke-linecap:butt;stroke-linejoin:round;}
  </style>
 </defs>
 <g id="figure_1">
  <g id="patch_1">
   <path d="M 0 216  L 864 216  L 864 0  L 0 0  z " style="fill:none;opacity:0;"/>
  </g>
  <g id="axes_1">
   <g id="patch_2">
    <path d="M 33.64 188.12  L 276.48 188.12  L 276.48 14.76  L 33.64 14.76  z " style="fill:#ffffff;"/>
   </g>
   <g id="matplotlib.axis_1">
    <g id="xtick_1">
     <g id="line2d_1">
      <defs>
       <path d="M 0 0  L 0 3.5  " id="m94e1567e7c" style="stroke:#000000;stroke-width:0.8;"/>
      </defs>
      <g>
       <use style="stroke:#000000;stroke-width:0.8;" x="44.678182" xlink:href="#m94e1567e7c" y="188.12"/>
      </g>
     </g>
     <g id="text_1">
      <!-- 0 -->
      <defs>
       <path d="M 31.78125 66.40625  Q 24.171875 66.40625 20.328125 58.90625  Q 16.5 51.421875 16.5 36.375  Q 16.5 21.390625 20.328125 13.890625  Q 24.171875 6.390625 31.78125 6.390625  Q 39.453125 6.390625 43.28125 13.890625  Q 47.125 21.390625 47.125 36.375  Q 47.125 51.421875 43.28125 58.90625  Q 39.453125 66.40625 31.78125 66.40625  z M 31.78125 74.21875  Q 44.046875 74.21875 50.515625 64.515625  Q 56.984375 54.828125 56.984375 36.375  Q 56.984375 17.96875 50.515625 8.265625  Q 44.046875 -1.421875 31.78125 -1.421875  Q 19.53125 -1.421875 13.0625 8.265625  Q 6.59375 17.96875 6.59375 36.375  Q 6.59375 54.828125 13.0625 64.515625  Q 19.53125 74.21875 31.78125 74.21875  z " id="DejaVuSans-30"/>
      </defs>
      <g transform="translate(41.496932 202.718437)scale(0.1 -0.1)">
       <use xlink:href="#DejaVuSans-30"/>
      </g>
     </g>
    </g>
    <g id="xtick_2">
     <g id="line2d_2">
      <g>
       <use style="stroke:#000000;stroke-width:0.8;" x="89.731985" xlink:href="#m94e1567e7c" y="188.12"/>
      </g>
     </g>
     <g id="text_2">
      <!-- 10 -->
      <defs>
       <path d="M 12.40625 8.296875  L 28.515625 8.296875  L 28.515625 63.921875  L 10.984375 60.40625  L 10.984375 69.390625  L 28.421875 72.90625  L 38.28125 72.90625  L 38.28125 8.296875  L 54.390625 8.296875  L 54.390625 0  L 12.40625 0  z " id="DejaVuSans-31"/>
      </defs>
      <g transform="translate(83.369485 202.718437)scale(0.1 -0.1)">
       <use xlink:href="#DejaVuSans-31"/>
       <use x="63.623047" xlink:href="#DejaVuSans-30"/>
      </g>
     </g>
    </g>
    <g id="xtick_3">
     <g id="line2d_3">
      <g>
       <use style="stroke:#000000;stroke-width:0.8;" x="134.785788" xlink:href="#m94e1567e7c" y="188.12"/>
      </g>
     </g>
     <g id="text_3">
      <!-- 20 -->
      <defs>
       <path d="M 19.1875 8.296875  L 53.609375 8.296875  L 53.609375 0  L 7.328125 0  L 7.328125 8.296875  Q 12.9375 14.109375 22.625 23.890625  Q 32.328125 33.6875 34.8125 36.53125  Q 39.546875 41.84375 41.421875 45.53125  Q 43.3125 49.21875 43.3125 52.78125  Q 43.3125 58.59375 39.234375 62.25  Q 35.15625 65.921875 28.609375 65.921875  Q 23.96875 65.921875 18.8125 64.3125  Q 13.671875 62.703125 7.8125 59.421875  L 7.8125 69.390625  Q 13.765625 71.78125 18.9375 73  Q 24.125 74.21875 28.421875 74.21875  Q 39.75 74.21875 46.484375 68.546875  Q 53.21875 62.890625 53.21875 53.421875  Q 53.21875 48.921875 51.53125 44.890625  Q 49.859375 40.875 45.40625 35.40625  Q 44.1875 33.984375 37.640625 27.21875  Q 31.109375 20.453125 19.1875 8.296875  z " id="DejaVuSans-32"/>
      </defs>
      <g transform="translate(128.423288 202.718437)scale(0.1 -0.1)">
       <use xlink:href="#DejaVuSans-32"/>
       <use x="63.623047" xlink:href="#DejaVuSans-30"/>
      </g>
     </g>
    </g>
    <g id="xtick_4">
     <g id="line2d_4">
      <g>
       <use style="stroke:#000000;stroke-width:0.8;" x="179.839592" xlink:href="#m94e1567e7c" y="188.12"/>
      </g>
     </g>
     <g id="text_4">
      <!-- 30 -->
      <defs>
       <path d="M 40.578125 39.3125  Q 47.65625 37.796875 51.625 33  Q 55.609375 28.21875 55.609375 21.1875  Q 55.609375 10.40625 48.1875 4.484375  Q 40.765625 -1.421875 27.09375 -1.421875  Q 22.515625 -1.421875 17.65625 -0.515625  Q 12.796875 0.390625 7.625 2.203125  L 7.625 11.71875  Q 11.71875 9.328125 16.59375 8.109375  Q 21.484375 6.890625 26.8125 6.890625  Q 36.078125 6.890625 40.9375 10.546875  Q 45.796875 14.203125 45.796875 21.1875  Q 45.796875 27.640625 41.28125 31.265625  Q 36.765625 34.90625 28.71875 34.90625  L 20.21875 34.90625  L 20.21875 43.015625  L 29.109375 43.015625  Q 36.375 43.015625 40.234375 45.921875  Q 44.09375 48.828125 44.09375 54.296875  Q 44.09375 59.90625 40.109375 62.90625  Q 36.140625 65.921875 28.71875 65.921875  Q 24.65625 65.921875 20.015625 65.03125  Q 15.375 64.15625 9.8125 62.3125  L 9.8125 71.09375  Q 15.4375 72.65625 20.34375 73.4375  Q 25.25 74.21875 29.59375 74.21875  Q 40.828125 74.21875 47.359375 69.109375  Q 53.90625 64.015625 53.90625 55.328125  Q 53.90625 49.265625 50.4375 45.09375  Q 46.96875 40.921875 40.578125 39.3125  z " id="DejaVuSans-33"/>
      </defs>
      <g transform="translate(173.477092 202.718437)scale(0.1 -0.1)">
       <use xlink:href="#DejaVuSans-33"/>
       <use x="63.623047" xlink:href="#DejaVuSans-30"/>
      </g>
     </g>
    </g>
    <g id="xtick_5">
     <g id="line2d_5">
      <g>
       <use style="stroke:#000000;stroke-width:0.8;" x="224.893395" xlink:href="#m94e1567e7c" y="188.12"/>
      </g>
     </g>
     <g id="text_5">
      <!-- 40 -->
      <defs>
       <path d="M 37.796875 64.3125  L 12.890625 25.390625  L 37.796875 25.390625  z M 35.203125 72.90625  L 47.609375 72.90625  L 47.609375 25.390625  L 58.015625 25.390625  L 58.015625 17.1875  L 47.609375 17.1875  L 47.609375 0  L 37.796875 0  L 37.796875 17.1875  L 4.890625 17.1875  L 4.890625 26.703125  z " id="DejaVuSans-34"/>
      </defs>
      <g transform="translate(218.530895 202.718437)scale(0.1 -0.1)">
       <use xlink:href="#DejaVuSans-34"/>
       <use x="63.623047" xlink:href="#DejaVuSans-30"/>
      </g>
     </g>
    </g>
    <g id="xtick_6">
     <g id="line2d_6">
      <g>
       <use style="stroke:#000000;stroke-width:0.8;" x="269.947199" xlink:href="#m94e1567e7c" y="188.12"/>
      </g>
     </g>
     <g id="text_6">
      <!-- 50 -->
      <defs>
       <path d="M 10.796875 72.90625  L 49.515625 72.90625  L 49.515625 64.59375  L 19.828125 64.59375  L 19.828125 46.734375  Q 21.96875 47.46875 24.109375 47.828125  Q 26.265625 48.1875 28.421875 48.1875  Q 40.625 48.1875 47.75 41.5  Q 54.890625 34.8125 54.890625 23.390625  Q 54.890625 11.625 47.5625 5.09375  Q 40.234375 -1.421875 26.90625 -1.421875  Q 22.3125 -1.421875 17.546875 -0.640625  Q 12.796875 0.140625 7.71875 1.703125  L 7.71875 11.625  Q 12.109375 9.234375 16.796875 8.0625  Q 21.484375 6.890625 26.703125 6.890625  Q 35.15625 6.890625 40.078125 11.328125  Q 45.015625 15.765625 45.015625 23.390625  Q 45.015625 31 40.078125 35.4375  Q 35.15625 39.890625 26.703125 39.890625  Q 22.75 39.890625 18.8125 39.015625  Q 14.890625 38.140625 10.796875 36.28125  z " id="DejaVuSans-35"/>
      </defs>
      <g transform="translate(263.584699 202.718437)scale(0.1 -0.1)">
       <use xlink:href="#DejaVuSans-35"/>
       <use x="63.623047" xlink:href="#DejaVuSans-30"/>
      </g>
     </g>
    </g>
    <g id="text_7">
     <!-- # epochs -->
     <defs>
      <path d="M 51.125 44  L 36.921875 44  L 32.8125 27.6875  L 47.125 27.6875  z M 43.796875 71.78125  L 38.71875 51.515625  L 52.984375 51.515625  L 58.109375 71.78125  L 65.921875 71.78125  L 60.890625 51.515625  L 76.125 51.515625  L 76.125 44  L 58.984375 44  L 54.984375 27.6875  L 70.515625 27.6875  L 70.515625 20.21875  L 53.078125 20.21875  L 48 0  L 40.1875 0  L 45.21875 20.21875  L 30.90625 20.21875  L 25.875 0  L 18.015625 0  L 23.09375 20.21875  L 7.71875 20.21875  L 7.71875 27.6875  L 24.90625 27.6875  L 29 44  L 13.28125 44  L 13.28125 51.515625  L 30.90625 51.515625  L 35.890625 71.78125  z " id="DejaVuSans-23"/>
      <path id="DejaVuSans-20"/>
      <path d="M 56.203125 29.59375  L 56.203125 25.203125  L 14.890625 25.203125  Q 15.484375 15.921875 20.484375 11.0625  Q 25.484375 6.203125 34.421875 6.203125  Q 39.59375 6.203125 44.453125 7.46875  Q 49.3125 8.734375 54.109375 11.28125  L 54.109375 2.78125  Q 49.265625 0.734375 44.1875 -0.34375  Q 39.109375 -1.421875 33.890625 -1.421875  Q 20.796875 -1.421875 13.15625 6.1875  Q 5.515625 13.8125 5.515625 26.8125  Q 5.515625 40.234375 12.765625 48.109375  Q 20.015625 56 32.328125 56  Q 43.359375 56 49.78125 48.890625  Q 56.203125 41.796875 56.203125 29.59375  z M 47.21875 32.234375  Q 47.125 39.59375 43.09375 43.984375  Q 39.0625 48.390625 32.421875 48.390625  Q 24.90625 48.390625 20.390625 44.140625  Q 15.875 39.890625 15.1875 32.171875  z " id="DejaVuSans-65"/>
      <path d="M 18.109375 8.203125  L 18.109375 -20.796875  L 9.078125 -20.796875  L 9.078125 54.6875  L 18.109375 54.6875  L 18.109375 46.390625  Q 20.953125 51.265625 25.265625 53.625  Q 29.59375 56 35.59375 56  Q 45.5625 56 51.78125 48.09375  Q 58.015625 40.1875 58.015625 27.296875  Q 58.015625 14.40625 51.78125 6.484375  Q 45.5625 -1.421875 35.59375 -1.421875  Q 29.59375 -1.421875 25.265625 0.953125  Q 20.953125 3.328125 18.109375 8.203125  z M 48.6875 27.296875  Q 48.6875 37.203125 44.609375 42.84375  Q 40.53125 48.484375 33.40625 48.484375  Q 26.265625 48.484375 22.1875 42.84375  Q 18.109375 37.203125 18.109375 27.296875  Q 18.109375 17.390625 22.1875 11.75  Q 26.265625 6.109375 33.40625 6.109375  Q 40.53125 6.109375 44.609375 11.75  Q 48.6875 17.390625 48.6875 27.296875  z " id="DejaVuSans-70"/>
      <path d="M 30.609375 48.390625  Q 23.390625 48.390625 19.1875 42.75  Q 14.984375 37.109375 14.984375 27.296875  Q 14.984375 17.484375 19.15625 11.84375  Q 23.34375 6.203125 30.609375 6.203125  Q 37.796875 6.203125 41.984375 11.859375  Q 46.1875 17.53125 46.1875 27.296875  Q 46.1875 37.015625 41.984375 42.703125  Q 37.796875 48.390625 30.609375 48.390625  z M 30.609375 56  Q 42.328125 56 49.015625 48.375  Q 55.71875 40.765625 55.71875 27.296875  Q 55.71875 13.875 49.015625 6.21875  Q 42.328125 -1.421875 30.609375 -1.421875  Q 18.84375 -1.421875 12.171875 6.21875  Q 5.515625 13.875 5.515625 27.296875  Q 5.515625 40.765625 12.171875 48.375  Q 18.84375 56 30.609375 56  z " id="DejaVuSans-6f"/>
      <path d="M 48.78125 52.59375  L 48.78125 44.1875  Q 44.96875 46.296875 41.140625 47.34375  Q 37.3125 48.390625 33.40625 48.390625  Q 24.65625 48.390625 19.8125 42.84375  Q 14.984375 37.3125 14.984375 27.296875  Q 14.984375 17.28125 19.8125 11.734375  Q 24.65625 6.203125 33.40625 6.203125  Q 37.3125 6.203125 41.140625 7.25  Q 44.96875 8.296875 48.78125 10.40625  L 48.78125 2.09375  Q 45.015625 0.34375 40.984375 -0.53125  Q 36.96875 -1.421875 32.421875 -1.421875  Q 20.0625 -1.421875 12.78125 6.34375  Q 5.515625 14.109375 5.515625 27.296875  Q 5.515625 40.671875 12.859375 48.328125  Q 20.21875 56 33.015625 56  Q 37.15625 56 41.109375 55.140625  Q 45.0625 54.296875 48.78125 52.59375  z " id="DejaVuSans-63"/>
      <path d="M 54.890625 33.015625  L 54.890625 0  L 45.90625 0  L 45.90625 32.71875  Q 45.90625 40.484375 42.875 44.328125  Q 39.84375 48.1875 33.796875 48.1875  Q 26.515625 48.1875 22.3125 43.546875  Q 18.109375 38.921875 18.109375 30.90625  L 18.109375 0  L 9.078125 0  L 9.078125 75.984375  L 18.109375 75.984375  L 18.109375 46.1875  Q 21.34375 51.125 25.703125 53.5625  Q 30.078125 56 35.796875 56  Q 45.21875 56 50.046875 50.171875  Q 54.890625 44.34375 54.890625 33.015625  z " id="DejaVuSans-68"/>
      <path d="M 44.28125 53.078125  L 44.28125 44.578125  Q 40.484375 46.53125 36.375 47.5  Q 32.28125 48.484375 27.875 48.484375  Q 21.1875 48.484375 17.84375 46.4375  Q 14.5 44.390625 14.5 40.28125  Q 14.5 37.15625 16.890625 35.375  Q 19.28125 33.59375 26.515625 31.984375  L 29.59375 31.296875  Q 39.15625 29.25 43.1875 25.515625  Q 47.21875 21.78125 47.21875 15.09375  Q 47.21875 7.46875 41.1875 3.015625  Q 35.15625 -1.421875 24.609375 -1.421875  Q 20.21875 -1.421875 15.453125 -0.5625  Q 10.6875 0.296875 5.421875 2  L 5.421875 11.28125  Q 10.40625 8.6875 15.234375 7.390625  Q 20.0625 6.109375 24.8125 6.109375  Q 31.15625 6.109375 34.5625 8.28125  Q 37.984375 10.453125 37.984375 14.40625  Q 37.984375 18.0625 35.515625 20.015625  Q 33.0625 21.96875 24.703125 23.78125  L 21.578125 24.515625  Q 13.234375 26.265625 9.515625 29.90625  Q 5.8125 33.546875 5.8125 39.890625  Q 5.8125 47.609375 11.28125 51.796875  Q 16.75 56 26.8125 56  Q 31.78125 56 36.171875 55.265625  Q 40.578125 54.546875 44.28125 53.078125  z " id="DejaVuSans-73"/>
     </defs>
     <g transform="translate(131.448281 216.396562)scale(0.1 -0.1)">
      <use xlink:href="#DejaVuSans-23"/>
      <use x="83.789062" xlink:href="#DejaVuSans-20"/>
      <use x="115.576172" xlink:href="#DejaVuSans-65"/>
      <use x="177.099609" xlink:href="#DejaVuSans-70"/>
      <use x="240.576172" xlink:href="#DejaVuSans-6f"/>
      <use x="301.757812" xlink:href="#DejaVuSans-63"/>
      <use x="356.738281" xlink:href="#DejaVuSans-68"/>
      <use x="420.117188" xlink:href="#DejaVuSans-73"/>
     </g>
    </g>
   </g>
   <g id="matplotlib.axis_2">
    <g id="ytick_1">
     <g id="line2d_7">
      <defs>
       <path d="M 0 0  L -3.5 0  " id="m20c76d4990" style="stroke:#000000;stroke-width:0.8;"/>
      </defs>
      <g>
       <use style="stroke:#000000;stroke-width:0.8;" x="33.64" xlink:href="#m20c76d4990" y="176.666186"/>
      </g>
     </g>
     <g id="text_8">
      <!-- 150 -->
      <g transform="translate(7.5525 180.465405)scale(0.1 -0.1)">
       <use xlink:href="#DejaVuSans-31"/>
       <use x="63.623047" xlink:href="#DejaVuSans-35"/>
       <use x="127.246094" xlink:href="#DejaVuSans-30"/>
      </g>
     </g>
    </g>
    <g id="ytick_2">
     <g id="line2d_8">
      <g>
       <use style="stroke:#000000;stroke-width:0.8;" x="33.64" xlink:href="#m20c76d4990" y="138.255485"/>
      </g>
     </g>
     <g id="text_9">
      <!-- 160 -->
      <defs>
       <path d="M 33.015625 40.375  Q 26.375 40.375 22.484375 35.828125  Q 18.609375 31.296875 18.609375 23.390625  Q 18.609375 15.53125 22.484375 10.953125  Q 26.375 6.390625 33.015625 6.390625  Q 39.65625 6.390625 43.53125 10.953125  Q 47.40625 15.53125 47.40625 23.390625  Q 47.40625 31.296875 43.53125 35.828125  Q 39.65625 40.375 33.015625 40.375  z M 52.59375 71.296875  L 52.59375 62.3125  Q 48.875 64.0625 45.09375 64.984375  Q 41.3125 65.921875 37.59375 65.921875  Q 27.828125 65.921875 22.671875 59.328125  Q 17.53125 52.734375 16.796875 39.40625  Q 19.671875 43.65625 24.015625 45.921875  Q 28.375 48.1875 33.59375 48.1875  Q 44.578125 48.1875 50.953125 41.515625  Q 57.328125 34.859375 57.328125 23.390625  Q 57.328125 12.15625 50.6875 5.359375  Q 44.046875 -1.421875 33.015625 -1.421875  Q 20.359375 -1.421875 13.671875 8.265625  Q 6.984375 17.96875 6.984375 36.375  Q 6.984375 53.65625 15.1875 63.9375  Q 23.390625 74.21875 37.203125 74.21875  Q 40.921875 74.21875 44.703125 73.484375  Q 48.484375 72.75 52.59375 71.296875  z " id="DejaVuSans-36"/>
      </defs>
      <g transform="translate(7.5525 142.054704)scale(0.1 -0.1)">
       <use xlink:href="#DejaVuSans-31"/>
       <use x="63.623047" xlink:href="#DejaVuSans-36"/>
       <use x="127.246094" xlink:href="#DejaVuSans-30"/>
      </g>
     </g>
    </g>
    <g id="ytick_3">
     <g id="line2d_9">
      <g>
       <use style="stroke:#000000;stroke-width:0.8;" x="33.64" xlink:href="#m20c76d4990" y="99.844783"/>
      </g>
     </g>
     <g id="text_10">
      <!-- 170 -->
      <defs>
       <path d="M 8.203125 72.90625  L 55.078125 72.90625  L 55.078125 68.703125  L 28.609375 0  L 18.3125 0  L 43.21875 64.59375  L 8.203125 64.59375  z " id="DejaVuSans-37"/>
      </defs>
      <g transform="translate(7.5525 103.644002)scale(0.1 -0.1)">
       <use xlink:href="#DejaVuSans-31"/>
       <use x="63.623047" xlink:href="#DejaVuSans-37"/>
       <use x="127.246094" xlink:href="#DejaVuSans-30"/>
      </g>
     </g>
    </g>
    <g id="ytick_4">
     <g id="line2d_10">
      <g>
       <use style="stroke:#000000;stroke-width:0.8;" x="33.64" xlink:href="#m20c76d4990" y="61.434082"/>
      </g>
     </g>
     <g id="text_11">
      <!-- 180 -->
      <defs>
       <path d="M 31.78125 34.625  Q 24.75 34.625 20.71875 30.859375  Q 16.703125 27.09375 16.703125 20.515625  Q 16.703125 13.921875 20.71875 10.15625  Q 24.75 6.390625 31.78125 6.390625  Q 38.8125 6.390625 42.859375 10.171875  Q 46.921875 13.96875 46.921875 20.515625  Q 46.921875 27.09375 42.890625 30.859375  Q 38.875 34.625 31.78125 34.625  z M 21.921875 38.8125  Q 15.578125 40.375 12.03125 44.71875  Q 8.5 49.078125 8.5 55.328125  Q 8.5 64.0625 14.71875 69.140625  Q 20.953125 74.21875 31.78125 74.21875  Q 42.671875 74.21875 48.875 69.140625  Q 55.078125 64.0625 55.078125 55.328125  Q 55.078125 49.078125 51.53125 44.71875  Q 48 40.375 41.703125 38.8125  Q 48.828125 37.15625 52.796875 32.3125  Q 56.78125 27.484375 56.78125 20.515625  Q 56.78125 9.90625 50.3125 4.234375  Q 43.84375 -1.421875 31.78125 -1.421875  Q 19.734375 -1.421875 13.25 4.234375  Q 6.78125 9.90625 6.78125 20.515625  Q 6.78125 27.484375 10.78125 32.3125  Q 14.796875 37.15625 21.921875 38.8125  z M 18.3125 54.390625  Q 18.3125 48.734375 21.84375 45.5625  Q 25.390625 42.390625 31.78125 42.390625  Q 38.140625 42.390625 41.71875 45.5625  Q 45.3125 48.734375 45.3125 54.390625  Q 45.3125 60.0625 41.71875 63.234375  Q 38.140625 66.40625 31.78125 66.40625  Q 25.390625 66.40625 21.84375 63.234375  Q 18.3125 60.0625 18.3125 54.390625  z " id="DejaVuSans-38"/>
      </defs>
      <g transform="translate(7.5525 65.233301)scale(0.1 -0.1)">
       <use xlink:href="#DejaVuSans-31"/>
       <use x="63.623047" xlink:href="#DejaVuSans-38"/>
       <use x="127.246094" xlink:href="#DejaVuSans-30"/>
      </g>
     </g>
    </g>
    <g id="ytick_5">
     <g id="line2d_11">
      <g>
       <use style="stroke:#000000;stroke-width:0.8;" x="33.64" xlink:href="#m20c76d4990" y="23.02338"/>
      </g>
     </g>
     <g id="text_12">
      <!-- 190 -->
      <defs>
       <path d="M 10.984375 1.515625  L 10.984375 10.5  Q 14.703125 8.734375 18.5 7.8125  Q 22.3125 6.890625 25.984375 6.890625  Q 35.75 6.890625 40.890625 13.453125  Q 46.046875 20.015625 46.78125 33.40625  Q 43.953125 29.203125 39.59375 26.953125  Q 35.25 24.703125 29.984375 24.703125  Q 19.046875 24.703125 12.671875 31.3125  Q 6.296875 37.9375 6.296875 49.421875  Q 6.296875 60.640625 12.9375 67.421875  Q 19.578125 74.21875 30.609375 74.21875  Q 43.265625 74.21875 49.921875 64.515625  Q 56.59375 54.828125 56.59375 36.375  Q 56.59375 19.140625 48.40625 8.859375  Q 40.234375 -1.421875 26.421875 -1.421875  Q 22.703125 -1.421875 18.890625 -0.6875  Q 15.09375 0.046875 10.984375 1.515625  z M 30.609375 32.421875  Q 37.25 32.421875 41.125 36.953125  Q 45.015625 41.5 45.015625 49.421875  Q 45.015625 57.28125 41.125 61.84375  Q 37.25 66.40625 30.609375 66.40625  Q 23.96875 66.40625 20.09375 61.84375  Q 16.21875 57.28125 16.21875 49.421875  Q 16.21875 41.5 20.09375 36.953125  Q 23.96875 32.421875 30.609375 32.421875  z " id="DejaVuSans-39"/>
      </defs>
      <g transform="translate(7.5525 26.822599)scale(0.1 -0.1)">
       <use xlink:href="#DejaVuSans-31"/>
       <use x="63.623047" xlink:href="#DejaVuSans-39"/>
       <use x="127.246094" xlink:href="#DejaVuSans-30"/>
      </g>
     </g>
    </g>
    <g id="text_13">
     <!-- NELBO -->
     <defs>
      <path d="M 9.8125 72.90625  L 23.09375 72.90625  L 55.421875 11.921875  L 55.421875 72.90625  L 64.984375 72.90625  L 64.984375 0  L 51.703125 0  L 19.390625 60.984375  L 19.390625 0  L 9.8125 0  z " id="DejaVuSans-4e"/>
      <path d="M 9.8125 72.90625  L 55.90625 72.90625  L 55.90625 64.59375  L 19.671875 64.59375  L 19.671875 43.015625  L 54.390625 43.015625  L 54.390625 34.71875  L 19.671875 34.71875  L 19.671875 8.296875  L 56.78125 8.296875  L 56.78125 0  L 9.8125 0  z " id="DejaVuSans-45"/>
      <path d="M 9.8125 72.90625  L 19.671875 72.90625  L 19.671875 8.296875  L 55.171875 8.296875  L 55.171875 0  L 9.8125 0  z " id="DejaVuSans-4c"/>
      <path d="M 19.671875 34.8125  L 19.671875 8.109375  L 35.5 8.109375  Q 43.453125 8.109375 47.28125 11.40625  Q 51.125 14.703125 51.125 21.484375  Q 51.125 28.328125 47.28125 31.5625  Q 43.453125 34.8125 35.5 34.8125  z M 19.671875 64.796875  L 19.671875 42.828125  L 34.28125 42.828125  Q 41.5 42.828125 45.03125 45.53125  Q 48.578125 48.25 48.578125 53.8125  Q 48.578125 59.328125 45.03125 62.0625  Q 41.5 64.796875 34.28125 64.796875  z M 9.8125 72.90625  L 35.015625 72.90625  Q 46.296875 72.90625 52.390625 68.21875  Q 58.5 63.53125 58.5 54.890625  Q 58.5 48.1875 55.375 44.234375  Q 52.25 40.28125 46.1875 39.3125  Q 53.46875 37.75 57.5 32.78125  Q 61.53125 27.828125 61.53125 20.40625  Q 61.53125 10.640625 54.890625 5.3125  Q 48.25 0 35.984375 0  L 9.8125 0  z " id="DejaVuSans-42"/>
      <path d="M 39.40625 66.21875  Q 28.65625 66.21875 22.328125 58.203125  Q 16.015625 50.203125 16.015625 36.375  Q 16.015625 22.609375 22.328125 14.59375  Q 28.65625 6.59375 39.40625 6.59375  Q 50.140625 6.59375 56.421875 14.59375  Q 62.703125 22.609375 62.703125 36.375  Q 62.703125 50.203125 56.421875 58.203125  Q 50.140625 66.21875 39.40625 66.21875  z M 39.40625 74.21875  Q 54.734375 74.21875 63.90625 63.9375  Q 73.09375 53.65625 73.09375 36.375  Q 73.09375 19.140625 63.90625 8.859375  Q 54.734375 -1.421875 39.40625 -1.421875  Q 24.03125 -1.421875 14.8125 8.828125  Q 5.609375 19.09375 5.609375 36.375  Q 5.609375 53.65625 14.8125 63.9375  Q 24.03125 74.21875 39.40625 74.21875  z " id="DejaVuSans-4f"/>
     </defs>
     <g transform="translate(1.472813 118.491563)rotate(-90)scale(0.1 -0.1)">
      <use xlink:href="#DejaVuSans-4e"/>
      <use x="74.804688" xlink:href="#DejaVuSans-45"/>
      <use x="137.988281" xlink:href="#DejaVuSans-4c"/>
      <use x="193.701172" xlink:href="#DejaVuSans-42"/>
      <use x="262.289062" xlink:href="#DejaVuSans-4f"/>
     </g>
    </g>
   </g>
   <g id="line2d_12">
    <path clip-path="url(#p76483e49a0)" d="M 44.678182 26.715611  L 49.183562 103.556546  L 53.688942 116.426835  L 58.194323 124.987332  L 62.699703 132.060427  L 67.205083 137.75646  L 71.710464 142.173016  L 76.215844 145.535215  L 80.721224 148.381578  L 85.226605 150.59911  L 89.731985 152.613505  L 94.237365 154.399522  L 98.742746 155.902003  L 103.248126 157.225043  L 107.753506 158.561799  L 112.258887 159.612059  L 116.764267 160.713518  L 121.269647 161.647047  L 125.775028 162.557691  L 130.280408 163.346129  L 134.785788 164.069981  L 139.291169 164.90557  L 143.796549 165.534503  L 148.301929 166.234656  L 152.80731 166.705482  L 157.31269 167.405318  L 161.818071 167.965103  L 166.323451 168.565206  L 170.828831 169.015513  L 175.334212 169.436293  L 179.839592 169.976677  L 184.344972 170.432629  L 188.850353 170.861656  L 193.355733 171.236962  L 197.861113 171.66131  L 202.366494 172.162621  L 206.871874 172.476576  L 211.377254 173.101122  L 215.882635 173.377374  L 220.388015 173.772121  L 224.893395 174.171939  L 229.398776 174.476652  L 233.904156 174.845868  L 238.409536 175.179306  L 242.914917 175.58413  L 247.420297 175.92607  L 251.925677 176.200792  L 256.431058 176.69485  L 260.936438 176.831888  L 265.441818 177.153418  " style="fill:none;stroke:#1f77b4;stroke-linecap:square;stroke-width:1.5;"/>
   </g>
   <g id="line2d_13">
    <path clip-path="url(#p76483e49a0)" d="M 44.678182 22.286599  L 49.183562 101.593861  L 53.688942 114.186382  L 58.194323 122.557164  L 62.699703 128.600039  L 67.205083 133.207101  L 71.710464 137.381589  L 76.215844 141.341174  L 80.721224 145.176047  L 85.226605 148.503914  L 89.731985 151.475043  L 94.237365 153.944604  L 98.742746 156.165732  L 103.248126 158.015998  L 107.753506 159.690112  L 112.258887 161.14429  L 116.764267 162.519557  L 121.269647 163.725017  L 125.775028 164.855486  L 130.280408 165.877214  L 134.785788 166.856794  L 139.291169 167.838392  L 143.796549 168.632634  L 148.301929 169.503564  L 152.80731 170.254061  L 157.31269 170.933066  L 161.818071 171.566985  L 166.323451 172.306477  L 170.828831 172.7644  L 175.334212 173.500353  L 179.839592 174.001989  L 184.344972 174.601111  L 188.850353 175.09329  L 193.355733 175.609566  L 197.861113 176.059658  L 202.366494 176.545532  L 206.871874 177.038823  L 211.377254 177.541892  L 215.882635 177.891951  L 220.388015 178.251672  L 224.893395 178.790436  L 229.398776 179.043434  L 233.904156 179.485034  L 238.409536 179.920395  L 242.914917 180.157592  L 247.420297 180.571705  L 251.925677 180.949284  L 256.431058 181.313296  L 260.936438 181.68632  L 265.441818 181.967123  " style="fill:none;stroke:#ff7f0e;stroke-linecap:square;stroke-width:1.5;"/>
   </g>
   <g id="line2d_14">
    <path clip-path="url(#p76483e49a0)" d="M 44.678182 22.067591  L 49.183562 102.461739  L 53.688942 114.200611  L 58.194323 122.280966  L 62.699703 128.137965  L 67.205083 133.001016  L 71.710464 137.422786  L 76.215844 141.558254  L 80.721224 145.48095  L 85.226605 148.857992  L 89.731985 151.669697  L 94.237365 154.122554  L 98.742746 156.134297  L 103.248126 157.992472  L 107.753506 159.538047  L 112.258887 161.024289  L 116.764267 162.281567  L 121.269647 163.509894  L 125.775028 164.648648  L 130.280408 165.671986  L 134.785788 166.648776  L 139.291169 167.465349  L 143.796549 168.314252  L 148.301929 169.079461  L 152.80731 169.966289  L 157.31269 170.604368  L 161.818071 171.29263  L 166.323451 171.881086  L 170.828831 172.480881  L 175.334212 173.03708  L 179.839592 173.630745  L 184.344972 174.144421  L 188.850353 174.573825  L 193.355733 175.207331  L 197.861113 175.676484  L 202.366494 176.100231  L 206.871874 176.548592  L 211.377254 177.049233  L 215.882635 177.518341  L 220.388015 177.899087  L 224.893395 178.294077  L 229.398776 178.71594  L 233.904156 179.014393  L 238.409536 179.505318  L 242.914917 179.761417  L 247.420297 180.208582  L 251.925677 180.555402  L 256.431058 180.908031  L 260.936438 181.174892  L 265.441818 181.498095  " style="fill:none;stroke:#2ca02c;stroke-linecap:square;stroke-width:1.5;"/>
   </g>
   <g id="patch_3">
    <path d="M 33.64 188.12  L 33.64 14.76  " style="fill:none;stroke:#000000;stroke-linecap:square;stroke-linejoin:miter;stroke-width:0.8;"/>
   </g>
   <g id="patch_4">
    <path d="M 276.48 188.12  L 276.48 14.76  " style="fill:none;stroke:#000000;stroke-linecap:square;stroke-linejoin:miter;stroke-width:0.8;"/>
   </g>
   <g id="patch_5">
    <path d="M 33.64 188.12  L 276.48 188.12  " style="fill:none;stroke:#000000;stroke-linecap:square;stroke-linejoin:miter;stroke-width:0.8;"/>
   </g>
   <g id="patch_6">
    <path d="M 33.64 14.76  L 276.48 14.76  " style="fill:none;stroke:#000000;stroke-linecap:square;stroke-linejoin:miter;stroke-width:0.8;"/>
   </g>
   <g id="text_14">
    <!-- Batch size: 100 -->
    <defs>
     <path d="M 34.28125 27.484375  Q 23.390625 27.484375 19.1875 25  Q 14.984375 22.515625 14.984375 16.5  Q 14.984375 11.71875 18.140625 8.90625  Q 21.296875 6.109375 26.703125 6.109375  Q 34.1875 6.109375 38.703125 11.40625  Q 43.21875 16.703125 43.21875 25.484375  L 43.21875 27.484375  z M 52.203125 31.203125  L 52.203125 0  L 43.21875 0  L 43.21875 8.296875  Q 40.140625 3.328125 35.546875 0.953125  Q 30.953125 -1.421875 24.3125 -1.421875  Q 15.921875 -1.421875 10.953125 3.296875  Q 6 8.015625 6 15.921875  Q 6 25.140625 12.171875 29.828125  Q 18.359375 34.515625 30.609375 34.515625  L 43.21875 34.515625  L 43.21875 35.40625  Q 43.21875 41.609375 39.140625 45  Q 35.0625 48.390625 27.6875 48.390625  Q 23 48.390625 18.546875 47.265625  Q 14.109375 46.140625 10.015625 43.890625  L 10.015625 52.203125  Q 14.9375 54.109375 19.578125 55.046875  Q 24.21875 56 28.609375 56  Q 40.484375 56 46.34375 49.84375  Q 52.203125 43.703125 52.203125 31.203125  z " id="DejaVuSans-61"/>
     <path d="M 18.3125 70.21875  L 18.3125 54.6875  L 36.8125 54.6875  L 36.8125 47.703125  L 18.3125 47.703125  L 18.3125 18.015625  Q 18.3125 11.328125 20.140625 9.421875  Q 21.96875 7.515625 27.59375 7.515625  L 36.8125 7.515625  L 36.8125 0  L 27.59375 0  Q 17.1875 0 13.234375 3.875  Q 9.28125 7.765625 9.28125 18.015625  L 9.28125 47.703125  L 2.6875 47.703125  L 2.6875 54.6875  L 9.28125 54.6875  L 9.28125 70.21875  z " id="DejaVuSans-74"/>
     <path d="M 9.421875 54.6875  L 18.40625 54.6875  L 18.40625 0  L 9.421875 0  z M 9.421875 75.984375  L 18.40625 75.984375  L 18.40625 64.59375  L 9.421875 64.59375  z " id="DejaVuSans-69"/>
     <path d="M 5.515625 54.6875  L 48.1875 54.6875  L 48.1875 46.484375  L 14.40625 7.171875  L 48.1875 7.171875  L 48.1875 0  L 4.296875 0  L 4.296875 8.203125  L 38.09375 47.515625  L 5.515625 47.515625  z " id="DejaVuSans-7a"/>
     <path d="M 11.71875 12.40625  L 22.015625 12.40625  L 22.015625 0  L 11.71875 0  z M 11.71875 51.703125  L 22.015625 51.703125  L 22.015625 39.3125  L 11.71875 39.3125  z " id="DejaVuSans-3a"/>
    </defs>
    <g transform="translate(108.891875 8.76)scale(0.12 -0.12)">
     <use xlink:href="#DejaVuSans-42"/>
     <use x="68.603516" xlink:href="#DejaVuSans-61"/>
     <use x="129.882812" xlink:href="#DejaVuSans-74"/>
     <use x="169.091797" xlink:href="#DejaVuSans-63"/>
     <use x="224.072266" xlink:href="#DejaVuSans-68"/>
     <use x="287.451172" xlink:href="#DejaVuSans-20"/>
     <use x="319.238281" xlink:href="#DejaVuSans-73"/>
     <use x="371.337891" xlink:href="#DejaVuSans-69"/>
     <use x="399.121094" xlink:href="#DejaVuSans-7a"/>
     <use x="451.611328" xlink:href="#DejaVuSans-65"/>
     <use x="513.134766" xlink:href="#DejaVuSans-3a"/>
     <use x="546.826172" xlink:href="#DejaVuSans-20"/>
     <use x="578.613281" xlink:href="#DejaVuSans-31"/>
     <use x="642.236328" xlink:href="#DejaVuSans-30"/>
     <use x="705.859375" xlink:href="#DejaVuSans-30"/>
    </g>
   </g>
   <g id="legend_1">
    <g id="patch_7">
     <path d="M 157.851875 66.794375  L 269.48 66.794375  Q 271.48 66.794375 271.48 64.794375  L 271.48 21.76  Q 271.48 19.76 269.48 19.76  L 157.851875 19.76  Q 155.851875 19.76 155.851875 21.76  L 155.851875 64.794375  Q 155.851875 66.794375 157.851875 66.794375  z " style="fill:#ffffff;opacity:0.8;stroke:#cccccc;stroke-linejoin:miter;"/>
    </g>
    <g id="line2d_15">
     <path d="M 159.851875 27.858438  L 179.851875 27.858438  " style="fill:none;stroke:#1f77b4;stroke-linecap:square;stroke-width:1.5;"/>
    </g>
    <g id="line2d_16"/>
    <g id="text_15">
     <!-- MC samples: 1 -->
     <defs>
      <path d="M 9.8125 72.90625  L 24.515625 72.90625  L 43.109375 23.296875  L 61.8125 72.90625  L 76.515625 72.90625  L 76.515625 0  L 66.890625 0  L 66.890625 64.015625  L 48.09375 14.015625  L 38.1875 14.015625  L 19.390625 64.015625  L 19.390625 0  L 9.8125 0  z " id="DejaVuSans-4d"/>
      <path d="M 64.40625 67.28125  L 64.40625 56.890625  Q 59.421875 61.53125 53.78125 63.8125  Q 48.140625 66.109375 41.796875 66.109375  Q 29.296875 66.109375 22.65625 58.46875  Q 16.015625 50.828125 16.015625 36.375  Q 16.015625 21.96875 22.65625 14.328125  Q 29.296875 6.6875 41.796875 6.6875  Q 48.140625 6.6875 53.78125 8.984375  Q 59.421875 11.28125 64.40625 15.921875  L 64.40625 5.609375  Q 59.234375 2.09375 53.4375 0.328125  Q 47.65625 -1.421875 41.21875 -1.421875  Q 24.65625 -1.421875 15.125 8.703125  Q 5.609375 18.84375 5.609375 36.375  Q 5.609375 53.953125 15.125 64.078125  Q 24.65625 74.21875 41.21875 74.21875  Q 47.75 74.21875 53.53125 72.484375  Q 59.328125 70.75 64.40625 67.28125  z " id="DejaVuSans-43"/>
      <path d="M 52 44.1875  Q 55.375 50.25 60.0625 53.125  Q 64.75 56 71.09375 56  Q 79.640625 56 84.28125 50.015625  Q 88.921875 44.046875 88.921875 33.015625  L 88.921875 0  L 79.890625 0  L 79.890625 32.71875  Q 79.890625 40.578125 77.09375 44.375  Q 74.3125 48.1875 68.609375 48.1875  Q 61.625 48.1875 57.5625 43.546875  Q 53.515625 38.921875 53.515625 30.90625  L 53.515625 0  L 44.484375 0  L 44.484375 32.71875  Q 44.484375 40.625 41.703125 44.40625  Q 38.921875 48.1875 33.109375 48.1875  Q 26.21875 48.1875 22.15625 43.53125  Q 18.109375 38.875 18.109375 30.90625  L 18.109375 0  L 9.078125 0  L 9.078125 54.6875  L 18.109375 54.6875  L 18.109375 46.1875  Q 21.1875 51.21875 25.484375 53.609375  Q 29.78125 56 35.6875 56  Q 41.65625 56 45.828125 52.96875  Q 50 49.953125 52 44.1875  z " id="DejaVuSans-6d"/>
      <path d="M 9.421875 75.984375  L 18.40625 75.984375  L 18.40625 0  L 9.421875 0  z " id="DejaVuSans-6c"/>
     </defs>
     <g transform="translate(187.851875 31.358438)scale(0.1 -0.1)">
      <use xlink:href="#DejaVuSans-4d"/>
      <use x="86.279297" xlink:href="#DejaVuSans-43"/>
      <use x="156.103516" xlink:href="#DejaVuSans-20"/>
      <use x="187.890625" xlink:href="#DejaVuSans-73"/>
      <use x="239.990234" xlink:href="#DejaVuSans-61"/>
      <use x="301.269531" xlink:href="#DejaVuSans-6d"/>
      <use x="398.681641" xlink:href="#DejaVuSans-70"/>
      <use x="462.158203" xlink:href="#DejaVuSans-6c"/>
      <use x="489.941406" xlink:href="#DejaVuSans-65"/>
      <use x="551.464844" xlink:href="#DejaVuSans-73"/>
      <use x="603.564453" xlink:href="#DejaVuSans-3a"/>
      <use x="637.255859" xlink:href="#DejaVuSans-20"/>
      <use x="669.042969" xlink:href="#DejaVuSans-31"/>
     </g>
    </g>
    <g id="line2d_17">
     <path d="M 159.851875 42.536563  L 179.851875 42.536563  " style="fill:none;stroke:#ff7f0e;stroke-linecap:square;stroke-width:1.5;"/>
    </g>
    <g id="line2d_18"/>
    <g id="text_16">
     <!-- MC samples: 5 -->
     <g transform="translate(187.851875 46.036563)scale(0.1 -0.1)">
      <use xlink:href="#DejaVuSans-4d"/>
      <use x="86.279297" xlink:href="#DejaVuSans-43"/>
      <use x="156.103516" xlink:href="#DejaVuSans-20"/>
      <use x="187.890625" xlink:href="#DejaVuSans-73"/>
      <use x="239.990234" xlink:href="#DejaVuSans-61"/>
      <use x="301.269531" xlink:href="#DejaVuSans-6d"/>
      <use x="398.681641" xlink:href="#DejaVuSans-70"/>
      <use x="462.158203" xlink:href="#DejaVuSans-6c"/>
      <use x="489.941406" xlink:href="#DejaVuSans-65"/>
      <use x="551.464844" xlink:href="#DejaVuSans-73"/>
      <use x="603.564453" xlink:href="#DejaVuSans-3a"/>
      <use x="637.255859" xlink:href="#DejaVuSans-20"/>
      <use x="669.042969" xlink:href="#DejaVuSans-35"/>
     </g>
    </g>
    <g id="line2d_19">
     <path d="M 159.851875 57.214688  L 179.851875 57.214688  " style="fill:none;stroke:#2ca02c;stroke-linecap:square;stroke-width:1.5;"/>
    </g>
    <g id="line2d_20"/>
    <g id="text_17">
     <!-- MC samples: 25 -->
     <g transform="translate(187.851875 60.714688)scale(0.1 -0.1)">
      <use xlink:href="#DejaVuSans-4d"/>
      <use x="86.279297" xlink:href="#DejaVuSans-43"/>
      <use x="156.103516" xlink:href="#DejaVuSans-20"/>
      <use x="187.890625" xlink:href="#DejaVuSans-73"/>
      <use x="239.990234" xlink:href="#DejaVuSans-61"/>
      <use x="301.269531" xlink:href="#DejaVuSans-6d"/>
      <use x="398.681641" xlink:href="#DejaVuSans-70"/>
      <use x="462.158203" xlink:href="#DejaVuSans-6c"/>
      <use x="489.941406" xlink:href="#DejaVuSans-65"/>
      <use x="551.464844" xlink:href="#DejaVuSans-73"/>
      <use x="603.564453" xlink:href="#DejaVuSans-3a"/>
      <use x="637.255859" xlink:href="#DejaVuSans-20"/>
      <use x="669.042969" xlink:href="#DejaVuSans-32"/>
      <use x="732.666016" xlink:href="#DejaVuSans-35"/>
     </g>
    </g>
   </g>
  </g>
  <g id="axes_2">
   <g id="patch_8">
    <path d="M 318.04 188.12  L 560.88 188.12  L 560.88 14.76  L 318.04 14.76  z " style="fill:#ffffff;"/>
   </g>
   <g id="matplotlib.axis_3">
    <g id="xtick_7">
     <g id="line2d_21">
      <g>
       <use style="stroke:#000000;stroke-width:0.8;" x="329.078182" xlink:href="#m94e1567e7c" y="188.12"/>
      </g>
     </g>
     <g id="text_18">
      <!-- 0 -->
      <g transform="translate(325.896932 202.718437)scale(0.1 -0.1)">
       <use xlink:href="#DejaVuSans-30"/>
      </g>
     </g>
    </g>
    <g id="xtick_8">
     <g id="line2d_22">
      <g>
       <use style="stroke:#000000;stroke-width:0.8;" x="374.131985" xlink:href="#m94e1567e7c" y="188.12"/>
      </g>
     </g>
     <g id="text_19">
      <!-- 10 -->
      <g transform="translate(367.769485 202.718437)scale(0.1 -0.1)">
       <use xlink:href="#DejaVuSans-31"/>
       <use x="63.623047" xlink:href="#DejaVuSans-30"/>
      </g>
     </g>
    </g>
    <g id="xtick_9">
     <g id="line2d_23">
      <g>
       <use style="stroke:#000000;stroke-width:0.8;" x="419.185788" xlink:href="#m94e1567e7c" y="188.12"/>
      </g>
     </g>
     <g id="text_20">
      <!-- 20 -->
      <g transform="translate(412.823288 202.718437)scale(0.1 -0.1)">
       <use xlink:href="#DejaVuSans-32"/>
       <use x="63.623047" xlink:href="#DejaVuSans-30"/>
      </g>
     </g>
    </g>
    <g id="xtick_10">
     <g id="line2d_24">
      <g>
       <use style="stroke:#000000;stroke-width:0.8;" x="464.239592" xlink:href="#m94e1567e7c" y="188.12"/>
      </g>
     </g>
     <g id="text_21">
      <!-- 30 -->
      <g transform="translate(457.877092 202.718437)scale(0.1 -0.1)">
       <use xlink:href="#DejaVuSans-33"/>
       <use x="63.623047" xlink:href="#DejaVuSans-30"/>
      </g>
     </g>
    </g>
    <g id="xtick_11">
     <g id="line2d_25">
      <g>
       <use style="stroke:#000000;stroke-width:0.8;" x="509.293395" xlink:href="#m94e1567e7c" y="188.12"/>
      </g>
     </g>
     <g id="text_22">
      <!-- 40 -->
      <g transform="translate(502.930895 202.718437)scale(0.1 -0.1)">
       <use xlink:href="#DejaVuSans-34"/>
       <use x="63.623047" xlink:href="#DejaVuSans-30"/>
      </g>
     </g>
    </g>
    <g id="xtick_12">
     <g id="line2d_26">
      <g>
       <use style="stroke:#000000;stroke-width:0.8;" x="554.347199" xlink:href="#m94e1567e7c" y="188.12"/>
      </g>
     </g>
     <g id="text_23">
      <!-- 50 -->
      <g transform="translate(547.984699 202.718437)scale(0.1 -0.1)">
       <use xlink:href="#DejaVuSans-35"/>
       <use x="63.623047" xlink:href="#DejaVuSans-30"/>
      </g>
     </g>
    </g>
    <g id="text_24">
     <!-- # epochs -->
     <g transform="translate(415.848281 216.396562)scale(0.1 -0.1)">
      <use xlink:href="#DejaVuSans-23"/>
      <use x="83.789062" xlink:href="#DejaVuSans-20"/>
      <use x="115.576172" xlink:href="#DejaVuSans-65"/>
      <use x="177.099609" xlink:href="#DejaVuSans-70"/>
      <use x="240.576172" xlink:href="#DejaVuSans-6f"/>
      <use x="301.757812" xlink:href="#DejaVuSans-63"/>
      <use x="356.738281" xlink:href="#DejaVuSans-68"/>
      <use x="420.117188" xlink:href="#DejaVuSans-73"/>
     </g>
    </g>
   </g>
   <g id="matplotlib.axis_4">
    <g id="ytick_6">
     <g id="line2d_27">
      <g>
       <use style="stroke:#000000;stroke-width:0.8;" x="318.04" xlink:href="#m20c76d4990" y="176.666186"/>
      </g>
     </g>
     <g id="text_25">
      <!-- 150 -->
      <g transform="translate(291.9525 180.465405)scale(0.1 -0.1)">
       <use xlink:href="#DejaVuSans-31"/>
       <use x="63.623047" xlink:href="#DejaVuSans-35"/>
       <use x="127.246094" xlink:href="#DejaVuSans-30"/>
      </g>
     </g>
    </g>
    <g id="ytick_7">
     <g id="line2d_28">
      <g>
       <use style="stroke:#000000;stroke-width:0.8;" x="318.04" xlink:href="#m20c76d4990" y="138.255485"/>
      </g>
     </g>
     <g id="text_26">
      <!-- 160 -->
      <g transform="translate(291.9525 142.054704)scale(0.1 -0.1)">
       <use xlink:href="#DejaVuSans-31"/>
       <use x="63.623047" xlink:href="#DejaVuSans-36"/>
       <use x="127.246094" xlink:href="#DejaVuSans-30"/>
      </g>
     </g>
    </g>
    <g id="ytick_8">
     <g id="line2d_29">
      <g>
       <use style="stroke:#000000;stroke-width:0.8;" x="318.04" xlink:href="#m20c76d4990" y="99.844783"/>
      </g>
     </g>
     <g id="text_27">
      <!-- 170 -->
      <g transform="translate(291.9525 103.644002)scale(0.1 -0.1)">
       <use xlink:href="#DejaVuSans-31"/>
       <use x="63.623047" xlink:href="#DejaVuSans-37"/>
       <use x="127.246094" xlink:href="#DejaVuSans-30"/>
      </g>
     </g>
    </g>
    <g id="ytick_9">
     <g id="line2d_30">
      <g>
       <use style="stroke:#000000;stroke-width:0.8;" x="318.04" xlink:href="#m20c76d4990" y="61.434082"/>
      </g>
     </g>
     <g id="text_28">
      <!-- 180 -->
      <g transform="translate(291.9525 65.233301)scale(0.1 -0.1)">
       <use xlink:href="#DejaVuSans-31"/>
       <use x="63.623047" xlink:href="#DejaVuSans-38"/>
       <use x="127.246094" xlink:href="#DejaVuSans-30"/>
      </g>
     </g>
    </g>
    <g id="ytick_10">
     <g id="line2d_31">
      <g>
       <use style="stroke:#000000;stroke-width:0.8;" x="318.04" xlink:href="#m20c76d4990" y="23.02338"/>
      </g>
     </g>
     <g id="text_29">
      <!-- 190 -->
      <g transform="translate(291.9525 26.822599)scale(0.1 -0.1)">
       <use xlink:href="#DejaVuSans-31"/>
       <use x="63.623047" xlink:href="#DejaVuSans-39"/>
       <use x="127.246094" xlink:href="#DejaVuSans-30"/>
      </g>
     </g>
    </g>
    <g id="text_30">
     <!-- NELBO -->
     <g transform="translate(285.872813 118.491563)rotate(-90)scale(0.1 -0.1)">
      <use xlink:href="#DejaVuSans-4e"/>
      <use x="74.804688" xlink:href="#DejaVuSans-45"/>
      <use x="137.988281" xlink:href="#DejaVuSans-4c"/>
      <use x="193.701172" xlink:href="#DejaVuSans-42"/>
      <use x="262.289062" xlink:href="#DejaVuSans-4f"/>
     </g>
    </g>
   </g>
   <g id="line2d_32">
    <path clip-path="url(#p121fda6f2f)" d="M 329.078182 44.317148  L 333.583562 107.522171  L 338.088942 118.721887  L 342.594323 125.726025  L 347.099703 131.622023  L 351.605083 136.93694  L 356.110464 141.648528  L 360.615844 145.665626  L 365.121224 148.830732  L 369.626605 151.436082  L 374.131985 153.627588  L 378.637365 155.5501  L 383.142746 157.361168  L 387.648126 158.873118  L 392.153506 160.221618  L 396.658887 161.594289  L 401.164267 162.769667  L 405.669647 163.929667  L 410.175028 164.861211  L 414.680408 165.857957  L 419.185788 166.64427  L 423.691169 167.442384  L 428.196549 168.150808  L 432.701929 168.880317  L 437.20731 169.626701  L 441.71269 170.095976  L 446.218071 170.764468  L 450.723451 171.323488  L 455.228831 171.844162  L 459.734212 172.364129  L 464.239592 172.901386  L 468.744972 173.3312  L 473.250353 173.66465  L 477.755733 174.17302  L 482.261113 174.607762  L 486.766494 174.914831  L 491.271874 175.38473  L 495.777254 175.779188  L 500.282635 176.109762  L 504.788015 176.578278  L 509.293395 176.74731  L 513.798776 177.341274  L 518.304156 177.512185  L 522.809536 177.933143  L 527.314917 178.374067  L 531.820297 178.702915  L 536.325677 179.097168  L 540.831058 179.550995  L 545.336438 179.722388  L 549.841818 180.118647  " style="fill:none;stroke:#1f77b4;stroke-linecap:square;stroke-width:1.5;"/>
   </g>
   <g id="line2d_33">
    <path clip-path="url(#p121fda6f2f)" d="M 329.078182 42.309284  L 333.583562 104.289149  L 338.088942 121.146882  L 342.594323 130.728407  L 347.099703 137.771032  L 351.605083 142.974728  L 356.110464 146.996004  L 360.615844 150.158333  L 365.121224 152.677124  L 369.626605 154.837795  L 374.131985 156.731025  L 378.637365 158.48502  L 383.142746 159.996294  L 387.648126 161.451  L 392.153506 162.62547  L 396.658887 163.81948  L 401.164267 164.830741  L 405.669647 165.916027  L 410.175028 166.875314  L 414.680408 167.746518  L 419.185788 168.648887  L 423.691169 169.395281  L 428.196549 170.269821  L 432.701929 170.933091  L 437.20731 171.506677  L 441.71269 172.231944  L 446.218071 172.877555  L 450.723451 173.503324  L 455.228831 173.915044  L 459.734212 174.604292  L 464.239592 175.094549  L 468.744972 175.661158  L 473.250353 176.144358  L 477.755733 176.545935  L 482.261113 176.97403  L 486.766494 177.421129  L 491.271874 177.914618  L 495.777254 178.240304  L 500.282635 178.74821  L 504.788015 179.081087  L 509.293395 179.491301  L 513.798776 179.829948  L 518.304156 180.198825  L 522.809536 180.61191  L 527.314917 180.893175  L 531.820297 181.20224  L 536.325677 181.571907  L 540.831058 181.848195  L 545.336438 182.169808  L 549.841818 182.415892  " style="fill:none;stroke:#ff7f0e;stroke-linecap:square;stroke-width:1.5;"/>
   </g>
   <g id="line2d_34">
    <path clip-path="url(#p121fda6f2f)" d="M 329.078182 41.874037  L 333.583562 111.327337  L 338.088942 125.007841  L 342.594323 131.446473  L 347.099703 135.90141  L 351.605083 139.493686  L 356.110464 142.464595  L 360.615844 145.153099  L 365.121224 147.602848  L 369.626605 149.885118  L 374.131985 151.688034  L 378.637365 153.41541  L 383.142746 155.15207  L 387.648126 156.536699  L 392.153506 157.841124  L 396.658887 159.091492  L 401.164267 160.135771  L 405.669647 161.267437  L 410.175028 162.198325  L 414.680408 163.12256  L 419.185788 163.902798  L 423.691169 164.860948  L 428.196549 165.61292  L 432.701929 166.230805  L 437.20731 166.924159  L 441.71269 167.599053  L 446.218071 168.294485  L 450.723451 168.920296  L 455.228831 169.476031  L 459.734212 169.971406  L 464.239592 170.507373  L 468.744972 171.03307  L 473.250353 171.672933  L 477.755733 172.068961  L 482.261113 172.492035  L 486.766494 173.049421  L 491.271874 173.509017  L 495.777254 173.939733  L 500.282635 174.403777  L 504.788015 174.900553  L 509.293395 175.259217  L 513.798776 175.745875  L 518.304156 176.139667  L 522.809536 176.556935  L 527.314917 176.963921  L 531.820297 177.369627  L 536.325677 177.684574  L 540.831058 178.194064  L 545.336438 178.416904  L 549.841818 178.835888  " style="fill:none;stroke:#2ca02c;stroke-linecap:square;stroke-width:1.5;"/>
   </g>
   <g id="patch_9">
    <path d="M 318.04 188.12  L 318.04 14.76  " style="fill:none;stroke:#000000;stroke-linecap:square;stroke-linejoin:miter;stroke-width:0.8;"/>
   </g>
   <g id="patch_10">
    <path d="M 560.88 188.12  L 560.88 14.76  " style="fill:none;stroke:#000000;stroke-linecap:square;stroke-linejoin:miter;stroke-width:0.8;"/>
   </g>
   <g id="patch_11">
    <path d="M 318.04 188.12  L 560.88 188.12  " style="fill:none;stroke:#000000;stroke-linecap:square;stroke-linejoin:miter;stroke-width:0.8;"/>
   </g>
   <g id="patch_12">
    <path d="M 318.04 14.76  L 560.88 14.76  " style="fill:none;stroke:#000000;stroke-linecap:square;stroke-linejoin:miter;stroke-width:0.8;"/>
   </g>
   <g id="text_31">
    <!-- Batch size: 65 -->
    <g transform="translate(397.109375 8.76)scale(0.12 -0.12)">
     <use xlink:href="#DejaVuSans-42"/>
     <use x="68.603516" xlink:href="#DejaVuSans-61"/>
     <use x="129.882812" xlink:href="#DejaVuSans-74"/>
     <use x="169.091797" xlink:href="#DejaVuSans-63"/>
     <use x="224.072266" xlink:href="#DejaVuSans-68"/>
     <use x="287.451172" xlink:href="#DejaVuSans-20"/>
     <use x="319.238281" xlink:href="#DejaVuSans-73"/>
     <use x="371.337891" xlink:href="#DejaVuSans-69"/>
     <use x="399.121094" xlink:href="#DejaVuSans-7a"/>
     <use x="451.611328" xlink:href="#DejaVuSans-65"/>
     <use x="513.134766" xlink:href="#DejaVuSans-3a"/>
     <use x="546.826172" xlink:href="#DejaVuSans-20"/>
     <use x="578.613281" xlink:href="#DejaVuSans-36"/>
     <use x="642.236328" xlink:href="#DejaVuSans-35"/>
    </g>
   </g>
   <g id="legend_2">
    <g id="patch_13">
     <path d="M 442.251875 66.794375  L 553.88 66.794375  Q 555.88 66.794375 555.88 64.794375  L 555.88 21.76  Q 555.88 19.76 553.88 19.76  L 442.251875 19.76  Q 440.251875 19.76 440.251875 21.76  L 440.251875 64.794375  Q 440.251875 66.794375 442.251875 66.794375  z " style="fill:#ffffff;opacity:0.8;stroke:#cccccc;stroke-linejoin:miter;"/>
    </g>
    <g id="line2d_35">
     <path d="M 444.251875 27.858438  L 464.251875 27.858438  " style="fill:none;stroke:#1f77b4;stroke-linecap:square;stroke-width:1.5;"/>
    </g>
    <g id="line2d_36"/>
    <g id="text_32">
     <!-- MC samples: 1 -->
     <g transform="translate(472.251875 31.358438)scale(0.1 -0.1)">
      <use xlink:href="#DejaVuSans-4d"/>
      <use x="86.279297" xlink:href="#DejaVuSans-43"/>
      <use x="156.103516" xlink:href="#DejaVuSans-20"/>
      <use x="187.890625" xlink:href="#DejaVuSans-73"/>
      <use x="239.990234" xlink:href="#DejaVuSans-61"/>
      <use x="301.269531" xlink:href="#DejaVuSans-6d"/>
      <use x="398.681641" xlink:href="#DejaVuSans-70"/>
      <use x="462.158203" xlink:href="#DejaVuSans-6c"/>
      <use x="489.941406" xlink:href="#DejaVuSans-65"/>
      <use x="551.464844" xlink:href="#DejaVuSans-73"/>
      <use x="603.564453" xlink:href="#DejaVuSans-3a"/>
      <use x="637.255859" xlink:href="#DejaVuSans-20"/>
      <use x="669.042969" xlink:href="#DejaVuSans-31"/>
     </g>
    </g>
    <g id="line2d_37">
     <path d="M 444.251875 42.536563  L 464.251875 42.536563  " style="fill:none;stroke:#ff7f0e;stroke-linecap:square;stroke-width:1.5;"/>
    </g>
    <g id="line2d_38"/>
    <g id="text_33">
     <!-- MC samples: 5 -->
     <g transform="translate(472.251875 46.036563)scale(0.1 -0.1)">
      <use xlink:href="#DejaVuSans-4d"/>
      <use x="86.279297" xlink:href="#DejaVuSans-43"/>
      <use x="156.103516" xlink:href="#DejaVuSans-20"/>
      <use x="187.890625" xlink:href="#DejaVuSans-73"/>
      <use x="239.990234" xlink:href="#DejaVuSans-61"/>
      <use x="301.269531" xlink:href="#DejaVuSans-6d"/>
      <use x="398.681641" xlink:href="#DejaVuSans-70"/>
      <use x="462.158203" xlink:href="#DejaVuSans-6c"/>
      <use x="489.941406" xlink:href="#DejaVuSans-65"/>
      <use x="551.464844" xlink:href="#DejaVuSans-73"/>
      <use x="603.564453" xlink:href="#DejaVuSans-3a"/>
      <use x="637.255859" xlink:href="#DejaVuSans-20"/>
      <use x="669.042969" xlink:href="#DejaVuSans-35"/>
     </g>
    </g>
    <g id="line2d_39">
     <path d="M 444.251875 57.214688  L 464.251875 57.214688  " style="fill:none;stroke:#2ca02c;stroke-linecap:square;stroke-width:1.5;"/>
    </g>
    <g id="line2d_40"/>
    <g id="text_34">
     <!-- MC samples: 25 -->
     <g transform="translate(472.251875 60.714688)scale(0.1 -0.1)">
      <use xlink:href="#DejaVuSans-4d"/>
      <use x="86.279297" xlink:href="#DejaVuSans-43"/>
      <use x="156.103516" xlink:href="#DejaVuSans-20"/>
      <use x="187.890625" xlink:href="#DejaVuSans-73"/>
      <use x="239.990234" xlink:href="#DejaVuSans-61"/>
      <use x="301.269531" xlink:href="#DejaVuSans-6d"/>
      <use x="398.681641" xlink:href="#DejaVuSans-70"/>
      <use x="462.158203" xlink:href="#DejaVuSans-6c"/>
      <use x="489.941406" xlink:href="#DejaVuSans-65"/>
      <use x="551.464844" xlink:href="#DejaVuSans-73"/>
      <use x="603.564453" xlink:href="#DejaVuSans-3a"/>
      <use x="637.255859" xlink:href="#DejaVuSans-20"/>
      <use x="669.042969" xlink:href="#DejaVuSans-32"/>
      <use x="732.666016" xlink:href="#DejaVuSans-35"/>
     </g>
    </g>
   </g>
  </g>
  <g id="axes_3">
   <g id="patch_14">
    <path d="M 602.44 188.12  L 845.28 188.12  L 845.28 14.76  L 602.44 14.76  z " style="fill:#ffffff;"/>
   </g>
   <g id="matplotlib.axis_5">
    <g id="xtick_13">
     <g id="line2d_41">
      <g>
       <use style="stroke:#000000;stroke-width:0.8;" x="613.478182" xlink:href="#m94e1567e7c" y="188.12"/>
      </g>
     </g>
     <g id="text_35">
      <!-- 0 -->
      <g transform="translate(610.296932 202.718437)scale(0.1 -0.1)">
       <use xlink:href="#DejaVuSans-30"/>
      </g>
     </g>
    </g>
    <g id="xtick_14">
     <g id="line2d_42">
      <g>
       <use style="stroke:#000000;stroke-width:0.8;" x="658.531985" xlink:href="#m94e1567e7c" y="188.12"/>
      </g>
     </g>
     <g id="text_36">
      <!-- 10 -->
      <g transform="translate(652.169485 202.718437)scale(0.1 -0.1)">
       <use xlink:href="#DejaVuSans-31"/>
       <use x="63.623047" xlink:href="#DejaVuSans-30"/>
      </g>
     </g>
    </g>
    <g id="xtick_15">
     <g id="line2d_43">
      <g>
       <use style="stroke:#000000;stroke-width:0.8;" x="703.585788" xlink:href="#m94e1567e7c" y="188.12"/>
      </g>
     </g>
     <g id="text_37">
      <!-- 20 -->
      <g transform="translate(697.223288 202.718437)scale(0.1 -0.1)">
       <use xlink:href="#DejaVuSans-32"/>
       <use x="63.623047" xlink:href="#DejaVuSans-30"/>
      </g>
     </g>
    </g>
    <g id="xtick_16">
     <g id="line2d_44">
      <g>
       <use style="stroke:#000000;stroke-width:0.8;" x="748.639592" xlink:href="#m94e1567e7c" y="188.12"/>
      </g>
     </g>
     <g id="text_38">
      <!-- 30 -->
      <g transform="translate(742.277092 202.718437)scale(0.1 -0.1)">
       <use xlink:href="#DejaVuSans-33"/>
       <use x="63.623047" xlink:href="#DejaVuSans-30"/>
      </g>
     </g>
    </g>
    <g id="xtick_17">
     <g id="line2d_45">
      <g>
       <use style="stroke:#000000;stroke-width:0.8;" x="793.693395" xlink:href="#m94e1567e7c" y="188.12"/>
      </g>
     </g>
     <g id="text_39">
      <!-- 40 -->
      <g transform="translate(787.330895 202.718437)scale(0.1 -0.1)">
       <use xlink:href="#DejaVuSans-34"/>
       <use x="63.623047" xlink:href="#DejaVuSans-30"/>
      </g>
     </g>
    </g>
    <g id="xtick_18">
     <g id="line2d_46">
      <g>
       <use style="stroke:#000000;stroke-width:0.8;" x="838.747199" xlink:href="#m94e1567e7c" y="188.12"/>
      </g>
     </g>
     <g id="text_40">
      <!-- 50 -->
      <g transform="translate(832.384699 202.718437)scale(0.1 -0.1)">
       <use xlink:href="#DejaVuSans-35"/>
       <use x="63.623047" xlink:href="#DejaVuSans-30"/>
      </g>
     </g>
    </g>
    <g id="text_41">
     <!-- # epochs -->
     <g transform="translate(700.248281 216.396562)scale(0.1 -0.1)">
      <use xlink:href="#DejaVuSans-23"/>
      <use x="83.789062" xlink:href="#DejaVuSans-20"/>
      <use x="115.576172" xlink:href="#DejaVuSans-65"/>
      <use x="177.099609" xlink:href="#DejaVuSans-70"/>
      <use x="240.576172" xlink:href="#DejaVuSans-6f"/>
      <use x="301.757812" xlink:href="#DejaVuSans-63"/>
      <use x="356.738281" xlink:href="#DejaVuSans-68"/>
      <use x="420.117188" xlink:href="#DejaVuSans-73"/>
     </g>
    </g>
   </g>
   <g id="matplotlib.axis_6">
    <g id="ytick_11">
     <g id="line2d_47">
      <g>
       <use style="stroke:#000000;stroke-width:0.8;" x="602.44" xlink:href="#m20c76d4990" y="176.666186"/>
      </g>
     </g>
     <g id="text_42">
      <!-- 150 -->
      <g transform="translate(576.3525 180.465405)scale(0.1 -0.1)">
       <use xlink:href="#DejaVuSans-31"/>
       <use x="63.623047" xlink:href="#DejaVuSans-35"/>
       <use x="127.246094" xlink:href="#DejaVuSans-30"/>
      </g>
     </g>
    </g>
    <g id="ytick_12">
     <g id="line2d_48">
      <g>
       <use style="stroke:#000000;stroke-width:0.8;" x="602.44" xlink:href="#m20c76d4990" y="138.255485"/>
      </g>
     </g>
     <g id="text_43">
      <!-- 160 -->
      <g transform="translate(576.3525 142.054704)scale(0.1 -0.1)">
       <use xlink:href="#DejaVuSans-31"/>
       <use x="63.623047" xlink:href="#DejaVuSans-36"/>
       <use x="127.246094" xlink:href="#DejaVuSans-30"/>
      </g>
     </g>
    </g>
    <g id="ytick_13">
     <g id="line2d_49">
      <g>
       <use style="stroke:#000000;stroke-width:0.8;" x="602.44" xlink:href="#m20c76d4990" y="99.844783"/>
      </g>
     </g>
     <g id="text_44">
      <!-- 170 -->
      <g transform="translate(576.3525 103.644002)scale(0.1 -0.1)">
       <use xlink:href="#DejaVuSans-31"/>
       <use x="63.623047" xlink:href="#DejaVuSans-37"/>
       <use x="127.246094" xlink:href="#DejaVuSans-30"/>
      </g>
     </g>
    </g>
    <g id="ytick_14">
     <g id="line2d_50">
      <g>
       <use style="stroke:#000000;stroke-width:0.8;" x="602.44" xlink:href="#m20c76d4990" y="61.434082"/>
      </g>
     </g>
     <g id="text_45">
      <!-- 180 -->
      <g transform="translate(576.3525 65.233301)scale(0.1 -0.1)">
       <use xlink:href="#DejaVuSans-31"/>
       <use x="63.623047" xlink:href="#DejaVuSans-38"/>
       <use x="127.246094" xlink:href="#DejaVuSans-30"/>
      </g>
     </g>
    </g>
    <g id="ytick_15">
     <g id="line2d_51">
      <g>
       <use style="stroke:#000000;stroke-width:0.8;" x="602.44" xlink:href="#m20c76d4990" y="23.02338"/>
      </g>
     </g>
     <g id="text_46">
      <!-- 190 -->
      <g transform="translate(576.3525 26.822599)scale(0.1 -0.1)">
       <use xlink:href="#DejaVuSans-31"/>
       <use x="63.623047" xlink:href="#DejaVuSans-39"/>
       <use x="127.246094" xlink:href="#DejaVuSans-30"/>
      </g>
     </g>
    </g>
    <g id="text_47">
     <!-- NELBO -->
     <g transform="translate(570.272813 118.491563)rotate(-90)scale(0.1 -0.1)">
      <use xlink:href="#DejaVuSans-4e"/>
      <use x="74.804688" xlink:href="#DejaVuSans-45"/>
      <use x="137.988281" xlink:href="#DejaVuSans-4c"/>
      <use x="193.701172" xlink:href="#DejaVuSans-42"/>
      <use x="262.289062" xlink:href="#DejaVuSans-4f"/>
     </g>
    </g>
   </g>
   <g id="line2d_52">
    <path clip-path="url(#pfafa8ccfcb)" d="M 613.478182 72.074304  L 617.983562 115.390973  L 622.488942 125.430625  L 626.994323 132.337973  L 631.499703 138.348343  L 636.005083 143.222587  L 640.510464 146.78546  L 645.015844 149.891725  L 649.521224 152.308366  L 654.026605 154.38884  L 658.531985 156.269373  L 663.037365 157.942121  L 667.542746 159.283056  L 672.048126 160.621023  L 676.553506 161.507668  L 681.058887 162.454742  L 685.564267 163.36363  L 690.069647 164.279346  L 694.575028 164.701654  L 699.080408 165.314157  L 703.585788 165.79928  L 708.091169 166.386556  L 712.596549 166.754464  L 717.101929 167.297707  L 721.60731 167.480648  L 726.11269 167.912751  L 730.618071 168.200517  L 735.123451 168.661173  L 739.628831 168.889619  L 744.134212 169.156695  L 748.639592 169.281162  L 753.144972 169.547641  L 757.650353 169.745511  L 762.155733 170.101035  L 766.661113 170.287413  L 771.166494 170.478194  L 775.671874 170.597641  L 780.177254 170.670617  L 784.682635 170.844306  L 789.188015 171.131567  L 793.693395 171.003629  L 798.198776 171.199903  L 802.704156 171.478772  L 807.209536 171.34689  L 811.714917 171.561331  L 816.220297 171.660806  L 820.725677 171.683033  L 825.231058 171.78176  L 829.736438 172.170736  L 834.241818 172.13045  " style="fill:none;stroke:#1f77b4;stroke-linecap:square;stroke-width:1.5;"/>
   </g>
   <g id="line2d_53">
    <path clip-path="url(#pfafa8ccfcb)" d="M 613.478182 72.221915  L 617.983562 116.958578  L 622.488942 128.574362  L 626.994323 136.817141  L 631.499703 143.151543  L 636.005083 148.314289  L 640.510464 151.98198  L 645.015844 155.109292  L 649.521224 157.542333  L 654.026605 159.725925  L 658.531985 161.559491  L 663.037365 163.13284  L 667.542746 164.522308  L 672.048126 165.66699  L 676.553506 166.819607  L 681.058887 167.796858  L 685.564267 168.717181  L 690.069647 169.464604  L 694.575028 170.209379  L 699.080408 170.960729  L 703.585788 171.508663  L 708.091169 172.176792  L 712.596549 172.736322  L 717.101929 173.281029  L 721.60731 173.831685  L 726.11269 174.252438  L 730.618071 174.70764  L 735.123451 175.21379  L 739.628831 175.657552  L 744.134212 176.11823  L 748.639592 176.471315  L 753.144972 176.801591  L 757.650353 177.254922  L 762.155733 177.569467  L 766.661113 177.873286  L 771.166494 178.241944  L 775.671874 178.50405  L 780.177254 178.831071  L 784.682635 179.081501  L 789.188015 179.409997  L 793.693395 179.659789  L 798.198776 179.978224  L 802.704156 180.146962  L 807.209536 180.366178  L 811.714917 180.719092  L 816.220297 180.818246  L 820.725677 181.072115  L 825.231058 181.439001  L 829.736438 181.560339  L 834.241818 181.716834  " style="fill:none;stroke:#ff7f0e;stroke-linecap:square;stroke-width:1.5;"/>
   </g>
   <g id="line2d_54">
    <path clip-path="url(#pfafa8ccfcb)" d="M 613.478182 71.368716  L 617.983562 117.124717  L 622.488942 128.605079  L 626.994323 137.182754  L 631.499703 144.076776  L 636.005083 148.920957  L 640.510464 152.592969  L 645.015844 155.642457  L 649.521224 158.161697  L 654.026605 160.441286  L 658.531985 162.275291  L 663.037365 163.886738  L 667.542746 165.196793  L 672.048126 166.347713  L 676.553506 167.456526  L 681.058887 168.36497  L 685.564267 169.208548  L 690.069647 170.047512  L 694.575028 170.818928  L 699.080408 171.424616  L 703.585788 172.019518  L 708.091169 172.570153  L 712.596549 173.104471  L 717.101929 173.550901  L 721.60731 174.068391  L 726.11269 174.566107  L 730.618071 174.976362  L 735.123451 175.420174  L 739.628831 175.8103  L 744.134212 176.17445  L 748.639592 176.578775  L 753.144972 177.042372  L 757.650353 177.290731  L 762.155733 177.68443  L 766.661113 177.874277  L 771.166494 178.133286  L 775.671874 178.498881  L 780.177254 178.780644  L 784.682635 179.0054  L 789.188015 179.276814  L 793.693395 179.612758  L 798.198776 179.831101  L 802.704156 180.080481  L 807.209536 180.339248  L 811.714917 180.571428  L 816.220297 180.963848  L 820.725677 181.202283  L 825.231058 181.468966  L 829.736438 181.760722  L 834.241818 181.963865  " style="fill:none;stroke:#2ca02c;stroke-linecap:square;stroke-width:1.5;"/>
   </g>
   <g id="patch_15">
    <path d="M 602.44 188.12  L 602.44 14.76  " style="fill:none;stroke:#000000;stroke-linecap:square;stroke-linejoin:miter;stroke-width:0.8;"/>
   </g>
   <g id="patch_16">
    <path d="M 845.28 188.12  L 845.28 14.76  " style="fill:none;stroke:#000000;stroke-linecap:square;stroke-linejoin:miter;stroke-width:0.8;"/>
   </g>
   <g id="patch_17">
    <path d="M 602.44 188.12  L 845.28 188.12  " style="fill:none;stroke:#000000;stroke-linecap:square;stroke-linejoin:miter;stroke-width:0.8;"/>
   </g>
   <g id="patch_18">
    <path d="M 602.44 14.76  L 845.28 14.76  " style="fill:none;stroke:#000000;stroke-linecap:square;stroke-linejoin:miter;stroke-width:0.8;"/>
   </g>
   <g id="text_48">
    <!-- Batch size: 30 -->
    <g transform="translate(681.509375 8.76)scale(0.12 -0.12)">
     <use xlink:href="#DejaVuSans-42"/>
     <use x="68.603516" xlink:href="#DejaVuSans-61"/>
     <use x="129.882812" xlink:href="#DejaVuSans-74"/>
     <use x="169.091797" xlink:href="#DejaVuSans-63"/>
     <use x="224.072266" xlink:href="#DejaVuSans-68"/>
     <use x="287.451172" xlink:href="#DejaVuSans-20"/>
     <use x="319.238281" xlink:href="#DejaVuSans-73"/>
     <use x="371.337891" xlink:href="#DejaVuSans-69"/>
     <use x="399.121094" xlink:href="#DejaVuSans-7a"/>
     <use x="451.611328" xlink:href="#DejaVuSans-65"/>
     <use x="513.134766" xlink:href="#DejaVuSans-3a"/>
     <use x="546.826172" xlink:href="#DejaVuSans-20"/>
     <use x="578.613281" xlink:href="#DejaVuSans-33"/>
     <use x="642.236328" xlink:href="#DejaVuSans-30"/>
    </g>
   </g>
   <g id="legend_3">
    <g id="patch_19">
     <path d="M 726.651875 66.794375  L 838.28 66.794375  Q 840.28 66.794375 840.28 64.794375  L 840.28 21.76  Q 840.28 19.76 838.28 19.76  L 726.651875 19.76  Q 724.651875 19.76 724.651875 21.76  L 724.651875 64.794375  Q 724.651875 66.794375 726.651875 66.794375  z " style="fill:#ffffff;opacity:0.8;stroke:#cccccc;stroke-linejoin:miter;"/>
    </g>
    <g id="line2d_55">
     <path d="M 728.651875 27.858438  L 748.651875 27.858438  " style="fill:none;stroke:#1f77b4;stroke-linecap:square;stroke-width:1.5;"/>
    </g>
    <g id="line2d_56"/>
    <g id="text_49">
     <!-- MC samples: 1 -->
     <g transform="translate(756.651875 31.358438)scale(0.1 -0.1)">
      <use xlink:href="#DejaVuSans-4d"/>
      <use x="86.279297" xlink:href="#DejaVuSans-43"/>
      <use x="156.103516" xlink:href="#DejaVuSans-20"/>
      <use x="187.890625" xlink:href="#DejaVuSans-73"/>
      <use x="239.990234" xlink:href="#DejaVuSans-61"/>
      <use x="301.269531" xlink:href="#DejaVuSans-6d"/>
      <use x="398.681641" xlink:href="#DejaVuSans-70"/>
      <use x="462.158203" xlink:href="#DejaVuSans-6c"/>
      <use x="489.941406" xlink:href="#DejaVuSans-65"/>
      <use x="551.464844" xlink:href="#DejaVuSans-73"/>
      <use x="603.564453" xlink:href="#DejaVuSans-3a"/>
      <use x="637.255859" xlink:href="#DejaVuSans-20"/>
      <use x="669.042969" xlink:href="#DejaVuSans-31"/>
     </g>
    </g>
    <g id="line2d_57">
     <path d="M 728.651875 42.536563  L 748.651875 42.536563  " style="fill:none;stroke:#ff7f0e;stroke-linecap:square;stroke-width:1.5;"/>
    </g>
    <g id="line2d_58"/>
    <g id="text_50">
     <!-- MC samples: 5 -->
     <g transform="translate(756.651875 46.036563)scale(0.1 -0.1)">
      <use xlink:href="#DejaVuSans-4d"/>
      <use x="86.279297" xlink:href="#DejaVuSans-43"/>
      <use x="156.103516" xlink:href="#DejaVuSans-20"/>
      <use x="187.890625" xlink:href="#DejaVuSans-73"/>
      <use x="239.990234" xlink:href="#DejaVuSans-61"/>
      <use x="301.269531" xlink:href="#DejaVuSans-6d"/>
      <use x="398.681641" xlink:href="#DejaVuSans-70"/>
      <use x="462.158203" xlink:href="#DejaVuSans-6c"/>
      <use x="489.941406" xlink:href="#DejaVuSans-65"/>
      <use x="551.464844" xlink:href="#DejaVuSans-73"/>
      <use x="603.564453" xlink:href="#DejaVuSans-3a"/>
      <use x="637.255859" xlink:href="#DejaVuSans-20"/>
      <use x="669.042969" xlink:href="#DejaVuSans-35"/>
     </g>
    </g>
    <g id="line2d_59">
     <path d="M 728.651875 57.214688  L 748.651875 57.214688  " style="fill:none;stroke:#2ca02c;stroke-linecap:square;stroke-width:1.5;"/>
    </g>
    <g id="line2d_60"/>
    <g id="text_51">
     <!-- MC samples: 25 -->
     <g transform="translate(756.651875 60.714688)scale(0.1 -0.1)">
      <use xlink:href="#DejaVuSans-4d"/>
      <use x="86.279297" xlink:href="#DejaVuSans-43"/>
      <use x="156.103516" xlink:href="#DejaVuSans-20"/>
      <use x="187.890625" xlink:href="#DejaVuSans-73"/>
      <use x="239.990234" xlink:href="#DejaVuSans-61"/>
      <use x="301.269531" xlink:href="#DejaVuSans-6d"/>
      <use x="398.681641" xlink:href="#DejaVuSans-70"/>
      <use x="462.158203" xlink:href="#DejaVuSans-6c"/>
      <use x="489.941406" xlink:href="#DejaVuSans-65"/>
      <use x="551.464844" xlink:href="#DejaVuSans-73"/>
      <use x="603.564453" xlink:href="#DejaVuSans-3a"/>
      <use x="637.255859" xlink:href="#DejaVuSans-20"/>
      <use x="669.042969" xlink:href="#DejaVuSans-32"/>
      <use x="732.666016" xlink:href="#DejaVuSans-35"/>
     </g>
    </g>
   </g>
  </g>
 </g>
 <defs>
  <clipPath id="p76483e49a0">
   <rect height="173.36" width="242.84" x="33.64" y="14.76"/>
  </clipPath>
  <clipPath id="p121fda6f2f">
   <rect height="173.36" width="242.84" x="318.04" y="14.76"/>
  </clipPath>
  <clipPath id="pfafa8ccfcb">
   <rect height="173.36" width="242.84" x="602.44" y="14.76"/>
  </clipPath>
 </defs>
</svg>