<?xml version="1.0" encoding="UTF-8" standalone="no"?>
<!DOCTYPE svg PUBLIC "-//W3C//DTD SVG 1.1//EN"
 "http://www.w3.org/Graphics/SVG/1.1/DTD/svg11.dtd">
<!-- Generated by graphviz version 2.40.1 (20161225.0304)
 -->
<!-- Title: G Pages: 1 -->
<svg width="306pt" height="191pt"
 viewBox="0.00 0.00 306.25 191.00" xmlns="http://www.w3.org/2000/svg" xmlns:xlink="http://www.w3.org/1999/xlink">
<g id="graph0" class="graph" transform="scale(1 1) rotate(0) translate(4 187)">
<title>G</title>
<polygon fill="#ffffff" stroke="transparent" points="-4,4 -4,-187 302.2485,-187 302.2485,4 -4,4"/>
<!-- 4751486872 -->
<g id="node1" class="node">
<title>4751486872</title>
<polygon fill="none" stroke="#000000" points="0,-146.5 0,-182.5 119.0244,-182.5 119.0244,-146.5 0,-146.5"/>
<text text-anchor="middle" x="59.5122" y="-160.3" font-family="Times,serif" font-size="14.00" fill="#000000">sigma: InputLayer</text>
</g>
<!-- 4751557240 -->
<g id="node4" class="node">
<title>4751557240</title>
<polygon fill="none" stroke="#000000" points="72.376,-73.5 72.376,-109.5 176.6484,-109.5 176.6484,-73.5 72.376,-73.5"/>
<text text-anchor="middle" x="124.5122" y="-87.3" font-family="Times,serif" font-size="14.00" fill="#000000">z_eps: Multiply</text>
</g>
<!-- 4751486872&#45;&gt;4751557240 -->
<g id="edge1" class="edge">
<title>4751486872&#45;&gt;4751557240</title>
<path fill="none" stroke="#000000" d="M75.5796,-146.4551C83.4704,-137.5932 93.1149,-126.7616 101.7492,-117.0646"/>
<polygon fill="#000000" stroke="#000000" points="104.3683,-119.3863 108.4044,-109.5904 99.1404,-114.7313 104.3683,-119.3863"/>
</g>
<!-- 4750042952 -->
<g id="node2" class="node">
<title>4750042952</title>
<polygon fill="none" stroke="#000000" points="137.3896,-146.5 137.3896,-182.5 241.6348,-182.5 241.6348,-146.5 137.3896,-146.5"/>
<text text-anchor="middle" x="189.5122" y="-160.3" font-family="Times,serif" font-size="14.00" fill="#000000">eps: InputLayer</text>
</g>
<!-- 4750042952&#45;&gt;4751557240 -->
<g id="edge2" class="edge">
<title>4750042952&#45;&gt;4751557240</title>
<path fill="none" stroke="#000000" d="M173.4448,-146.4551C165.5541,-137.5932 155.9096,-126.7616 147.2752,-117.0646"/>
<polygon fill="#000000" stroke="#000000" points="149.884,-114.7313 140.6201,-109.5904 144.6561,-119.3863 149.884,-114.7313"/>
</g>
<!-- 4751486928 -->
<g id="node3" class="node">
<title>4751486928</title>
<polygon fill="none" stroke="#000000" points="194.7759,-73.5 194.7759,-109.5 298.2485,-109.5 298.2485,-73.5 194.7759,-73.5"/>
<text text-anchor="middle" x="246.5122" y="-87.3" font-family="Times,serif" font-size="14.00" fill="#000000">mu: InputLayer</text>
</g>
<!-- 4751558024 -->
<g id="node5" class="node">
<title>4751558024</title>
<polygon fill="none" stroke="#000000" points="158.5122,-.5 158.5122,-36.5 212.5122,-36.5 212.5122,-.5 158.5122,-.5"/>
<text text-anchor="middle" x="185.4863" y="-14.3" font-family="Times,serif" font-size="14.00" fill="#000000">z: Add</text>
</g>
<!-- 4751486928&#45;&gt;4751558024 -->
<g id="edge3" class="edge">
<title>4751486928&#45;&gt;4751558024</title>
<path fill="none" stroke="#000000" d="M231.4336,-73.4551C224.1017,-64.6809 215.1565,-53.9759 207.1154,-44.353"/>
<polygon fill="#000000" stroke="#000000" points="209.7268,-42.0197 200.6288,-36.5904 204.3553,-46.5082 209.7268,-42.0197"/>
</g>
<!-- 4751557240&#45;&gt;4751558024 -->
<g id="edge4" class="edge">
<title>4751557240&#45;&gt;4751558024</title>
<path fill="none" stroke="#000000" d="M139.5909,-73.4551C146.9227,-64.6809 155.8679,-53.9759 163.909,-44.353"/>
<polygon fill="#000000" stroke="#000000" points="166.6692,-46.5082 170.3956,-36.5904 161.2976,-42.0197 166.6692,-46.5082"/>
</g>
</g>
</svg>
