<svg xmlns="http://www.w3.org/2000/svg" xmlns:xlink="http://www.w3.org/1999/xlink" viewBox="0.00 0.00 370.50 191.00" viewport="0 0 400px 205px">
<g id="graph0" class="graph" transform="scale(1 1) rotate(0) translate(4 187)">
<title>G</title>
<polygon fill="#ffffff" stroke="transparent" points="-4,4 -4,-187 366.5,-187 366.5,4 -4,4"/>
<!-- 140175856602192 -->
<g id="node1" class="node">
<title>140175856602192</title>
<polygon fill="none" stroke="#000000" points="0,-146.5 0,-182.5 149,-182.5 149,-146.5 0,-146.5"/>
<text text-anchor="middle" x="74.5" y="-160.8" font-family="Times,serif" font-size="14.00" fill="#000000">sigma: InputLayer</text>
</g>
<!-- 140175856602360 -->
<g id="node4" class="node">
<title>140175856602360</title>
<polygon fill="none" stroke="#000000" points="91,-73.5 91,-109.5 216,-109.5 216,-73.5 91,-73.5"/>
<text text-anchor="middle" x="153.5" y="-87.8" font-family="Times,serif" font-size="14.00" fill="#000000">z_eps: Multiply</text>
</g>
<!-- 140175856602192&#45;&gt;140175856602360 -->
<g id="edge1" class="edge">
<title>140175856602192-&gt;140175856602360</title>
<path fill="none" stroke="#000000" d="M94.0281,-146.4551C103.8083,-137.4177 115.8052,-126.3319 126.4561,-116.4899"/>
<polygon fill="#000000" stroke="#000000" points="128.9536,-118.9476 133.9228,-109.5904 124.2029,-113.8065 128.9536,-118.9476"/>
</g>
<!-- 140175856601800 -->
<g id="node2" class="node">
<title>140175856601800</title>
<polygon fill="none" stroke="#000000" points="167,-146.5 167,-182.5 298,-182.5 298,-146.5 167,-146.5"/>
<text text-anchor="middle" x="232.5" y="-160.8" font-family="Times,serif" font-size="14.00" fill="#000000">eps: InputLayer</text>
</g>
<!-- 140175856601800&#45;&gt;140175856602360 -->
<g id="edge2" class="edge">
<title>140175856601800-&gt;140175856602360</title>
<path fill="none" stroke="#000000" d="M212.9719,-146.4551C203.1917,-137.4177 191.1948,-126.3319 180.5439,-116.4899"/>
<polygon fill="#000000" stroke="#000000" points="182.7971,-113.8065 173.0772,-109.5904 178.0464,-118.9476 182.7971,-113.8065"/>
</g>
<!-- 140175856602248 -->
<g id="node3" class="node">
<title>140175856602248</title>
<polygon fill="none" stroke="#000000" points="234.5,-73.5 234.5,-109.5 362.5,-109.5 362.5,-73.5 234.5,-73.5"/>
<text text-anchor="middle" x="298.5" y="-87.8" font-family="Times,serif" font-size="14.00" fill="#000000">mu: InputLayer</text>
</g>
<!-- 140175856600736 -->
<g id="node5" class="node">
<title>140175856600736</title>
<polygon fill="none" stroke="#000000" points="194.5,-.5 194.5,-36.5 256.5,-36.5 256.5,-.5 194.5,-.5"/>
<text text-anchor="middle" x="225.5" y="-14.8" font-family="Times,serif" font-size="14.00" fill="#000000">z: Add</text>
</g>
<!-- 140175856602248&#45;&gt;140175856600736 -->
<g id="edge3" class="edge">
<title>140175856602248-&gt;140175856600736</title>
<path fill="none" stroke="#000000" d="M280.4551,-73.4551C271.5054,-64.5054 260.547,-53.547 250.7769,-43.7769"/>
<polygon fill="#000000" stroke="#000000" points="253.1363,-41.1866 243.5904,-36.5904 248.1866,-46.1363 253.1363,-41.1866"/>
</g>
<!-- 140175856602360&#45;&gt;140175856600736 -->
<g id="edge4" class="edge">
<title>140175856602360-&gt;140175856600736</title>
<path fill="none" stroke="#000000" d="M171.2978,-73.4551C180.1248,-64.5054 190.9331,-53.547 200.5693,-43.7769"/>
<polygon fill="#000000" stroke="#000000" points="203.1272,-46.1678 207.6575,-36.5904 198.1434,-41.2523 203.1272,-46.1678"/>
</g>
</g>
</svg>