<svg xmlns="http://www.w3.org/2000/svg" xmlns:xlink="http://www.w3.org/1999/xlink" viewBox="0.00 0.00 662.50 221.00" viewport="0 0 5120px 1706px">
<g id="graph0" class="graph" transform="scale(1 1) rotate(0) translate(4 217)">
<title>G</title>
<polygon fill="white" stroke="none" points="-4,4 -4,-217 658.5,-217 658.5,4 -4,4"/>
<!-- 140393156013752 -->
<g id="node1" class="node"><title>140393156013752</title>
<polygon fill="none" stroke="black" points="0,-166.5 0,-212.5 241,-212.5 241,-166.5 0,-166.5"/>
<text text-anchor="middle" x="58.5" y="-185.8" font-family="Times,serif" font-size="14.00">sigma: InputLayer</text>
<polyline fill="none" stroke="black" points="117,-166.5 117,-212.5 "/>
<text text-anchor="middle" x="144.5" y="-197.3" font-family="Times,serif" font-size="14.00">input:</text>
<polyline fill="none" stroke="black" points="117,-189.5 172,-189.5 "/>
<text text-anchor="middle" x="144.5" y="-174.3" font-family="Times,serif" font-size="14.00">output:</text>
<polyline fill="none" stroke="black" points="172,-166.5 172,-212.5 "/>
<text text-anchor="middle" x="206.5" y="-197.3" font-family="Times,serif" font-size="14.00">(None, 2)</text>
<polyline fill="none" stroke="black" points="172,-189.5 241,-189.5 "/>
<text text-anchor="middle" x="206.5" y="-174.3" font-family="Times,serif" font-size="14.00">(None, 2)</text>
</g>
<!-- 140393156071664 -->
<g id="node4" class="node"><title>140393156071664</title>
<polygon fill="none" stroke="black" points="93,-83.5 93,-129.5 410,-129.5 410,-83.5 93,-83.5"/>
<text text-anchor="middle" x="144.5" y="-102.8" font-family="Times,serif" font-size="14.00">z_eps: Multiply</text>
<polyline fill="none" stroke="black" points="196,-83.5 196,-129.5 "/>
<text text-anchor="middle" x="223.5" y="-114.3" font-family="Times,serif" font-size="14.00">input:</text>
<polyline fill="none" stroke="black" points="196,-106.5 251,-106.5 "/>
<text text-anchor="middle" x="223.5" y="-91.3" font-family="Times,serif" font-size="14.00">output:</text>
<polyline fill="none" stroke="black" points="251,-83.5 251,-129.5 "/>
<text text-anchor="middle" x="330.5" y="-114.3" font-family="Times,serif" font-size="14.00">[(None, 2), (None, 25, 2)]</text>
<polyline fill="none" stroke="black" points="251,-106.5 410,-106.5 "/>
<text text-anchor="middle" x="330.5" y="-91.3" font-family="Times,serif" font-size="14.00">(None, 25, 2)</text>
</g>
<!-- 140393156013752&#45;&gt;140393156071664 -->
<g id="edge1" class="edge"><title>140393156013752-&gt;140393156071664</title>
<path fill="none" stroke="black" d="M156.296,-166.366C171.892,-156.723 190.339,-145.317 206.822,-135.125"/>
<polygon fill="black" stroke="black" points="209.082,-137.843 215.747,-129.607 205.401,-131.889 209.082,-137.843"/>
</g>
<!-- 140393156072056 -->
<g id="node2" class="node"><title>140393156072056</title>
<polygon fill="none" stroke="black" points="259,-166.5 259,-212.5 506,-212.5 506,-166.5 259,-166.5"/>
<text text-anchor="middle" x="310" y="-185.8" font-family="Times,serif" font-size="14.00">eps: InputLayer</text>
<polyline fill="none" stroke="black" points="361,-166.5 361,-212.5 "/>
<text text-anchor="middle" x="388.5" y="-197.3" font-family="Times,serif" font-size="14.00">input:</text>
<polyline fill="none" stroke="black" points="361,-189.5 416,-189.5 "/>
<text text-anchor="middle" x="388.5" y="-174.3" font-family="Times,serif" font-size="14.00">output:</text>
<polyline fill="none" stroke="black" points="416,-166.5 416,-212.5 "/>
<text text-anchor="middle" x="461" y="-197.3" font-family="Times,serif" font-size="14.00">(None, 25, 2)</text>
<polyline fill="none" stroke="black" points="416,-189.5 506,-189.5 "/>
<text text-anchor="middle" x="461" y="-174.3" font-family="Times,serif" font-size="14.00">(None, 25, 2)</text>
</g>
<!-- 140393156072056&#45;&gt;140393156071664 -->
<g id="edge2" class="edge"><title>140393156072056-&gt;140393156071664</title>
<path fill="none" stroke="black" d="M346.704,-166.366C331.108,-156.723 312.661,-145.317 296.178,-135.125"/>
<polygon fill="black" stroke="black" points="297.599,-131.889 287.253,-129.607 293.918,-137.843 297.599,-131.889"/>
</g>
<!-- 140393156013808 -->
<g id="node3" class="node"><title>140393156013808</title>
<polygon fill="none" stroke="black" points="428.5,-83.5 428.5,-129.5 654.5,-129.5 654.5,-83.5 428.5,-83.5"/>
<text text-anchor="middle" x="479.5" y="-102.8" font-family="Times,serif" font-size="14.00">mu: InputLayer</text>
<polyline fill="none" stroke="black" points="530.5,-83.5 530.5,-129.5 "/>
<text text-anchor="middle" x="558" y="-114.3" font-family="Times,serif" font-size="14.00">input:</text>
<polyline fill="none" stroke="black" points="530.5,-106.5 585.5,-106.5 "/>
<text text-anchor="middle" x="558" y="-91.3" font-family="Times,serif" font-size="14.00">output:</text>
<polyline fill="none" stroke="black" points="585.5,-83.5 585.5,-129.5 "/>
<text text-anchor="middle" x="620" y="-114.3" font-family="Times,serif" font-size="14.00">(None, 2)</text>
<polyline fill="none" stroke="black" points="585.5,-106.5 654.5,-106.5 "/>
<text text-anchor="middle" x="620" y="-91.3" font-family="Times,serif" font-size="14.00">(None, 2)</text>
</g>
<!-- 140393156072448 -->
<g id="node5" class="node"><title>140393156072448</title>
<polygon fill="none" stroke="black" points="263,-0.5 263,-46.5 530,-46.5 530,-0.5 263,-0.5"/>
<text text-anchor="middle" x="289.5" y="-19.8" font-family="Times,serif" font-size="14.00">z: Add</text>
<polyline fill="none" stroke="black" points="316,-0.5 316,-46.5 "/>
<text text-anchor="middle" x="343.5" y="-31.3" font-family="Times,serif" font-size="14.00">input:</text>
<polyline fill="none" stroke="black" points="316,-23.5 371,-23.5 "/>
<text text-anchor="middle" x="343.5" y="-8.3" font-family="Times,serif" font-size="14.00">output:</text>
<polyline fill="none" stroke="black" points="371,-0.5 371,-46.5 "/>
<text text-anchor="middle" x="450.5" y="-31.3" font-family="Times,serif" font-size="14.00">[(None, 2), (None, 25, 2)]</text>
<polyline fill="none" stroke="black" points="371,-23.5 530,-23.5 "/>
<text text-anchor="middle" x="450.5" y="-8.3" font-family="Times,serif" font-size="14.00">(None, 25, 2)</text>
</g>
<!-- 140393156013808&#45;&gt;140393156072448 -->
<g id="edge3" class="edge"><title>140393156013808-&gt;140393156072448</title>
<path fill="none" stroke="black" d="M501.878,-83.3664C484.296,-73.5444 463.44,-61.894 444.941,-51.5602"/>
<polygon fill="black" stroke="black" points="446.511,-48.4282 436.074,-46.6068 443.097,-54.5393 446.511,-48.4282"/>
</g>
<!-- 140393156071664&#45;&gt;140393156072448 -->
<g id="edge4" class="edge"><title>140393156071664-&gt;140393156072448</title>
<path fill="none" stroke="black" d="M291.122,-83.3664C308.704,-73.5444 329.56,-61.894 348.059,-51.5602"/>
<polygon fill="black" stroke="black" points="349.903,-54.5393 356.926,-46.6068 346.489,-48.4282 349.903,-54.5393"/>
</g>
</g>
</svg>