<svg xmlns="http://www.w3.org/2000/svg" xmlns:xlink="http://www.w3.org/1999/xlink" viewBox="0.00 0.00 302.50 191.00" viewport="0 0 1280px 806px">
<g id="graph0" class="graph" transform="scale(1 1) rotate(0) translate(4 187)">
<title>G</title>
<polygon fill="white" stroke="none" points="-4,4 -4,-187 298.5,-187 298.5,4 -4,4"/>
<!-- 139739431546272 -->
<g id="node1" class="node"><title>139739431546272</title>
<polygon fill="none" stroke="black" points="0,-146.5 0,-182.5 117,-182.5 117,-146.5 0,-146.5"/>
<text text-anchor="middle" x="58.5" y="-160.8" font-family="Times,serif" font-size="14.00">sigma: InputLayer</text>
</g>
<!-- 139739431604352 -->
<g id="node4" class="node"><title>139739431604352</title>
<polygon fill="none" stroke="black" points="71,-73.5 71,-109.5 174,-109.5 174,-73.5 71,-73.5"/>
<text text-anchor="middle" x="122.5" y="-87.8" font-family="Times,serif" font-size="14.00">z_eps: Multiply</text>
</g>
<!-- 139739431546272&#45;&gt;139739431604352 -->
<g id="edge1" class="edge"><title>139739431546272-&gt;139739431604352</title>
<path fill="none" stroke="black" d="M73.9926,-146.313C81.9325,-137.505 91.7394,-126.625 100.453,-116.958"/>
<polygon fill="black" stroke="black" points="103.054,-119.3 107.15,-109.529 97.8549,-114.613 103.054,-119.3"/>
</g>
<!-- 139739431546776 -->
<g id="node2" class="node"><title>139739431546776</title>
<polygon fill="none" stroke="black" points="135.5,-146.5 135.5,-182.5 237.5,-182.5 237.5,-146.5 135.5,-146.5"/>
<text text-anchor="middle" x="186.5" y="-160.8" font-family="Times,serif" font-size="14.00">eps: InputLayer</text>
</g>
<!-- 139739431546776&#45;&gt;139739431604352 -->
<g id="edge2" class="edge"><title>139739431546776-&gt;139739431604352</title>
<path fill="none" stroke="black" d="M171.007,-146.313C163.068,-137.505 153.261,-126.625 144.547,-116.958"/>
<polygon fill="black" stroke="black" points="147.145,-114.613 137.85,-109.529 141.946,-119.3 147.145,-114.613"/>
</g>
<!-- 139739431546328 -->
<g id="node3" class="node"><title>139739431546328</title>
<polygon fill="none" stroke="black" points="192.5,-73.5 192.5,-109.5 294.5,-109.5 294.5,-73.5 192.5,-73.5"/>
<text text-anchor="middle" x="243.5" y="-87.8" font-family="Times,serif" font-size="14.00">mu: InputLayer</text>
</g>
<!-- 139739431604576 -->
<g id="node5" class="node"><title>139739431604576</title>
<polygon fill="none" stroke="black" points="155.5,-0.5 155.5,-36.5 209.5,-36.5 209.5,-0.5 155.5,-0.5"/>
<text text-anchor="middle" x="182.5" y="-14.8" font-family="Times,serif" font-size="14.00">z: Add</text>
</g>
<!-- 139739431546328&#45;&gt;139739431604576 -->
<g id="edge3" class="edge"><title>139739431546328-&gt;139739431604576</title>
<path fill="none" stroke="black" d="M228.734,-73.3129C221.241,-64.5918 212.004,-53.8402 203.761,-44.2459"/>
<polygon fill="black" stroke="black" points="206.302,-41.833 197.13,-36.5288 200.992,-46.3947 206.302,-41.833"/>
</g>
<!-- 139739431604352&#45;&gt;139739431604576 -->
<g id="edge4" class="edge"><title>139739431604352-&gt;139739431604576</title>
<path fill="none" stroke="black" d="M137.024,-73.3129C144.394,-64.5918 153.48,-53.8402 161.588,-44.2459"/>
<polygon fill="black" stroke="black" points="164.328,-46.4259 168.109,-36.5288 158.982,-41.9077 164.328,-46.4259"/>
</g>
</g>
</svg>