<svg xmlns="http://www.w3.org/2000/svg" xmlns:xlink="http://www.w3.org/1999/xlink" viewBox="0.00 0.00 664.57 215.00" viewport="0 0 1600px 517px">
<g id="graph0" class="graph" transform="scale(1 1) rotate(0) translate(4 211)">
<title>G</title>
<polygon fill="#ffffff" stroke="transparent" points="-4,4 -4,-211 660.5659,-211 660.5659,4 -4,4"/>
<!-- 4673712368 -->
<g id="node1" class="node">
<title>4673712368</title>
<polygon fill="none" stroke="#000000" points="0,-162.5 0,-206.5 244.3418,-206.5 244.3418,-162.5 0,-162.5"/>
<text text-anchor="middle" x="59.5122" y="-180.3" font-family="Times,serif" font-size="14.00" fill="#000000">sigma: InputLayer</text>
<polyline fill="none" stroke="#000000" points="119.0244,-162.5 119.0244,-206.5 "/>
<text text-anchor="middle" x="146.8589" y="-191.3" font-family="Times,serif" font-size="14.00" fill="#000000">input:</text>
<polyline fill="none" stroke="#000000" points="119.0244,-184.5 174.6934,-184.5 "/>
<text text-anchor="middle" x="146.8589" y="-169.3" font-family="Times,serif" font-size="14.00" fill="#000000">output:</text>
<polyline fill="none" stroke="#000000" points="174.6934,-162.5 174.6934,-206.5 "/>
<text text-anchor="middle" x="209.5176" y="-191.3" font-family="Times,serif" font-size="14.00" fill="#000000">(None, 2)</text>
<polyline fill="none" stroke="#000000" points="174.6934,-184.5 244.3418,-184.5 "/>
<text text-anchor="middle" x="209.5176" y="-169.3" font-family="Times,serif" font-size="14.00" fill="#000000">(None, 2)</text>
</g>
<!-- 4673712928 -->
<g id="node4" class="node">
<title>4673712928</title>
<polygon fill="none" stroke="#000000" points="96.3896,-81.5 96.3896,-125.5 409.9521,-125.5 409.9521,-81.5 96.3896,-81.5"/>
<text text-anchor="middle" x="148.5259" y="-99.3" font-family="Times,serif" font-size="14.00" fill="#000000">z_eps: Multiply</text>
<polyline fill="none" stroke="#000000" points="200.6621,-81.5 200.6621,-125.5 "/>
<text text-anchor="middle" x="228.4966" y="-110.3" font-family="Times,serif" font-size="14.00" fill="#000000">input:</text>
<polyline fill="none" stroke="#000000" points="200.6621,-103.5 256.3311,-103.5 "/>
<text text-anchor="middle" x="228.4966" y="-88.3" font-family="Times,serif" font-size="14.00" fill="#000000">output:</text>
<polyline fill="none" stroke="#000000" points="256.3311,-81.5 256.3311,-125.5 "/>
<text text-anchor="middle" x="333.1416" y="-110.3" font-family="Times,serif" font-size="14.00" fill="#000000">[(None, 2), (None, 5, 2)]</text>
<polyline fill="none" stroke="#000000" points="256.3311,-103.5 409.9521,-103.5 "/>
<text text-anchor="middle" x="332.6553" y="-88.3" font-family="Times,serif" font-size="14.00" fill="#000000">(None, 5, 2)</text>
</g>
<!-- 4673712368&#45;&gt;4673712928 -->
<g id="edge1" class="edge">
<title>4673712368-&gt;4673712928</title>
<path fill="none" stroke="#000000" d="M157.9672,-162.3664C173.5633,-152.723 192.01,-141.3171 208.4931,-131.1252"/>
<polygon fill="#000000" stroke="#000000" points="210.7531,-133.8429 217.4179,-125.6068 207.0717,-127.8891 210.7531,-133.8429"/>
</g>
<!-- 4431823536 -->
<g id="node2" class="node">
<title>4431823536</title>
<polygon fill="none" stroke="#000000" points="262.3896,-162.5 262.3896,-206.5 505.9521,-206.5 505.9521,-162.5 262.3896,-162.5"/>
<text text-anchor="middle" x="314.5122" y="-180.3" font-family="Times,serif" font-size="14.00" fill="#000000">eps: InputLayer</text>
<polyline fill="none" stroke="#000000" points="366.6348,-162.5 366.6348,-206.5 "/>
<text text-anchor="middle" x="394.4692" y="-191.3" font-family="Times,serif" font-size="14.00" fill="#000000">input:</text>
<polyline fill="none" stroke="#000000" points="366.6348,-184.5 422.3037,-184.5 "/>
<text text-anchor="middle" x="394.4692" y="-169.3" font-family="Times,serif" font-size="14.00" fill="#000000">output:</text>
<polyline fill="none" stroke="#000000" points="422.3037,-162.5 422.3037,-206.5 "/>
<text text-anchor="middle" x="464.1279" y="-191.3" font-family="Times,serif" font-size="14.00" fill="#000000">(None, 5, 2)</text>
<polyline fill="none" stroke="#000000" points="422.3037,-184.5 505.9521,-184.5 "/>
<text text-anchor="middle" x="464.1279" y="-169.3" font-family="Times,serif" font-size="14.00" fill="#000000">(None, 5, 2)</text>
</g>
<!-- 4431823536&#45;&gt;4673712928 -->
<g id="edge2" class="edge">
<title>4431823536-&gt;4673712928</title>
<path fill="none" stroke="#000000" d="M348.3746,-162.3664C332.7785,-152.723 314.3318,-141.3171 297.8487,-131.1252"/>
<polygon fill="#000000" stroke="#000000" points="299.2701,-127.8891 288.9239,-125.6068 295.5887,-133.8429 299.2701,-127.8891"/>
</g>
<!-- 4673712312 -->
<g id="node3" class="node">
<title>4673712312</title>
<polygon fill="none" stroke="#000000" points="427.7759,-81.5 427.7759,-125.5 656.5659,-125.5 656.5659,-81.5 427.7759,-81.5"/>
<text text-anchor="middle" x="479.5122" y="-99.3" font-family="Times,serif" font-size="14.00" fill="#000000">mu: InputLayer</text>
<polyline fill="none" stroke="#000000" points="531.2485,-81.5 531.2485,-125.5 "/>
<text text-anchor="middle" x="559.083" y="-110.3" font-family="Times,serif" font-size="14.00" fill="#000000">input:</text>
<polyline fill="none" stroke="#000000" points="531.2485,-103.5 586.9175,-103.5 "/>
<text text-anchor="middle" x="559.083" y="-88.3" font-family="Times,serif" font-size="14.00" fill="#000000">output:</text>
<polyline fill="none" stroke="#000000" points="586.9175,-81.5 586.9175,-125.5 "/>
<text text-anchor="middle" x="621.7417" y="-110.3" font-family="Times,serif" font-size="14.00" fill="#000000">(None, 2)</text>
<polyline fill="none" stroke="#000000" points="586.9175,-103.5 656.5659,-103.5 "/>
<text text-anchor="middle" x="621.7417" y="-88.3" font-family="Times,serif" font-size="14.00" fill="#000000">(None, 2)</text>
</g>
<!-- 4673713712 -->
<g id="node5" class="node">
<title>4673713712</title>
<polygon fill="none" stroke="#000000" points="266.0518,-.5 266.0518,-44.5 528.29,-44.5 528.29,-.5 266.0518,-.5"/>
<text text-anchor="middle" x="292.5259" y="-18.3" font-family="Times,serif" font-size="14.00" fill="#000000">z: Add</text>
<polyline fill="none" stroke="#000000" points="319,-.5 319,-44.5 "/>
<text text-anchor="middle" x="346.8345" y="-29.3" font-family="Times,serif" font-size="14.00" fill="#000000">input:</text>
<polyline fill="none" stroke="#000000" points="319,-22.5 374.6689,-22.5 "/>
<text text-anchor="middle" x="346.8345" y="-7.3" font-family="Times,serif" font-size="14.00" fill="#000000">output:</text>
<polyline fill="none" stroke="#000000" points="374.6689,-.5 374.6689,-44.5 "/>
<text text-anchor="middle" x="451.4795" y="-29.3" font-family="Times,serif" font-size="14.00" fill="#000000">[(None, 2), (None, 5, 2)]</text>
<polyline fill="none" stroke="#000000" points="374.6689,-22.5 528.29,-22.5 "/>
<text text-anchor="middle" x="450.9932" y="-7.3" font-family="Times,serif" font-size="14.00" fill="#000000">(None, 5, 2)</text>
</g>
<!-- 4673712312&#45;&gt;4673713712 -->
<g id="edge3" class="edge">
<title>4673712312-&gt;4673713712</title>
<path fill="none" stroke="#000000" d="M502.549,-81.3664C484.9665,-71.5444 464.1108,-59.894 445.6121,-49.5602"/>
<polygon fill="#000000" stroke="#000000" points="447.182,-46.4282 436.7449,-44.6068 443.7682,-52.5393 447.182,-46.4282"/>
</g>
<!-- 4673712928&#45;&gt;4673713712 -->
<g id="edge4" class="edge">
<title>4673712928-&gt;4673713712</title>
<path fill="none" stroke="#000000" d="M292.5195,-81.3664C309.9808,-71.5444 330.6927,-59.894 349.0638,-49.5602"/>
<polygon fill="#000000" stroke="#000000" points="350.87,-52.56 357.8698,-44.6068 347.4381,-46.459 350.87,-52.56"/>
</g>
</g>
</svg>