<svg xmlns="http://www.w3.org/2000/svg" xmlns:xlink="http://www.w3.org/1999/xlink" viewBox="0.00 0.00 553.50 719.00" viewport="0 0 308px 400px">
<g id="graph0" class="graph" transform="scale(1 1) rotate(0) translate(4 715)">
<title>G</title>
<polygon fill="white" stroke="none" points="-4,4 -4,-715 549.5,-715 549.5,4 -4,4"/>
<!-- 139739430199872 -->
<g id="node1" class="node"><title>139739430199872</title>
<polygon fill="none" stroke="black" points="190.5,-664.5 190.5,-710.5 419.5,-710.5 419.5,-664.5 190.5,-664.5"/>
<text text-anchor="middle" x="236" y="-683.8" font-family="Times,serif" font-size="14.00">x: InputLayer</text>
<polyline fill="none" stroke="black" points="281.5,-664.5 281.5,-710.5 "/>
<text text-anchor="middle" x="309" y="-695.3" font-family="Times,serif" font-size="14.00">input:</text>
<polyline fill="none" stroke="black" points="281.5,-687.5 336.5,-687.5 "/>
<text text-anchor="middle" x="309" y="-672.3" font-family="Times,serif" font-size="14.00">output:</text>
<polyline fill="none" stroke="black" points="336.5,-664.5 336.5,-710.5 "/>
<text text-anchor="middle" x="378" y="-695.3" font-family="Times,serif" font-size="14.00">(None, 784)</text>
<polyline fill="none" stroke="black" points="336.5,-687.5 419.5,-687.5 "/>
<text text-anchor="middle" x="378" y="-672.3" font-family="Times,serif" font-size="14.00">(None, 784)</text>
</g>
<!-- 139739430199816 -->
<g id="node2" class="node"><title>139739430199816</title>
<polygon fill="none" stroke="black" points="164,-581.5 164,-627.5 446,-627.5 446,-581.5 164,-581.5"/>
<text text-anchor="middle" x="236" y="-600.8" font-family="Times,serif" font-size="14.00">encoder_hidden: Dense</text>
<polyline fill="none" stroke="black" points="308,-581.5 308,-627.5 "/>
<text text-anchor="middle" x="335.5" y="-612.3" font-family="Times,serif" font-size="14.00">input:</text>
<polyline fill="none" stroke="black" points="308,-604.5 363,-604.5 "/>
<text text-anchor="middle" x="335.5" y="-589.3" font-family="Times,serif" font-size="14.00">output:</text>
<polyline fill="none" stroke="black" points="363,-581.5 363,-627.5 "/>
<text text-anchor="middle" x="404.5" y="-612.3" font-family="Times,serif" font-size="14.00">(None, 784)</text>
<polyline fill="none" stroke="black" points="363,-604.5 446,-604.5 "/>
<text text-anchor="middle" x="404.5" y="-589.3" font-family="Times,serif" font-size="14.00">(None, 256)</text>
</g>
<!-- 139739430199872&#45;&gt;139739430199816 -->
<g id="edge1" class="edge"><title>139739430199872-&gt;139739430199816</title>
<path fill="none" stroke="black" d="M305,-664.366C305,-656.152 305,-646.658 305,-637.725"/>
<polygon fill="black" stroke="black" points="308.5,-637.607 305,-627.607 301.5,-637.607 308.5,-637.607"/>
</g>
<!-- 139739431418568 -->
<g id="node3" class="node"><title>139739431418568</title>
<polygon fill="none" stroke="black" points="76,-498.5 76,-544.5 290,-544.5 290,-498.5 76,-498.5"/>
<text text-anchor="middle" x="114" y="-517.8" font-family="Times,serif" font-size="14.00">mu: Dense</text>
<polyline fill="none" stroke="black" points="152,-498.5 152,-544.5 "/>
<text text-anchor="middle" x="179.5" y="-529.3" font-family="Times,serif" font-size="14.00">input:</text>
<polyline fill="none" stroke="black" points="152,-521.5 207,-521.5 "/>
<text text-anchor="middle" x="179.5" y="-506.3" font-family="Times,serif" font-size="14.00">output:</text>
<polyline fill="none" stroke="black" points="207,-498.5 207,-544.5 "/>
<text text-anchor="middle" x="248.5" y="-529.3" font-family="Times,serif" font-size="14.00">(None, 256)</text>
<polyline fill="none" stroke="black" points="207,-521.5 290,-521.5 "/>
<text text-anchor="middle" x="248.5" y="-506.3" font-family="Times,serif" font-size="14.00">(None, 2)</text>
</g>
<!-- 139739430199816&#45;&gt;139739431418568 -->
<g id="edge2" class="edge"><title>139739430199816-&gt;139739431418568</title>
<path fill="none" stroke="black" d="M271.663,-581.366C257.273,-571.812 240.277,-560.528 225.035,-550.409"/>
<polygon fill="black" stroke="black" points="226.564,-547.222 216.297,-544.607 222.692,-553.054 226.564,-547.222"/>
</g>
<!-- 139739430199648 -->
<g id="node4" class="node"><title>139739430199648</title>
<polygon fill="none" stroke="black" points="308.5,-498.5 308.5,-544.5 545.5,-544.5 545.5,-498.5 308.5,-498.5"/>
<text text-anchor="middle" x="358" y="-517.8" font-family="Times,serif" font-size="14.00">log_var: Dense</text>
<polyline fill="none" stroke="black" points="407.5,-498.5 407.5,-544.5 "/>
<text text-anchor="middle" x="435" y="-529.3" font-family="Times,serif" font-size="14.00">input:</text>
<polyline fill="none" stroke="black" points="407.5,-521.5 462.5,-521.5 "/>
<text text-anchor="middle" x="435" y="-506.3" font-family="Times,serif" font-size="14.00">output:</text>
<polyline fill="none" stroke="black" points="462.5,-498.5 462.5,-544.5 "/>
<text text-anchor="middle" x="504" y="-529.3" font-family="Times,serif" font-size="14.00">(None, 256)</text>
<polyline fill="none" stroke="black" points="462.5,-521.5 545.5,-521.5 "/>
<text text-anchor="middle" x="504" y="-506.3" font-family="Times,serif" font-size="14.00">(None, 2)</text>
</g>
<!-- 139739430199816&#45;&gt;139739430199648 -->
<g id="edge3" class="edge"><title>139739430199816-&gt;139739430199648</title>
<path fill="none" stroke="black" d="M338.337,-581.366C352.727,-571.812 369.723,-560.528 384.965,-550.409"/>
<polygon fill="black" stroke="black" points="387.308,-553.054 393.703,-544.607 383.436,-547.222 387.308,-553.054"/>
</g>
<!-- 139739429354576 -->
<g id="node5" class="node"><title>139739429354576</title>
<polygon fill="none" stroke="black" points="135.5,-415.5 135.5,-461.5 474.5,-461.5 474.5,-415.5 135.5,-415.5"/>
<text text-anchor="middle" x="208.5" y="-434.8" font-family="Times,serif" font-size="14.00">kl: KLDivergenceLayer</text>
<polyline fill="none" stroke="black" points="281.5,-415.5 281.5,-461.5 "/>
<text text-anchor="middle" x="309" y="-446.3" font-family="Times,serif" font-size="14.00">input:</text>
<polyline fill="none" stroke="black" points="281.5,-438.5 336.5,-438.5 "/>
<text text-anchor="middle" x="309" y="-423.3" font-family="Times,serif" font-size="14.00">output:</text>
<polyline fill="none" stroke="black" points="336.5,-415.5 336.5,-461.5 "/>
<text text-anchor="middle" x="405.5" y="-446.3" font-family="Times,serif" font-size="14.00">[(None, 2), (None, 2)]</text>
<polyline fill="none" stroke="black" points="336.5,-438.5 474.5,-438.5 "/>
<text text-anchor="middle" x="405.5" y="-423.3" font-family="Times,serif" font-size="14.00">[(None, 2), (None, 2)]</text>
</g>
<!-- 139739431418568&#45;&gt;139739429354576 -->
<g id="edge4" class="edge"><title>139739431418568-&gt;139739429354576</title>
<path fill="none" stroke="black" d="M216.337,-498.366C230.727,-488.812 247.723,-477.528 262.965,-467.409"/>
<polygon fill="black" stroke="black" points="265.308,-470.054 271.703,-461.607 261.436,-464.222 265.308,-470.054"/>
</g>
<!-- 139739430199648&#45;&gt;139739429354576 -->
<g id="edge5" class="edge"><title>139739430199648-&gt;139739429354576</title>
<path fill="none" stroke="black" d="M393.663,-498.366C379.273,-488.812 362.277,-477.528 347.035,-467.409"/>
<polygon fill="black" stroke="black" points="348.564,-464.222 338.297,-461.607 344.692,-470.054 348.564,-464.222"/>
</g>
<!-- 139739429353064 -->
<g id="node6" class="node"><title>139739429353064</title>
<polygon fill="none" stroke="black" points="0,-332.5 0,-378.5 226,-378.5 226,-332.5 0,-332.5"/>
<text text-anchor="middle" x="51" y="-351.8" font-family="Times,serif" font-size="14.00">sigma: Lambda</text>
<polyline fill="none" stroke="black" points="102,-332.5 102,-378.5 "/>
<text text-anchor="middle" x="129.5" y="-363.3" font-family="Times,serif" font-size="14.00">input:</text>
<polyline fill="none" stroke="black" points="102,-355.5 157,-355.5 "/>
<text text-anchor="middle" x="129.5" y="-340.3" font-family="Times,serif" font-size="14.00">output:</text>
<polyline fill="none" stroke="black" points="157,-332.5 157,-378.5 "/>
<text text-anchor="middle" x="191.5" y="-363.3" font-family="Times,serif" font-size="14.00">(None, 2)</text>
<polyline fill="none" stroke="black" points="157,-355.5 226,-355.5 "/>
<text text-anchor="middle" x="191.5" y="-340.3" font-family="Times,serif" font-size="14.00">(None, 2)</text>
</g>
<!-- 139739429354576&#45;&gt;139739429353064 -->
<g id="edge6" class="edge"><title>139739429354576-&gt;139739429353064</title>
<path fill="none" stroke="black" d="M252.789,-415.473C228.665,-405.296 199.845,-393.138 174.659,-382.512"/>
<polygon fill="black" stroke="black" points="175.775,-379.185 165.201,-378.522 173.054,-385.634 175.775,-379.185"/>
</g>
<!-- 139739429354800 -->
<g id="node9" class="node"><title>139739429354800</title>
<polygon fill="none" stroke="black" points="280,-166.5 280,-212.5 526,-212.5 526,-166.5 280,-166.5"/>
<text text-anchor="middle" x="306.5" y="-185.8" font-family="Times,serif" font-size="14.00">z: Add</text>
<polyline fill="none" stroke="black" points="333,-166.5 333,-212.5 "/>
<text text-anchor="middle" x="360.5" y="-197.3" font-family="Times,serif" font-size="14.00">input:</text>
<polyline fill="none" stroke="black" points="333,-189.5 388,-189.5 "/>
<text text-anchor="middle" x="360.5" y="-174.3" font-family="Times,serif" font-size="14.00">output:</text>
<polyline fill="none" stroke="black" points="388,-166.5 388,-212.5 "/>
<text text-anchor="middle" x="457" y="-197.3" font-family="Times,serif" font-size="14.00">[(None, 2), (None, 2)]</text>
<polyline fill="none" stroke="black" points="388,-189.5 526,-189.5 "/>
<text text-anchor="middle" x="457" y="-174.3" font-family="Times,serif" font-size="14.00">(None, 2)</text>
</g>
<!-- 139739429354576&#45;&gt;139739429354800 -->
<g id="edge9" class="edge"><title>139739429354576-&gt;139739429354800</title>
<path fill="none" stroke="black" d="M433.024,-415.48C451.054,-406.937 467.374,-395.174 479,-379 486.886,-368.029 490.342,-273.898 478,-249 472.213,-237.326 462.868,-227.29 452.708,-218.992"/>
<polygon fill="black" stroke="black" points="454.519,-215.973 444.438,-212.712 450.285,-221.547 454.519,-215.973"/>
</g>
<!-- 139739429354408 -->
<g id="node8" class="node"><title>139739429354408</title>
<polygon fill="none" stroke="black" points="146.5,-249.5 146.5,-295.5 469.5,-295.5 469.5,-249.5 146.5,-249.5"/>
<text text-anchor="middle" x="211.5" y="-268.8" font-family="Times,serif" font-size="14.00">sigma_eps: Multiply</text>
<polyline fill="none" stroke="black" points="276.5,-249.5 276.5,-295.5 "/>
<text text-anchor="middle" x="304" y="-280.3" font-family="Times,serif" font-size="14.00">input:</text>
<polyline fill="none" stroke="black" points="276.5,-272.5 331.5,-272.5 "/>
<text text-anchor="middle" x="304" y="-257.3" font-family="Times,serif" font-size="14.00">output:</text>
<polyline fill="none" stroke="black" points="331.5,-249.5 331.5,-295.5 "/>
<text text-anchor="middle" x="400.5" y="-280.3" font-family="Times,serif" font-size="14.00">[(None, 2), (None, 2)]</text>
<polyline fill="none" stroke="black" points="331.5,-272.5 469.5,-272.5 "/>
<text text-anchor="middle" x="400.5" y="-257.3" font-family="Times,serif" font-size="14.00">(None, 2)</text>
</g>
<!-- 139739429353064&#45;&gt;139739429354408 -->
<g id="edge7" class="edge"><title>139739429353064-&gt;139739429354408</title>
<path fill="none" stroke="black" d="M166.027,-332.473C190.636,-322.251 220.056,-310.031 245.716,-299.372"/>
<polygon fill="black" stroke="black" points="247.091,-302.591 254.984,-295.522 244.406,-296.126 247.091,-302.591"/>
</g>
<!-- 139739429351496 -->
<g id="node7" class="node"><title>139739429351496</title>
<polygon fill="none" stroke="black" points="244,-332.5 244,-378.5 470,-378.5 470,-332.5 244,-332.5"/>
<text text-anchor="middle" x="295" y="-351.8" font-family="Times,serif" font-size="14.00">eps: InputLayer</text>
<polyline fill="none" stroke="black" points="346,-332.5 346,-378.5 "/>
<text text-anchor="middle" x="373.5" y="-363.3" font-family="Times,serif" font-size="14.00">input:</text>
<polyline fill="none" stroke="black" points="346,-355.5 401,-355.5 "/>
<text text-anchor="middle" x="373.5" y="-340.3" font-family="Times,serif" font-size="14.00">output:</text>
<polyline fill="none" stroke="black" points="401,-332.5 401,-378.5 "/>
<text text-anchor="middle" x="435.5" y="-363.3" font-family="Times,serif" font-size="14.00">(None, 2)</text>
<polyline fill="none" stroke="black" points="401,-355.5 470,-355.5 "/>
<text text-anchor="middle" x="435.5" y="-340.3" font-family="Times,serif" font-size="14.00">(None, 2)</text>
</g>
<!-- 139739429351496&#45;&gt;139739429354408 -->
<g id="edge8" class="edge"><title>139739429351496-&gt;139739429354408</title>
<path fill="none" stroke="black" d="M343.611,-332.366C338.371,-323.705 332.271,-313.622 326.616,-304.274"/>
<polygon fill="black" stroke="black" points="329.544,-302.351 321.373,-295.607 323.555,-305.975 329.544,-302.351"/>
</g>
<!-- 139739429354408&#45;&gt;139739429354800 -->
<g id="edge10" class="edge"><title>139739429354408-&gt;139739429354800</title>
<path fill="none" stroke="black" d="M333.959,-249.366C344.85,-240.08 357.659,-229.16 369.266,-219.262"/>
<polygon fill="black" stroke="black" points="371.734,-221.758 377.072,-212.607 367.192,-216.432 371.734,-221.758"/>
</g>
<!-- 139739429143384 -->
<g id="node10" class="node"><title>139739429143384</title>
<polygon fill="none" stroke="black" points="262,-83.5 262,-129.5 544,-129.5 544,-83.5 262,-83.5"/>
<text text-anchor="middle" x="334" y="-102.8" font-family="Times,serif" font-size="14.00">decoder_hidden: Dense</text>
<polyline fill="none" stroke="black" points="406,-83.5 406,-129.5 "/>
<text text-anchor="middle" x="433.5" y="-114.3" font-family="Times,serif" font-size="14.00">input:</text>
<polyline fill="none" stroke="black" points="406,-106.5 461,-106.5 "/>
<text text-anchor="middle" x="433.5" y="-91.3" font-family="Times,serif" font-size="14.00">output:</text>
<polyline fill="none" stroke="black" points="461,-83.5 461,-129.5 "/>
<text text-anchor="middle" x="502.5" y="-114.3" font-family="Times,serif" font-size="14.00">(None, 2)</text>
<polyline fill="none" stroke="black" points="461,-106.5 544,-106.5 "/>
<text text-anchor="middle" x="502.5" y="-91.3" font-family="Times,serif" font-size="14.00">(None, 256)</text>
</g>
<!-- 139739429354800&#45;&gt;139739429143384 -->
<g id="edge11" class="edge"><title>139739429354800-&gt;139739429143384</title>
<path fill="none" stroke="black" d="M403,-166.366C403,-158.152 403,-148.658 403,-139.725"/>
<polygon fill="black" stroke="black" points="406.5,-139.607 403,-129.607 399.5,-139.607 406.5,-139.607"/>
</g>
<!-- 139739430966104 -->
<g id="node11" class="node"><title>139739430966104</title>
<polygon fill="none" stroke="black" points="283.5,-0.5 283.5,-46.5 522.5,-46.5 522.5,-0.5 283.5,-0.5"/>
<text text-anchor="middle" x="334" y="-19.8" font-family="Times,serif" font-size="14.00">x_mean: Dense</text>
<polyline fill="none" stroke="black" points="384.5,-0.5 384.5,-46.5 "/>
<text text-anchor="middle" x="412" y="-31.3" font-family="Times,serif" font-size="14.00">input:</text>
<polyline fill="none" stroke="black" points="384.5,-23.5 439.5,-23.5 "/>
<text text-anchor="middle" x="412" y="-8.3" font-family="Times,serif" font-size="14.00">output:</text>
<polyline fill="none" stroke="black" points="439.5,-0.5 439.5,-46.5 "/>
<text text-anchor="middle" x="481" y="-31.3" font-family="Times,serif" font-size="14.00">(None, 256)</text>
<polyline fill="none" stroke="black" points="439.5,-23.5 522.5,-23.5 "/>
<text text-anchor="middle" x="481" y="-8.3" font-family="Times,serif" font-size="14.00">(None, 784)</text>
</g>
<!-- 139739429143384&#45;&gt;139739430966104 -->
<g id="edge12" class="edge"><title>139739429143384-&gt;139739430966104</title>
<path fill="none" stroke="black" d="M403,-83.3664C403,-75.1516 403,-65.6579 403,-56.7252"/>
<polygon fill="black" stroke="black" points="406.5,-56.6068 403,-46.6068 399.5,-56.6069 406.5,-56.6068"/>
</g>
</g>
</svg>