<?xml version="1.0" encoding="UTF-8" standalone="no"?>
<!DOCTYPE svg PUBLIC "-//W3C//DTD SVG 1.1//EN"
 "http://www.w3.org/Graphics/SVG/1.1/DTD/svg11.dtd">
<!-- Generated by graphviz version 2.38.0 (20140413.2041)
 -->
<!-- Title: G Pages: 1 -->
<svg width="554pt" height="719pt"
 viewBox="0.00 0.00 553.50 719.00" xmlns="http://www.w3.org/2000/svg" xmlns:xlink="http://www.w3.org/1999/xlink">
<g id="graph0" class="graph" transform="scale(1 1) rotate(0) translate(4 715)">
<title>G</title>
<polygon fill="white" stroke="none" points="-4,4 -4,-715 549.5,-715 549.5,4 -4,4"/>
<!-- 140521334638744 -->
<g id="node1" class="node"><title>140521334638744</title>
<polygon fill="none" stroke="black" points="190.5,-664.5 190.5,-710.5 419.5,-710.5 419.5,-664.5 190.5,-664.5"/>
<text text-anchor="middle" x="236" y="-683.8" font-family="Times,serif" font-size="14.00">x: InputLayer</text>
<polyline fill="none" stroke="black" points="281.5,-664.5 281.5,-710.5 "/>
<text text-anchor="middle" x="309" y="-695.3" font-family="Times,serif" font-size="14.00">input:</text>
<polyline fill="none" stroke="black" points="281.5,-687.5 336.5,-687.5 "/>
<text text-anchor="middle" x="309" y="-672.3" font-family="Times,serif" font-size="14.00">output:</text>
<polyline fill="none" stroke="black" points="336.5,-664.5 336.5,-710.5 "/>
<text text-anchor="middle" x="378" y="-695.3" font-family="Times,serif" font-size="14.00">(None, 784)</text>
<polyline fill="none" stroke="black" points="336.5,-687.5 419.5,-687.5 "/>
<text text-anchor="middle" x="378" y="-672.3" font-family="Times,serif" font-size="14.00">(None, 784)</text>
</g>
<!-- 140521334639248 -->
<g id="node2" class="node"><title>140521334639248</title>
<polygon fill="none" stroke="black" points="176,-581.5 176,-627.5 434,-627.5 434,-581.5 176,-581.5"/>
<text text-anchor="middle" x="236" y="-600.8" font-family="Times,serif" font-size="14.00">hidden_enc: Dense</text>
<polyline fill="none" stroke="black" points="296,-581.5 296,-627.5 "/>
<text text-anchor="middle" x="323.5" y="-612.3" font-family="Times,serif" font-size="14.00">input:</text>
<polyline fill="none" stroke="black" points="296,-604.5 351,-604.5 "/>
<text text-anchor="middle" x="323.5" y="-589.3" font-family="Times,serif" font-size="14.00">output:</text>
<polyline fill="none" stroke="black" points="351,-581.5 351,-627.5 "/>
<text text-anchor="middle" x="392.5" y="-612.3" font-family="Times,serif" font-size="14.00">(None, 784)</text>
<polyline fill="none" stroke="black" points="351,-604.5 434,-604.5 "/>
<text text-anchor="middle" x="392.5" y="-589.3" font-family="Times,serif" font-size="14.00">(None, 256)</text>
</g>
<!-- 140521334638744&#45;&gt;140521334639248 -->
<g id="edge1" class="edge"><title>140521334638744&#45;&gt;140521334639248</title>
<path fill="none" stroke="black" d="M305,-664.366C305,-656.152 305,-646.658 305,-637.725"/>
<polygon fill="black" stroke="black" points="308.5,-637.607 305,-627.607 301.5,-637.607 308.5,-637.607"/>
</g>
<!-- 140521334640480 -->
<g id="node3" class="node"><title>140521334640480</title>
<polygon fill="none" stroke="black" points="76,-498.5 76,-544.5 290,-544.5 290,-498.5 76,-498.5"/>
<text text-anchor="middle" x="114" y="-517.8" font-family="Times,serif" font-size="14.00">mu: Dense</text>
<polyline fill="none" stroke="black" points="152,-498.5 152,-544.5 "/>
<text text-anchor="middle" x="179.5" y="-529.3" font-family="Times,serif" font-size="14.00">input:</text>
<polyline fill="none" stroke="black" points="152,-521.5 207,-521.5 "/>
<text text-anchor="middle" x="179.5" y="-506.3" font-family="Times,serif" font-size="14.00">output:</text>
<polyline fill="none" stroke="black" points="207,-498.5 207,-544.5 "/>
<text text-anchor="middle" x="248.5" y="-529.3" font-family="Times,serif" font-size="14.00">(None, 256)</text>
<polyline fill="none" stroke="black" points="207,-521.5 290,-521.5 "/>
<text text-anchor="middle" x="248.5" y="-506.3" font-family="Times,serif" font-size="14.00">(None, 2)</text>
</g>
<!-- 140521334639248&#45;&gt;140521334640480 -->
<g id="edge2" class="edge"><title>140521334639248&#45;&gt;140521334640480</title>
<path fill="none" stroke="black" d="M271.663,-581.366C257.273,-571.812 240.277,-560.528 225.035,-550.409"/>
<polygon fill="black" stroke="black" points="226.564,-547.222 216.297,-544.607 222.692,-553.054 226.564,-547.222"/>
</g>
<!-- 140521334475352 -->
<g id="node4" class="node"><title>140521334475352</title>
<polygon fill="none" stroke="black" points="308.5,-498.5 308.5,-544.5 545.5,-544.5 545.5,-498.5 308.5,-498.5"/>
<text text-anchor="middle" x="358" y="-517.8" font-family="Times,serif" font-size="14.00">log_var: Dense</text>
<polyline fill="none" stroke="black" points="407.5,-498.5 407.5,-544.5 "/>
<text text-anchor="middle" x="435" y="-529.3" font-family="Times,serif" font-size="14.00">input:</text>
<polyline fill="none" stroke="black" points="407.5,-521.5 462.5,-521.5 "/>
<text text-anchor="middle" x="435" y="-506.3" font-family="Times,serif" font-size="14.00">output:</text>
<polyline fill="none" stroke="black" points="462.5,-498.5 462.5,-544.5 "/>
<text text-anchor="middle" x="504" y="-529.3" font-family="Times,serif" font-size="14.00">(None, 256)</text>
<polyline fill="none" stroke="black" points="462.5,-521.5 545.5,-521.5 "/>
<text text-anchor="middle" x="504" y="-506.3" font-family="Times,serif" font-size="14.00">(None, 2)</text>
</g>
<!-- 140521334639248&#45;&gt;140521334475352 -->
<g id="edge3" class="edge"><title>140521334639248&#45;&gt;140521334475352</title>
<path fill="none" stroke="black" d="M338.337,-581.366C352.727,-571.812 369.723,-560.528 384.965,-550.409"/>
<polygon fill="black" stroke="black" points="387.308,-553.054 393.703,-544.607 383.436,-547.222 387.308,-553.054"/>
</g>
<!-- 140521333687072 -->
<g id="node5" class="node"><title>140521333687072</title>
<polygon fill="none" stroke="black" points="135.5,-415.5 135.5,-461.5 474.5,-461.5 474.5,-415.5 135.5,-415.5"/>
<text text-anchor="middle" x="208.5" y="-434.8" font-family="Times,serif" font-size="14.00">kl: KLDivergenceLayer</text>
<polyline fill="none" stroke="black" points="281.5,-415.5 281.5,-461.5 "/>
<text text-anchor="middle" x="309" y="-446.3" font-family="Times,serif" font-size="14.00">input:</text>
<polyline fill="none" stroke="black" points="281.5,-438.5 336.5,-438.5 "/>
<text text-anchor="middle" x="309" y="-423.3" font-family="Times,serif" font-size="14.00">output:</text>
<polyline fill="none" stroke="black" points="336.5,-415.5 336.5,-461.5 "/>
<text text-anchor="middle" x="405.5" y="-446.3" font-family="Times,serif" font-size="14.00">[(None, 2), (None, 2)]</text>
<polyline fill="none" stroke="black" points="336.5,-438.5 474.5,-438.5 "/>
<text text-anchor="middle" x="405.5" y="-423.3" font-family="Times,serif" font-size="14.00">[(None, 2), (None, 2)]</text>
</g>
<!-- 140521334640480&#45;&gt;140521333687072 -->
<g id="edge4" class="edge"><title>140521334640480&#45;&gt;140521333687072</title>
<path fill="none" stroke="black" d="M216.337,-498.366C230.727,-488.812 247.723,-477.528 262.965,-467.409"/>
<polygon fill="black" stroke="black" points="265.308,-470.054 271.703,-461.607 261.436,-464.222 265.308,-470.054"/>
</g>
<!-- 140521334475352&#45;&gt;140521333687072 -->
<g id="edge5" class="edge"><title>140521334475352&#45;&gt;140521333687072</title>
<path fill="none" stroke="black" d="M393.663,-498.366C379.273,-488.812 362.277,-477.528 347.035,-467.409"/>
<polygon fill="black" stroke="black" points="348.564,-464.222 338.297,-461.607 344.692,-470.054 348.564,-464.222"/>
</g>
<!-- 140521335410640 -->
<g id="node6" class="node"><title>140521335410640</title>
<polygon fill="none" stroke="black" points="0,-332.5 0,-378.5 226,-378.5 226,-332.5 0,-332.5"/>
<text text-anchor="middle" x="51" y="-351.8" font-family="Times,serif" font-size="14.00">sigma: Lambda</text>
<polyline fill="none" stroke="black" points="102,-332.5 102,-378.5 "/>
<text text-anchor="middle" x="129.5" y="-363.3" font-family="Times,serif" font-size="14.00">input:</text>
<polyline fill="none" stroke="black" points="102,-355.5 157,-355.5 "/>
<text text-anchor="middle" x="129.5" y="-340.3" font-family="Times,serif" font-size="14.00">output:</text>
<polyline fill="none" stroke="black" points="157,-332.5 157,-378.5 "/>
<text text-anchor="middle" x="191.5" y="-363.3" font-family="Times,serif" font-size="14.00">(None, 2)</text>
<polyline fill="none" stroke="black" points="157,-355.5 226,-355.5 "/>
<text text-anchor="middle" x="191.5" y="-340.3" font-family="Times,serif" font-size="14.00">(None, 2)</text>
</g>
<!-- 140521333687072&#45;&gt;140521335410640 -->
<g id="edge6" class="edge"><title>140521333687072&#45;&gt;140521335410640</title>
<path fill="none" stroke="black" d="M252.789,-415.473C228.665,-405.296 199.845,-393.138 174.659,-382.512"/>
<polygon fill="black" stroke="black" points="175.775,-379.185 165.201,-378.522 173.054,-385.634 175.775,-379.185"/>
</g>
<!-- 140521333465272 -->
<g id="node9" class="node"><title>140521333465272</title>
<polygon fill="none" stroke="black" points="287,-166.5 287,-212.5 533,-212.5 533,-166.5 287,-166.5"/>
<text text-anchor="middle" x="313.5" y="-185.8" font-family="Times,serif" font-size="14.00">z: Add</text>
<polyline fill="none" stroke="black" points="340,-166.5 340,-212.5 "/>
<text text-anchor="middle" x="367.5" y="-197.3" font-family="Times,serif" font-size="14.00">input:</text>
<polyline fill="none" stroke="black" points="340,-189.5 395,-189.5 "/>
<text text-anchor="middle" x="367.5" y="-174.3" font-family="Times,serif" font-size="14.00">output:</text>
<polyline fill="none" stroke="black" points="395,-166.5 395,-212.5 "/>
<text text-anchor="middle" x="464" y="-197.3" font-family="Times,serif" font-size="14.00">[(None, 2), (None, 2)]</text>
<polyline fill="none" stroke="black" points="395,-189.5 533,-189.5 "/>
<text text-anchor="middle" x="464" y="-174.3" font-family="Times,serif" font-size="14.00">(None, 2)</text>
</g>
<!-- 140521333687072&#45;&gt;140521333465272 -->
<g id="edge9" class="edge"><title>140521333687072&#45;&gt;140521333465272</title>
<path fill="none" stroke="black" d="M433.024,-415.48C451.054,-406.937 467.374,-395.174 479,-379 512.723,-332.085 503.284,-301.427 479,-249 473.687,-237.531 464.895,-227.491 455.336,-219.115"/>
<polygon fill="black" stroke="black" points="457.516,-216.376 447.558,-212.759 453.087,-221.797 457.516,-216.376"/>
</g>
<!-- 140521335409576 -->
<g id="node8" class="node"><title>140521335409576</title>
<polygon fill="none" stroke="black" points="174,-249.5 174,-295.5 470,-295.5 470,-249.5 174,-249.5"/>
<text text-anchor="middle" x="225.5" y="-268.8" font-family="Times,serif" font-size="14.00">z_eps: Multiply</text>
<polyline fill="none" stroke="black" points="277,-249.5 277,-295.5 "/>
<text text-anchor="middle" x="304.5" y="-280.3" font-family="Times,serif" font-size="14.00">input:</text>
<polyline fill="none" stroke="black" points="277,-272.5 332,-272.5 "/>
<text text-anchor="middle" x="304.5" y="-257.3" font-family="Times,serif" font-size="14.00">output:</text>
<polyline fill="none" stroke="black" points="332,-249.5 332,-295.5 "/>
<text text-anchor="middle" x="401" y="-280.3" font-family="Times,serif" font-size="14.00">[(None, 2), (None, 2)]</text>
<polyline fill="none" stroke="black" points="332,-272.5 470,-272.5 "/>
<text text-anchor="middle" x="401" y="-257.3" font-family="Times,serif" font-size="14.00">(None, 2)</text>
</g>
<!-- 140521335410640&#45;&gt;140521335409576 -->
<g id="edge7" class="edge"><title>140521335410640&#45;&gt;140521335409576</title>
<path fill="none" stroke="black" d="M169.834,-332.473C196.326,-322.206 228.018,-309.924 255.606,-299.232"/>
<polygon fill="black" stroke="black" points="257.118,-302.399 265.177,-295.522 254.588,-295.873 257.118,-302.399"/>
</g>
<!-- 140521333689312 -->
<g id="node7" class="node"><title>140521333689312</title>
<polygon fill="none" stroke="black" points="244,-332.5 244,-378.5 470,-378.5 470,-332.5 244,-332.5"/>
<text text-anchor="middle" x="295" y="-351.8" font-family="Times,serif" font-size="14.00">eps: InputLayer</text>
<polyline fill="none" stroke="black" points="346,-332.5 346,-378.5 "/>
<text text-anchor="middle" x="373.5" y="-363.3" font-family="Times,serif" font-size="14.00">input:</text>
<polyline fill="none" stroke="black" points="346,-355.5 401,-355.5 "/>
<text text-anchor="middle" x="373.5" y="-340.3" font-family="Times,serif" font-size="14.00">output:</text>
<polyline fill="none" stroke="black" points="401,-332.5 401,-378.5 "/>
<text text-anchor="middle" x="435.5" y="-363.3" font-family="Times,serif" font-size="14.00">(None, 2)</text>
<polyline fill="none" stroke="black" points="401,-355.5 470,-355.5 "/>
<text text-anchor="middle" x="435.5" y="-340.3" font-family="Times,serif" font-size="14.00">(None, 2)</text>
</g>
<!-- 140521333689312&#45;&gt;140521335409576 -->
<g id="edge8" class="edge"><title>140521333689312&#45;&gt;140521335409576</title>
<path fill="none" stroke="black" d="M347.436,-332.366C343.771,-323.884 339.516,-314.037 335.548,-304.853"/>
<polygon fill="black" stroke="black" points="338.732,-303.398 331.552,-295.607 332.306,-306.175 338.732,-303.398"/>
</g>
<!-- 140521335409576&#45;&gt;140521333465272 -->
<g id="edge10" class="edge"><title>140521335409576&#45;&gt;140521333465272</title>
<path fill="none" stroke="black" d="M346.046,-249.366C356.038,-240.169 367.772,-229.369 378.441,-219.548"/>
<polygon fill="black" stroke="black" points="380.995,-221.954 385.983,-212.607 376.255,-216.804 380.995,-221.954"/>
</g>
<!-- 140521333307264 -->
<g id="node10" class="node"><title>140521333307264</title>
<polygon fill="none" stroke="black" points="281,-83.5 281,-129.5 539,-129.5 539,-83.5 281,-83.5"/>
<text text-anchor="middle" x="341" y="-102.8" font-family="Times,serif" font-size="14.00">hidden_dec: Dense</text>
<polyline fill="none" stroke="black" points="401,-83.5 401,-129.5 "/>
<text text-anchor="middle" x="428.5" y="-114.3" font-family="Times,serif" font-size="14.00">input:</text>
<polyline fill="none" stroke="black" points="401,-106.5 456,-106.5 "/>
<text text-anchor="middle" x="428.5" y="-91.3" font-family="Times,serif" font-size="14.00">output:</text>
<polyline fill="none" stroke="black" points="456,-83.5 456,-129.5 "/>
<text text-anchor="middle" x="497.5" y="-114.3" font-family="Times,serif" font-size="14.00">(None, 2)</text>
<polyline fill="none" stroke="black" points="456,-106.5 539,-106.5 "/>
<text text-anchor="middle" x="497.5" y="-91.3" font-family="Times,serif" font-size="14.00">(None, 256)</text>
</g>
<!-- 140521333465272&#45;&gt;140521333307264 -->
<g id="edge11" class="edge"><title>140521333465272&#45;&gt;140521333307264</title>
<path fill="none" stroke="black" d="M410,-166.366C410,-158.152 410,-148.658 410,-139.725"/>
<polygon fill="black" stroke="black" points="413.5,-139.607 410,-129.607 406.5,-139.607 413.5,-139.607"/>
</g>
<!-- 140521333307096 -->
<g id="node11" class="node"><title>140521333307096</title>
<polygon fill="none" stroke="black" points="293.5,-0.5 293.5,-46.5 526.5,-46.5 526.5,-0.5 293.5,-0.5"/>
<text text-anchor="middle" x="341" y="-19.8" font-family="Times,serif" font-size="14.00">x_pred: Dense</text>
<polyline fill="none" stroke="black" points="388.5,-0.5 388.5,-46.5 "/>
<text text-anchor="middle" x="416" y="-31.3" font-family="Times,serif" font-size="14.00">input:</text>
<polyline fill="none" stroke="black" points="388.5,-23.5 443.5,-23.5 "/>
<text text-anchor="middle" x="416" y="-8.3" font-family="Times,serif" font-size="14.00">output:</text>
<polyline fill="none" stroke="black" points="443.5,-0.5 443.5,-46.5 "/>
<text text-anchor="middle" x="485" y="-31.3" font-family="Times,serif" font-size="14.00">(None, 256)</text>
<polyline fill="none" stroke="black" points="443.5,-23.5 526.5,-23.5 "/>
<text text-anchor="middle" x="485" y="-8.3" font-family="Times,serif" font-size="14.00">(None, 784)</text>
</g>
<!-- 140521333307264&#45;&gt;140521333307096 -->
<g id="edge12" class="edge"><title>140521333307264&#45;&gt;140521333307096</title>
<path fill="none" stroke="black" d="M410,-83.3664C410,-75.1516 410,-65.6579 410,-56.7252"/>
<polygon fill="black" stroke="black" points="413.5,-56.6068 410,-46.6068 406.5,-56.6069 413.5,-56.6068"/>
</g>
</g>
</svg>
