<svg xmlns="http://www.w3.org/2000/svg" xmlns:xlink="http://www.w3.org/1999/xlink" viewBox="0.00 0.00 283.00 629.00" viewport="0 0 179px 400px">
<g id="graph0" class="graph" transform="scale(1 1) rotate(0) translate(4 625)">
<title>G</title>
<polygon fill="white" stroke="none" points="-4,4 -4,-625 279,-625 279,4 -4,4"/>
<!-- 140518341098464 -->
<g id="node1" class="node"><title>140518341098464</title>
<polygon fill="none" stroke="black" points="104.5,-584.5 104.5,-620.5 195.5,-620.5 195.5,-584.5 104.5,-584.5"/>
<text text-anchor="middle" x="150" y="-598.8" font-family="Times,serif" font-size="14.00">x: InputLayer</text>
</g>
<!-- 140518341096560 -->
<g id="node2" class="node"><title>140518341096560</title>
<polygon fill="none" stroke="black" points="78,-511.5 78,-547.5 222,-547.5 222,-511.5 78,-511.5"/>
<text text-anchor="middle" x="150" y="-525.8" font-family="Times,serif" font-size="14.00">encoder_hidden: Dense</text>
</g>
<!-- 140518341098464&#45;&gt;140518341096560 -->
<g id="edge1" class="edge"><title>140518341098464-&gt;140518341096560</title>
<path fill="none" stroke="black" d="M150,-584.313C150,-576.289 150,-566.547 150,-557.569"/>
<polygon fill="black" stroke="black" points="153.5,-557.529 150,-547.529 146.5,-557.529 153.5,-557.529"/>
</g>
<!-- 140518341097736 -->
<g id="node3" class="node"><title>140518341097736</title>
<polygon fill="none" stroke="black" points="59,-438.5 59,-474.5 135,-474.5 135,-438.5 59,-438.5"/>
<text text-anchor="middle" x="97" y="-452.8" font-family="Times,serif" font-size="14.00">mu: Dense</text>
</g>
<!-- 140518341096560&#45;&gt;140518341097736 -->
<g id="edge2" class="edge"><title>140518341096560-&gt;140518341097736</title>
<path fill="none" stroke="black" d="M137.17,-511.313C130.79,-502.766 122.955,-492.269 115.903,-482.823"/>
<polygon fill="black" stroke="black" points="118.498,-480.449 109.712,-474.529 112.889,-484.636 118.498,-480.449"/>
</g>
<!-- 140518341097960 -->
<g id="node4" class="node"><title>140518341097960</title>
<polygon fill="none" stroke="black" points="153.5,-438.5 153.5,-474.5 252.5,-474.5 252.5,-438.5 153.5,-438.5"/>
<text text-anchor="middle" x="203" y="-452.8" font-family="Times,serif" font-size="14.00">log_var: Dense</text>
</g>
<!-- 140518341096560&#45;&gt;140518341097960 -->
<g id="edge3" class="edge"><title>140518341096560-&gt;140518341097960</title>
<path fill="none" stroke="black" d="M162.83,-511.313C169.21,-502.766 177.045,-492.269 184.097,-482.823"/>
<polygon fill="black" stroke="black" points="187.111,-484.636 190.288,-474.529 181.502,-480.449 187.111,-484.636"/>
</g>
<!-- 140518340379872 -->
<g id="node5" class="node"><title>140518340379872</title>
<polygon fill="none" stroke="black" points="77,-365.5 77,-401.5 223,-401.5 223,-365.5 77,-365.5"/>
<text text-anchor="middle" x="150" y="-379.8" font-family="Times,serif" font-size="14.00">kl: KLDivergenceLayer</text>
</g>
<!-- 140518341097736&#45;&gt;140518340379872 -->
<g id="edge4" class="edge"><title>140518341097736-&gt;140518340379872</title>
<path fill="none" stroke="black" d="M109.83,-438.313C116.21,-429.766 124.045,-419.269 131.097,-409.823"/>
<polygon fill="black" stroke="black" points="134.111,-411.636 137.288,-401.529 128.502,-407.449 134.111,-411.636"/>
</g>
<!-- 140518341097960&#45;&gt;140518340379872 -->
<g id="edge5" class="edge"><title>140518341097960-&gt;140518340379872</title>
<path fill="none" stroke="black" d="M190.17,-438.313C183.79,-429.766 175.955,-419.269 168.903,-409.823"/>
<polygon fill="black" stroke="black" points="171.498,-407.449 162.712,-401.529 165.889,-411.636 171.498,-407.449"/>
</g>
<!-- 140518340380488 -->
<g id="node6" class="node"><title>140518340380488</title>
<polygon fill="none" stroke="black" points="0,-292.5 0,-328.5 102,-328.5 102,-292.5 0,-292.5"/>
<text text-anchor="middle" x="51" y="-306.8" font-family="Times,serif" font-size="14.00">sigma: Lambda</text>
</g>
<!-- 140518340379872&#45;&gt;140518340380488 -->
<g id="edge6" class="edge"><title>140518340379872-&gt;140518340380488</title>
<path fill="none" stroke="black" d="M126.287,-365.494C113.402,-356.253 97.2825,-344.692 83.2685,-334.642"/>
<polygon fill="black" stroke="black" points="85.0286,-331.597 74.8626,-328.614 80.9491,-337.286 85.0286,-331.597"/>
</g>
<!-- 140518340258280 -->
<g id="node9" class="node"><title>140518340258280</title>
<polygon fill="none" stroke="black" points="176,-146.5 176,-182.5 230,-182.5 230,-146.5 176,-146.5"/>
<text text-anchor="middle" x="203" y="-160.8" font-family="Times,serif" font-size="14.00">z: Add</text>
</g>
<!-- 140518340379872&#45;&gt;140518340258280 -->
<g id="edge9" class="edge"><title>140518340379872-&gt;140518340258280</title>
<path fill="none" stroke="black" d="M191.695,-365.365C206.905,-356.833 222.457,-344.881 231,-329 254.161,-285.945 242.672,-266.475 231,-219 228.709,-209.68 224.475,-200.185 219.982,-191.83"/>
<polygon fill="black" stroke="black" points="222.901,-189.885 214.888,-182.954 216.83,-193.369 222.901,-189.885"/>
</g>
<!-- 140518340259008 -->
<g id="node8" class="node"><title>140518340259008</title>
<polygon fill="none" stroke="black" points="92,-219.5 92,-255.5 222,-255.5 222,-219.5 92,-219.5"/>
<text text-anchor="middle" x="157" y="-233.8" font-family="Times,serif" font-size="14.00">sigma_eps: Multiply</text>
</g>
<!-- 140518340380488&#45;&gt;140518340259008 -->
<g id="edge7" class="edge"><title>140518340380488-&gt;140518340259008</title>
<path fill="none" stroke="black" d="M76.3896,-292.494C90.316,-283.166 107.771,-271.474 122.874,-261.358"/>
<polygon fill="black" stroke="black" points="125.09,-264.087 131.45,-255.614 121.194,-258.271 125.09,-264.087"/>
</g>
<!-- 140518340378864 -->
<g id="node7" class="node"><title>140518340378864</title>
<polygon fill="none" stroke="black" points="120,-292.5 120,-328.5 222,-328.5 222,-292.5 120,-292.5"/>
<text text-anchor="middle" x="171" y="-306.8" font-family="Times,serif" font-size="14.00">eps: InputLayer</text>
</g>
<!-- 140518340378864&#45;&gt;140518340259008 -->
<g id="edge8" class="edge"><title>140518340378864-&gt;140518340259008</title>
<path fill="none" stroke="black" d="M167.611,-292.313C166.029,-284.289 164.108,-274.547 162.338,-265.569"/>
<polygon fill="black" stroke="black" points="165.726,-264.663 160.358,-255.529 158.859,-266.017 165.726,-264.663"/>
</g>
<!-- 140518340259008&#45;&gt;140518340258280 -->
<g id="edge10" class="edge"><title>140518340259008-&gt;140518340258280</title>
<path fill="none" stroke="black" d="M168.135,-219.313C173.616,-210.853 180.335,-200.484 186.406,-191.112"/>
<polygon fill="black" stroke="black" points="189.467,-192.824 191.967,-182.529 183.592,-189.018 189.467,-192.824"/>
</g>
<!-- 140518340666760 -->
<g id="node10" class="node"><title>140518340666760</title>
<polygon fill="none" stroke="black" points="131,-73.5 131,-109.5 275,-109.5 275,-73.5 131,-73.5"/>
<text text-anchor="middle" x="203" y="-87.8" font-family="Times,serif" font-size="14.00">decoder_hidden: Dense</text>
</g>
<!-- 140518340258280&#45;&gt;140518340666760 -->
<g id="edge11" class="edge"><title>140518340258280-&gt;140518340666760</title>
<path fill="none" stroke="black" d="M203,-146.313C203,-138.289 203,-128.547 203,-119.569"/>
<polygon fill="black" stroke="black" points="206.5,-119.529 203,-109.529 199.5,-119.529 206.5,-119.529"/>
</g>
<!-- 140518340669056 -->
<g id="node11" class="node"><title>140518340669056</title>
<polygon fill="none" stroke="black" points="152.5,-0.5 152.5,-36.5 253.5,-36.5 253.5,-0.5 152.5,-0.5"/>
<text text-anchor="middle" x="203" y="-14.8" font-family="Times,serif" font-size="14.00">x_mean: Dense</text>
</g>
<!-- 140518340666760&#45;&gt;140518340669056 -->
<g id="edge12" class="edge"><title>140518340666760-&gt;140518340669056</title>
<path fill="none" stroke="black" d="M203,-73.3129C203,-65.2895 203,-55.5475 203,-46.5691"/>
<polygon fill="black" stroke="black" points="206.5,-46.5288 203,-36.5288 199.5,-46.5289 206.5,-46.5288"/>
</g>
</g>
</svg>