<svg xmlns="http://www.w3.org/2000/svg" xmlns:xlink="http://www.w3.org/1999/xlink" viewBox="0.00 0.00 574.00 719.00" viewport="0 0 1021px 1280px">
<g id="graph0" class="graph" transform="scale(1 1) rotate(0) translate(4 715)">
<title>G</title>
<polygon fill="white" stroke="none" points="-4,4 -4,-715 570,-715 570,4 -4,4"/>
<!-- 140434991284912 -->
<g id="node1" class="node"><title>140434991284912</title>
<polygon fill="none" stroke="black" points="201.5,-664.5 201.5,-710.5 430.5,-710.5 430.5,-664.5 201.5,-664.5"/>
<text text-anchor="middle" x="247" y="-683.8" font-family="Times,serif" font-size="14.00">x: InputLayer</text>
<polyline fill="none" stroke="black" points="292.5,-664.5 292.5,-710.5 "/>
<text text-anchor="middle" x="320" y="-695.3" font-family="Times,serif" font-size="14.00">input:</text>
<polyline fill="none" stroke="black" points="292.5,-687.5 347.5,-687.5 "/>
<text text-anchor="middle" x="320" y="-672.3" font-family="Times,serif" font-size="14.00">output:</text>
<polyline fill="none" stroke="black" points="347.5,-664.5 347.5,-710.5 "/>
<text text-anchor="middle" x="389" y="-695.3" font-family="Times,serif" font-size="14.00">(None, 784)</text>
<polyline fill="none" stroke="black" points="347.5,-687.5 430.5,-687.5 "/>
<text text-anchor="middle" x="389" y="-672.3" font-family="Times,serif" font-size="14.00">(None, 784)</text>
</g>
<!-- 140434991287264 -->
<g id="node2" class="node"><title>140434991287264</title>
<polygon fill="none" stroke="black" points="175,-581.5 175,-627.5 457,-627.5 457,-581.5 175,-581.5"/>
<text text-anchor="middle" x="247" y="-600.8" font-family="Times,serif" font-size="14.00">encoder_hidden: Dense</text>
<polyline fill="none" stroke="black" points="319,-581.5 319,-627.5 "/>
<text text-anchor="middle" x="346.5" y="-612.3" font-family="Times,serif" font-size="14.00">input:</text>
<polyline fill="none" stroke="black" points="319,-604.5 374,-604.5 "/>
<text text-anchor="middle" x="346.5" y="-589.3" font-family="Times,serif" font-size="14.00">output:</text>
<polyline fill="none" stroke="black" points="374,-581.5 374,-627.5 "/>
<text text-anchor="middle" x="415.5" y="-612.3" font-family="Times,serif" font-size="14.00">(None, 784)</text>
<polyline fill="none" stroke="black" points="374,-604.5 457,-604.5 "/>
<text text-anchor="middle" x="415.5" y="-589.3" font-family="Times,serif" font-size="14.00">(None, 256)</text>
</g>
<!-- 140434991284912&#45;&gt;140434991287264 -->
<g id="edge1" class="edge"><title>140434991284912-&gt;140434991287264</title>
<path fill="none" stroke="black" d="M316,-664.366C316,-656.152 316,-646.658 316,-637.725"/>
<polygon fill="black" stroke="black" points="319.5,-637.607 316,-627.607 312.5,-637.607 319.5,-637.607"/>
</g>
<!-- 140434991288272 -->
<g id="node3" class="node"><title>140434991288272</title>
<polygon fill="none" stroke="black" points="87,-498.5 87,-544.5 301,-544.5 301,-498.5 87,-498.5"/>
<text text-anchor="middle" x="125" y="-517.8" font-family="Times,serif" font-size="14.00">mu: Dense</text>
<polyline fill="none" stroke="black" points="163,-498.5 163,-544.5 "/>
<text text-anchor="middle" x="190.5" y="-529.3" font-family="Times,serif" font-size="14.00">input:</text>
<polyline fill="none" stroke="black" points="163,-521.5 218,-521.5 "/>
<text text-anchor="middle" x="190.5" y="-506.3" font-family="Times,serif" font-size="14.00">output:</text>
<polyline fill="none" stroke="black" points="218,-498.5 218,-544.5 "/>
<text text-anchor="middle" x="259.5" y="-529.3" font-family="Times,serif" font-size="14.00">(None, 256)</text>
<polyline fill="none" stroke="black" points="218,-521.5 301,-521.5 "/>
<text text-anchor="middle" x="259.5" y="-506.3" font-family="Times,serif" font-size="14.00">(None, 2)</text>
</g>
<!-- 140434991287264&#45;&gt;140434991288272 -->
<g id="edge2" class="edge"><title>140434991287264-&gt;140434991288272</title>
<path fill="none" stroke="black" d="M282.663,-581.366C268.273,-571.812 251.277,-560.528 236.035,-550.409"/>
<polygon fill="black" stroke="black" points="237.564,-547.222 227.297,-544.607 233.692,-553.054 237.564,-547.222"/>
</g>
<!-- 140434991287600 -->
<g id="node4" class="node"><title>140434991287600</title>
<polygon fill="none" stroke="black" points="319.5,-498.5 319.5,-544.5 556.5,-544.5 556.5,-498.5 319.5,-498.5"/>
<text text-anchor="middle" x="369" y="-517.8" font-family="Times,serif" font-size="14.00">log_var: Dense</text>
<polyline fill="none" stroke="black" points="418.5,-498.5 418.5,-544.5 "/>
<text text-anchor="middle" x="446" y="-529.3" font-family="Times,serif" font-size="14.00">input:</text>
<polyline fill="none" stroke="black" points="418.5,-521.5 473.5,-521.5 "/>
<text text-anchor="middle" x="446" y="-506.3" font-family="Times,serif" font-size="14.00">output:</text>
<polyline fill="none" stroke="black" points="473.5,-498.5 473.5,-544.5 "/>
<text text-anchor="middle" x="515" y="-529.3" font-family="Times,serif" font-size="14.00">(None, 256)</text>
<polyline fill="none" stroke="black" points="473.5,-521.5 556.5,-521.5 "/>
<text text-anchor="middle" x="515" y="-506.3" font-family="Times,serif" font-size="14.00">(None, 2)</text>
</g>
<!-- 140434991287264&#45;&gt;140434991287600 -->
<g id="edge3" class="edge"><title>140434991287264-&gt;140434991287600</title>
<path fill="none" stroke="black" d="M349.337,-581.366C363.727,-571.812 380.723,-560.528 395.965,-550.409"/>
<polygon fill="black" stroke="black" points="398.308,-553.054 404.703,-544.607 394.436,-547.222 398.308,-553.054"/>
</g>
<!-- 140434992459672 -->
<g id="node5" class="node"><title>140434992459672</title>
<polygon fill="none" stroke="black" points="146.5,-415.5 146.5,-461.5 485.5,-461.5 485.5,-415.5 146.5,-415.5"/>
<text text-anchor="middle" x="219.5" y="-434.8" font-family="Times,serif" font-size="14.00">kl: KLDivergenceLayer</text>
<polyline fill="none" stroke="black" points="292.5,-415.5 292.5,-461.5 "/>
<text text-anchor="middle" x="320" y="-446.3" font-family="Times,serif" font-size="14.00">input:</text>
<polyline fill="none" stroke="black" points="292.5,-438.5 347.5,-438.5 "/>
<text text-anchor="middle" x="320" y="-423.3" font-family="Times,serif" font-size="14.00">output:</text>
<polyline fill="none" stroke="black" points="347.5,-415.5 347.5,-461.5 "/>
<text text-anchor="middle" x="416.5" y="-446.3" font-family="Times,serif" font-size="14.00">[(None, 2), (None, 2)]</text>
<polyline fill="none" stroke="black" points="347.5,-438.5 485.5,-438.5 "/>
<text text-anchor="middle" x="416.5" y="-423.3" font-family="Times,serif" font-size="14.00">[(None, 2), (None, 2)]</text>
</g>
<!-- 140434991288272&#45;&gt;140434992459672 -->
<g id="edge4" class="edge"><title>140434991288272-&gt;140434992459672</title>
<path fill="none" stroke="black" d="M227.337,-498.366C241.727,-488.812 258.723,-477.528 273.965,-467.409"/>
<polygon fill="black" stroke="black" points="276.308,-470.054 282.703,-461.607 272.436,-464.222 276.308,-470.054"/>
</g>
<!-- 140434991287600&#45;&gt;140434992459672 -->
<g id="edge5" class="edge"><title>140434991287600-&gt;140434992459672</title>
<path fill="none" stroke="black" d="M404.663,-498.366C390.273,-488.812 373.277,-477.528 358.035,-467.409"/>
<polygon fill="black" stroke="black" points="359.564,-464.222 349.297,-461.607 355.692,-470.054 359.564,-464.222"/>
</g>
<!-- 140434992808568 -->
<g id="node6" class="node"><title>140434992808568</title>
<polygon fill="none" stroke="black" points="0,-332.5 0,-378.5 226,-378.5 226,-332.5 0,-332.5"/>
<text text-anchor="middle" x="51" y="-351.8" font-family="Times,serif" font-size="14.00">sigma: Lambda</text>
<polyline fill="none" stroke="black" points="102,-332.5 102,-378.5 "/>
<text text-anchor="middle" x="129.5" y="-363.3" font-family="Times,serif" font-size="14.00">input:</text>
<polyline fill="none" stroke="black" points="102,-355.5 157,-355.5 "/>
<text text-anchor="middle" x="129.5" y="-340.3" font-family="Times,serif" font-size="14.00">output:</text>
<polyline fill="none" stroke="black" points="157,-332.5 157,-378.5 "/>
<text text-anchor="middle" x="191.5" y="-363.3" font-family="Times,serif" font-size="14.00">(None, 2)</text>
<polyline fill="none" stroke="black" points="157,-355.5 226,-355.5 "/>
<text text-anchor="middle" x="191.5" y="-340.3" font-family="Times,serif" font-size="14.00">(None, 2)</text>
</g>
<!-- 140434992459672&#45;&gt;140434992808568 -->
<g id="edge6" class="edge"><title>140434992459672-&gt;140434992808568</title>
<path fill="none" stroke="black" d="M260.797,-415.473C235.067,-405.206 204.284,-392.924 177.488,-382.232"/>
<polygon fill="black" stroke="black" points="178.777,-378.978 168.192,-378.522 176.182,-385.479 178.777,-378.978"/>
</g>
<!-- 140434992456368 -->
<g id="node9" class="node"><title>140434992456368</title>
<polygon fill="none" stroke="black" points="302,-166.5 302,-212.5 548,-212.5 548,-166.5 302,-166.5"/>
<text text-anchor="middle" x="328.5" y="-185.8" font-family="Times,serif" font-size="14.00">z: Add</text>
<polyline fill="none" stroke="black" points="355,-166.5 355,-212.5 "/>
<text text-anchor="middle" x="382.5" y="-197.3" font-family="Times,serif" font-size="14.00">input:</text>
<polyline fill="none" stroke="black" points="355,-189.5 410,-189.5 "/>
<text text-anchor="middle" x="382.5" y="-174.3" font-family="Times,serif" font-size="14.00">output:</text>
<polyline fill="none" stroke="black" points="410,-166.5 410,-212.5 "/>
<text text-anchor="middle" x="479" y="-197.3" font-family="Times,serif" font-size="14.00">[(None, 2), (None, 2)]</text>
<polyline fill="none" stroke="black" points="410,-189.5 548,-189.5 "/>
<text text-anchor="middle" x="479" y="-174.3" font-family="Times,serif" font-size="14.00">(None, 2)</text>
</g>
<!-- 140434992459672&#45;&gt;140434992456368 -->
<g id="edge9" class="edge"><title>140434992459672-&gt;140434992456368</title>
<path fill="none" stroke="black" d="M453.99,-415.466C471.985,-406.873 488.226,-395.098 500,-379 534.109,-332.365 525.349,-300.92 500,-249 494.283,-237.291 484.965,-227.242 474.809,-218.943"/>
<polygon fill="black" stroke="black" points="476.619,-215.922 466.537,-212.663 472.386,-221.498 476.619,-215.922"/>
</g>
<!-- 140434992457992 -->
<g id="node8" class="node"><title>140434992457992</title>
<polygon fill="none" stroke="black" points="168.5,-249.5 168.5,-295.5 491.5,-295.5 491.5,-249.5 168.5,-249.5"/>
<text text-anchor="middle" x="233.5" y="-268.8" font-family="Times,serif" font-size="14.00">sigma_eps: Multiply</text>
<polyline fill="none" stroke="black" points="298.5,-249.5 298.5,-295.5 "/>
<text text-anchor="middle" x="326" y="-280.3" font-family="Times,serif" font-size="14.00">input:</text>
<polyline fill="none" stroke="black" points="298.5,-272.5 353.5,-272.5 "/>
<text text-anchor="middle" x="326" y="-257.3" font-family="Times,serif" font-size="14.00">output:</text>
<polyline fill="none" stroke="black" points="353.5,-249.5 353.5,-295.5 "/>
<text text-anchor="middle" x="422.5" y="-280.3" font-family="Times,serif" font-size="14.00">[(None, 2), (None, 2)]</text>
<polyline fill="none" stroke="black" points="353.5,-272.5 491.5,-272.5 "/>
<text text-anchor="middle" x="422.5" y="-257.3" font-family="Times,serif" font-size="14.00">(None, 2)</text>
</g>
<!-- 140434992808568&#45;&gt;140434992457992 -->
<g id="edge7" class="edge"><title>140434992808568-&gt;140434992457992</title>
<path fill="none" stroke="black" d="M172.01,-332.473C199.635,-322.162 232.708,-309.816 261.439,-299.092"/>
<polygon fill="black" stroke="black" points="262.858,-302.298 271.002,-295.522 260.41,-295.74 262.858,-302.298"/>
</g>
<!-- 140434992456424 -->
<g id="node7" class="node"><title>140434992456424</title>
<polygon fill="none" stroke="black" points="244.5,-332.5 244.5,-378.5 491.5,-378.5 491.5,-332.5 244.5,-332.5"/>
<text text-anchor="middle" x="306" y="-351.8" font-family="Times,serif" font-size="14.00">epsilon: InputLayer</text>
<polyline fill="none" stroke="black" points="367.5,-332.5 367.5,-378.5 "/>
<text text-anchor="middle" x="395" y="-363.3" font-family="Times,serif" font-size="14.00">input:</text>
<polyline fill="none" stroke="black" points="367.5,-355.5 422.5,-355.5 "/>
<text text-anchor="middle" x="395" y="-340.3" font-family="Times,serif" font-size="14.00">output:</text>
<polyline fill="none" stroke="black" points="422.5,-332.5 422.5,-378.5 "/>
<text text-anchor="middle" x="457" y="-363.3" font-family="Times,serif" font-size="14.00">(None, 2)</text>
<polyline fill="none" stroke="black" points="422.5,-355.5 491.5,-355.5 "/>
<text text-anchor="middle" x="457" y="-340.3" font-family="Times,serif" font-size="14.00">(None, 2)</text>
</g>
<!-- 140434992456424&#45;&gt;140434992457992 -->
<g id="edge8" class="edge"><title>140434992456424-&gt;140434992457992</title>
<path fill="none" stroke="black" d="M357.616,-332.366C353.637,-323.884 349.018,-314.037 344.709,-304.853"/>
<polygon fill="black" stroke="black" points="347.787,-303.174 340.371,-295.607 341.45,-306.147 347.787,-303.174"/>
</g>
<!-- 140434992457992&#45;&gt;140434992456368 -->
<g id="edge10" class="edge"><title>140434992457992-&gt;140434992456368</title>
<path fill="none" stroke="black" d="M355.959,-249.366C366.85,-240.08 379.659,-229.16 391.266,-219.262"/>
<polygon fill="black" stroke="black" points="393.734,-221.758 399.072,-212.607 389.192,-216.432 393.734,-221.758"/>
</g>
<!-- 140434989786952 -->
<g id="node10" class="node"><title>140434989786952</title>
<polygon fill="none" stroke="black" points="284,-83.5 284,-129.5 566,-129.5 566,-83.5 284,-83.5"/>
<text text-anchor="middle" x="356" y="-102.8" font-family="Times,serif" font-size="14.00">decoder_hidden: Dense</text>
<polyline fill="none" stroke="black" points="428,-83.5 428,-129.5 "/>
<text text-anchor="middle" x="455.5" y="-114.3" font-family="Times,serif" font-size="14.00">input:</text>
<polyline fill="none" stroke="black" points="428,-106.5 483,-106.5 "/>
<text text-anchor="middle" x="455.5" y="-91.3" font-family="Times,serif" font-size="14.00">output:</text>
<polyline fill="none" stroke="black" points="483,-83.5 483,-129.5 "/>
<text text-anchor="middle" x="524.5" y="-114.3" font-family="Times,serif" font-size="14.00">(None, 2)</text>
<polyline fill="none" stroke="black" points="483,-106.5 566,-106.5 "/>
<text text-anchor="middle" x="524.5" y="-91.3" font-family="Times,serif" font-size="14.00">(None, 256)</text>
</g>
<!-- 140434992456368&#45;&gt;140434989786952 -->
<g id="edge11" class="edge"><title>140434992456368-&gt;140434989786952</title>
<path fill="none" stroke="black" d="M425,-166.366C425,-158.152 425,-148.658 425,-139.725"/>
<polygon fill="black" stroke="black" points="428.5,-139.607 425,-129.607 421.5,-139.607 428.5,-139.607"/>
</g>
<!-- 140434989788016 -->
<g id="node11" class="node"><title>140434989788016</title>
<polygon fill="none" stroke="black" points="305.5,-0.5 305.5,-46.5 544.5,-46.5 544.5,-0.5 305.5,-0.5"/>
<text text-anchor="middle" x="356" y="-19.8" font-family="Times,serif" font-size="14.00">x_mean: Dense</text>
<polyline fill="none" stroke="black" points="406.5,-0.5 406.5,-46.5 "/>
<text text-anchor="middle" x="434" y="-31.3" font-family="Times,serif" font-size="14.00">input:</text>
<polyline fill="none" stroke="black" points="406.5,-23.5 461.5,-23.5 "/>
<text text-anchor="middle" x="434" y="-8.3" font-family="Times,serif" font-size="14.00">output:</text>
<polyline fill="none" stroke="black" points="461.5,-0.5 461.5,-46.5 "/>
<text text-anchor="middle" x="503" y="-31.3" font-family="Times,serif" font-size="14.00">(None, 256)</text>
<polyline fill="none" stroke="black" points="461.5,-23.5 544.5,-23.5 "/>
<text text-anchor="middle" x="503" y="-8.3" font-family="Times,serif" font-size="14.00">(None, 784)</text>
</g>
<!-- 140434989786952&#45;&gt;140434989788016 -->
<g id="edge12" class="edge"><title>140434989786952-&gt;140434989788016</title>
<path fill="none" stroke="black" d="M425,-83.3664C425,-75.1516 425,-65.6579 425,-56.7252"/>
<polygon fill="black" stroke="black" points="428.5,-56.6068 425,-46.6068 421.5,-56.6069 428.5,-56.6068"/>
</g>
</g>
</svg>