<?xml version="1.0" encoding="UTF-8" standalone="no"?>
<!DOCTYPE svg PUBLIC "-//W3C//DTD SVG 1.1//EN"
 "http://www.w3.org/Graphics/SVG/1.1/DTD/svg11.dtd">
<!-- Generated by graphviz version 2.38.0 (20140413.2041)
 -->
<!-- Title: G Pages: 1 -->
<svg width="305pt" height="629pt"
 viewBox="0.00 0.00 305.00 629.00" xmlns="http://www.w3.org/2000/svg" xmlns:xlink="http://www.w3.org/1999/xlink">
<g id="graph0" class="graph" transform="scale(1 1) rotate(0) translate(4 625)">
<title>G</title>
<polygon fill="white" stroke="none" points="-4,4 -4,-625 301,-625 301,4 -4,4"/>
<!-- 140434991284912 -->
<g id="node1" class="node"><title>140434991284912</title>
<polygon fill="none" stroke="black" points="115.5,-584.5 115.5,-620.5 206.5,-620.5 206.5,-584.5 115.5,-584.5"/>
<text text-anchor="middle" x="161" y="-598.8" font-family="Times,serif" font-size="14.00">x: InputLayer</text>
</g>
<!-- 140434991287264 -->
<g id="node2" class="node"><title>140434991287264</title>
<polygon fill="none" stroke="black" points="89,-511.5 89,-547.5 233,-547.5 233,-511.5 89,-511.5"/>
<text text-anchor="middle" x="161" y="-525.8" font-family="Times,serif" font-size="14.00">encoder_hidden: Dense</text>
</g>
<!-- 140434991284912&#45;&gt;140434991287264 -->
<g id="edge1" class="edge"><title>140434991284912&#45;&gt;140434991287264</title>
<path fill="none" stroke="black" d="M161,-584.313C161,-576.289 161,-566.547 161,-557.569"/>
<polygon fill="black" stroke="black" points="164.5,-557.529 161,-547.529 157.5,-557.529 164.5,-557.529"/>
</g>
<!-- 140434991288272 -->
<g id="node3" class="node"><title>140434991288272</title>
<polygon fill="none" stroke="black" points="70,-438.5 70,-474.5 146,-474.5 146,-438.5 70,-438.5"/>
<text text-anchor="middle" x="108" y="-452.8" font-family="Times,serif" font-size="14.00">mu: Dense</text>
</g>
<!-- 140434991287264&#45;&gt;140434991288272 -->
<g id="edge2" class="edge"><title>140434991287264&#45;&gt;140434991288272</title>
<path fill="none" stroke="black" d="M148.17,-511.313C141.79,-502.766 133.955,-492.269 126.903,-482.823"/>
<polygon fill="black" stroke="black" points="129.498,-480.449 120.712,-474.529 123.889,-484.636 129.498,-480.449"/>
</g>
<!-- 140434991287600 -->
<g id="node4" class="node"><title>140434991287600</title>
<polygon fill="none" stroke="black" points="164.5,-438.5 164.5,-474.5 263.5,-474.5 263.5,-438.5 164.5,-438.5"/>
<text text-anchor="middle" x="214" y="-452.8" font-family="Times,serif" font-size="14.00">log_var: Dense</text>
</g>
<!-- 140434991287264&#45;&gt;140434991287600 -->
<g id="edge3" class="edge"><title>140434991287264&#45;&gt;140434991287600</title>
<path fill="none" stroke="black" d="M173.83,-511.313C180.21,-502.766 188.045,-492.269 195.097,-482.823"/>
<polygon fill="black" stroke="black" points="198.111,-484.636 201.288,-474.529 192.502,-480.449 198.111,-484.636"/>
</g>
<!-- 140434992459672 -->
<g id="node5" class="node"><title>140434992459672</title>
<polygon fill="none" stroke="black" points="88,-365.5 88,-401.5 234,-401.5 234,-365.5 88,-365.5"/>
<text text-anchor="middle" x="161" y="-379.8" font-family="Times,serif" font-size="14.00">kl: KLDivergenceLayer</text>
</g>
<!-- 140434991288272&#45;&gt;140434992459672 -->
<g id="edge4" class="edge"><title>140434991288272&#45;&gt;140434992459672</title>
<path fill="none" stroke="black" d="M120.83,-438.313C127.21,-429.766 135.045,-419.269 142.097,-409.823"/>
<polygon fill="black" stroke="black" points="145.111,-411.636 148.288,-401.529 139.502,-407.449 145.111,-411.636"/>
</g>
<!-- 140434991287600&#45;&gt;140434992459672 -->
<g id="edge5" class="edge"><title>140434991287600&#45;&gt;140434992459672</title>
<path fill="none" stroke="black" d="M201.17,-438.313C194.79,-429.766 186.955,-419.269 179.903,-409.823"/>
<polygon fill="black" stroke="black" points="182.498,-407.449 173.712,-401.529 176.889,-411.636 182.498,-407.449"/>
</g>
<!-- 140434992808568 -->
<g id="node6" class="node"><title>140434992808568</title>
<polygon fill="none" stroke="black" points="0,-292.5 0,-328.5 102,-328.5 102,-292.5 0,-292.5"/>
<text text-anchor="middle" x="51" y="-306.8" font-family="Times,serif" font-size="14.00">sigma: Lambda</text>
</g>
<!-- 140434992459672&#45;&gt;140434992808568 -->
<g id="edge6" class="edge"><title>140434992459672&#45;&gt;140434992808568</title>
<path fill="none" stroke="black" d="M134.652,-365.494C120.065,-356.079 101.748,-344.255 85.975,-334.075"/>
<polygon fill="black" stroke="black" points="87.8139,-331.096 77.514,-328.614 84.0178,-336.977 87.8139,-331.096"/>
</g>
<!-- 140434992456368 -->
<g id="node9" class="node"><title>140434992456368</title>
<polygon fill="none" stroke="black" points="198,-146.5 198,-182.5 252,-182.5 252,-146.5 198,-146.5"/>
<text text-anchor="middle" x="225" y="-160.8" font-family="Times,serif" font-size="14.00">z: Add</text>
</g>
<!-- 140434992459672&#45;&gt;140434992456368 -->
<g id="edge9" class="edge"><title>140434992459672&#45;&gt;140434992456368</title>
<path fill="none" stroke="black" d="M209.975,-365.257C226.252,-356.938 242.606,-345.162 252,-329 276.568,-286.73 264.673,-266.477 253,-219 250.709,-209.68 246.475,-200.185 241.982,-191.83"/>
<polygon fill="black" stroke="black" points="244.901,-189.885 236.888,-182.954 238.83,-193.369 244.901,-189.885"/>
</g>
<!-- 140434992457992 -->
<g id="node8" class="node"><title>140434992457992</title>
<polygon fill="none" stroke="black" points="114,-219.5 114,-255.5 244,-255.5 244,-219.5 114,-219.5"/>
<text text-anchor="middle" x="179" y="-233.8" font-family="Times,serif" font-size="14.00">sigma_eps: Multiply</text>
</g>
<!-- 140434992808568&#45;&gt;140434992457992 -->
<g id="edge7" class="edge"><title>140434992808568&#45;&gt;140434992457992</title>
<path fill="none" stroke="black" d="M81.6592,-292.494C98.9474,-282.904 120.739,-270.817 139.318,-260.511"/>
<polygon fill="black" stroke="black" points="141.1,-263.525 148.147,-255.614 137.705,-257.404 141.1,-263.525"/>
</g>
<!-- 140434992456424 -->
<g id="node7" class="node"><title>140434992456424</title>
<polygon fill="none" stroke="black" points="120.5,-292.5 120.5,-328.5 243.5,-328.5 243.5,-292.5 120.5,-292.5"/>
<text text-anchor="middle" x="182" y="-306.8" font-family="Times,serif" font-size="14.00">epsilon: InputLayer</text>
</g>
<!-- 140434992456424&#45;&gt;140434992457992 -->
<g id="edge8" class="edge"><title>140434992456424&#45;&gt;140434992457992</title>
<path fill="none" stroke="black" d="M181.274,-292.313C180.935,-284.289 180.523,-274.547 180.144,-265.569"/>
<polygon fill="black" stroke="black" points="183.639,-265.372 179.72,-255.529 176.645,-265.668 183.639,-265.372"/>
</g>
<!-- 140434992457992&#45;&gt;140434992456368 -->
<g id="edge10" class="edge"><title>140434992457992&#45;&gt;140434992456368</title>
<path fill="none" stroke="black" d="M190.135,-219.313C195.616,-210.853 202.335,-200.484 208.406,-191.112"/>
<polygon fill="black" stroke="black" points="211.467,-192.824 213.967,-182.529 205.592,-189.018 211.467,-192.824"/>
</g>
<!-- 140434989786952 -->
<g id="node10" class="node"><title>140434989786952</title>
<polygon fill="none" stroke="black" points="153,-73.5 153,-109.5 297,-109.5 297,-73.5 153,-73.5"/>
<text text-anchor="middle" x="225" y="-87.8" font-family="Times,serif" font-size="14.00">decoder_hidden: Dense</text>
</g>
<!-- 140434992456368&#45;&gt;140434989786952 -->
<g id="edge11" class="edge"><title>140434992456368&#45;&gt;140434989786952</title>
<path fill="none" stroke="black" d="M225,-146.313C225,-138.289 225,-128.547 225,-119.569"/>
<polygon fill="black" stroke="black" points="228.5,-119.529 225,-109.529 221.5,-119.529 228.5,-119.529"/>
</g>
<!-- 140434989788016 -->
<g id="node11" class="node"><title>140434989788016</title>
<polygon fill="none" stroke="black" points="174.5,-0.5 174.5,-36.5 275.5,-36.5 275.5,-0.5 174.5,-0.5"/>
<text text-anchor="middle" x="225" y="-14.8" font-family="Times,serif" font-size="14.00">x_mean: Dense</text>
</g>
<!-- 140434989786952&#45;&gt;140434989788016 -->
<g id="edge12" class="edge"><title>140434989786952&#45;&gt;140434989788016</title>
<path fill="none" stroke="black" d="M225,-73.3129C225,-65.2895 225,-55.5475 225,-46.5691"/>
<polygon fill="black" stroke="black" points="228.5,-46.5288 225,-36.5288 221.5,-46.5289 228.5,-46.5288"/>
</g>
</g>
</svg>
