<svg xmlns="http://www.w3.org/2000/svg" xmlns:xlink="http://www.w3.org/1999/xlink" viewBox="0.00 0.00 560.24 701.00" viewport="0 0 1022px 1280px">
<g id="graph0" class="graph" transform="scale(1 1) rotate(0) translate(4 697)">
<title>G</title>
<polygon fill="#ffffff" stroke="transparent" points="-4,4 -4,-697 556.2383,-697 556.2383,4 -4,4"/>
<!-- 4753000488 -->
<g id="node1" class="node">
<title>4753000488</title>
<polygon fill="none" stroke="#000000" points="193.0586,-648.5 193.0586,-692.5 424.959,-692.5 424.959,-648.5 193.0586,-648.5"/>
<text text-anchor="middle" x="239.3501" y="-666.3" font-family="Times,serif" font-size="14.00" fill="#000000">x: InputLayer</text>
<polyline fill="none" stroke="#000000" points="285.6416,-648.5 285.6416,-692.5 "/>
<text text-anchor="middle" x="313.4761" y="-677.3" font-family="Times,serif" font-size="14.00" fill="#000000">input:</text>
<polyline fill="none" stroke="#000000" points="285.6416,-670.5 341.3105,-670.5 "/>
<text text-anchor="middle" x="313.4761" y="-655.3" font-family="Times,serif" font-size="14.00" fill="#000000">output:</text>
<polyline fill="none" stroke="#000000" points="341.3105,-648.5 341.3105,-692.5 "/>
<text text-anchor="middle" x="383.1348" y="-677.3" font-family="Times,serif" font-size="14.00" fill="#000000">(None, 784)</text>
<polyline fill="none" stroke="#000000" points="341.3105,-670.5 424.959,-670.5 "/>
<text text-anchor="middle" x="383.1348" y="-655.3" font-family="Times,serif" font-size="14.00" fill="#000000">(None, 784)</text>
</g>
<!-- 4752772680 -->
<g id="node2" class="node">
<title>4752772680</title>
<polygon fill="none" stroke="#000000" points="165.4585,-567.5 165.4585,-611.5 452.5591,-611.5 452.5591,-567.5 165.4585,-567.5"/>
<text text-anchor="middle" x="239.3501" y="-585.3" font-family="Times,serif" font-size="14.00" fill="#000000">encoder_hidden: Dense</text>
<polyline fill="none" stroke="#000000" points="313.2417,-567.5 313.2417,-611.5 "/>
<text text-anchor="middle" x="341.0762" y="-596.3" font-family="Times,serif" font-size="14.00" fill="#000000">input:</text>
<polyline fill="none" stroke="#000000" points="313.2417,-589.5 368.9106,-589.5 "/>
<text text-anchor="middle" x="341.0762" y="-574.3" font-family="Times,serif" font-size="14.00" fill="#000000">output:</text>
<polyline fill="none" stroke="#000000" points="368.9106,-567.5 368.9106,-611.5 "/>
<text text-anchor="middle" x="410.7349" y="-596.3" font-family="Times,serif" font-size="14.00" fill="#000000">(None, 784)</text>
<polyline fill="none" stroke="#000000" points="368.9106,-589.5 452.5591,-589.5 "/>
<text text-anchor="middle" x="410.7349" y="-574.3" font-family="Times,serif" font-size="14.00" fill="#000000">(None, 256)</text>
</g>
<!-- 4753000488&#45;&gt;4752772680 -->
<g id="edge1" class="edge">
<title>4753000488-&gt;4752772680</title>
<path fill="none" stroke="#000000" d="M309.0088,-648.3664C309.0088,-640.1516 309.0088,-630.6579 309.0088,-621.7252"/>
<polygon fill="#000000" stroke="#000000" points="312.5089,-621.6068 309.0088,-611.6068 305.5089,-621.6069 312.5089,-621.6068"/>
</g>
<!-- 4752877888 -->
<g id="node3" class="node">
<title>4752877888</title>
<polygon fill="none" stroke="#000000" points="78.2173,-486.5 78.2173,-530.5 293.8003,-530.5 293.8003,-486.5 78.2173,-486.5"/>
<text text-anchor="middle" x="116.3501" y="-504.3" font-family="Times,serif" font-size="14.00" fill="#000000">mu: Dense</text>
<polyline fill="none" stroke="#000000" points="154.4829,-486.5 154.4829,-530.5 "/>
<text text-anchor="middle" x="182.3174" y="-515.3" font-family="Times,serif" font-size="14.00" fill="#000000">input:</text>
<polyline fill="none" stroke="#000000" points="154.4829,-508.5 210.1519,-508.5 "/>
<text text-anchor="middle" x="182.3174" y="-493.3" font-family="Times,serif" font-size="14.00" fill="#000000">output:</text>
<polyline fill="none" stroke="#000000" points="210.1519,-486.5 210.1519,-530.5 "/>
<text text-anchor="middle" x="251.9761" y="-515.3" font-family="Times,serif" font-size="14.00" fill="#000000">(None, 256)</text>
<polyline fill="none" stroke="#000000" points="210.1519,-508.5 293.8003,-508.5 "/>
<text text-anchor="middle" x="251.9761" y="-493.3" font-family="Times,serif" font-size="14.00" fill="#000000">(None, 2)</text>
</g>
<!-- 4752772680&#45;&gt;4752877888 -->
<g id="edge2" class="edge">
<title>4752772680-&gt;4752877888</title>
<path fill="none" stroke="#000000" d="M275.3985,-567.3664C260.7548,-557.723 243.4347,-546.3171 227.9581,-536.1252"/>
<polygon fill="#000000" stroke="#000000" points="229.8551,-533.1837 219.5784,-530.6068 226.0052,-539.0299 229.8551,-533.1837"/>
</g>
<!-- 4753006040 -->
<g id="node4" class="node">
<title>4753006040</title>
<polygon fill="none" stroke="#000000" points="311.7793,-486.5 311.7793,-530.5 552.2383,-530.5 552.2383,-486.5 311.7793,-486.5"/>
<text text-anchor="middle" x="362.3501" y="-504.3" font-family="Times,serif" font-size="14.00" fill="#000000">log_var: Dense</text>
<polyline fill="none" stroke="#000000" points="412.9209,-486.5 412.9209,-530.5 "/>
<text text-anchor="middle" x="440.7554" y="-515.3" font-family="Times,serif" font-size="14.00" fill="#000000">input:</text>
<polyline fill="none" stroke="#000000" points="412.9209,-508.5 468.5898,-508.5 "/>
<text text-anchor="middle" x="440.7554" y="-493.3" font-family="Times,serif" font-size="14.00" fill="#000000">output:</text>
<polyline fill="none" stroke="#000000" points="468.5898,-486.5 468.5898,-530.5 "/>
<text text-anchor="middle" x="510.4141" y="-515.3" font-family="Times,serif" font-size="14.00" fill="#000000">(None, 256)</text>
<polyline fill="none" stroke="#000000" points="468.5898,-508.5 552.2383,-508.5 "/>
<text text-anchor="middle" x="510.4141" y="-493.3" font-family="Times,serif" font-size="14.00" fill="#000000">(None, 2)</text>
</g>
<!-- 4752772680&#45;&gt;4753006040 -->
<g id="edge3" class="edge">
<title>4752772680-&gt;4753006040</title>
<path fill="none" stroke="#000000" d="M342.6191,-567.3664C357.2628,-557.723 374.5829,-546.3171 390.0594,-536.1252"/>
<polygon fill="#000000" stroke="#000000" points="392.0124,-539.0299 398.4391,-530.6068 388.1624,-533.1837 392.0124,-539.0299"/>
</g>
<!-- 4752605312 -->
<g id="node5" class="node">
<title>4752605312</title>
<polygon fill="none" stroke="#000000" points="136.4365,-405.5 136.4365,-449.5 481.5811,-449.5 481.5811,-405.5 136.4365,-405.5"/>
<text text-anchor="middle" x="211.3638" y="-423.3" font-family="Times,serif" font-size="14.00" fill="#000000">kl: KLDivergenceLayer</text>
<polyline fill="none" stroke="#000000" points="286.291,-405.5 286.291,-449.5 "/>
<text text-anchor="middle" x="314.1255" y="-434.3" font-family="Times,serif" font-size="14.00" fill="#000000">input:</text>
<polyline fill="none" stroke="#000000" points="286.291,-427.5 341.96,-427.5 "/>
<text text-anchor="middle" x="314.1255" y="-412.3" font-family="Times,serif" font-size="14.00" fill="#000000">output:</text>
<polyline fill="none" stroke="#000000" points="341.96,-405.5 341.96,-449.5 "/>
<text text-anchor="middle" x="411.7705" y="-434.3" font-family="Times,serif" font-size="14.00" fill="#000000">[(None, 2), (None, 2)]</text>
<polyline fill="none" stroke="#000000" points="341.96,-427.5 481.5811,-427.5 "/>
<text text-anchor="middle" x="411.7705" y="-412.3" font-family="Times,serif" font-size="14.00" fill="#000000">[(None, 2), (None, 2)]</text>
</g>
<!-- 4752877888&#45;&gt;4752605312 -->
<g id="edge4" class="edge">
<title>4752877888-&gt;4752605312</title>
<path fill="none" stroke="#000000" d="M219.6191,-486.3664C234.2628,-476.723 251.5829,-465.3171 267.0594,-455.1252"/>
<polygon fill="#000000" stroke="#000000" points="269.0124,-458.0299 275.4391,-449.6068 265.1624,-452.1837 269.0124,-458.0299"/>
</g>
<!-- 4753006040&#45;&gt;4752605312 -->
<g id="edge5" class="edge">
<title>4753006040-&gt;4752605312</title>
<path fill="none" stroke="#000000" d="M398.3985,-486.3664C383.7548,-476.723 366.4347,-465.3171 350.9581,-455.1252"/>
<polygon fill="#000000" stroke="#000000" points="352.8551,-452.1837 342.5784,-449.6068 349.0052,-458.0299 352.8551,-452.1837"/>
</g>
<!-- 4752981184 -->
<g id="node6" class="node">
<title>4752981184</title>
<polygon fill="none" stroke="#000000" points="0,-324.5 0,-368.5 228.0176,-368.5 228.0176,-324.5 0,-324.5"/>
<text text-anchor="middle" x="51.3501" y="-342.3" font-family="Times,serif" font-size="14.00" fill="#000000">sigma: Lambda</text>
<polyline fill="none" stroke="#000000" points="102.7002,-324.5 102.7002,-368.5 "/>
<text text-anchor="middle" x="130.5347" y="-353.3" font-family="Times,serif" font-size="14.00" fill="#000000">input:</text>
<polyline fill="none" stroke="#000000" points="102.7002,-346.5 158.3691,-346.5 "/>
<text text-anchor="middle" x="130.5347" y="-331.3" font-family="Times,serif" font-size="14.00" fill="#000000">output:</text>
<polyline fill="none" stroke="#000000" points="158.3691,-324.5 158.3691,-368.5 "/>
<text text-anchor="middle" x="193.1934" y="-353.3" font-family="Times,serif" font-size="14.00" fill="#000000">(None, 2)</text>
<polyline fill="none" stroke="#000000" points="158.3691,-346.5 228.0176,-346.5 "/>
<text text-anchor="middle" x="193.1934" y="-331.3" font-family="Times,serif" font-size="14.00" fill="#000000">(None, 2)</text>
</g>
<!-- 4752605312&#45;&gt;4752981184 -->
<g id="edge6" class="edge">
<title>4752605312-&gt;4752981184</title>
<path fill="none" stroke="#000000" d="M255.9818,-405.4734C231.3728,-395.2512 201.9532,-383.0308 176.293,-372.3719"/>
<polygon fill="#000000" stroke="#000000" points="177.6029,-369.1261 167.0253,-368.5222 174.9176,-375.5906 177.6029,-369.1261"/>
</g>
<!-- 4753587056 -->
<g id="node9" class="node">
<title>4753587056</title>
<polygon fill="none" stroke="#000000" points="283.8896,-162.5 283.8896,-206.5 532.1279,-206.5 532.1279,-162.5 283.8896,-162.5"/>
<text text-anchor="middle" x="310.3638" y="-180.3" font-family="Times,serif" font-size="14.00" fill="#000000">z: Add</text>
<polyline fill="none" stroke="#000000" points="336.8379,-162.5 336.8379,-206.5 "/>
<text text-anchor="middle" x="364.6724" y="-191.3" font-family="Times,serif" font-size="14.00" fill="#000000">input:</text>
<polyline fill="none" stroke="#000000" points="336.8379,-184.5 392.5068,-184.5 "/>
<text text-anchor="middle" x="364.6724" y="-169.3" font-family="Times,serif" font-size="14.00" fill="#000000">output:</text>
<polyline fill="none" stroke="#000000" points="392.5068,-162.5 392.5068,-206.5 "/>
<text text-anchor="middle" x="462.3174" y="-191.3" font-family="Times,serif" font-size="14.00" fill="#000000">[(None, 2), (None, 2)]</text>
<polyline fill="none" stroke="#000000" points="392.5068,-184.5 532.1279,-184.5 "/>
<text text-anchor="middle" x="461.8311" y="-169.3" font-family="Times,serif" font-size="14.00" fill="#000000">(None, 2)</text>
</g>
<!-- 4752605312&#45;&gt;4753587056 -->
<g id="edge9" class="edge">
<title>4752605312-&gt;4753587056</title>
<path fill="none" stroke="#000000" d="M407.7471,-405.4521C442.2266,-395.5994 474.8832,-383.0359 485.0088,-369 517.7719,-323.5844 509.8972,-293.1654 485.0088,-243 479.1224,-231.1354 469.5516,-221.0278 459.1262,-212.721"/>
<polygon fill="#000000" stroke="#000000" points="461.1514,-209.8655 451.034,-206.7205 456.9819,-215.4883 461.1514,-209.8655"/>
</g>
<!-- 4752981688 -->
<g id="node8" class="node">
<title>4752981688</title>
<polygon fill="none" stroke="#000000" points="149.6138,-243.5 149.6138,-287.5 476.4038,-287.5 476.4038,-243.5 149.6138,-243.5"/>
<text text-anchor="middle" x="215.3638" y="-261.3" font-family="Times,serif" font-size="14.00" fill="#000000">sigma_eps: Multiply</text>
<polyline fill="none" stroke="#000000" points="281.1138,-243.5 281.1138,-287.5 "/>
<text text-anchor="middle" x="308.9482" y="-272.3" font-family="Times,serif" font-size="14.00" fill="#000000">input:</text>
<polyline fill="none" stroke="#000000" points="281.1138,-265.5 336.7827,-265.5 "/>
<text text-anchor="middle" x="308.9482" y="-250.3" font-family="Times,serif" font-size="14.00" fill="#000000">output:</text>
<polyline fill="none" stroke="#000000" points="336.7827,-243.5 336.7827,-287.5 "/>
<text text-anchor="middle" x="406.5933" y="-272.3" font-family="Times,serif" font-size="14.00" fill="#000000">[(None, 2), (None, 2)]</text>
<polyline fill="none" stroke="#000000" points="336.7827,-265.5 476.4038,-265.5 "/>
<text text-anchor="middle" x="406.1069" y="-250.3" font-family="Times,serif" font-size="14.00" fill="#000000">(None, 2)</text>
</g>
<!-- 4752981184&#45;&gt;4752981688 -->
<g id="edge7" class="edge">
<title>4752981184-&gt;4752981688</title>
<path fill="none" stroke="#000000" d="M168.1236,-324.4734C193.2373,-314.2512 223.2604,-302.0308 249.4469,-291.3719"/>
<polygon fill="#000000" stroke="#000000" points="250.9622,-294.534 258.9048,-287.5222 248.3231,-288.0506 250.9622,-294.534"/>
</g>
<!-- 4752981968 -->
<g id="node7" class="node">
<title>4752981968</title>
<polygon fill="none" stroke="#000000" points="246.2275,-324.5 246.2275,-368.5 475.79,-368.5 475.79,-324.5 246.2275,-324.5"/>
<text text-anchor="middle" x="298.3501" y="-342.3" font-family="Times,serif" font-size="14.00" fill="#000000">eps: InputLayer</text>
<polyline fill="none" stroke="#000000" points="350.4727,-324.5 350.4727,-368.5 "/>
<text text-anchor="middle" x="378.3071" y="-353.3" font-family="Times,serif" font-size="14.00" fill="#000000">input:</text>
<polyline fill="none" stroke="#000000" points="350.4727,-346.5 406.1416,-346.5 "/>
<text text-anchor="middle" x="378.3071" y="-331.3" font-family="Times,serif" font-size="14.00" fill="#000000">output:</text>
<polyline fill="none" stroke="#000000" points="406.1416,-324.5 406.1416,-368.5 "/>
<text text-anchor="middle" x="440.9658" y="-353.3" font-family="Times,serif" font-size="14.00" fill="#000000">(None, 2)</text>
<polyline fill="none" stroke="#000000" points="406.1416,-346.5 475.79,-346.5 "/>
<text text-anchor="middle" x="440.9658" y="-331.3" font-family="Times,serif" font-size="14.00" fill="#000000">(None, 2)</text>
</g>
<!-- 4752981968&#45;&gt;4752981688 -->
<g id="edge8" class="edge">
<title>4752981968-&gt;4752981688</title>
<path fill="none" stroke="#000000" d="M347.8926,-324.3664C342.76,-315.7052 336.7849,-305.6222 331.2452,-296.274"/>
<polygon fill="#000000" stroke="#000000" points="334.2182,-294.4254 326.1091,-287.6068 328.1962,-297.9941 334.2182,-294.4254"/>
</g>
<!-- 4752981688&#45;&gt;4753587056 -->
<g id="edge10" class="edge">
<title>4752981688-&gt;4753587056</title>
<path fill="none" stroke="#000000" d="M338.968,-243.3664C349.8592,-234.0802 362.6674,-223.1595 374.275,-213.2625"/>
<polygon fill="#000000" stroke="#000000" points="376.7423,-215.7583 382.081,-206.6068 372.2006,-210.4316 376.7423,-215.7583"/>
</g>
<!-- 4755383072 -->
<g id="node10" class="node">
<title>4755383072</title>
<polygon fill="none" stroke="#000000" points="264.4585,-81.5 264.4585,-125.5 551.5591,-125.5 551.5591,-81.5 264.4585,-81.5"/>
<text text-anchor="middle" x="338.3501" y="-99.3" font-family="Times,serif" font-size="14.00" fill="#000000">decoder_hidden: Dense</text>
<polyline fill="none" stroke="#000000" points="412.2417,-81.5 412.2417,-125.5 "/>
<text text-anchor="middle" x="440.0762" y="-110.3" font-family="Times,serif" font-size="14.00" fill="#000000">input:</text>
<polyline fill="none" stroke="#000000" points="412.2417,-103.5 467.9106,-103.5 "/>
<text text-anchor="middle" x="440.0762" y="-88.3" font-family="Times,serif" font-size="14.00" fill="#000000">output:</text>
<polyline fill="none" stroke="#000000" points="467.9106,-81.5 467.9106,-125.5 "/>
<text text-anchor="middle" x="509.7349" y="-110.3" font-family="Times,serif" font-size="14.00" fill="#000000">(None, 2)</text>
<polyline fill="none" stroke="#000000" points="467.9106,-103.5 551.5591,-103.5 "/>
<text text-anchor="middle" x="509.7349" y="-88.3" font-family="Times,serif" font-size="14.00" fill="#000000">(None, 256)</text>
</g>
<!-- 4753587056&#45;&gt;4755383072 -->
<g id="edge11" class="edge">
<title>4753587056-&gt;4755383072</title>
<path fill="none" stroke="#000000" d="M408.0088,-162.3664C408.0088,-154.1516 408.0088,-144.6579 408.0088,-135.7252"/>
<polygon fill="#000000" stroke="#000000" points="411.5089,-135.6068 408.0088,-125.6068 404.5089,-135.6069 411.5089,-135.6068"/>
</g>
<!-- 4755438896 -->
<g id="node11" class="node">
<title>4755438896</title>
<polygon fill="none" stroke="#000000" points="287.0034,-.5 287.0034,-44.5 529.0142,-44.5 529.0142,-.5 287.0034,-.5"/>
<text text-anchor="middle" x="338.3501" y="-18.3" font-family="Times,serif" font-size="14.00" fill="#000000">x_mean: Dense</text>
<polyline fill="none" stroke="#000000" points="389.6968,-.5 389.6968,-44.5 "/>
<text text-anchor="middle" x="417.5313" y="-29.3" font-family="Times,serif" font-size="14.00" fill="#000000">input:</text>
<polyline fill="none" stroke="#000000" points="389.6968,-22.5 445.3657,-22.5 "/>
<text text-anchor="middle" x="417.5313" y="-7.3" font-family="Times,serif" font-size="14.00" fill="#000000">output:</text>
<polyline fill="none" stroke="#000000" points="445.3657,-.5 445.3657,-44.5 "/>
<text text-anchor="middle" x="487.1899" y="-29.3" font-family="Times,serif" font-size="14.00" fill="#000000">(None, 256)</text>
<polyline fill="none" stroke="#000000" points="445.3657,-22.5 529.0142,-22.5 "/>
<text text-anchor="middle" x="487.1899" y="-7.3" font-family="Times,serif" font-size="14.00" fill="#000000">(None, 784)</text>
</g>
<!-- 4755383072&#45;&gt;4755438896 -->
<g id="edge12" class="edge">
<title>4755383072-&gt;4755438896</title>
<path fill="none" stroke="#000000" d="M408.0088,-81.3664C408.0088,-73.1516 408.0088,-63.6579 408.0088,-54.7252"/>
<polygon fill="#000000" stroke="#000000" points="411.5089,-54.6068 408.0088,-44.6068 404.5089,-54.6069 411.5089,-54.6068"/>
</g>
</g>
</svg>