<?xml version="1.0" encoding="UTF-8" standalone="no"?>
<!DOCTYPE svg PUBLIC "-//W3C//DTD SVG 1.1//EN"
 "http://www.w3.org/Graphics/SVG/1.1/DTD/svg11.dtd">
<!-- Generated by graphviz version 2.38.0 (20140413.2041)
 -->
<!-- Title: G Pages: 1 -->
<svg width="585pt" height="636pt"
 viewBox="0.00 0.00 585.00 636.00" xmlns="http://www.w3.org/2000/svg" xmlns:xlink="http://www.w3.org/1999/xlink">
<g id="graph0" class="graph" transform="scale(1 1) rotate(0) translate(4 632)">
<title>G</title>
<polygon fill="white" stroke="none" points="-4,4 -4,-632 581,-632 581,4 -4,4"/>
<!-- 140633617042960 -->
<g id="node1" class="node"><title>140633617042960</title>
<polygon fill="none" stroke="black" points="187.5,-581.5 187.5,-627.5 444.5,-627.5 444.5,-581.5 187.5,-581.5"/>
<text text-anchor="middle" x="233" y="-600.8" font-family="Times,serif" font-size="14.00">x: InputLayer</text>
<polyline fill="none" stroke="black" points="278.5,-581.5 278.5,-627.5 "/>
<text text-anchor="middle" x="306" y="-612.3" font-family="Times,serif" font-size="14.00">input:</text>
<polyline fill="none" stroke="black" points="278.5,-604.5 333.5,-604.5 "/>
<text text-anchor="middle" x="306" y="-589.3" font-family="Times,serif" font-size="14.00">output:</text>
<polyline fill="none" stroke="black" points="333.5,-581.5 333.5,-627.5 "/>
<text text-anchor="middle" x="389" y="-612.3" font-family="Times,serif" font-size="14.00">(None, 28, 28, 1)</text>
<polyline fill="none" stroke="black" points="333.5,-604.5 444.5,-604.5 "/>
<text text-anchor="middle" x="389" y="-589.3" font-family="Times,serif" font-size="14.00">(None, 28, 28, 1)</text>
</g>
<!-- 140633619471944 -->
<g id="node2" class="node"><title>140633619471944</title>
<polygon fill="none" stroke="black" points="138,-498.5 138,-544.5 494,-544.5 494,-498.5 138,-498.5"/>
<text text-anchor="middle" x="233" y="-517.8" font-family="Times,serif" font-size="14.00">conv_hidden_layers: Sequential</text>
<polyline fill="none" stroke="black" points="328,-498.5 328,-544.5 "/>
<text text-anchor="middle" x="355.5" y="-529.3" font-family="Times,serif" font-size="14.00">input:</text>
<polyline fill="none" stroke="black" points="328,-521.5 383,-521.5 "/>
<text text-anchor="middle" x="355.5" y="-506.3" font-family="Times,serif" font-size="14.00">output:</text>
<polyline fill="none" stroke="black" points="383,-498.5 383,-544.5 "/>
<text text-anchor="middle" x="438.5" y="-529.3" font-family="Times,serif" font-size="14.00">(None, 28, 28, 1)</text>
<polyline fill="none" stroke="black" points="383,-521.5 494,-521.5 "/>
<text text-anchor="middle" x="438.5" y="-506.3" font-family="Times,serif" font-size="14.00">(None, 128)</text>
</g>
<!-- 140633617042960&#45;&gt;140633619471944 -->
<g id="edge1" class="edge"><title>140633617042960&#45;&gt;140633619471944</title>
<path fill="none" stroke="black" d="M316,-581.366C316,-573.152 316,-563.658 316,-554.725"/>
<polygon fill="black" stroke="black" points="319.5,-554.607 316,-544.607 312.5,-554.607 319.5,-554.607"/>
</g>
<!-- 140633617080504 -->
<g id="node3" class="node"><title>140633617080504</title>
<polygon fill="none" stroke="black" points="87,-415.5 87,-461.5 301,-461.5 301,-415.5 87,-415.5"/>
<text text-anchor="middle" x="125" y="-434.8" font-family="Times,serif" font-size="14.00">mu: Dense</text>
<polyline fill="none" stroke="black" points="163,-415.5 163,-461.5 "/>
<text text-anchor="middle" x="190.5" y="-446.3" font-family="Times,serif" font-size="14.00">input:</text>
<polyline fill="none" stroke="black" points="163,-438.5 218,-438.5 "/>
<text text-anchor="middle" x="190.5" y="-423.3" font-family="Times,serif" font-size="14.00">output:</text>
<polyline fill="none" stroke="black" points="218,-415.5 218,-461.5 "/>
<text text-anchor="middle" x="259.5" y="-446.3" font-family="Times,serif" font-size="14.00">(None, 128)</text>
<polyline fill="none" stroke="black" points="218,-438.5 301,-438.5 "/>
<text text-anchor="middle" x="259.5" y="-423.3" font-family="Times,serif" font-size="14.00">(None, 2)</text>
</g>
<!-- 140633619471944&#45;&gt;140633617080504 -->
<g id="edge2" class="edge"><title>140633619471944&#45;&gt;140633617080504</title>
<path fill="none" stroke="black" d="M282.663,-498.366C268.273,-488.812 251.277,-477.528 236.035,-467.409"/>
<polygon fill="black" stroke="black" points="237.564,-464.222 227.297,-461.607 233.692,-470.054 237.564,-464.222"/>
</g>
<!-- 140633616926704 -->
<g id="node4" class="node"><title>140633616926704</title>
<polygon fill="none" stroke="black" points="319.5,-415.5 319.5,-461.5 556.5,-461.5 556.5,-415.5 319.5,-415.5"/>
<text text-anchor="middle" x="369" y="-434.8" font-family="Times,serif" font-size="14.00">log_var: Dense</text>
<polyline fill="none" stroke="black" points="418.5,-415.5 418.5,-461.5 "/>
<text text-anchor="middle" x="446" y="-446.3" font-family="Times,serif" font-size="14.00">input:</text>
<polyline fill="none" stroke="black" points="418.5,-438.5 473.5,-438.5 "/>
<text text-anchor="middle" x="446" y="-423.3" font-family="Times,serif" font-size="14.00">output:</text>
<polyline fill="none" stroke="black" points="473.5,-415.5 473.5,-461.5 "/>
<text text-anchor="middle" x="515" y="-446.3" font-family="Times,serif" font-size="14.00">(None, 128)</text>
<polyline fill="none" stroke="black" points="473.5,-438.5 556.5,-438.5 "/>
<text text-anchor="middle" x="515" y="-423.3" font-family="Times,serif" font-size="14.00">(None, 2)</text>
</g>
<!-- 140633619471944&#45;&gt;140633616926704 -->
<g id="edge3" class="edge"><title>140633619471944&#45;&gt;140633616926704</title>
<path fill="none" stroke="black" d="M349.337,-498.366C363.727,-488.812 380.723,-477.528 395.965,-467.409"/>
<polygon fill="black" stroke="black" points="398.308,-470.054 404.703,-461.607 394.436,-464.222 398.308,-470.054"/>
</g>
<!-- 140633616988704 -->
<g id="node5" class="node"><title>140633616988704</title>
<polygon fill="none" stroke="black" points="146.5,-332.5 146.5,-378.5 485.5,-378.5 485.5,-332.5 146.5,-332.5"/>
<text text-anchor="middle" x="219.5" y="-351.8" font-family="Times,serif" font-size="14.00">kl: KLDivergenceLayer</text>
<polyline fill="none" stroke="black" points="292.5,-332.5 292.5,-378.5 "/>
<text text-anchor="middle" x="320" y="-363.3" font-family="Times,serif" font-size="14.00">input:</text>
<polyline fill="none" stroke="black" points="292.5,-355.5 347.5,-355.5 "/>
<text text-anchor="middle" x="320" y="-340.3" font-family="Times,serif" font-size="14.00">output:</text>
<polyline fill="none" stroke="black" points="347.5,-332.5 347.5,-378.5 "/>
<text text-anchor="middle" x="416.5" y="-363.3" font-family="Times,serif" font-size="14.00">[(None, 2), (None, 2)]</text>
<polyline fill="none" stroke="black" points="347.5,-355.5 485.5,-355.5 "/>
<text text-anchor="middle" x="416.5" y="-340.3" font-family="Times,serif" font-size="14.00">[(None, 2), (None, 2)]</text>
</g>
<!-- 140633617080504&#45;&gt;140633616988704 -->
<g id="edge4" class="edge"><title>140633617080504&#45;&gt;140633616988704</title>
<path fill="none" stroke="black" d="M227.337,-415.366C241.727,-405.812 258.723,-394.528 273.965,-384.409"/>
<polygon fill="black" stroke="black" points="276.308,-387.054 282.703,-378.607 272.436,-381.222 276.308,-387.054"/>
</g>
<!-- 140633616926704&#45;&gt;140633616988704 -->
<g id="edge5" class="edge"><title>140633616926704&#45;&gt;140633616988704</title>
<path fill="none" stroke="black" d="M404.663,-415.366C390.273,-405.812 373.277,-394.528 358.035,-384.409"/>
<polygon fill="black" stroke="black" points="359.564,-381.222 349.297,-378.607 355.692,-387.054 359.564,-381.222"/>
</g>
<!-- 140633617100584 -->
<g id="node6" class="node"><title>140633617100584</title>
<polygon fill="none" stroke="black" points="0,-249.5 0,-295.5 226,-295.5 226,-249.5 0,-249.5"/>
<text text-anchor="middle" x="51" y="-268.8" font-family="Times,serif" font-size="14.00">sigma: Lambda</text>
<polyline fill="none" stroke="black" points="102,-249.5 102,-295.5 "/>
<text text-anchor="middle" x="129.5" y="-280.3" font-family="Times,serif" font-size="14.00">input:</text>
<polyline fill="none" stroke="black" points="102,-272.5 157,-272.5 "/>
<text text-anchor="middle" x="129.5" y="-257.3" font-family="Times,serif" font-size="14.00">output:</text>
<polyline fill="none" stroke="black" points="157,-249.5 157,-295.5 "/>
<text text-anchor="middle" x="191.5" y="-280.3" font-family="Times,serif" font-size="14.00">(None, 2)</text>
<polyline fill="none" stroke="black" points="157,-272.5 226,-272.5 "/>
<text text-anchor="middle" x="191.5" y="-257.3" font-family="Times,serif" font-size="14.00">(None, 2)</text>
</g>
<!-- 140633616988704&#45;&gt;140633617100584 -->
<g id="edge6" class="edge"><title>140633616988704&#45;&gt;140633617100584</title>
<path fill="none" stroke="black" d="M260.797,-332.473C235.067,-322.206 204.284,-309.924 177.488,-299.232"/>
<polygon fill="black" stroke="black" points="178.777,-295.978 168.192,-295.522 176.182,-302.479 178.777,-295.978"/>
</g>
<!-- 140633617168256 -->
<g id="node9" class="node"><title>140633617168256</title>
<polygon fill="none" stroke="black" points="309,-83.5 309,-129.5 555,-129.5 555,-83.5 309,-83.5"/>
<text text-anchor="middle" x="335.5" y="-102.8" font-family="Times,serif" font-size="14.00">z: Add</text>
<polyline fill="none" stroke="black" points="362,-83.5 362,-129.5 "/>
<text text-anchor="middle" x="389.5" y="-114.3" font-family="Times,serif" font-size="14.00">input:</text>
<polyline fill="none" stroke="black" points="362,-106.5 417,-106.5 "/>
<text text-anchor="middle" x="389.5" y="-91.3" font-family="Times,serif" font-size="14.00">output:</text>
<polyline fill="none" stroke="black" points="417,-83.5 417,-129.5 "/>
<text text-anchor="middle" x="486" y="-114.3" font-family="Times,serif" font-size="14.00">[(None, 2), (None, 2)]</text>
<polyline fill="none" stroke="black" points="417,-106.5 555,-106.5 "/>
<text text-anchor="middle" x="486" y="-91.3" font-family="Times,serif" font-size="14.00">(None, 2)</text>
</g>
<!-- 140633616988704&#45;&gt;140633617168256 -->
<g id="edge9" class="edge"><title>140633616988704&#45;&gt;140633617168256</title>
<path fill="none" stroke="black" d="M455.184,-332.372C473.097,-323.782 489.255,-312.033 501,-296 535.145,-249.391 525.284,-218.427 501,-166 495.687,-154.531 486.895,-144.491 477.336,-136.115"/>
<polygon fill="black" stroke="black" points="479.516,-133.376 469.558,-129.759 475.087,-138.797 479.516,-133.376"/>
</g>
<!-- 140633616842312 -->
<g id="node8" class="node"><title>140633616842312</title>
<polygon fill="none" stroke="black" points="196,-166.5 196,-212.5 492,-212.5 492,-166.5 196,-166.5"/>
<text text-anchor="middle" x="247.5" y="-185.8" font-family="Times,serif" font-size="14.00">z_eps: Multiply</text>
<polyline fill="none" stroke="black" points="299,-166.5 299,-212.5 "/>
<text text-anchor="middle" x="326.5" y="-197.3" font-family="Times,serif" font-size="14.00">input:</text>
<polyline fill="none" stroke="black" points="299,-189.5 354,-189.5 "/>
<text text-anchor="middle" x="326.5" y="-174.3" font-family="Times,serif" font-size="14.00">output:</text>
<polyline fill="none" stroke="black" points="354,-166.5 354,-212.5 "/>
<text text-anchor="middle" x="423" y="-197.3" font-family="Times,serif" font-size="14.00">[(None, 2), (None, 2)]</text>
<polyline fill="none" stroke="black" points="354,-189.5 492,-189.5 "/>
<text text-anchor="middle" x="423" y="-174.3" font-family="Times,serif" font-size="14.00">(None, 2)</text>
</g>
<!-- 140633617100584&#45;&gt;140633616842312 -->
<g id="edge7" class="edge"><title>140633617100584&#45;&gt;140633616842312</title>
<path fill="none" stroke="black" d="M175.817,-249.473C205.352,-239.117 240.738,-226.709 271.415,-215.952"/>
<polygon fill="black" stroke="black" points="272.917,-219.134 281.196,-212.522 270.601,-212.528 272.917,-219.134"/>
</g>
<!-- 140633616798384 -->
<g id="node7" class="node"><title>140633616798384</title>
<polygon fill="none" stroke="black" points="244.5,-249.5 244.5,-295.5 491.5,-295.5 491.5,-249.5 244.5,-249.5"/>
<text text-anchor="middle" x="306" y="-268.8" font-family="Times,serif" font-size="14.00">epsilon: InputLayer</text>
<polyline fill="none" stroke="black" points="367.5,-249.5 367.5,-295.5 "/>
<text text-anchor="middle" x="395" y="-280.3" font-family="Times,serif" font-size="14.00">input:</text>
<polyline fill="none" stroke="black" points="367.5,-272.5 422.5,-272.5 "/>
<text text-anchor="middle" x="395" y="-257.3" font-family="Times,serif" font-size="14.00">output:</text>
<polyline fill="none" stroke="black" points="422.5,-249.5 422.5,-295.5 "/>
<text text-anchor="middle" x="457" y="-280.3" font-family="Times,serif" font-size="14.00">(None, 2)</text>
<polyline fill="none" stroke="black" points="422.5,-272.5 491.5,-272.5 "/>
<text text-anchor="middle" x="457" y="-257.3" font-family="Times,serif" font-size="14.00">(None, 2)</text>
</g>
<!-- 140633616798384&#45;&gt;140633616842312 -->
<g id="edge8" class="edge"><title>140633616798384&#45;&gt;140633616842312</title>
<path fill="none" stroke="black" d="M361.442,-249.366C358.981,-241.062 356.134,-231.451 353.462,-222.434"/>
<polygon fill="black" stroke="black" points="356.747,-221.2 350.55,-212.607 350.035,-223.189 356.747,-221.2"/>
</g>
<!-- 140633616842312&#45;&gt;140633617168256 -->
<g id="edge10" class="edge"><title>140633616842312&#45;&gt;140633617168256</title>
<path fill="none" stroke="black" d="M368.046,-166.366C378.038,-157.169 389.772,-146.369 400.441,-136.548"/>
<polygon fill="black" stroke="black" points="402.995,-138.954 407.983,-129.607 398.255,-133.804 402.995,-138.954"/>
</g>
<!-- 140633617387136 -->
<g id="node10" class="node"><title>140633617387136</title>
<polygon fill="none" stroke="black" points="287,-0.5 287,-46.5 577,-46.5 577,-0.5 287,-0.5"/>
<text text-anchor="middle" x="349" y="-19.8" font-family="Times,serif" font-size="14.00">decoder: Sequential</text>
<polyline fill="none" stroke="black" points="411,-0.5 411,-46.5 "/>
<text text-anchor="middle" x="438.5" y="-31.3" font-family="Times,serif" font-size="14.00">input:</text>
<polyline fill="none" stroke="black" points="411,-23.5 466,-23.5 "/>
<text text-anchor="middle" x="438.5" y="-8.3" font-family="Times,serif" font-size="14.00">output:</text>
<polyline fill="none" stroke="black" points="466,-0.5 466,-46.5 "/>
<text text-anchor="middle" x="521.5" y="-31.3" font-family="Times,serif" font-size="14.00">(None, 2)</text>
<polyline fill="none" stroke="black" points="466,-23.5 577,-23.5 "/>
<text text-anchor="middle" x="521.5" y="-8.3" font-family="Times,serif" font-size="14.00">(None, 28, 28, 1)</text>
</g>
<!-- 140633617168256&#45;&gt;140633617387136 -->
<g id="edge11" class="edge"><title>140633617168256&#45;&gt;140633617387136</title>
<path fill="none" stroke="black" d="M432,-83.3664C432,-75.1516 432,-65.6579 432,-56.7252"/>
<polygon fill="black" stroke="black" points="435.5,-56.6068 432,-46.6068 428.5,-56.6069 435.5,-56.6068"/>
</g>
</g>
</svg>
