<svg xmlns="http://www.w3.org/2000/svg" xmlns:xlink="http://www.w3.org/1999/xlink" viewBox="0.00 0.00 287.24 629.00" viewport="0 0 584px 1280px">
<g id="graph0" class="graph" transform="scale(1 1) rotate(0) translate(4 625)">
<title>G</title>
<polygon fill="#ffffff" stroke="transparent" points="-4,4 -4,-625 283.2417,-625 283.2417,4 -4,4"/>
<!-- 4753000488 -->
<g id="node1" class="node">
<title>4753000488</title>
<polygon fill="none" stroke="#000000" points="105.0586,-584.5 105.0586,-620.5 197.6416,-620.5 197.6416,-584.5 105.0586,-584.5"/>
<text text-anchor="middle" x="151.3501" y="-598.3" font-family="Times,serif" font-size="14.00" fill="#000000">x: InputLayer</text>
</g>
<!-- 4752772680 -->
<g id="node2" class="node">
<title>4752772680</title>
<polygon fill="none" stroke="#000000" points="77.4585,-511.5 77.4585,-547.5 225.2417,-547.5 225.2417,-511.5 77.4585,-511.5"/>
<text text-anchor="middle" x="151.3501" y="-525.3" font-family="Times,serif" font-size="14.00" fill="#000000">encoder_hidden: Dense</text>
</g>
<!-- 4753000488&#45;&gt;4752772680 -->
<g id="edge1" class="edge">
<title>4753000488-&gt;4752772680</title>
<path fill="none" stroke="#000000" d="M151.3501,-584.4551C151.3501,-576.3828 151.3501,-566.6764 151.3501,-557.6817"/>
<polygon fill="#000000" stroke="#000000" points="154.8502,-557.5903 151.3501,-547.5904 147.8502,-557.5904 154.8502,-557.5903"/>
</g>
<!-- 4752877888 -->
<g id="node3" class="node">
<title>4752877888</title>
<polygon fill="none" stroke="#000000" points="60.2173,-438.5 60.2173,-474.5 136.4829,-474.5 136.4829,-438.5 60.2173,-438.5"/>
<text text-anchor="middle" x="98.3501" y="-452.3" font-family="Times,serif" font-size="14.00" fill="#000000">mu: Dense</text>
</g>
<!-- 4752772680&#45;&gt;4752877888 -->
<g id="edge2" class="edge">
<title>4752772680-&gt;4752877888</title>
<path fill="none" stroke="#000000" d="M138.249,-511.4551C132.0061,-502.8564 124.4169,-492.4034 117.5402,-482.9316"/>
<polygon fill="#000000" stroke="#000000" points="120.1916,-480.6262 111.4842,-474.5904 114.5271,-484.7388 120.1916,-480.6262"/>
</g>
<!-- 4753006040 -->
<g id="node4" class="node">
<title>4753006040</title>
<polygon fill="none" stroke="#000000" points="154.7793,-438.5 154.7793,-474.5 255.9209,-474.5 255.9209,-438.5 154.7793,-438.5"/>
<text text-anchor="middle" x="205.3501" y="-452.3" font-family="Times,serif" font-size="14.00" fill="#000000">log_var: Dense</text>
</g>
<!-- 4752772680&#45;&gt;4753006040 -->
<g id="edge3" class="edge">
<title>4752772680-&gt;4753006040</title>
<path fill="none" stroke="#000000" d="M164.6984,-511.4551C171.124,-502.7686 178.9494,-492.1898 186.0122,-482.642"/>
<polygon fill="#000000" stroke="#000000" points="188.835,-484.7113 191.9682,-474.5904 183.2073,-480.5484 188.835,-484.7113"/>
</g>
<!-- 4752605312 -->
<g id="node5" class="node">
<title>4752605312</title>
<polygon fill="none" stroke="#000000" points="76.4229,-365.5 76.4229,-401.5 226.2773,-401.5 226.2773,-365.5 76.4229,-365.5"/>
<text text-anchor="middle" x="151.3501" y="-379.3" font-family="Times,serif" font-size="14.00" fill="#000000">kl: KLDivergenceLayer</text>
</g>
<!-- 4752877888&#45;&gt;4752605312 -->
<g id="edge4" class="edge">
<title>4752877888-&gt;4752605312</title>
<path fill="none" stroke="#000000" d="M111.4512,-438.4551C117.6941,-429.8564 125.2833,-419.4034 132.16,-409.9316"/>
<polygon fill="#000000" stroke="#000000" points="135.1731,-411.7388 138.216,-401.5904 129.5086,-407.6262 135.1731,-411.7388"/>
</g>
<!-- 4753006040&#45;&gt;4752605312 -->
<g id="edge5" class="edge">
<title>4753006040-&gt;4752605312</title>
<path fill="none" stroke="#000000" d="M192.0018,-438.4551C185.5762,-429.7686 177.7508,-419.1898 170.688,-409.642"/>
<polygon fill="#000000" stroke="#000000" points="173.4929,-407.5484 164.732,-401.5904 167.8652,-411.7113 173.4929,-407.5484"/>
</g>
<!-- 4752981184 -->
<g id="node6" class="node">
<title>4752981184</title>
<polygon fill="none" stroke="#000000" points="0,-292.5 0,-328.5 102.7002,-328.5 102.7002,-292.5 0,-292.5"/>
<text text-anchor="middle" x="51.3501" y="-306.3" font-family="Times,serif" font-size="14.00" fill="#000000">sigma: Lambda</text>
</g>
<!-- 4752605312&#45;&gt;4752981184 -->
<g id="edge6" class="edge">
<title>4752605312-&gt;4752981184</title>
<path fill="none" stroke="#000000" d="M126.631,-365.4551C113.8904,-356.1545 98.178,-344.6844 84.4093,-334.6332"/>
<polygon fill="#000000" stroke="#000000" points="86.272,-331.6596 76.1314,-328.5904 82.1446,-337.3134 86.272,-331.6596"/>
</g>
<!-- 4753587056 -->
<g id="node9" class="node">
<title>4753587056</title>
<polygon fill="none" stroke="#000000" points="178.3501,-146.5 178.3501,-182.5 232.3501,-182.5 232.3501,-146.5 178.3501,-146.5"/>
<text text-anchor="middle" x="205.3242" y="-160.3" font-family="Times,serif" font-size="14.00" fill="#000000">z: Add</text>
</g>
<!-- 4752605312&#45;&gt;4753587056 -->
<g id="edge9" class="edge">
<title>4752605312-&gt;4753587056</title>
<path fill="none" stroke="#000000" d="M194.4308,-365.495C209.5514,-356.8295 224.8699,-344.8186 233.3501,-329 256.4491,-285.9122 244.8428,-266.5189 233.3501,-219 231.0972,-209.6849 226.9621,-200.1762 222.5486,-191.764"/>
<polygon fill="#000000" stroke="#000000" points="225.4706,-189.8183 217.5329,-182.8009 219.362,-193.2367 225.4706,-189.8183"/>
</g>
<!-- 4752981688 -->
<g id="node8" class="node">
<title>4752981688</title>
<polygon fill="none" stroke="#000000" points="92.6001,-219.5 92.6001,-255.5 224.1001,-255.5 224.1001,-219.5 92.6001,-219.5"/>
<text text-anchor="middle" x="158.3501" y="-233.3" font-family="Times,serif" font-size="14.00" fill="#000000">sigma_eps: Multiply</text>
</g>
<!-- 4752981184&#45;&gt;4752981688 -->
<g id="edge7" class="edge">
<title>4752981184-&gt;4752981688</title>
<path fill="none" stroke="#000000" d="M77.7995,-292.4551C91.5605,-283.0667 108.5617,-271.4678 123.3932,-261.3491"/>
<polygon fill="#000000" stroke="#000000" points="125.546,-264.1174 131.8341,-255.5904 121.6009,-258.3349 125.546,-264.1174"/>
</g>
<!-- 4752981968 -->
<g id="node7" class="node">
<title>4752981968</title>
<polygon fill="none" stroke="#000000" points="120.2275,-292.5 120.2275,-328.5 224.4727,-328.5 224.4727,-292.5 120.2275,-292.5"/>
<text text-anchor="middle" x="172.3501" y="-306.3" font-family="Times,serif" font-size="14.00" fill="#000000">eps: InputLayer</text>
</g>
<!-- 4752981968&#45;&gt;4752981688 -->
<g id="edge8" class="edge">
<title>4752981968-&gt;4752981688</title>
<path fill="none" stroke="#000000" d="M168.8894,-292.4551C167.3413,-284.3828 165.4798,-274.6764 163.7548,-265.6817"/>
<polygon fill="#000000" stroke="#000000" points="167.1404,-264.7521 161.8195,-255.5904 160.2657,-266.0706 167.1404,-264.7521"/>
</g>
<!-- 4752981688&#45;&gt;4753587056 -->
<g id="edge10" class="edge">
<title>4752981688-&gt;4753587056</title>
<path fill="none" stroke="#000000" d="M169.9681,-219.4551C175.4477,-210.9441 182.097,-200.6165 188.1456,-191.2219"/>
<polygon fill="#000000" stroke="#000000" points="191.2323,-192.8931 193.7029,-182.5904 185.3466,-189.1037 191.2323,-192.8931"/>
</g>
<!-- 4755383072 -->
<g id="node10" class="node">
<title>4755383072</title>
<polygon fill="none" stroke="#000000" points="131.4585,-73.5 131.4585,-109.5 279.2417,-109.5 279.2417,-73.5 131.4585,-73.5"/>
<text text-anchor="middle" x="205.3501" y="-87.3" font-family="Times,serif" font-size="14.00" fill="#000000">decoder_hidden: Dense</text>
</g>
<!-- 4753587056&#45;&gt;4755383072 -->
<g id="edge11" class="edge">
<title>4753587056-&gt;4755383072</title>
<path fill="none" stroke="#000000" d="M205.3501,-146.4551C205.3501,-138.3828 205.3501,-128.6764 205.3501,-119.6817"/>
<polygon fill="#000000" stroke="#000000" points="208.8502,-119.5903 205.3501,-109.5904 201.8502,-119.5904 208.8502,-119.5903"/>
</g>
<!-- 4755438896 -->
<g id="node11" class="node">
<title>4755438896</title>
<polygon fill="none" stroke="#000000" points="154.0034,-.5 154.0034,-36.5 256.6968,-36.5 256.6968,-.5 154.0034,-.5"/>
<text text-anchor="middle" x="205.3501" y="-14.3" font-family="Times,serif" font-size="14.00" fill="#000000">x_mean: Dense</text>
</g>
<!-- 4755383072&#45;&gt;4755438896 -->
<g id="edge12" class="edge">
<title>4755383072-&gt;4755438896</title>
<path fill="none" stroke="#000000" d="M205.3501,-73.4551C205.3501,-65.3828 205.3501,-55.6764 205.3501,-46.6817"/>
<polygon fill="#000000" stroke="#000000" points="208.8502,-46.5903 205.3501,-36.5904 201.8502,-46.5904 208.8502,-46.5903"/>
</g>
</g>
</svg>