<svg xmlns="http://www.w3.org/2000/svg" xmlns:xlink="http://www.w3.org/1999/xlink" viewBox="0.00 0.00 676.00 719.00" viewport="0 0 1203px 1280px">
<g id="graph0" class="graph" transform="scale(1 1) rotate(0) translate(4 715)">
<title>G</title>
<polygon fill="#ffffff" stroke="transparent" points="-4,4 -4,-715 672,-715 672,4 -4,4"/>
<!-- 140175855034552 -->
<g id="node1" class="node">
<title>140175855034552</title>
<polygon fill="none" stroke="#000000" points="230,-664.5 230,-710.5 513,-710.5 513,-664.5 230,-664.5"/>
<text text-anchor="middle" x="287" y="-683.8" font-family="Times,serif" font-size="14.00" fill="#000000">x: InputLayer</text>
<polyline fill="none" stroke="#000000" points="344,-664.5 344,-710.5 "/>
<text text-anchor="middle" x="378" y="-695.3" font-family="Times,serif" font-size="14.00" fill="#000000">input:</text>
<polyline fill="none" stroke="#000000" points="344,-687.5 412,-687.5 "/>
<text text-anchor="middle" x="378" y="-672.3" font-family="Times,serif" font-size="14.00" fill="#000000">output:</text>
<polyline fill="none" stroke="#000000" points="412,-664.5 412,-710.5 "/>
<text text-anchor="middle" x="462.5" y="-695.3" font-family="Times,serif" font-size="14.00" fill="#000000">(None, 784)</text>
<polyline fill="none" stroke="#000000" points="412,-687.5 513,-687.5 "/>
<text text-anchor="middle" x="462.5" y="-672.3" font-family="Times,serif" font-size="14.00" fill="#000000">(None, 784)</text>
</g>
<!-- 140175854580456 -->
<g id="node2" class="node">
<title>140175854580456</title>
<polygon fill="none" stroke="#000000" points="195,-581.5 195,-627.5 548,-627.5 548,-581.5 195,-581.5"/>
<text text-anchor="middle" x="287" y="-600.8" font-family="Times,serif" font-size="14.00" fill="#000000">encoder_hidden: Dense</text>
<polyline fill="none" stroke="#000000" points="379,-581.5 379,-627.5 "/>
<text text-anchor="middle" x="413" y="-612.3" font-family="Times,serif" font-size="14.00" fill="#000000">input:</text>
<polyline fill="none" stroke="#000000" points="379,-604.5 447,-604.5 "/>
<text text-anchor="middle" x="413" y="-589.3" font-family="Times,serif" font-size="14.00" fill="#000000">output:</text>
<polyline fill="none" stroke="#000000" points="447,-581.5 447,-627.5 "/>
<text text-anchor="middle" x="497.5" y="-612.3" font-family="Times,serif" font-size="14.00" fill="#000000">(None, 784)</text>
<polyline fill="none" stroke="#000000" points="447,-604.5 548,-604.5 "/>
<text text-anchor="middle" x="497.5" y="-589.3" font-family="Times,serif" font-size="14.00" fill="#000000">(None, 256)</text>
</g>
<!-- 140175855034552&#45;&gt;140175854580456 -->
<g id="edge1" class="edge">
<title>140175855034552-&gt;140175854580456</title>
<path fill="none" stroke="#000000" d="M371.5,-664.3799C371.5,-656.1745 371.5,-646.7679 371.5,-637.8786"/>
<polygon fill="#000000" stroke="#000000" points="375.0001,-637.784 371.5,-627.784 368.0001,-637.784 375.0001,-637.784"/>
</g>
<!-- 140175854580512 -->
<g id="node3" class="node">
<title>140175854580512</title>
<polygon fill="none" stroke="#000000" points="94,-498.5 94,-544.5 355,-544.5 355,-498.5 94,-498.5"/>
<text text-anchor="middle" x="140" y="-517.8" font-family="Times,serif" font-size="14.00" fill="#000000">mu: Dense</text>
<polyline fill="none" stroke="#000000" points="186,-498.5 186,-544.5 "/>
<text text-anchor="middle" x="220" y="-529.3" font-family="Times,serif" font-size="14.00" fill="#000000">input:</text>
<polyline fill="none" stroke="#000000" points="186,-521.5 254,-521.5 "/>
<text text-anchor="middle" x="220" y="-506.3" font-family="Times,serif" font-size="14.00" fill="#000000">output:</text>
<polyline fill="none" stroke="#000000" points="254,-498.5 254,-544.5 "/>
<text text-anchor="middle" x="304.5" y="-529.3" font-family="Times,serif" font-size="14.00" fill="#000000">(None, 256)</text>
<polyline fill="none" stroke="#000000" points="254,-521.5 355,-521.5 "/>
<text text-anchor="middle" x="304.5" y="-506.3" font-family="Times,serif" font-size="14.00" fill="#000000">(None, 2)</text>
</g>
<!-- 140175854580456&#45;&gt;140175854580512 -->
<g id="edge2" class="edge">
<title>140175854580456-&gt;140175854580512</title>
<path fill="none" stroke="#000000" d="M330.5523,-581.3799C313.1037,-571.5279 292.5878,-559.9442 274.2735,-549.6034"/>
<polygon fill="#000000" stroke="#000000" points="275.9115,-546.5089 265.4828,-544.6399 272.4698,-552.6044 275.9115,-546.5089"/>
</g>
<!-- 140175854581184 -->
<g id="node4" class="node">
<title>140175854581184</title>
<polygon fill="none" stroke="#000000" points="373,-498.5 373,-544.5 664,-544.5 664,-498.5 373,-498.5"/>
<text text-anchor="middle" x="434" y="-517.8" font-family="Times,serif" font-size="14.00" fill="#000000">log_var: Dense</text>
<polyline fill="none" stroke="#000000" points="495,-498.5 495,-544.5 "/>
<text text-anchor="middle" x="529" y="-529.3" font-family="Times,serif" font-size="14.00" fill="#000000">input:</text>
<polyline fill="none" stroke="#000000" points="495,-521.5 563,-521.5 "/>
<text text-anchor="middle" x="529" y="-506.3" font-family="Times,serif" font-size="14.00" fill="#000000">output:</text>
<polyline fill="none" stroke="#000000" points="563,-498.5 563,-544.5 "/>
<text text-anchor="middle" x="613.5" y="-529.3" font-family="Times,serif" font-size="14.00" fill="#000000">(None, 256)</text>
<polyline fill="none" stroke="#000000" points="563,-521.5 664,-521.5 "/>
<text text-anchor="middle" x="613.5" y="-506.3" font-family="Times,serif" font-size="14.00" fill="#000000">(None, 2)</text>
</g>
<!-- 140175854580456&#45;&gt;140175854581184 -->
<g id="edge3" class="edge">
<title>140175854580456-&gt;140175854581184</title>
<path fill="none" stroke="#000000" d="M412.4477,-581.3799C429.8963,-571.5279 450.4122,-559.9442 468.7265,-549.6034"/>
<polygon fill="#000000" stroke="#000000" points="470.5302,-552.6044 477.5172,-544.6399 467.0885,-546.5089 470.5302,-552.6044"/>
</g>
<!-- 140175854990168 -->
<g id="node5" class="node">
<title>140175854990168</title>
<polygon fill="none" stroke="#000000" points="161.5,-415.5 161.5,-461.5 581.5,-461.5 581.5,-415.5 161.5,-415.5"/>
<text text-anchor="middle" x="252.5" y="-434.8" font-family="Times,serif" font-size="14.00" fill="#000000">kl: KLDivergenceLayer</text>
<polyline fill="none" stroke="#000000" points="343.5,-415.5 343.5,-461.5 "/>
<text text-anchor="middle" x="377.5" y="-446.3" font-family="Times,serif" font-size="14.00" fill="#000000">input:</text>
<polyline fill="none" stroke="#000000" points="343.5,-438.5 411.5,-438.5 "/>
<text text-anchor="middle" x="377.5" y="-423.3" font-family="Times,serif" font-size="14.00" fill="#000000">output:</text>
<polyline fill="none" stroke="#000000" points="411.5,-415.5 411.5,-461.5 "/>
<text text-anchor="middle" x="496.5" y="-446.3" font-family="Times,serif" font-size="14.00" fill="#000000">[(None, 2), (None, 2)]</text>
<polyline fill="none" stroke="#000000" points="411.5,-438.5 581.5,-438.5 "/>
<text text-anchor="middle" x="496.5" y="-423.3" font-family="Times,serif" font-size="14.00" fill="#000000">[(None, 2), (None, 2)]</text>
</g>
<!-- 140175854580512&#45;&gt;140175854990168 -->
<g id="edge4" class="edge">
<title>140175854580512-&gt;140175854990168</title>
<path fill="none" stroke="#000000" d="M265.4477,-498.3799C282.8963,-488.5279 303.4122,-476.9442 321.7265,-466.6034"/>
<polygon fill="#000000" stroke="#000000" points="323.5302,-469.6044 330.5172,-461.6399 320.0885,-463.5089 323.5302,-469.6044"/>
</g>
<!-- 140175854581184&#45;&gt;140175854990168 -->
<g id="edge5" class="edge">
<title>140175854581184-&gt;140175854990168</title>
<path fill="none" stroke="#000000" d="M477.5523,-498.3799C460.1037,-488.5279 439.5878,-476.9442 421.2735,-466.6034"/>
<polygon fill="#000000" stroke="#000000" points="422.9115,-463.5089 412.4828,-461.6399 419.4698,-469.6044 422.9115,-463.5089"/>
</g>
<!-- 140176957339800 -->
<g id="node6" class="node">
<title>140176957339800</title>
<polygon fill="none" stroke="#000000" points="0,-332.5 0,-378.5 277,-378.5 277,-332.5 0,-332.5"/>
<text text-anchor="middle" x="63" y="-351.8" font-family="Times,serif" font-size="14.00" fill="#000000">sigma: Lambda</text>
<polyline fill="none" stroke="#000000" points="126,-332.5 126,-378.5 "/>
<text text-anchor="middle" x="160" y="-363.3" font-family="Times,serif" font-size="14.00" fill="#000000">input:</text>
<polyline fill="none" stroke="#000000" points="126,-355.5 194,-355.5 "/>
<text text-anchor="middle" x="160" y="-340.3" font-family="Times,serif" font-size="14.00" fill="#000000">output:</text>
<polyline fill="none" stroke="#000000" points="194,-332.5 194,-378.5 "/>
<text text-anchor="middle" x="235.5" y="-363.3" font-family="Times,serif" font-size="14.00" fill="#000000">(None, 2)</text>
<polyline fill="none" stroke="#000000" points="194,-355.5 277,-355.5 "/>
<text text-anchor="middle" x="235.5" y="-340.3" font-family="Times,serif" font-size="14.00" fill="#000000">(None, 2)</text>
</g>
<!-- 140175854990168&#45;&gt;140176957339800 -->
<g id="edge6" class="edge">
<title>140175854990168-&gt;140176957339800</title>
<path fill="none" stroke="#000000" d="M306.9059,-415.4901C277.7397,-405.1004 243.1176,-392.7672 212.8731,-381.9934"/>
<polygon fill="#000000" stroke="#000000" points="213.8144,-378.6134 203.2197,-378.5547 211.4654,-385.2075 213.8144,-378.6134"/>
</g>
<!-- 140175854993136 -->
<g id="node9" class="node">
<title>140175854993136</title>
<polygon fill="none" stroke="#000000" points="341.5,-166.5 341.5,-212.5 641.5,-212.5 641.5,-166.5 341.5,-166.5"/>
<text text-anchor="middle" x="372.5" y="-185.8" font-family="Times,serif" font-size="14.00" fill="#000000">z: Add</text>
<polyline fill="none" stroke="#000000" points="403.5,-166.5 403.5,-212.5 "/>
<text text-anchor="middle" x="437.5" y="-197.3" font-family="Times,serif" font-size="14.00" fill="#000000">input:</text>
<polyline fill="none" stroke="#000000" points="403.5,-189.5 471.5,-189.5 "/>
<text text-anchor="middle" x="437.5" y="-174.3" font-family="Times,serif" font-size="14.00" fill="#000000">output:</text>
<polyline fill="none" stroke="#000000" points="471.5,-166.5 471.5,-212.5 "/>
<text text-anchor="middle" x="556.5" y="-197.3" font-family="Times,serif" font-size="14.00" fill="#000000">[(None, 2), (None, 2)]</text>
<polyline fill="none" stroke="#000000" points="471.5,-189.5 641.5,-189.5 "/>
<text text-anchor="middle" x="556.5" y="-174.3" font-family="Times,serif" font-size="14.00" fill="#000000">(None, 2)</text>
</g>
<!-- 140175854990168&#45;&gt;140175854993136 -->
<g id="edge9" class="edge">
<title>140175854990168-&gt;140175854993136</title>
<path fill="none" stroke="#000000" d="M504.1267,-415.4536C541.5042,-406.1117 575.1263,-393.9488 586.5,-379 621.4849,-333.0182 614.485,-299.5481 586.5,-249 579.6735,-236.6696 569.1065,-226.5538 557.4616,-218.3865"/>
<polygon fill="#000000" stroke="#000000" points="559.1226,-215.2919 548.8299,-212.7799 555.3096,-221.1623 559.1226,-215.2919"/>
</g>
<!-- 140175854990000 -->
<g id="node8" class="node">
<title>140175854990000</title>
<polygon fill="none" stroke="#000000" points="179,-249.5 179,-295.5 578,-295.5 578,-249.5 179,-249.5"/>
<text text-anchor="middle" x="259.5" y="-268.8" font-family="Times,serif" font-size="14.00" fill="#000000">sigma_eps: Multiply</text>
<polyline fill="none" stroke="#000000" points="340,-249.5 340,-295.5 "/>
<text text-anchor="middle" x="374" y="-280.3" font-family="Times,serif" font-size="14.00" fill="#000000">input:</text>
<polyline fill="none" stroke="#000000" points="340,-272.5 408,-272.5 "/>
<text text-anchor="middle" x="374" y="-257.3" font-family="Times,serif" font-size="14.00" fill="#000000">output:</text>
<polyline fill="none" stroke="#000000" points="408,-249.5 408,-295.5 "/>
<text text-anchor="middle" x="493" y="-280.3" font-family="Times,serif" font-size="14.00" fill="#000000">[(None, 2), (None, 2)]</text>
<polyline fill="none" stroke="#000000" points="408,-272.5 578,-272.5 "/>
<text text-anchor="middle" x="493" y="-257.3" font-family="Times,serif" font-size="14.00" fill="#000000">(None, 2)</text>
</g>
<!-- 140176957339800&#45;&gt;140175854990000 -->
<g id="edge7" class="edge">
<title>140176957339800-&gt;140175854990000</title>
<path fill="none" stroke="#000000" d="M205.0347,-332.4901C235.2072,-322.0554 271.0482,-309.6604 302.2969,-298.8536"/>
<polygon fill="#000000" stroke="#000000" points="303.5291,-302.1309 311.8359,-295.5547 301.2411,-295.5154 303.5291,-302.1309"/>
</g>
<!-- 140175854990224 -->
<g id="node7" class="node">
<title>140175854990224</title>
<polygon fill="none" stroke="#000000" points="295.5,-332.5 295.5,-378.5 577.5,-378.5 577.5,-332.5 295.5,-332.5"/>
<text text-anchor="middle" x="361" y="-351.8" font-family="Times,serif" font-size="14.00" fill="#000000">eps: InputLayer</text>
<polyline fill="none" stroke="#000000" points="426.5,-332.5 426.5,-378.5 "/>
<text text-anchor="middle" x="460.5" y="-363.3" font-family="Times,serif" font-size="14.00" fill="#000000">input:</text>
<polyline fill="none" stroke="#000000" points="426.5,-355.5 494.5,-355.5 "/>
<text text-anchor="middle" x="460.5" y="-340.3" font-family="Times,serif" font-size="14.00" fill="#000000">output:</text>
<polyline fill="none" stroke="#000000" points="494.5,-332.5 494.5,-378.5 "/>
<text text-anchor="middle" x="536" y="-363.3" font-family="Times,serif" font-size="14.00" fill="#000000">(None, 2)</text>
<polyline fill="none" stroke="#000000" points="494.5,-355.5 577.5,-355.5 "/>
<text text-anchor="middle" x="536" y="-340.3" font-family="Times,serif" font-size="14.00" fill="#000000">(None, 2)</text>
</g>
<!-- 140175854990224&#45;&gt;140175854990000 -->
<g id="edge8" class="edge">
<title>140175854990224-&gt;140175854990000</title>
<path fill="none" stroke="#000000" d="M420.3438,-332.3799C414.236,-323.6394 407.1756,-313.5358 400.6144,-304.1465"/>
<polygon fill="#000000" stroke="#000000" points="403.3677,-301.9762 394.7708,-295.784 397.6298,-305.9858 403.3677,-301.9762"/>
</g>
<!-- 140175854990000&#45;&gt;140175854993136 -->
<g id="edge10" class="edge">
<title>140175854990000-&gt;140175854993136</title>
<path fill="none" stroke="#000000" d="M409.9768,-249.3799C422.8479,-239.9259 437.8901,-228.8772 451.5246,-218.8625"/>
<polygon fill="#000000" stroke="#000000" points="453.8125,-221.5247 459.8001,-212.784 449.6686,-215.883 453.8125,-221.5247"/>
</g>
<!-- 140175847490392 -->
<g id="node10" class="node">
<title>140175847490392</title>
<polygon fill="none" stroke="#000000" points="315,-83.5 315,-129.5 668,-129.5 668,-83.5 315,-83.5"/>
<text text-anchor="middle" x="407" y="-102.8" font-family="Times,serif" font-size="14.00" fill="#000000">decoder_hidden: Dense</text>
<polyline fill="none" stroke="#000000" points="499,-83.5 499,-129.5 "/>
<text text-anchor="middle" x="533" y="-114.3" font-family="Times,serif" font-size="14.00" fill="#000000">input:</text>
<polyline fill="none" stroke="#000000" points="499,-106.5 567,-106.5 "/>
<text text-anchor="middle" x="533" y="-91.3" font-family="Times,serif" font-size="14.00" fill="#000000">output:</text>
<polyline fill="none" stroke="#000000" points="567,-83.5 567,-129.5 "/>
<text text-anchor="middle" x="617.5" y="-114.3" font-family="Times,serif" font-size="14.00" fill="#000000">(None, 2)</text>
<polyline fill="none" stroke="#000000" points="567,-106.5 668,-106.5 "/>
<text text-anchor="middle" x="617.5" y="-91.3" font-family="Times,serif" font-size="14.00" fill="#000000">(None, 256)</text>
</g>
<!-- 140175854993136&#45;&gt;140175847490392 -->
<g id="edge11" class="edge">
<title>140175854993136-&gt;140175847490392</title>
<path fill="none" stroke="#000000" d="M491.5,-166.3799C491.5,-158.1745 491.5,-148.7679 491.5,-139.8786"/>
<polygon fill="#000000" stroke="#000000" points="495.0001,-139.784 491.5,-129.784 488.0001,-139.784 495.0001,-139.784"/>
</g>
<!-- 140175853700600 -->
<g id="node11" class="node">
<title>140175853700600</title>
<polygon fill="none" stroke="#000000" points="344.5,-.5 344.5,-46.5 638.5,-46.5 638.5,-.5 344.5,-.5"/>
<text text-anchor="middle" x="407" y="-19.8" font-family="Times,serif" font-size="14.00" fill="#000000">x_mean: Dense</text>
<polyline fill="none" stroke="#000000" points="469.5,-.5 469.5,-46.5 "/>
<text text-anchor="middle" x="503.5" y="-31.3" font-family="Times,serif" font-size="14.00" fill="#000000">input:</text>
<polyline fill="none" stroke="#000000" points="469.5,-23.5 537.5,-23.5 "/>
<text text-anchor="middle" x="503.5" y="-8.3" font-family="Times,serif" font-size="14.00" fill="#000000">output:</text>
<polyline fill="none" stroke="#000000" points="537.5,-.5 537.5,-46.5 "/>
<text text-anchor="middle" x="588" y="-31.3" font-family="Times,serif" font-size="14.00" fill="#000000">(None, 256)</text>
<polyline fill="none" stroke="#000000" points="537.5,-23.5 638.5,-23.5 "/>
<text text-anchor="middle" x="588" y="-8.3" font-family="Times,serif" font-size="14.00" fill="#000000">(None, 784)</text>
</g>
<!-- 140175847490392&#45;&gt;140175853700600 -->
<g id="edge12" class="edge">
<title>140175847490392-&gt;140175853700600</title>
<path fill="none" stroke="#000000" d="M491.5,-83.3799C491.5,-75.1745 491.5,-65.7679 491.5,-56.8786"/>
<polygon fill="#000000" stroke="#000000" points="495.0001,-56.784 491.5,-46.784 488.0001,-56.784 495.0001,-56.784"/>
</g>
</g>
</svg>