<svg xmlns="http://www.w3.org/2000/svg" xmlns:xlink="http://www.w3.org/1999/xlink" viewBox="0.00 0.00 577.56 701.00" viewport="0 0 329px 400px">
<g id="graph0" class="graph" transform="scale(1 1) rotate(0) translate(4 697)">
<title>G</title>
<polygon fill="#ffffff" stroke="transparent" points="-4,4 -4,-697 573.5591,-697 573.5591,4 -4,4"/>
<!-- 4674957264 -->
<g id="node1" class="node">
<title>4674957264</title>
<polygon fill="none" stroke="#000000" points="200.0586,-648.5 200.0586,-692.5 431.959,-692.5 431.959,-648.5 200.0586,-648.5"/>
<text text-anchor="middle" x="246.3501" y="-666.3" font-family="Times,serif" font-size="14.00" fill="#000000">x: InputLayer</text>
<polyline fill="none" stroke="#000000" points="292.6416,-648.5 292.6416,-692.5 "/>
<text text-anchor="middle" x="320.4761" y="-677.3" font-family="Times,serif" font-size="14.00" fill="#000000">input:</text>
<polyline fill="none" stroke="#000000" points="292.6416,-670.5 348.3105,-670.5 "/>
<text text-anchor="middle" x="320.4761" y="-655.3" font-family="Times,serif" font-size="14.00" fill="#000000">output:</text>
<polyline fill="none" stroke="#000000" points="348.3105,-648.5 348.3105,-692.5 "/>
<text text-anchor="middle" x="390.1348" y="-677.3" font-family="Times,serif" font-size="14.00" fill="#000000">(None, 784)</text>
<polyline fill="none" stroke="#000000" points="348.3105,-670.5 431.959,-670.5 "/>
<text text-anchor="middle" x="390.1348" y="-655.3" font-family="Times,serif" font-size="14.00" fill="#000000">(None, 784)</text>
</g>
<!-- 4674024504 -->
<g id="node2" class="node">
<title>4674024504</title>
<polygon fill="none" stroke="#000000" points="172.4585,-567.5 172.4585,-611.5 459.5591,-611.5 459.5591,-567.5 172.4585,-567.5"/>
<text text-anchor="middle" x="246.3501" y="-585.3" font-family="Times,serif" font-size="14.00" fill="#000000">encoder_hidden: Dense</text>
<polyline fill="none" stroke="#000000" points="320.2417,-567.5 320.2417,-611.5 "/>
<text text-anchor="middle" x="348.0762" y="-596.3" font-family="Times,serif" font-size="14.00" fill="#000000">input:</text>
<polyline fill="none" stroke="#000000" points="320.2417,-589.5 375.9106,-589.5 "/>
<text text-anchor="middle" x="348.0762" y="-574.3" font-family="Times,serif" font-size="14.00" fill="#000000">output:</text>
<polyline fill="none" stroke="#000000" points="375.9106,-567.5 375.9106,-611.5 "/>
<text text-anchor="middle" x="417.7349" y="-596.3" font-family="Times,serif" font-size="14.00" fill="#000000">(None, 784)</text>
<polyline fill="none" stroke="#000000" points="375.9106,-589.5 459.5591,-589.5 "/>
<text text-anchor="middle" x="417.7349" y="-574.3" font-family="Times,serif" font-size="14.00" fill="#000000">(None, 256)</text>
</g>
<!-- 4674957264&#45;&gt;4674024504 -->
<g id="edge1" class="edge">
<title>4674957264-&gt;4674024504</title>
<path fill="none" stroke="#000000" d="M316.0088,-648.3664C316.0088,-640.1516 316.0088,-630.6579 316.0088,-621.7252"/>
<polygon fill="#000000" stroke="#000000" points="319.5089,-621.6068 316.0088,-611.6068 312.5089,-621.6069 319.5089,-621.6068"/>
</g>
<!-- 4674956480 -->
<g id="node3" class="node">
<title>4674956480</title>
<polygon fill="none" stroke="#000000" points="85.2173,-486.5 85.2173,-530.5 300.8003,-530.5 300.8003,-486.5 85.2173,-486.5"/>
<text text-anchor="middle" x="123.3501" y="-504.3" font-family="Times,serif" font-size="14.00" fill="#000000">mu: Dense</text>
<polyline fill="none" stroke="#000000" points="161.4829,-486.5 161.4829,-530.5 "/>
<text text-anchor="middle" x="189.3174" y="-515.3" font-family="Times,serif" font-size="14.00" fill="#000000">input:</text>
<polyline fill="none" stroke="#000000" points="161.4829,-508.5 217.1519,-508.5 "/>
<text text-anchor="middle" x="189.3174" y="-493.3" font-family="Times,serif" font-size="14.00" fill="#000000">output:</text>
<polyline fill="none" stroke="#000000" points="217.1519,-486.5 217.1519,-530.5 "/>
<text text-anchor="middle" x="258.9761" y="-515.3" font-family="Times,serif" font-size="14.00" fill="#000000">(None, 256)</text>
<polyline fill="none" stroke="#000000" points="217.1519,-508.5 300.8003,-508.5 "/>
<text text-anchor="middle" x="258.9761" y="-493.3" font-family="Times,serif" font-size="14.00" fill="#000000">(None, 2)</text>
</g>
<!-- 4674024504&#45;&gt;4674956480 -->
<g id="edge2" class="edge">
<title>4674024504-&gt;4674956480</title>
<path fill="none" stroke="#000000" d="M282.3985,-567.3664C267.7548,-557.723 250.4347,-546.3171 234.9581,-536.1252"/>
<polygon fill="#000000" stroke="#000000" points="236.8551,-533.1837 226.5784,-530.6068 233.0052,-539.0299 236.8551,-533.1837"/>
</g>
<!-- 4674956928 -->
<g id="node4" class="node">
<title>4674956928</title>
<polygon fill="none" stroke="#000000" points="318.7793,-486.5 318.7793,-530.5 559.2383,-530.5 559.2383,-486.5 318.7793,-486.5"/>
<text text-anchor="middle" x="369.3501" y="-504.3" font-family="Times,serif" font-size="14.00" fill="#000000">log_var: Dense</text>
<polyline fill="none" stroke="#000000" points="419.9209,-486.5 419.9209,-530.5 "/>
<text text-anchor="middle" x="447.7554" y="-515.3" font-family="Times,serif" font-size="14.00" fill="#000000">input:</text>
<polyline fill="none" stroke="#000000" points="419.9209,-508.5 475.5898,-508.5 "/>
<text text-anchor="middle" x="447.7554" y="-493.3" font-family="Times,serif" font-size="14.00" fill="#000000">output:</text>
<polyline fill="none" stroke="#000000" points="475.5898,-486.5 475.5898,-530.5 "/>
<text text-anchor="middle" x="517.4141" y="-515.3" font-family="Times,serif" font-size="14.00" fill="#000000">(None, 256)</text>
<polyline fill="none" stroke="#000000" points="475.5898,-508.5 559.2383,-508.5 "/>
<text text-anchor="middle" x="517.4141" y="-493.3" font-family="Times,serif" font-size="14.00" fill="#000000">(None, 2)</text>
</g>
<!-- 4674024504&#45;&gt;4674956928 -->
<g id="edge3" class="edge">
<title>4674024504-&gt;4674956928</title>
<path fill="none" stroke="#000000" d="M349.6191,-567.3664C364.2628,-557.723 381.5829,-546.3171 397.0594,-536.1252"/>
<polygon fill="#000000" stroke="#000000" points="399.0124,-539.0299 405.4391,-530.6068 395.1624,-533.1837 399.0124,-539.0299"/>
</g>
<!-- 4675737472 -->
<g id="node5" class="node">
<title>4675737472</title>
<polygon fill="none" stroke="#000000" points="143.4365,-405.5 143.4365,-449.5 488.5811,-449.5 488.5811,-405.5 143.4365,-405.5"/>
<text text-anchor="middle" x="218.3638" y="-423.3" font-family="Times,serif" font-size="14.00" fill="#000000">kl: KLDivergenceLayer</text>
<polyline fill="none" stroke="#000000" points="293.291,-405.5 293.291,-449.5 "/>
<text text-anchor="middle" x="321.1255" y="-434.3" font-family="Times,serif" font-size="14.00" fill="#000000">input:</text>
<polyline fill="none" stroke="#000000" points="293.291,-427.5 348.96,-427.5 "/>
<text text-anchor="middle" x="321.1255" y="-412.3" font-family="Times,serif" font-size="14.00" fill="#000000">output:</text>
<polyline fill="none" stroke="#000000" points="348.96,-405.5 348.96,-449.5 "/>
<text text-anchor="middle" x="418.7705" y="-434.3" font-family="Times,serif" font-size="14.00" fill="#000000">[(None, 2), (None, 2)]</text>
<polyline fill="none" stroke="#000000" points="348.96,-427.5 488.5811,-427.5 "/>
<text text-anchor="middle" x="418.7705" y="-412.3" font-family="Times,serif" font-size="14.00" fill="#000000">[(None, 2), (None, 2)]</text>
</g>
<!-- 4674956480&#45;&gt;4675737472 -->
<g id="edge4" class="edge">
<title>4674956480-&gt;4675737472</title>
<path fill="none" stroke="#000000" d="M226.6191,-486.3664C241.2628,-476.723 258.5829,-465.3171 274.0594,-455.1252"/>
<polygon fill="#000000" stroke="#000000" points="276.0124,-458.0299 282.4391,-449.6068 272.1624,-452.1837 276.0124,-458.0299"/>
</g>
<!-- 4674956928&#45;&gt;4675737472 -->
<g id="edge5" class="edge">
<title>4674956928-&gt;4675737472</title>
<path fill="none" stroke="#000000" d="M405.3985,-486.3664C390.7548,-476.723 373.4347,-465.3171 357.9581,-455.1252"/>
<polygon fill="#000000" stroke="#000000" points="359.8551,-452.1837 349.5784,-449.6068 356.0052,-458.0299 359.8551,-452.1837"/>
</g>
<!-- 4676384024 -->
<g id="node6" class="node">
<title>4676384024</title>
<polygon fill="none" stroke="#000000" points="0,-324.5 0,-368.5 228.0176,-368.5 228.0176,-324.5 0,-324.5"/>
<text text-anchor="middle" x="51.3501" y="-342.3" font-family="Times,serif" font-size="14.00" fill="#000000">sigma: Lambda</text>
<polyline fill="none" stroke="#000000" points="102.7002,-324.5 102.7002,-368.5 "/>
<text text-anchor="middle" x="130.5347" y="-353.3" font-family="Times,serif" font-size="14.00" fill="#000000">input:</text>
<polyline fill="none" stroke="#000000" points="102.7002,-346.5 158.3691,-346.5 "/>
<text text-anchor="middle" x="130.5347" y="-331.3" font-family="Times,serif" font-size="14.00" fill="#000000">output:</text>
<polyline fill="none" stroke="#000000" points="158.3691,-324.5 158.3691,-368.5 "/>
<text text-anchor="middle" x="193.1934" y="-353.3" font-family="Times,serif" font-size="14.00" fill="#000000">(None, 2)</text>
<polyline fill="none" stroke="#000000" points="158.3691,-346.5 228.0176,-346.5 "/>
<text text-anchor="middle" x="193.1934" y="-331.3" font-family="Times,serif" font-size="14.00" fill="#000000">(None, 2)</text>
</g>
<!-- 4675737472&#45;&gt;4676384024 -->
<g id="edge6" class="edge">
<title>4675737472-&gt;4676384024</title>
<path fill="none" stroke="#000000" d="M261.0782,-405.4734C235.5859,-395.2512 205.1102,-383.0308 178.5289,-372.3719"/>
<polygon fill="#000000" stroke="#000000" points="179.5127,-368.9956 168.9284,-368.5222 176.9074,-375.4927 179.5127,-368.9956"/>
</g>
<!-- 4675939408 -->
<g id="node9" class="node">
<title>4675939408</title>
<polygon fill="none" stroke="#000000" points="287.8896,-162.5 287.8896,-206.5 550.1279,-206.5 550.1279,-162.5 287.8896,-162.5"/>
<text text-anchor="middle" x="314.3638" y="-180.3" font-family="Times,serif" font-size="14.00" fill="#000000">z: Add</text>
<polyline fill="none" stroke="#000000" points="340.8379,-162.5 340.8379,-206.5 "/>
<text text-anchor="middle" x="368.6724" y="-191.3" font-family="Times,serif" font-size="14.00" fill="#000000">input:</text>
<polyline fill="none" stroke="#000000" points="340.8379,-184.5 396.5068,-184.5 "/>
<text text-anchor="middle" x="368.6724" y="-169.3" font-family="Times,serif" font-size="14.00" fill="#000000">output:</text>
<polyline fill="none" stroke="#000000" points="396.5068,-162.5 396.5068,-206.5 "/>
<text text-anchor="middle" x="473.3174" y="-191.3" font-family="Times,serif" font-size="14.00" fill="#000000">[(None, 2), (None, 5, 2)]</text>
<polyline fill="none" stroke="#000000" points="396.5068,-184.5 550.1279,-184.5 "/>
<text text-anchor="middle" x="472.8311" y="-169.3" font-family="Times,serif" font-size="14.00" fill="#000000">(None, 5, 2)</text>
</g>
<!-- 4675737472&#45;&gt;4675939408 -->
<g id="edge9" class="edge">
<title>4675737472-&gt;4675939408</title>
<path fill="none" stroke="#000000" d="M420.1291,-405.4882C455.4173,-395.7606 488.584,-383.2771 499.0088,-369 532.0324,-323.7734 524.3555,-292.9354 499.0088,-243 492.927,-231.0183 483.1111,-220.9028 472.4053,-212.63"/>
<polygon fill="#000000" stroke="#000000" points="474.2569,-209.6507 464.0921,-206.6625 470.1748,-215.3373 474.2569,-209.6507"/>
</g>
<!-- 4674196984 -->
<g id="node8" class="node">
<title>4674196984</title>
<polygon fill="none" stroke="#000000" points="149.6138,-243.5 149.6138,-287.5 490.4038,-287.5 490.4038,-243.5 149.6138,-243.5"/>
<text text-anchor="middle" x="215.3638" y="-261.3" font-family="Times,serif" font-size="14.00" fill="#000000">sigma_eps: Multiply</text>
<polyline fill="none" stroke="#000000" points="281.1138,-243.5 281.1138,-287.5 "/>
<text text-anchor="middle" x="308.9482" y="-272.3" font-family="Times,serif" font-size="14.00" fill="#000000">input:</text>
<polyline fill="none" stroke="#000000" points="281.1138,-265.5 336.7827,-265.5 "/>
<text text-anchor="middle" x="308.9482" y="-250.3" font-family="Times,serif" font-size="14.00" fill="#000000">output:</text>
<polyline fill="none" stroke="#000000" points="336.7827,-243.5 336.7827,-287.5 "/>
<text text-anchor="middle" x="413.5933" y="-272.3" font-family="Times,serif" font-size="14.00" fill="#000000">[(None, 2), (None, 5, 2)]</text>
<polyline fill="none" stroke="#000000" points="336.7827,-265.5 490.4038,-265.5 "/>
<text text-anchor="middle" x="413.1069" y="-250.3" font-family="Times,serif" font-size="14.00" fill="#000000">(None, 5, 2)</text>
</g>
<!-- 4676384024&#45;&gt;4674196984 -->
<g id="edge7" class="edge">
<title>4676384024-&gt;4674196984</title>
<path fill="none" stroke="#000000" d="M170.0271,-324.4734C196.1383,-314.2064 227.3761,-301.9235 254.5675,-291.2318"/>
<polygon fill="#000000" stroke="#000000" points="255.976,-294.4389 264.0016,-287.5222 253.4144,-287.9244 255.976,-294.4389"/>
</g>
<!-- 4675737304 -->
<g id="node7" class="node">
<title>4675737304</title>
<polygon fill="none" stroke="#000000" points="246.2275,-324.5 246.2275,-368.5 489.79,-368.5 489.79,-324.5 246.2275,-324.5"/>
<text text-anchor="middle" x="298.3501" y="-342.3" font-family="Times,serif" font-size="14.00" fill="#000000">eps: InputLayer</text>
<polyline fill="none" stroke="#000000" points="350.4727,-324.5 350.4727,-368.5 "/>
<text text-anchor="middle" x="378.3071" y="-353.3" font-family="Times,serif" font-size="14.00" fill="#000000">input:</text>
<polyline fill="none" stroke="#000000" points="350.4727,-346.5 406.1416,-346.5 "/>
<text text-anchor="middle" x="378.3071" y="-331.3" font-family="Times,serif" font-size="14.00" fill="#000000">output:</text>
<polyline fill="none" stroke="#000000" points="406.1416,-324.5 406.1416,-368.5 "/>
<text text-anchor="middle" x="447.9658" y="-353.3" font-family="Times,serif" font-size="14.00" fill="#000000">(None, 5, 2)</text>
<polyline fill="none" stroke="#000000" points="406.1416,-346.5 489.79,-346.5 "/>
<text text-anchor="middle" x="447.9658" y="-331.3" font-family="Times,serif" font-size="14.00" fill="#000000">(None, 5, 2)</text>
</g>
<!-- 4675737304&#45;&gt;4674196984 -->
<g id="edge8" class="edge">
<title>4675737304-&gt;4674196984</title>
<path fill="none" stroke="#000000" d="M354.8926,-324.3664C349.76,-315.7052 343.7849,-305.6222 338.2452,-296.274"/>
<polygon fill="#000000" stroke="#000000" points="341.2182,-294.4254 333.1091,-287.6068 335.1962,-297.9941 341.2182,-294.4254"/>
</g>
<!-- 4674196984&#45;&gt;4675939408 -->
<g id="edge10" class="edge">
<title>4674196984-&gt;4675939408</title>
<path fill="none" stroke="#000000" d="M347.061,-243.3664C358.5199,-233.9909 372.0151,-222.9494 384.2033,-212.9773"/>
<polygon fill="#000000" stroke="#000000" points="386.4661,-215.6481 391.9893,-206.6068 382.0334,-210.2304 386.4661,-215.6481"/>
</g>
<!-- 4674116128 -->
<g id="node10" class="node">
<title>4674116128</title>
<polygon fill="none" stroke="#000000" points="268.4585,-81.5 268.4585,-125.5 569.5591,-125.5 569.5591,-81.5 268.4585,-81.5"/>
<text text-anchor="middle" x="342.3501" y="-99.3" font-family="Times,serif" font-size="14.00" fill="#000000">decoder_hidden: Dense</text>
<polyline fill="none" stroke="#000000" points="416.2417,-81.5 416.2417,-125.5 "/>
<text text-anchor="middle" x="444.0762" y="-110.3" font-family="Times,serif" font-size="14.00" fill="#000000">input:</text>
<polyline fill="none" stroke="#000000" points="416.2417,-103.5 471.9106,-103.5 "/>
<text text-anchor="middle" x="444.0762" y="-88.3" font-family="Times,serif" font-size="14.00" fill="#000000">output:</text>
<polyline fill="none" stroke="#000000" points="471.9106,-81.5 471.9106,-125.5 "/>
<text text-anchor="middle" x="520.7349" y="-110.3" font-family="Times,serif" font-size="14.00" fill="#000000">(None, 5, 2)</text>
<polyline fill="none" stroke="#000000" points="471.9106,-103.5 569.5591,-103.5 "/>
<text text-anchor="middle" x="520.7349" y="-88.3" font-family="Times,serif" font-size="14.00" fill="#000000">(None, 5, 256)</text>
</g>
<!-- 4675939408&#45;&gt;4674116128 -->
<g id="edge11" class="edge">
<title>4675939408-&gt;4674116128</title>
<path fill="none" stroke="#000000" d="M419.0088,-162.3664C419.0088,-154.1516 419.0088,-144.6579 419.0088,-135.7252"/>
<polygon fill="#000000" stroke="#000000" points="422.5089,-135.6068 419.0088,-125.6068 415.5089,-135.6069 422.5089,-135.6068"/>
</g>
<!-- 4674247816 -->
<g id="node11" class="node">
<title>4674247816</title>
<polygon fill="none" stroke="#000000" points="291.0034,-.5 291.0034,-44.5 547.0142,-44.5 547.0142,-.5 291.0034,-.5"/>
<text text-anchor="middle" x="342.3501" y="-18.3" font-family="Times,serif" font-size="14.00" fill="#000000">x_mean: Dense</text>
<polyline fill="none" stroke="#000000" points="393.6968,-.5 393.6968,-44.5 "/>
<text text-anchor="middle" x="421.5313" y="-29.3" font-family="Times,serif" font-size="14.00" fill="#000000">input:</text>
<polyline fill="none" stroke="#000000" points="393.6968,-22.5 449.3657,-22.5 "/>
<text text-anchor="middle" x="421.5313" y="-7.3" font-family="Times,serif" font-size="14.00" fill="#000000">output:</text>
<polyline fill="none" stroke="#000000" points="449.3657,-.5 449.3657,-44.5 "/>
<text text-anchor="middle" x="498.1899" y="-29.3" font-family="Times,serif" font-size="14.00" fill="#000000">(None, 5, 256)</text>
<polyline fill="none" stroke="#000000" points="449.3657,-22.5 547.0142,-22.5 "/>
<text text-anchor="middle" x="498.1899" y="-7.3" font-family="Times,serif" font-size="14.00" fill="#000000">(None, 5, 784)</text>
</g>
<!-- 4674116128&#45;&gt;4674247816 -->
<g id="edge12" class="edge">
<title>4674116128-&gt;4674247816</title>
<path fill="none" stroke="#000000" d="M419.0088,-81.3664C419.0088,-73.1516 419.0088,-63.6579 419.0088,-54.7252"/>
<polygon fill="#000000" stroke="#000000" points="422.5089,-54.6068 419.0088,-44.6068 415.5089,-54.6069 422.5089,-54.6068"/>
</g>
</g>
</svg>