<?xml version="1.0" encoding="UTF-8" standalone="no"?>
<!DOCTYPE svg PUBLIC "-//W3C//DTD SVG 1.1//EN"
 "http://www.w3.org/Graphics/SVG/1.1/DTD/svg11.dtd">
<!-- Generated by graphviz version 2.38.0 (20140413.2041)
 -->
<!-- Title: G Pages: 1 -->
<svg width="580pt" height="719pt"
 viewBox="0.00 0.00 579.50 719.00" xmlns="http://www.w3.org/2000/svg" xmlns:xlink="http://www.w3.org/1999/xlink">
<g id="graph0" class="graph" transform="scale(1 1) rotate(0) translate(4 715)">
<title>G</title>
<polygon fill="white" stroke="none" points="-4,4 -4,-715 575.5,-715 575.5,4 -4,4"/>
<!-- 140393154758472 -->
<g id="node1" class="node"><title>140393154758472</title>
<polygon fill="none" stroke="black" points="201.5,-664.5 201.5,-710.5 430.5,-710.5 430.5,-664.5 201.5,-664.5"/>
<text text-anchor="middle" x="247" y="-683.8" font-family="Times,serif" font-size="14.00">x: InputLayer</text>
<polyline fill="none" stroke="black" points="292.5,-664.5 292.5,-710.5 "/>
<text text-anchor="middle" x="320" y="-695.3" font-family="Times,serif" font-size="14.00">input:</text>
<polyline fill="none" stroke="black" points="292.5,-687.5 347.5,-687.5 "/>
<text text-anchor="middle" x="320" y="-672.3" font-family="Times,serif" font-size="14.00">output:</text>
<polyline fill="none" stroke="black" points="347.5,-664.5 347.5,-710.5 "/>
<text text-anchor="middle" x="389" y="-695.3" font-family="Times,serif" font-size="14.00">(None, 784)</text>
<polyline fill="none" stroke="black" points="347.5,-687.5 430.5,-687.5 "/>
<text text-anchor="middle" x="389" y="-672.3" font-family="Times,serif" font-size="14.00">(None, 784)</text>
</g>
<!-- 140393154684184 -->
<g id="node2" class="node"><title>140393154684184</title>
<polygon fill="none" stroke="black" points="175,-581.5 175,-627.5 457,-627.5 457,-581.5 175,-581.5"/>
<text text-anchor="middle" x="247" y="-600.8" font-family="Times,serif" font-size="14.00">encoder_hidden: Dense</text>
<polyline fill="none" stroke="black" points="319,-581.5 319,-627.5 "/>
<text text-anchor="middle" x="346.5" y="-612.3" font-family="Times,serif" font-size="14.00">input:</text>
<polyline fill="none" stroke="black" points="319,-604.5 374,-604.5 "/>
<text text-anchor="middle" x="346.5" y="-589.3" font-family="Times,serif" font-size="14.00">output:</text>
<polyline fill="none" stroke="black" points="374,-581.5 374,-627.5 "/>
<text text-anchor="middle" x="415.5" y="-612.3" font-family="Times,serif" font-size="14.00">(None, 784)</text>
<polyline fill="none" stroke="black" points="374,-604.5 457,-604.5 "/>
<text text-anchor="middle" x="415.5" y="-589.3" font-family="Times,serif" font-size="14.00">(None, 256)</text>
</g>
<!-- 140393154758472&#45;&gt;140393154684184 -->
<g id="edge1" class="edge"><title>140393154758472&#45;&gt;140393154684184</title>
<path fill="none" stroke="black" d="M316,-664.366C316,-656.152 316,-646.658 316,-637.725"/>
<polygon fill="black" stroke="black" points="319.5,-637.607 316,-627.607 312.5,-637.607 319.5,-637.607"/>
</g>
<!-- 140393154757632 -->
<g id="node3" class="node"><title>140393154757632</title>
<polygon fill="none" stroke="black" points="87,-498.5 87,-544.5 301,-544.5 301,-498.5 87,-498.5"/>
<text text-anchor="middle" x="125" y="-517.8" font-family="Times,serif" font-size="14.00">mu: Dense</text>
<polyline fill="none" stroke="black" points="163,-498.5 163,-544.5 "/>
<text text-anchor="middle" x="190.5" y="-529.3" font-family="Times,serif" font-size="14.00">input:</text>
<polyline fill="none" stroke="black" points="163,-521.5 218,-521.5 "/>
<text text-anchor="middle" x="190.5" y="-506.3" font-family="Times,serif" font-size="14.00">output:</text>
<polyline fill="none" stroke="black" points="218,-498.5 218,-544.5 "/>
<text text-anchor="middle" x="259.5" y="-529.3" font-family="Times,serif" font-size="14.00">(None, 256)</text>
<polyline fill="none" stroke="black" points="218,-521.5 301,-521.5 "/>
<text text-anchor="middle" x="259.5" y="-506.3" font-family="Times,serif" font-size="14.00">(None, 2)</text>
</g>
<!-- 140393154684184&#45;&gt;140393154757632 -->
<g id="edge2" class="edge"><title>140393154684184&#45;&gt;140393154757632</title>
<path fill="none" stroke="black" d="M282.663,-581.366C268.273,-571.812 251.277,-560.528 236.035,-550.409"/>
<polygon fill="black" stroke="black" points="237.564,-547.222 227.297,-544.607 233.692,-553.054 237.564,-547.222"/>
</g>
<!-- 140393154756960 -->
<g id="node4" class="node"><title>140393154756960</title>
<polygon fill="none" stroke="black" points="319.5,-498.5 319.5,-544.5 556.5,-544.5 556.5,-498.5 319.5,-498.5"/>
<text text-anchor="middle" x="369" y="-517.8" font-family="Times,serif" font-size="14.00">log_var: Dense</text>
<polyline fill="none" stroke="black" points="418.5,-498.5 418.5,-544.5 "/>
<text text-anchor="middle" x="446" y="-529.3" font-family="Times,serif" font-size="14.00">input:</text>
<polyline fill="none" stroke="black" points="418.5,-521.5 473.5,-521.5 "/>
<text text-anchor="middle" x="446" y="-506.3" font-family="Times,serif" font-size="14.00">output:</text>
<polyline fill="none" stroke="black" points="473.5,-498.5 473.5,-544.5 "/>
<text text-anchor="middle" x="515" y="-529.3" font-family="Times,serif" font-size="14.00">(None, 256)</text>
<polyline fill="none" stroke="black" points="473.5,-521.5 556.5,-521.5 "/>
<text text-anchor="middle" x="515" y="-506.3" font-family="Times,serif" font-size="14.00">(None, 2)</text>
</g>
<!-- 140393154684184&#45;&gt;140393154756960 -->
<g id="edge3" class="edge"><title>140393154684184&#45;&gt;140393154756960</title>
<path fill="none" stroke="black" d="M349.337,-581.366C363.727,-571.812 380.723,-560.528 395.965,-550.409"/>
<polygon fill="black" stroke="black" points="398.308,-553.054 404.703,-544.607 394.436,-547.222 398.308,-553.054"/>
</g>
<!-- 140393154114728 -->
<g id="node5" class="node"><title>140393154114728</title>
<polygon fill="none" stroke="black" points="146.5,-415.5 146.5,-461.5 485.5,-461.5 485.5,-415.5 146.5,-415.5"/>
<text text-anchor="middle" x="219.5" y="-434.8" font-family="Times,serif" font-size="14.00">kl: KLDivergenceLayer</text>
<polyline fill="none" stroke="black" points="292.5,-415.5 292.5,-461.5 "/>
<text text-anchor="middle" x="320" y="-446.3" font-family="Times,serif" font-size="14.00">input:</text>
<polyline fill="none" stroke="black" points="292.5,-438.5 347.5,-438.5 "/>
<text text-anchor="middle" x="320" y="-423.3" font-family="Times,serif" font-size="14.00">output:</text>
<polyline fill="none" stroke="black" points="347.5,-415.5 347.5,-461.5 "/>
<text text-anchor="middle" x="416.5" y="-446.3" font-family="Times,serif" font-size="14.00">[(None, 2), (None, 2)]</text>
<polyline fill="none" stroke="black" points="347.5,-438.5 485.5,-438.5 "/>
<text text-anchor="middle" x="416.5" y="-423.3" font-family="Times,serif" font-size="14.00">[(None, 2), (None, 2)]</text>
</g>
<!-- 140393154757632&#45;&gt;140393154114728 -->
<g id="edge4" class="edge"><title>140393154757632&#45;&gt;140393154114728</title>
<path fill="none" stroke="black" d="M227.337,-498.366C241.727,-488.812 258.723,-477.528 273.965,-467.409"/>
<polygon fill="black" stroke="black" points="276.308,-470.054 282.703,-461.607 272.436,-464.222 276.308,-470.054"/>
</g>
<!-- 140393154756960&#45;&gt;140393154114728 -->
<g id="edge5" class="edge"><title>140393154756960&#45;&gt;140393154114728</title>
<path fill="none" stroke="black" d="M404.663,-498.366C390.273,-488.812 373.277,-477.528 358.035,-467.409"/>
<polygon fill="black" stroke="black" points="359.564,-464.222 349.297,-461.607 355.692,-470.054 359.564,-464.222"/>
</g>
<!-- 140393154739336 -->
<g id="node6" class="node"><title>140393154739336</title>
<polygon fill="none" stroke="black" points="0,-332.5 0,-378.5 226,-378.5 226,-332.5 0,-332.5"/>
<text text-anchor="middle" x="51" y="-351.8" font-family="Times,serif" font-size="14.00">sigma: Lambda</text>
<polyline fill="none" stroke="black" points="102,-332.5 102,-378.5 "/>
<text text-anchor="middle" x="129.5" y="-363.3" font-family="Times,serif" font-size="14.00">input:</text>
<polyline fill="none" stroke="black" points="102,-355.5 157,-355.5 "/>
<text text-anchor="middle" x="129.5" y="-340.3" font-family="Times,serif" font-size="14.00">output:</text>
<polyline fill="none" stroke="black" points="157,-332.5 157,-378.5 "/>
<text text-anchor="middle" x="191.5" y="-363.3" font-family="Times,serif" font-size="14.00">(None, 2)</text>
<polyline fill="none" stroke="black" points="157,-355.5 226,-355.5 "/>
<text text-anchor="middle" x="191.5" y="-340.3" font-family="Times,serif" font-size="14.00">(None, 2)</text>
</g>
<!-- 140393154114728&#45;&gt;140393154739336 -->
<g id="edge6" class="edge"><title>140393154114728&#45;&gt;140393154739336</title>
<path fill="none" stroke="black" d="M260.797,-415.473C235.067,-405.206 204.284,-392.924 177.488,-382.232"/>
<polygon fill="black" stroke="black" points="178.777,-378.978 168.192,-378.522 176.182,-385.479 178.777,-378.978"/>
</g>
<!-- 140393154125496 -->
<g id="node9" class="node"><title>140393154125496</title>
<polygon fill="none" stroke="black" points="286.5,-166.5 286.5,-212.5 553.5,-212.5 553.5,-166.5 286.5,-166.5"/>
<text text-anchor="middle" x="313" y="-185.8" font-family="Times,serif" font-size="14.00">z: Add</text>
<polyline fill="none" stroke="black" points="339.5,-166.5 339.5,-212.5 "/>
<text text-anchor="middle" x="367" y="-197.3" font-family="Times,serif" font-size="14.00">input:</text>
<polyline fill="none" stroke="black" points="339.5,-189.5 394.5,-189.5 "/>
<text text-anchor="middle" x="367" y="-174.3" font-family="Times,serif" font-size="14.00">output:</text>
<polyline fill="none" stroke="black" points="394.5,-166.5 394.5,-212.5 "/>
<text text-anchor="middle" x="474" y="-197.3" font-family="Times,serif" font-size="14.00">[(None, 2), (None, 25, 2)]</text>
<polyline fill="none" stroke="black" points="394.5,-189.5 553.5,-189.5 "/>
<text text-anchor="middle" x="474" y="-174.3" font-family="Times,serif" font-size="14.00">(None, 25, 2)</text>
</g>
<!-- 140393154114728&#45;&gt;140393154125496 -->
<g id="edge9" class="edge"><title>140393154114728&#45;&gt;140393154125496</title>
<path fill="none" stroke="black" d="M453.819,-415.34C471.837,-406.764 488.129,-395.027 500,-379 534.39,-332.569 527.304,-300.445 501,-249 494.833,-236.939 484.891,-226.792 474.051,-218.515"/>
<polygon fill="black" stroke="black" points="475.816,-215.476 465.634,-212.548 471.768,-221.187 475.816,-215.476"/>
</g>
<!-- 140393154060640 -->
<g id="node8" class="node"><title>140393154060640</title>
<polygon fill="none" stroke="black" points="148,-249.5 148,-295.5 492,-295.5 492,-249.5 148,-249.5"/>
<text text-anchor="middle" x="213" y="-268.8" font-family="Times,serif" font-size="14.00">sigma_eps: Multiply</text>
<polyline fill="none" stroke="black" points="278,-249.5 278,-295.5 "/>
<text text-anchor="middle" x="305.5" y="-280.3" font-family="Times,serif" font-size="14.00">input:</text>
<polyline fill="none" stroke="black" points="278,-272.5 333,-272.5 "/>
<text text-anchor="middle" x="305.5" y="-257.3" font-family="Times,serif" font-size="14.00">output:</text>
<polyline fill="none" stroke="black" points="333,-249.5 333,-295.5 "/>
<text text-anchor="middle" x="412.5" y="-280.3" font-family="Times,serif" font-size="14.00">[(None, 2), (None, 25, 2)]</text>
<polyline fill="none" stroke="black" points="333,-272.5 492,-272.5 "/>
<text text-anchor="middle" x="412.5" y="-257.3" font-family="Times,serif" font-size="14.00">(None, 25, 2)</text>
</g>
<!-- 140393154739336&#45;&gt;140393154060640 -->
<g id="edge7" class="edge"><title>140393154739336&#45;&gt;140393154060640</title>
<path fill="none" stroke="black" d="M169.29,-332.473C195.528,-322.206 226.918,-309.924 254.241,-299.232"/>
<polygon fill="black" stroke="black" points="255.684,-302.426 263.721,-295.522 253.133,-295.907 255.684,-302.426"/>
</g>
<!-- 140393154060808 -->
<g id="node7" class="node"><title>140393154060808</title>
<polygon fill="none" stroke="black" points="244.5,-332.5 244.5,-378.5 491.5,-378.5 491.5,-332.5 244.5,-332.5"/>
<text text-anchor="middle" x="295.5" y="-351.8" font-family="Times,serif" font-size="14.00">eps: InputLayer</text>
<polyline fill="none" stroke="black" points="346.5,-332.5 346.5,-378.5 "/>
<text text-anchor="middle" x="374" y="-363.3" font-family="Times,serif" font-size="14.00">input:</text>
<polyline fill="none" stroke="black" points="346.5,-355.5 401.5,-355.5 "/>
<text text-anchor="middle" x="374" y="-340.3" font-family="Times,serif" font-size="14.00">output:</text>
<polyline fill="none" stroke="black" points="401.5,-332.5 401.5,-378.5 "/>
<text text-anchor="middle" x="446.5" y="-363.3" font-family="Times,serif" font-size="14.00">(None, 25, 2)</text>
<polyline fill="none" stroke="black" points="401.5,-355.5 491.5,-355.5 "/>
<text text-anchor="middle" x="446.5" y="-340.3" font-family="Times,serif" font-size="14.00">(None, 25, 2)</text>
</g>
<!-- 140393154060808&#45;&gt;140393154060640 -->
<g id="edge8" class="edge"><title>140393154060808&#45;&gt;140393154060640</title>
<path fill="none" stroke="black" d="M354.884,-332.366C349.751,-323.705 343.776,-313.622 338.236,-304.274"/>
<polygon fill="black" stroke="black" points="341.209,-302.425 333.1,-295.607 335.187,-305.994 341.209,-302.425"/>
</g>
<!-- 140393154060640&#45;&gt;140393154125496 -->
<g id="edge10" class="edge"><title>140393154060640&#45;&gt;140393154125496</title>
<path fill="none" stroke="black" d="M347.325,-249.366C358.9,-239.991 372.532,-228.949 384.843,-218.977"/>
<polygon fill="black" stroke="black" points="387.14,-221.621 392.708,-212.607 382.734,-216.181 387.14,-221.621"/>
</g>
<!-- 140393155130872 -->
<g id="node10" class="node"><title>140393155130872</title>
<polygon fill="none" stroke="black" points="268.5,-83.5 268.5,-129.5 571.5,-129.5 571.5,-83.5 268.5,-83.5"/>
<text text-anchor="middle" x="340.5" y="-102.8" font-family="Times,serif" font-size="14.00">decoder_hidden: Dense</text>
<polyline fill="none" stroke="black" points="412.5,-83.5 412.5,-129.5 "/>
<text text-anchor="middle" x="440" y="-114.3" font-family="Times,serif" font-size="14.00">input:</text>
<polyline fill="none" stroke="black" points="412.5,-106.5 467.5,-106.5 "/>
<text text-anchor="middle" x="440" y="-91.3" font-family="Times,serif" font-size="14.00">output:</text>
<polyline fill="none" stroke="black" points="467.5,-83.5 467.5,-129.5 "/>
<text text-anchor="middle" x="519.5" y="-114.3" font-family="Times,serif" font-size="14.00">(None, 25, 2)</text>
<polyline fill="none" stroke="black" points="467.5,-106.5 571.5,-106.5 "/>
<text text-anchor="middle" x="519.5" y="-91.3" font-family="Times,serif" font-size="14.00">(None, 25, 256)</text>
</g>
<!-- 140393154125496&#45;&gt;140393155130872 -->
<g id="edge11" class="edge"><title>140393154125496&#45;&gt;140393155130872</title>
<path fill="none" stroke="black" d="M420,-166.366C420,-158.152 420,-148.658 420,-139.725"/>
<polygon fill="black" stroke="black" points="423.5,-139.607 420,-129.607 416.5,-139.607 423.5,-139.607"/>
</g>
<!-- 140393153423680 -->
<g id="node11" class="node"><title>140393153423680</title>
<polygon fill="none" stroke="black" points="290,-0.5 290,-46.5 550,-46.5 550,-0.5 290,-0.5"/>
<text text-anchor="middle" x="340.5" y="-19.8" font-family="Times,serif" font-size="14.00">x_mean: Dense</text>
<polyline fill="none" stroke="black" points="391,-0.5 391,-46.5 "/>
<text text-anchor="middle" x="418.5" y="-31.3" font-family="Times,serif" font-size="14.00">input:</text>
<polyline fill="none" stroke="black" points="391,-23.5 446,-23.5 "/>
<text text-anchor="middle" x="418.5" y="-8.3" font-family="Times,serif" font-size="14.00">output:</text>
<polyline fill="none" stroke="black" points="446,-0.5 446,-46.5 "/>
<text text-anchor="middle" x="498" y="-31.3" font-family="Times,serif" font-size="14.00">(None, 25, 256)</text>
<polyline fill="none" stroke="black" points="446,-23.5 550,-23.5 "/>
<text text-anchor="middle" x="498" y="-8.3" font-family="Times,serif" font-size="14.00">(None, 25, 784)</text>
</g>
<!-- 140393155130872&#45;&gt;140393153423680 -->
<g id="edge12" class="edge"><title>140393155130872&#45;&gt;140393153423680</title>
<path fill="none" stroke="black" d="M420,-83.3664C420,-75.1516 420,-65.6579 420,-56.7252"/>
<polygon fill="black" stroke="black" points="423.5,-56.6068 420,-46.6068 416.5,-56.6069 423.5,-56.6068"/>
</g>
</g>
</svg>
