<svg xmlns="http://www.w3.org/2000/svg" xmlns:xlink="http://www.w3.org/1999/xlink" viewBox="0.00 0.00 349.00 629.00" viewport="0 0 221px 400px">
<g id="graph0" class="graph" transform="scale(1 1) rotate(0) translate(4 625)">
<title>G</title>
<polygon fill="#ffffff" stroke="transparent" points="-4,4 -4,-625 345,-625 345,4 -4,4"/>
<!-- 140175855034552 -->
<g id="node1" class="node">
<title>140175855034552</title>
<polygon fill="none" stroke="#000000" points="126,-584.5 126,-620.5 240,-620.5 240,-584.5 126,-584.5"/>
<text text-anchor="middle" x="183" y="-598.8" font-family="Times,serif" font-size="14.00" fill="#000000">x: InputLayer</text>
</g>
<!-- 140175854580456 -->
<g id="node2" class="node">
<title>140175854580456</title>
<polygon fill="none" stroke="#000000" points="91,-511.5 91,-547.5 275,-547.5 275,-511.5 91,-511.5"/>
<text text-anchor="middle" x="183" y="-525.8" font-family="Times,serif" font-size="14.00" fill="#000000">encoder_hidden: Dense</text>
</g>
<!-- 140175855034552&#45;&gt;140175854580456 -->
<g id="edge1" class="edge">
<title>140175855034552-&gt;140175854580456</title>
<path fill="none" stroke="#000000" d="M183,-584.4551C183,-576.3828 183,-566.6764 183,-557.6817"/>
<polygon fill="#000000" stroke="#000000" points="186.5001,-557.5903 183,-547.5904 179.5001,-557.5904 186.5001,-557.5903"/>
</g>
<!-- 140175854580512 -->
<g id="node3" class="node">
<title>140175854580512</title>
<polygon fill="none" stroke="#000000" points="75,-438.5 75,-474.5 167,-474.5 167,-438.5 75,-438.5"/>
<text text-anchor="middle" x="121" y="-452.8" font-family="Times,serif" font-size="14.00" fill="#000000">mu: Dense</text>
</g>
<!-- 140175854580456&#45;&gt;140175854580512 -->
<g id="edge2" class="edge">
<title>140175854580456-&gt;140175854580512</title>
<path fill="none" stroke="#000000" d="M167.6742,-511.4551C160.2221,-502.6809 151.1302,-491.9759 142.9573,-482.353"/>
<polygon fill="#000000" stroke="#000000" points="145.5056,-479.9466 136.3644,-474.5904 140.1702,-484.4781 145.5056,-479.9466"/>
</g>
<!-- 140175854581184 -->
<g id="node4" class="node">
<title>140175854581184</title>
<polygon fill="none" stroke="#000000" points="185,-438.5 185,-474.5 307,-474.5 307,-438.5 185,-438.5"/>
<text text-anchor="middle" x="246" y="-452.8" font-family="Times,serif" font-size="14.00" fill="#000000">log_var: Dense</text>
</g>
<!-- 140175854580456&#45;&gt;140175854581184 -->
<g id="edge3" class="edge">
<title>140175854580456-&gt;140175854581184</title>
<path fill="none" stroke="#000000" d="M198.573,-511.4551C206.1452,-502.6809 215.3838,-491.9759 223.6885,-482.353"/>
<polygon fill="#000000" stroke="#000000" points="226.5039,-484.4477 230.3878,-474.5904 221.2045,-479.8742 226.5039,-484.4477"/>
</g>
<!-- 140175854990168 -->
<g id="node5" class="node">
<title>140175854990168</title>
<polygon fill="none" stroke="#000000" points="92,-365.5 92,-401.5 274,-401.5 274,-365.5 92,-365.5"/>
<text text-anchor="middle" x="183" y="-379.8" font-family="Times,serif" font-size="14.00" fill="#000000">kl: KLDivergenceLayer</text>
</g>
<!-- 140175854580512&#45;&gt;140175854990168 -->
<g id="edge4" class="edge">
<title>140175854580512-&gt;140175854990168</title>
<path fill="none" stroke="#000000" d="M136.3258,-438.4551C143.7779,-429.6809 152.8698,-418.9759 161.0427,-409.353"/>
<polygon fill="#000000" stroke="#000000" points="163.8298,-411.4781 167.6356,-401.5904 158.4944,-406.9466 163.8298,-411.4781"/>
</g>
<!-- 140175854581184&#45;&gt;140175854990168 -->
<g id="edge5" class="edge">
<title>140175854581184-&gt;140175854990168</title>
<path fill="none" stroke="#000000" d="M230.427,-438.4551C222.8548,-429.6809 213.6162,-418.9759 205.3115,-409.353"/>
<polygon fill="#000000" stroke="#000000" points="207.7955,-406.8742 198.6122,-401.5904 202.4961,-411.4477 207.7955,-406.8742"/>
</g>
<!-- 140176957339800 -->
<g id="node6" class="node">
<title>140176957339800</title>
<polygon fill="none" stroke="#000000" points="0,-292.5 0,-328.5 126,-328.5 126,-292.5 0,-292.5"/>
<text text-anchor="middle" x="63" y="-306.8" font-family="Times,serif" font-size="14.00" fill="#000000">sigma: Lambda</text>
</g>
<!-- 140175854990168&#45;&gt;140176957339800 -->
<g id="edge6" class="edge">
<title>140175854990168-&gt;140176957339800</title>
<path fill="none" stroke="#000000" d="M153.3371,-365.4551C137.76,-355.979 118.4807,-344.2508 101.7383,-334.0658"/>
<polygon fill="#000000" stroke="#000000" points="103.1,-330.7974 92.7376,-328.5904 99.4619,-336.7778 103.1,-330.7974"/>
</g>
<!-- 140175854993136 -->
<g id="node9" class="node">
<title>140175854993136</title>
<polygon fill="none" stroke="#000000" points="218,-146.5 218,-182.5 280,-182.5 280,-146.5 218,-146.5"/>
<text text-anchor="middle" x="249" y="-160.8" font-family="Times,serif" font-size="14.00" fill="#000000">z: Add</text>
</g>
<!-- 140175854990168&#45;&gt;140175854993136 -->
<g id="edge9" class="edge">
<title>140175854990168-&gt;140175854993136</title>
<path fill="none" stroke="#000000" d="M240.5572,-365.4931C257.5454,-357.1963 274.1989,-345.4258 284,-329 309.051,-287.017 297.766,-265.9108 284,-219 281.133,-209.23 275.9155,-199.5532 270.3689,-191.1259"/>
<polygon fill="#000000" stroke="#000000" points="273.1652,-189.0175 264.5544,-182.8446 267.4363,-193.0399 273.1652,-189.0175"/>
</g>
<!-- 140175854990000 -->
<g id="node8" class="node">
<title>140175854990000</title>
<polygon fill="none" stroke="#000000" points="114.5,-219.5 114.5,-255.5 275.5,-255.5 275.5,-219.5 114.5,-219.5"/>
<text text-anchor="middle" x="195" y="-233.8" font-family="Times,serif" font-size="14.00" fill="#000000">sigma_eps: Multiply</text>
</g>
<!-- 140176957339800&#45;&gt;140175854990000 -->
<g id="edge7" class="edge">
<title>140176957339800-&gt;140175854990000</title>
<path fill="none" stroke="#000000" d="M95.6292,-292.4551C113.0814,-282.8035 134.758,-270.8156 153.4081,-260.5016"/>
<polygon fill="#000000" stroke="#000000" points="155.2316,-263.4928 162.2887,-255.5904 151.8439,-257.3671 155.2316,-263.4928"/>
</g>
<!-- 140175854990224 -->
<g id="node7" class="node">
<title>140175854990224</title>
<polygon fill="none" stroke="#000000" points="144.5,-292.5 144.5,-328.5 275.5,-328.5 275.5,-292.5 144.5,-292.5"/>
<text text-anchor="middle" x="210" y="-306.8" font-family="Times,serif" font-size="14.00" fill="#000000">eps: InputLayer</text>
</g>
<!-- 140175854990224&#45;&gt;140175854990000 -->
<g id="edge8" class="edge">
<title>140175854990224-&gt;140175854990000</title>
<path fill="none" stroke="#000000" d="M206.2921,-292.4551C204.6154,-284.2951 202.5956,-274.4652 200.7306,-265.3887"/>
<polygon fill="#000000" stroke="#000000" points="204.1584,-264.6812 198.7172,-255.5904 197.3016,-266.0902 204.1584,-264.6812"/>
</g>
<!-- 140175854990000&#45;&gt;140175854993136 -->
<g id="edge10" class="edge">
<title>140175854990000-&gt;140175854993136</title>
<path fill="none" stroke="#000000" d="M208.3483,-219.4551C214.7739,-210.7686 222.5993,-200.1898 229.6621,-190.642"/>
<polygon fill="#000000" stroke="#000000" points="232.4849,-192.7113 235.6181,-182.5904 226.8572,-188.5484 232.4849,-192.7113"/>
</g>
<!-- 140175847490392 -->
<g id="node10" class="node">
<title>140175847490392</title>
<polygon fill="none" stroke="#000000" points="157,-73.5 157,-109.5 341,-109.5 341,-73.5 157,-73.5"/>
<text text-anchor="middle" x="249" y="-87.8" font-family="Times,serif" font-size="14.00" fill="#000000">decoder_hidden: Dense</text>
</g>
<!-- 140175854993136&#45;&gt;140175847490392 -->
<g id="edge11" class="edge">
<title>140175854993136-&gt;140175847490392</title>
<path fill="none" stroke="#000000" d="M249,-146.4551C249,-138.3828 249,-128.6764 249,-119.6817"/>
<polygon fill="#000000" stroke="#000000" points="252.5001,-119.5903 249,-109.5904 245.5001,-119.5904 252.5001,-119.5903"/>
</g>
<!-- 140175853700600 -->
<g id="node11" class="node">
<title>140175853700600</title>
<polygon fill="none" stroke="#000000" points="186.5,-.5 186.5,-36.5 311.5,-36.5 311.5,-.5 186.5,-.5"/>
<text text-anchor="middle" x="249" y="-14.8" font-family="Times,serif" font-size="14.00" fill="#000000">x_mean: Dense</text>
</g>
<!-- 140175847490392&#45;&gt;140175853700600 -->
<g id="edge12" class="edge">
<title>140175847490392-&gt;140175853700600</title>
<path fill="none" stroke="#000000" d="M249,-73.4551C249,-65.3828 249,-55.6764 249,-46.6817"/>
<polygon fill="#000000" stroke="#000000" points="252.5001,-46.5903 249,-36.5904 245.5001,-46.5904 252.5001,-46.5903"/>
</g>
</g>
</svg>