<?xml version="1.0" encoding="UTF-8" standalone="no"?>
<!DOCTYPE svg PUBLIC "-//W3C//DTD SVG 1.1//EN"
 "http://www.w3.org/Graphics/SVG/1.1/DTD/svg11.dtd">
<!-- Generated by graphviz version 2.40.1 (20161225.0304)
 -->
<!-- Title: G Pages: 1 -->
<svg width="805pt" height="221pt"
 viewBox="0.00 0.00 804.50 221.00" xmlns="http://www.w3.org/2000/svg" xmlns:xlink="http://www.w3.org/1999/xlink">
<g id="graph0" class="graph" transform="scale(1 1) rotate(0) translate(4 217)">
<title>G</title>
<polygon fill="#ffffff" stroke="transparent" points="-4,4 -4,-217 800.5,-217 800.5,4 -4,4"/>
<!-- 139943949801232 -->
<g id="node1" class="node">
<title>139943949801232</title>
<polygon fill="none" stroke="#000000" points="0,-166.5 0,-212.5 300,-212.5 300,-166.5 0,-166.5"/>
<text text-anchor="middle" x="74.5" y="-185.8" font-family="Times,serif" font-size="14.00" fill="#000000">sigma: InputLayer</text>
<polyline fill="none" stroke="#000000" points="149,-166.5 149,-212.5 "/>
<text text-anchor="middle" x="183" y="-197.3" font-family="Times,serif" font-size="14.00" fill="#000000">input:</text>
<polyline fill="none" stroke="#000000" points="149,-189.5 217,-189.5 "/>
<text text-anchor="middle" x="183" y="-174.3" font-family="Times,serif" font-size="14.00" fill="#000000">output:</text>
<polyline fill="none" stroke="#000000" points="217,-166.5 217,-212.5 "/>
<text text-anchor="middle" x="258.5" y="-197.3" font-family="Times,serif" font-size="14.00" fill="#000000">(None, 2)</text>
<polyline fill="none" stroke="#000000" points="217,-189.5 300,-189.5 "/>
<text text-anchor="middle" x="258.5" y="-174.3" font-family="Times,serif" font-size="14.00" fill="#000000">(None, 2)</text>
</g>
<!-- 139943950365192 -->
<g id="node4" class="node">
<title>139943950365192</title>
<polygon fill="none" stroke="#000000" points="118.5,-83.5 118.5,-129.5 499.5,-129.5 499.5,-83.5 118.5,-83.5"/>
<text text-anchor="middle" x="181" y="-102.8" font-family="Times,serif" font-size="14.00" fill="#000000">z_eps: Multiply</text>
<polyline fill="none" stroke="#000000" points="243.5,-83.5 243.5,-129.5 "/>
<text text-anchor="middle" x="277.5" y="-114.3" font-family="Times,serif" font-size="14.00" fill="#000000">input:</text>
<polyline fill="none" stroke="#000000" points="243.5,-106.5 311.5,-106.5 "/>
<text text-anchor="middle" x="277.5" y="-91.3" font-family="Times,serif" font-size="14.00" fill="#000000">output:</text>
<polyline fill="none" stroke="#000000" points="311.5,-83.5 311.5,-129.5 "/>
<text text-anchor="middle" x="405.5" y="-114.3" font-family="Times,serif" font-size="14.00" fill="#000000">[(None, 2), (None, 5, 2)]</text>
<polyline fill="none" stroke="#000000" points="311.5,-106.5 499.5,-106.5 "/>
<text text-anchor="middle" x="405.5" y="-91.3" font-family="Times,serif" font-size="14.00" fill="#000000">(None, 5, 2)</text>
</g>
<!-- 139943949801232&#45;&gt;139943950365192 -->
<g id="edge1" class="edge">
<title>139943949801232&#45;&gt;139943950365192</title>
<path fill="none" stroke="#000000" d="M194.2904,-166.3799C213.3349,-156.4384 235.7577,-144.7334 255.703,-134.3217"/>
<polygon fill="#000000" stroke="#000000" points="257.4265,-137.3703 264.6717,-129.6399 254.1871,-131.1649 257.4265,-137.3703"/>
</g>
<!-- 139943950052544 -->
<g id="node2" class="node">
<title>139943950052544</title>
<polygon fill="none" stroke="#000000" points="318,-166.5 318,-212.5 618,-212.5 618,-166.5 318,-166.5"/>
<text text-anchor="middle" x="383.5" y="-185.8" font-family="Times,serif" font-size="14.00" fill="#000000">eps: InputLayer</text>
<polyline fill="none" stroke="#000000" points="449,-166.5 449,-212.5 "/>
<text text-anchor="middle" x="483" y="-197.3" font-family="Times,serif" font-size="14.00" fill="#000000">input:</text>
<polyline fill="none" stroke="#000000" points="449,-189.5 517,-189.5 "/>
<text text-anchor="middle" x="483" y="-174.3" font-family="Times,serif" font-size="14.00" fill="#000000">output:</text>
<polyline fill="none" stroke="#000000" points="517,-166.5 517,-212.5 "/>
<text text-anchor="middle" x="567.5" y="-197.3" font-family="Times,serif" font-size="14.00" fill="#000000">(None, 5, 2)</text>
<polyline fill="none" stroke="#000000" points="517,-189.5 618,-189.5 "/>
<text text-anchor="middle" x="567.5" y="-174.3" font-family="Times,serif" font-size="14.00" fill="#000000">(None, 5, 2)</text>
</g>
<!-- 139943950052544&#45;&gt;139943950365192 -->
<g id="edge2" class="edge">
<title>139943950052544&#45;&gt;139943950365192</title>
<path fill="none" stroke="#000000" d="M423.7096,-166.3799C404.6651,-156.4384 382.2423,-144.7334 362.297,-134.3217"/>
<polygon fill="#000000" stroke="#000000" points="363.8129,-131.1649 353.3283,-129.6399 360.5735,-137.3703 363.8129,-131.1649"/>
</g>
<!-- 139943950052600 -->
<g id="node3" class="node">
<title>139943950052600</title>
<polygon fill="none" stroke="#000000" points="517.5,-83.5 517.5,-129.5 796.5,-129.5 796.5,-83.5 517.5,-83.5"/>
<text text-anchor="middle" x="581.5" y="-102.8" font-family="Times,serif" font-size="14.00" fill="#000000">mu: InputLayer</text>
<polyline fill="none" stroke="#000000" points="645.5,-83.5 645.5,-129.5 "/>
<text text-anchor="middle" x="679.5" y="-114.3" font-family="Times,serif" font-size="14.00" fill="#000000">input:</text>
<polyline fill="none" stroke="#000000" points="645.5,-106.5 713.5,-106.5 "/>
<text text-anchor="middle" x="679.5" y="-91.3" font-family="Times,serif" font-size="14.00" fill="#000000">output:</text>
<polyline fill="none" stroke="#000000" points="713.5,-83.5 713.5,-129.5 "/>
<text text-anchor="middle" x="755" y="-114.3" font-family="Times,serif" font-size="14.00" fill="#000000">(None, 2)</text>
<polyline fill="none" stroke="#000000" points="713.5,-106.5 796.5,-106.5 "/>
<text text-anchor="middle" x="755" y="-91.3" font-family="Times,serif" font-size="14.00" fill="#000000">(None, 2)</text>
</g>
<!-- 139943950365304 -->
<g id="node5" class="node">
<title>139943950365304</title>
<polygon fill="none" stroke="#000000" points="324,-.5 324,-46.5 642,-46.5 642,-.5 324,-.5"/>
<text text-anchor="middle" x="355" y="-19.8" font-family="Times,serif" font-size="14.00" fill="#000000">z: Add</text>
<polyline fill="none" stroke="#000000" points="386,-.5 386,-46.5 "/>
<text text-anchor="middle" x="420" y="-31.3" font-family="Times,serif" font-size="14.00" fill="#000000">input:</text>
<polyline fill="none" stroke="#000000" points="386,-23.5 454,-23.5 "/>
<text text-anchor="middle" x="420" y="-8.3" font-family="Times,serif" font-size="14.00" fill="#000000">output:</text>
<polyline fill="none" stroke="#000000" points="454,-.5 454,-46.5 "/>
<text text-anchor="middle" x="548" y="-31.3" font-family="Times,serif" font-size="14.00" fill="#000000">[(None, 2), (None, 5, 2)]</text>
<polyline fill="none" stroke="#000000" points="454,-23.5 642,-23.5 "/>
<text text-anchor="middle" x="548" y="-8.3" font-family="Times,serif" font-size="14.00" fill="#000000">(None, 5, 2)</text>
</g>
<!-- 139943950052600&#45;&gt;139943950365304 -->
<g id="edge3" class="edge">
<title>139943950052600&#45;&gt;139943950365304</title>
<path fill="none" stroke="#000000" d="M608.5313,-83.3799C587.5023,-73.3488 562.7095,-61.5224 540.7358,-51.0406"/>
<polygon fill="#000000" stroke="#000000" points="542.0429,-47.7864 531.5103,-46.6399 539.0291,-54.1044 542.0429,-47.7864"/>
</g>
<!-- 139943950365192&#45;&gt;139943950365304 -->
<g id="edge4" class="edge">
<title>139943950365192&#45;&gt;139943950365304</title>
<path fill="none" stroke="#000000" d="M357.4687,-83.3799C378.4977,-73.3488 403.2905,-61.5224 425.2642,-51.0406"/>
<polygon fill="#000000" stroke="#000000" points="426.9709,-54.1044 434.4897,-46.6399 423.9571,-47.7864 426.9709,-54.1044"/>
</g>
</g>
</svg>
